<?xml version="1.0" encoding="utf-8"?>
<!-- Generator: Adobe Illustrator 25.2.1, SVG Export Plug-In . SVG Version: 6.00 Build 0)  -->
<svg version="1.1" id="Слой_1" xmlns="http://www.w3.org/2000/svg" xmlns:xlink="http://www.w3.org/1999/xlink" x="0px" y="0px"
	 viewBox="0 0 368.5 102" style="enable-background:new 0 0 368.5 102;" xml:space="preserve">
<style type="text/css">
	.st0{fill-rule:evenodd;clip-rule:evenodd;fill:#299400;}
	.st1{fill-rule:evenodd;clip-rule:evenodd;fill:#FFFFFF;}
	.st2{fill-rule:evenodd;clip-rule:evenodd;fill:#262626;}
</style>
<g>
	<ellipse transform="matrix(0.3951 -0.9186 0.9186 0.3951 -15.933 77.3713)" class="st0" cx="50.8" cy="50.8" rx="50.8" ry="50.8"/>
	<path class="st1" d="M50.8,15.9c17.5,0,29.3,13.4,29.3,27.9c0,5.8-1.3,10.9-4.2,17.2c-17.4,0-20.5,11.5-21.3,19.3l-0.5,5.4l-6.6,0
		L47,80.3C46.2,72.6,43.1,61,25.7,61c-3-6.3-4.2-11.4-4.2-17.2C21.5,29.3,33.3,15.9,50.8,15.9L50.8,15.9z"/>
	<path class="st2" d="M147.3,15.9c-16.5,0-28.9,10.1-28.8,27.5h15.3c-0.2-7,4.2-13.8,13.4-13.8c7,0,11.4,4.7,11.4,10.6
		c0,6.1-4.9,9.5-12.7,13.3c-10.3,5-16.4,7.3-27.5,11l0,20.1h55V70.9h-34.3c5.3-2.2,10.5-4.6,15.1-6.9c12.4-5.9,19.7-12.6,19.7-24.5
		C174,25.1,163.2,15.9,147.3,15.9L147.3,15.9z M197.8,30.7h31.7V16.9H183v67.7l14.8,0V30.7L197.8,30.7z M251.8,16.9H237v67.7l14.7,0
		l27.6-43.3v43.3h14.8V16.9h-14.8l-27.5,43.3V16.9L251.8,16.9z M368.5,59.2h-15.3c-2.3,7.5-9.4,12.7-17.8,12.7
		c-12.2,0-20.1-10.5-20.1-21.2s7.7-21.2,20.5-21.2c8.5,0,15,5.2,17.4,12.7l15.3,0c-2.2-15.1-14.2-26.4-33.1-26.4
		c-20.9,0-34.9,14.7-34.9,34.9s14,34.9,34.9,34.9C354.3,85.7,366.3,74.6,368.5,59.2L368.5,59.2z"/>
</g>
</svg>
