<?xml version="1.0" encoding="utf-8"?>
<!-- Generator: Adobe Illustrator 25.2.1, SVG Export Plug-In . SVG Version: 6.00 Build 0)  -->
<svg version="1.1" id="_x31_" xmlns="http://www.w3.org/2000/svg" xmlns:xlink="http://www.w3.org/1999/xlink" x="0px" y="0px"
	 viewBox="0 0 368.5 121.9" style="enable-background:new 0 0 368.5 121.9;" xml:space="preserve">
<style type="text/css">
	.st0{fill-rule:evenodd;clip-rule:evenodd;fill:#4885ED;}
	.st1{fill-rule:evenodd;clip-rule:evenodd;fill:#DB3236;}
	.st2{fill-rule:evenodd;clip-rule:evenodd;fill:#F4C20D;}
	.st3{fill-rule:evenodd;clip-rule:evenodd;fill:#3CBA54;}
</style>
<g>
	<g>
		<path class="st0" d="M90.6,43.2h-43V56h30.5c-1.5,17.9-16.4,25.5-30.4,25.5c-18,0-33.7-14.1-33.7-34c0-19.3,15-34.2,33.7-34.2
			c14.5,0,23,9.2,23,9.2l8.9-9.3c0,0-11.5-12.8-32.4-12.8C20.6,0.5,0,23,0,47.3c0,23.8,19.4,47,47.9,47c25.1,0,43.5-17.2,43.5-42.6
			C91.4,46.3,90.6,43.2,90.6,43.2L90.6,43.2z"/>
		<path class="st1" d="M125.8,34c-17.6,0-30.3,13.8-30.3,29.9c0,16.3,12.3,30.4,30.5,30.4c16.5,0,30-12.6,30-30
			C156.1,44.2,140.3,34,125.8,34L125.8,34L125.8,34z M126,45.8c8.7,0,16.9,7,16.9,18.3c0,11.1-8.2,18.3-16.9,18.3
			c-9.6,0-17.2-7.7-17.2-18.4C108.8,53.6,116.2,45.8,126,45.8z"/>
		<path class="st2" d="M191.7,34c-17.6,0-30.3,13.8-30.3,29.9c0,16.3,12.3,30.4,30.5,30.4c16.5,0,30-12.6,30-30
			C221.9,44.2,206.2,34,191.7,34L191.7,34L191.7,34z M191.9,45.8c8.7,0,16.9,7,16.9,18.3c0,11.1-8.2,18.3-16.9,18.3
			c-9.6,0-17.2-7.7-17.2-18.4C174.6,53.6,182.1,45.8,191.9,45.8z"/>
		<path class="st0" d="M256.3,34c-16.2,0-28.9,14.2-28.9,30.1c0,18.1,14.8,30.2,28.6,30.2c8.6,0,13.2-3.4,16.5-7.3v5.9
			c0,10.4-6.3,16.6-15.8,16.6c-9.2,0-13.8-6.8-15.4-10.7l-11.6,4.8c4.1,8.7,12.4,17.7,27.1,17.7c16.1,0,28.4-10.1,28.4-31.4V35.8
			h-12.6v5.1C268.7,36.7,263.4,34,256.3,34L256.3,34z M257.5,45.8c7.9,0,16.1,6.8,16.1,18.4c0,11.8-8.1,18.3-16.3,18.3
			c-8.6,0-16.7-7-16.7-18.1C240.6,52.7,249,45.8,257.5,45.8z"/>
		<path class="st1" d="M341.3,33.9c-15.3,0-28.1,12.2-28.1,30.1c0,19,14.3,30.2,29.6,30.2c12.7,0,20.6-7,25.2-13.2l-10.4-6.9
			c-2.7,4.2-7.2,8.3-14.8,8.3c-8.5,0-12.4-4.6-14.8-9.1l40.4-16.8l-2.1-4.9C362.5,42,353.4,33.9,341.3,33.9L341.3,33.9L341.3,33.9z
			 M341.9,45.5c5.5,0,9.5,2.9,11.1,6.4l-27,11.3C324.9,54.5,333.2,45.5,341.9,45.5L341.9,45.5z"/>
		<rect x="294" y="3.6" class="st3" width="13.3" height="88.8"/>
	</g>
</g>
</svg>
