<?xml version="1.0" encoding="utf-8"?>
<!-- Generator: Adobe Illustrator 25.2.1, SVG Export Plug-In . SVG Version: 6.00 Build 0)  -->
<svg version="1.1" id="Layer_1" xmlns="http://www.w3.org/2000/svg" xmlns:xlink="http://www.w3.org/1999/xlink" x="0px" y="0px"
	 viewBox="0 0 48 48" style="enable-background:new 0 0 48 48;" xml:space="preserve">
<style type="text/css">
	.st0{fill:#F50000;}
</style>
<g>
	<path class="st0" d="M15.5,39.5c0.1,0,0.3,0,0.4,0.1c0.9,0.5,1.8,0.8,2.7,1.1c0.4,0.1,0.6,0.4,0.6,0.8l0.3,2.7c0.1,1.1,0.9,2,1.8,2
		h5.2c0.9,0,1.6-0.8,1.8-2l0.3-2.7c0-0.4,0.3-0.7,0.6-0.8c0.9-0.3,1.9-0.7,2.7-1.1c0.3-0.2,0.7-0.1,1,0.1l2.1,1.7
		c0.9,0.7,2,0.8,2.6,0.1l3.7-3.7c0.6-0.6,0.6-1.7-0.1-2.6l-1.7-2.1c-0.2-0.3-0.3-0.7-0.1-1c0.5-0.9,0.8-1.8,1.1-2.7
		c0.1-0.4,0.4-0.6,0.8-0.6l2.7-0.3c1.1-0.1,2-0.9,2-1.8v-5.2c0-0.9-0.8-1.6-2-1.8l0,0l-2.7-0.3c-0.4,0-0.7-0.3-0.8-0.6
		c-0.3-0.9-0.7-1.9-1.1-2.7c-0.2-0.3-0.1-0.7,0.1-1l1.7-2.1c0.7-0.9,0.8-2,0.1-2.6l-3.7-3.7c-0.6-0.6-1.7-0.6-2.6,0.1l-2.1,1.7
		c-0.3,0.2-0.7,0.3-1,0.1c-0.9-0.5-1.8-0.8-2.7-1.1c-0.4-0.1-0.6-0.4-0.6-0.8l-0.3-2.7c-0.1-1.1-0.9-2-1.8-2h-5.2
		c-0.9,0-1.6,0.8-1.8,2l-0.3,2.7c0,0.4-0.3,0.7-0.6,0.8C17.7,7.6,16.8,8,16,8.4c-0.3,0.2-0.7,0.1-1-0.1l-2.1-1.7
		c-0.9-0.7-2-0.8-2.6-0.1l-3.7,3.7c-0.6,0.6-0.6,1.7,0.1,2.6l1.7,2.1c0.2,0.3,0.3,0.7,0.1,1c-0.5,0.9-0.8,1.8-1.1,2.7
		c-0.1,0.4-0.4,0.6-0.8,0.6l-2.7,0.3c-1.1,0.1-2,0.9-2,1.8v5.2c0,0.9,0.8,1.6,2,1.8l2.7,0.3c0.4,0,0.7,0.3,0.8,0.6
		C7.6,30.3,8,31.2,8.4,32c0.2,0.3,0.1,0.7-0.1,1l-1.7,2.1c-0.7,0.9-0.8,2-0.1,2.6l3.7,3.7c0.6,0.6,1.7,0.6,2.6-0.1l2.1-1.7
		C15.1,39.5,15.3,39.5,15.5,39.5L15.5,39.5z M26.6,48h-5.2c-1.8,0-3.4-1.6-3.6-3.6l-0.2-2.1c-0.6-0.2-1.3-0.5-1.9-0.8L14,42.8
		c-1.6,1.3-3.8,1.3-5.1,0l-3.7-3.7c-1.3-1.3-1.3-3.5,0-5.1l1.3-1.7c-0.3-0.6-0.6-1.3-0.8-1.9l-2.1-0.2C1.6,30,0,28.4,0,26.6v-5.2
		c0-1.8,1.6-3.4,3.6-3.6l2.1-0.2c0.2-0.6,0.5-1.3,0.8-1.9L5.2,14c-1.3-1.6-1.3-3.8,0-5.1l3.7-3.7c1.3-1.3,3.5-1.3,5.1,0l1.7,1.3
		c0.6-0.3,1.3-0.6,1.9-0.8l0.2-2.1C18,1.6,19.6,0,21.4,0h5.2c1.8,0,3.4,1.6,3.6,3.6l0.2,2.1c0.6,0.2,1.3,0.5,1.9,0.8L34,5.2
		c1.6-1.3,3.8-1.3,5.1,0l3.7,3.7c1.3,1.3,1.3,3.5,0,5.1l-1.3,1.7c0.3,0.6,0.6,1.3,0.8,1.9l2.1,0.2l0,0c2.1,0.2,3.6,1.8,3.6,3.6v5.2
		c0,1.8-1.6,3.4-3.6,3.6l-2.1,0.2c-0.2,0.6-0.5,1.3-0.8,1.9l1.3,1.7c1.3,1.6,1.3,3.8,0,5.1l-3.7,3.7c-1.3,1.3-3.5,1.3-5.1,0
		l-1.7-1.3c-0.6,0.3-1.3,0.6-1.9,0.8l-0.2,2.1C30,46.4,28.4,48,26.6,48L26.6,48z"/>
	<path class="st0" d="M24,16.5c-4.2,0-7.5,3.4-7.5,7.5c0,4.2,3.4,7.5,7.5,7.5c4.2,0,7.5-3.4,7.5-7.5C31.5,19.8,28.2,16.5,24,16.5
		L24,16.5z M24,33.4c-5.2,0-9.4-4.2-9.4-9.4c0-5.2,4.2-9.4,9.4-9.4c5.2,0,9.4,4.2,9.4,9.4C33.4,29.2,29.2,33.4,24,33.4L24,33.4z"/>
	<path class="st0" d="M28,37.9c-0.4,0-0.8-0.3-0.9-0.7c-0.2-0.5,0.1-1,0.6-1.2c5.3-1.6,8.9-6.5,8.9-12c0-0.5,0.4-0.9,0.9-0.9
		c0.5,0,0.9,0.4,0.9,0.9c0,3.2-1,6.1-2.9,8.7c-1.8,2.4-4.4,4.3-7.3,5.2C28.2,37.9,28.1,37.9,28,37.9L28,37.9z"/>
	<path class="st0" d="M23.8,36.4c0.5,0,0.9,0.4,0.9,0.9c0,0.5-0.4,0.9-0.9,0.9c-0.5,0-0.9-0.4-0.9-0.9
		C22.9,36.8,23.3,36.4,23.8,36.4L23.8,36.4z"/>
</g>
</svg>
