<?xml version="1.0" encoding="utf-8"?>
<!-- Generator: Adobe Illustrator 25.2.1, SVG Export Plug-In . SVG Version: 6.00 Build 0)  -->
<svg version="1.1" id="sv" xmlns="http://www.w3.org/2000/svg" xmlns:xlink="http://www.w3.org/1999/xlink" x="0px" y="0px"
	 viewBox="0 0 200 169" style="enable-background:new 0 0 200 169;" xml:space="preserve">
<style type="text/css">
	.st0{fill:#536278;}
</style>
<g>
	<path class="st0" d="M167.4,0.9c-8.9,0-16.6,4.8-20.8,11.9c-5.3-6-13.1-9.7-21.8-9.7c-11.2,0-21,6.3-25.8,15.5
		c-3,2.3-8.6,8.1-8.3,19.1c-2,0.3-4.8,1.6-4.8,4.8c0,3.1,2.2,4.7,3.8,5.3c-0.4,3.3-1.4,15.6,5.7,23.5c4.3,4.8,10.8,7,19.2,6.6
		l8.9,18.5l1.4-1.1l-5.2-10.8c14.9-14,10.3-28.6,10.3-28.6c-1.6,14.9-12.9,19.4-15.1,20.1c-8.1,0.5-14.2-1.5-18.2-5.9
		c-7.5-8.3-5.2-22.6-5.2-22.8l0.1-0.9l-0.8-0.2c-0.1,0-3.2-0.8-3.2-3.8c0-2.9,3.8-3,4-3l0.9,0l0-0.9c-0.6-12.6,6.8-18,8.8-19.2
		c1.1,0.7,3.9,2.1,6.5,1c1.8,1.9,3.9,4.4,4.8,6.7c1.2,3,4.6,8.3,9.4,9.5c0.6,0.2,1.3,0.2,1.9,0.2c1.7,0,3.3-0.5,4.9-1.6
		c1.2-0.2,2-0.9,2.3-1.3c1.7-0.8,3.9-0.8,5.6,0c1.2,0.5,2.7,1.7,3.3,4.1c1.1,4.5-2.7,8.4-2.7,8.4l-0.5,0.5l15,28.8l0.1-0.1l2.3,2.8
		l0,0l0.6,0.7l0.7-0.5l-12.7-24.4c3.7-2.9,6.7-6.6,8.6-10.9c4.3,3.8,9.9,6.1,16.1,6.1c13.4,0,24.2-10.8,24.2-24.2
		C191.6,11.8,180.7,0.9,167.4,0.9z M122.3,34.6c-4.1-1-7.1-5.9-8.1-8.4c-0.8-2-2.4-4.1-3.9-5.9c2.9,1.6,7.7,6.6,10.6,9.6
		c0.6,0.6,1.2,1.2,1.7,1.8c1.2,1.2,2.3,2.1,3.3,2.6C124.7,34.9,123.5,34.9,122.3,34.6z"/>
	<path class="st0" d="M136.2,38.2c0.5-0.1,0.8-0.7,0.6-1.1c-0.1-0.5-0.7-0.8-1.1-0.6c-2.3,0.7-3.8,1.9-4.5,3.5
		c-1.1,2.6,0.2,5.2,0.3,5.3c0.2,0.3,0.5,0.5,0.8,0.5c0.1,0,0.3,0,0.4-0.1c0.5-0.2,0.6-0.8,0.4-1.2c0,0-1-2-0.2-3.8
		C133.3,39.6,134.4,38.8,136.2,38.2z"/>
	<path class="st0" d="M94.5,48.2c-0.3,0.4-0.1,1,0.3,1.3c0.1,0,1.5,0.8,3.2,0.8c0.6,0,1.2-0.1,1.9-0.4c1.7-0.7,2.9-2.2,3.6-4.7
		c0.1-0.5-0.1-1-0.6-1.1c-0.5-0.1-1,0.1-1.1,0.6c-0.5,1.8-1.4,3-2.5,3.5c-1.6,0.7-3.5-0.4-3.5-0.4C95.3,47.6,94.7,47.7,94.5,48.2z"
		/>
	<path class="st0" d="M100.1,37.8c0-1.4-0.9-2.5-1.9-2.5s-1.9,1.1-1.9,2.5c0,1.4,0.9,2.5,1.9,2.5S100.1,39.2,100.1,37.8z"/>
</g>
<g>
	<path class="st0" d="M45.6,97.4c-0.2,0-0.4-0.1-0.6-0.2c-0.4-0.3-0.4-0.9-0.1-1.3c0-0.1,0.8-1,0.7-2.4c-0.1-1.5-1.2-3.1-3.1-4.7
		l-3-2.5l13,2.9c1.3,0.3,2.6-0.5,2.9-1.8L56,85l2.2,0.6c1.7,0.5,3.5-0.5,4.2-2.2c0.6-1.6-0.1-3.5-1.6-4.3l-1.9-1l1.7-3.5
		c0.7-1.5,0.1-3.3-1.4-4l-16.2-8.3c-0.5-0.2-0.6-0.8-0.4-1.2s0.8-0.6,1.2-0.4L59.9,69c2.4,1.2,3.3,4,2.2,6.4l-0.9,1.9l0.4,0.2
		c2.3,1.2,3.4,4,2.5,6.5c-1,2.6-3.7,4-6.4,3.3l-0.4-0.1L57.1,88c-0.6,2.2-2.8,3.6-5.1,3.1l-6.1-1.4c0.9,1.2,1.4,2.4,1.5,3.7
		c0.2,2.2-1.1,3.7-1.1,3.7C46.1,97.3,45.8,97.4,45.6,97.4z"/>
</g>
<g>
	<path class="st0" d="M56.5,87.1c-0.1,0-0.3,0-0.4-0.1l-20.9-9.6c-0.5-0.2-0.7-0.8-0.4-1.2c0.2-0.5,0.8-0.7,1.2-0.4l20.9,9.6
		c0.5,0.2,0.7,0.8,0.4,1.2C57.2,86.9,56.9,87.1,56.5,87.1z"/>
</g>
<g>
	<path class="st0" d="M60,78.7c-0.1,0-0.3,0-0.4-0.1l-19.7-9.9c-0.5-0.2-0.6-0.8-0.4-1.2c0.2-0.5,0.8-0.6,1.2-0.4l19.7,9.9
		c0.5,0.2,0.6,0.8,0.4,1.2C60.6,78.5,60.3,78.7,60,78.7z"/>
</g>
<path class="st0" d="M2.9,167h0.9l41.5-62.1l-0.3-0.5C45,104.3,28.8,90.4,36.4,77l0.2-0.3l-0.1-0.4c-0.1-0.2-1.3-4.6,4.2-7.6
	l0.7-0.4l-0.2-0.7c0-0.1-1.1-3.4,3-5.2l1.1-0.5L26.6,40.6c-0.6-0.6-0.8-1.4-0.8-2.3c0.1-0.8,0.5-1.6,1.1-2.1c1.2-1,3-1,4.1,0.1
	l34.5,33.2l0.6-0.8c0.2-0.2,3.8-5,3.8-11.5c0-5.4,3.6-7.4,6.9-7.4c0.1,0,0.3,0,0.4,0.1c0.4,0.5,0,2.7-0.4,4.4
	c-0.5,2.5-1.1,5.5-0.8,8.4c0.7,5.6,3,36.2-0.7,48.9c-3.5,12.3-26.8,54.6-27,55l0.8,0.4h1.1c2.4-4.6,23.5-42.9,26.9-54.9
	C81,99.2,78.8,68.2,78,62.5c-0.3-2.5,0.2-5.3,0.7-7.8c0.6-2.8,1-4.8,0-5.9c-0.3-0.4-0.8-0.8-1.8-0.8c-4,0-8.8,2.4-8.8,9.2
	c0,4.3-1.9,7.9-2.8,9.5L32.4,35c-1.8-1.8-4.7-1.9-6.6-0.2c-1,0.9-1.7,2.1-1.8,3.4c-0.1,1.3,0.3,2.6,1.2,3.6l17.1,19.5
	c-2.9,1.8-3.3,4.5-3,6.2c-5.2,3.2-4.9,7.6-4.6,9c-7.1,12.9,7.3,25.7,8.5,28.3L2,166.4L2.9,167z"/>
<path class="st0" d="M89.3,169h110.5c-1.7-7.3-13.6-54.5-39.4-80.8l2.3-2.1L152.1,73l-34.3,25.2l3.5,4.8l-1,13.2L89.3,169z
	 M120.4,98.6l31.4-23.1l8.4,10.4l-28.6,25.4c-0.3,0.3-0.7,0.4-1.2,0.4s-0.8-0.3-1.1-0.6l-7.2-9.9L120.4,98.6z"/>
</svg>
