<?xml version="1.0" encoding="utf-8"?>
<!-- Generator: Adobe Illustrator 25.2.1, SVG Export Plug-In . SVG Version: 6.00 Build 0)  -->
<svg version="1.1" id="Layer_1" xmlns="http://www.w3.org/2000/svg" xmlns:xlink="http://www.w3.org/1999/xlink" x="0px" y="0px"
	 viewBox="0 0 499 122" style="enable-background:new 0 0 499 122;" xml:space="preserve">
<style type="text/css">
	.st0{fill:#F50000;}
</style>
<g>
	<ellipse transform="matrix(0.7678 -0.6407 0.6407 0.7678 13.1977 66.4892)" class="st0" cx="98.3" cy="15" rx="7.5" ry="5.2"/>
	<g>
		<path class="st0" d="M199.7,96.9c-0.8,0-1.5-0.1-2.3-0.4c-3.5-1.3-5.3-5.1-4-8.6l21.3-58.5c1.3-3.5,5.1-5.3,8.6-4
			c3.5,1.3,5.3,5.1,4,8.6l-21.3,58.5C204.9,95.2,202.4,96.9,199.7,96.9z"/>
		<path class="st0" d="M208.8,71.9c-0.8,0-1.5-0.1-2.3-0.4c-3.5-1.3-5.3-5.1-4-8.6c7.7-21.2,26.8-37.8,43.5-37.8
			c3.7,0,6.7,3,6.7,6.7s-3,6.7-6.7,6.7c-9.8,0-24.6,11.7-31,29C214.1,70.2,211.5,71.9,208.8,71.9z"/>
	</g>
	<g>
		<path class="st0" d="M396,96.9c-0.8,0-1.5-0.1-2.3-0.4c-3.5-1.3-5.3-5.1-4-8.6l21.3-58.5c1.3-3.5,5.1-5.3,8.6-4
			c3.5,1.3,5.3,5.1,4,8.6l-21.3,58.5C401.3,95.2,398.8,96.9,396,96.9z"/>
		<path class="st0" d="M417.3,38.4c-0.8,0-1.5-0.1-2.3-0.4c-3.5-1.3-5.3-5.1-4-8.6c6-16.5,23.8-29.5,40.5-29.5c3.7,0,6.7,3,6.7,6.7
			s-3,6.7-6.7,6.7c-11.1,0-23.8,9.5-27.9,20.7C422.6,36.7,420.1,38.4,417.3,38.4z"/>
		<path class="st0" d="M361.8,122c-3.7,0-6.7-3-6.7-6.7c0-3.7,3-6.7,6.7-6.7c11.1,0,23.8-9.5,27.9-20.7c1.3-3.5,5.1-5.3,8.6-4
			c3.5,1.3,5.3,5.1,4,8.6C396.3,109.1,378.5,122,361.8,122z"/>
	</g>
	<path class="st0" d="M384.3,73.5c-3.7,0-6.7-3-6.7-6.7c0-3.7,3-6.7,6.7-6.7c23.6,0,44.3-11,48.1-20.8c1.3-3.4,5.2-5.1,8.6-3.8
		c3.4,1.3,5.1,5.2,3.8,8.6C438.4,60.6,411.8,73.5,384.3,73.5z"/>
	<path class="st0" d="M81.6,67.7c-0.8,0-1.5-0.1-2.3-0.4c-3.5-1.3-5.3-5.1-4-8.6L86,29.5c1.3-3.5,5.1-5.3,8.6-4
		c3.5,1.3,5.3,5.1,4,8.6L87.9,63.3C86.9,66,84.3,67.7,81.6,67.7z"/>
	<path class="st0" d="M83.5,96.9c-3.8,0-7.2-1.8-9.4-5c-4.5-6.4-4-18.8,1.2-33.3c1.3-3.5,5.1-5.3,8.6-4c3.5,1.3,5.3,5.1,4,8.6
		c-4,11.1-3.8,18.1-3.1,20.4c3.1,0.6,5.4,3.3,5.4,6.6C90.2,93.9,87.2,96.9,83.5,96.9z M85,84.3L85,84.3L85,84.3z"/>
	<path class="st0" d="M105,90.2"/>
	<path class="st0" d="M104.4,90.2"/>
	<g>
		<g>
			<path class="st0" d="M35.6,67.7c-0.8,0-1.5-0.1-2.3-0.4c-3.5-1.3-5.3-5.1-4-8.6L40,29.5c1.3-3.5,5.1-5.3,8.6-4
				c3.5,1.3,5.3,5.1,4,8.6L41.9,63.3C40.9,66,38.4,67.7,35.6,67.7z"/>
			<path class="st0" d="M37.5,96.9c-3.8,0-7.2-1.8-9.4-5c-4.5-6.4-4-18.8,1.2-33.3c1.3-3.5,5.1-5.3,8.6-4c3.5,1.3,5.3,5.1,4,8.6
				c-4,11.1-3.8,18.1-3.1,20.4c3.1,0.6,5.4,3.3,5.4,6.6C44.2,93.9,41.2,96.9,37.5,96.9z M39.1,84.3L39.1,84.3L39.1,84.3z"/>
			<path class="st0" d="M37.5,96.9c-3.7,0-6.7-3-6.7-6.7c0-3.7,3-6.6,6.6-6.7c2.9-0.5,11.5-9.7,17-24.9c1.3-3.5,5.1-5.3,8.6-4
				c3.5,1.3,5.3,5.1,4,8.6C61.1,79.5,49.4,96.9,37.5,96.9z M37.5,83.6C37.5,83.6,37.5,83.6,37.5,83.6C37.5,83.6,37.5,83.6,37.5,83.6
				z"/>
		</g>
		<path class="st0" d="M10.6,67.7c-0.8,0-1.5-0.1-2.3-0.4c-3.5-1.3-5.3-5.1-4-8.6l10.6-29.3c1.3-3.5,5.1-5.3,8.6-4
			c3.5,1.3,5.3,5.1,4,8.6L16.8,63.3C15.9,66,13.3,67.7,10.6,67.7z"/>
		<path class="st0" d="M60.7,67.7c-0.8,0-1.5-0.1-2.3-0.4c-3.5-1.3-5.3-5.1-4-8.6l10.6-29.3c1.3-3.5,5.1-5.3,8.6-4
			c3.5,1.3,5.3,5.1,4,8.6L67,63.3C66,66,63.4,67.7,60.7,67.7z"/>
		<path class="st0" d="M12.5,96.9c-3.8,0-7.2-1.8-9.4-5c-4.5-6.4-4-18.8,1.2-33.3c1.3-3.5,5.1-5.3,8.6-4c3.5,1.3,5.3,5.1,4,8.6
			c-4,11.1-3.8,18.1-3.1,20.4c3.1,0.6,5.4,3.3,5.4,6.6C19.1,93.9,16.1,96.9,12.5,96.9z M14,84.3L14,84.3L14,84.3z"/>
		<path class="st0" d="M12.5,96.9c-3.7,0-6.7-3-6.7-6.7c0-3.7,3-6.6,6.6-6.7c2.9-0.5,11.5-9.7,17-24.9c1.3-3.5,5.1-5.3,8.6-4
			c3.5,1.3,5.3,5.1,4,8.6C36,79.5,24.3,96.9,12.5,96.9z M12.5,83.6C12.5,83.6,12.5,83.6,12.5,83.6C12.5,83.6,12.5,83.6,12.5,83.6z"
			/>
	</g>
	<g>
		<path class="st0" d="M78.8,46.8c-5.3,0-9.8-2.1-12.4-5.8c-2.3-3.3-2.8-7.5-1.3-11.5c1.3-3.5,5.1-5.3,8.6-4c3.2,1.2,5,4.6,4.2,7.9
			c0.2,0,0.5,0.1,0.9,0.1c3.7,0,6.7,3,6.7,6.7S82.4,46.8,78.8,46.8z"/>
		<path class="st0" d="M78.8,46.8c-3.7,0-6.7-3-6.7-6.7s3-6.7,6.7-6.7c3.3,0,6.6-2.4,7.2-4c1.3-3.5,5.1-5.3,8.6-4
			c3.5,1.3,5.3,5.1,4,8.6C95.9,41.3,87.4,46.8,78.8,46.8z"/>
	</g>
	<g>
		<g>
			<path class="st0" d="M185.2,67.7c-0.8,0-1.5-0.1-2.3-0.4c-3.5-1.3-5.3-5.1-4-8.6l10.6-29.3c1.3-3.5,5.1-5.3,8.6-4
				c3.5,1.3,5.3,5.1,4,8.6l-10.6,29.3C190.5,66,188,67.7,185.2,67.7z"/>
			<path class="st0" d="M187.1,96.9c-3.8,0-7.2-1.8-9.4-5c-4.5-6.4-4-18.8,1.2-33.3c1.3-3.5,5.1-5.3,8.6-4c3.5,1.3,5.3,5.1,4,8.6
				c-4,11.1-3.8,18.1-3.1,20.4c3.1,0.6,5.4,3.3,5.4,6.6C193.8,93.9,190.8,96.9,187.1,96.9z M188.7,84.3L188.7,84.3L188.7,84.3z"/>
			<path class="st0" d="M187.1,96.9c-3.7,0-6.7-3-6.7-6.7c0-3.7,3-6.6,6.6-6.7c2.9-0.5,11.5-9.7,17-24.9c1.3-3.5,5.1-5.3,8.6-4
				c3.5,1.3,5.3,5.1,4,8.6C210.7,79.5,198.9,96.9,187.1,96.9z M187.1,83.6C187.1,83.6,187.1,83.6,187.1,83.6
				C187.1,83.6,187.1,83.6,187.1,83.6z"/>
		</g>
		<path class="st0" d="M157.9,96.9c-5,0-9.3-2.2-12.1-6.3c-4.9-7-5-18.9-0.2-31.9c5.9-16.3,19.7-33.6,33.6-33.6
			c5,0,9.3,2.2,12.1,6.3c4.9,7,5,18.9,0.2,31.9l0,0C185.6,79.6,171.8,96.9,157.9,96.9z M179.2,38.4c-4.9,0-15.6,9.7-21.1,24.9
			c-3.8,10.4-2.9,17.5-1.4,19.7c0.4,0.5,0.6,0.6,1.2,0.6c4.9,0,15.6-9.7,21.1-24.9l0,0c3.8-10.4,2.9-17.5,1.4-19.7
			C180,38.5,179.7,38.4,179.2,38.4z M185.2,61L185.2,61L185.2,61z"/>
	</g>
	<path class="st0" d="M281.3,67.7c-0.8,0-1.5-0.1-2.3-0.4c-3.5-1.3-5.3-5.1-4-8.6l19.8-54.3c1.3-3.5,5.1-5.3,8.6-4
		c3.5,1.3,5.3,5.1,4,8.6l-19.8,54.3C286.6,66,284.1,67.7,281.3,67.7z"/>
	<path class="st0" d="M283.2,96.9c-3.8,0-7.2-1.8-9.4-5c-4.5-6.4-4-18.8,1.2-33.3c1.3-3.5,5.1-5.3,8.6-4c3.5,1.3,5.3,5.1,4,8.6
		c-4,11.1-3.8,18.1-3.1,20.4c3.1,0.6,5.4,3.3,5.4,6.6C289.9,93.9,286.9,96.9,283.2,96.9z M284.8,84.3L284.8,84.3L284.8,84.3z"/>
	<path class="st0" d="M283.2,96.9c-3.7,0-6.7-3-6.7-6.7s3-6.7,6.7-6.7c3.3,0,6.6-2.4,7.2-4c1.3-3.5,5.1-5.3,8.6-4
		c3.5,1.3,5.3,5.1,4,8.6C300.3,91.4,291.8,96.9,283.2,96.9z"/>
	<path class="st0" d="M304.1,96.9c-5.3,0-9.8-2.1-12.4-5.8c-2.3-3.3-2.8-7.5-1.3-11.5c1.3-3.5,5.1-5.3,8.6-4c3.2,1.2,5,4.6,4.2,7.9
		c0.2,0,0.5,0.1,0.9,0.1c3.7,0,6.7,3,6.7,6.7S307.8,96.9,304.1,96.9z"/>
	<path class="st0" d="M254,96.9c-5,0-9.3-2.2-12.1-6.3c-4.9-7-5-18.9-0.2-31.9c5.9-16.3,19.7-33.6,33.6-33.6c5,0,9.3,2.2,12.1,6.3
		c4.9,7,5,18.9,0.2,31.9l0,0C281.7,79.6,267.9,96.9,254,96.9z M275.3,38.4c-4.9,0-15.6,9.7-21.1,24.9c-3.8,10.4-2.9,17.5-1.4,19.7
		c0.4,0.5,0.6,0.6,1.2,0.6c4.9,0,15.6-9.7,21.1-24.9l0,0c3.8-10.4,2.9-17.5,1.4-19.7C276.1,38.5,275.8,38.4,275.3,38.4z M281.3,61
		L281.3,61L281.3,61z"/>
	<g>
		<path class="st0" d="M111.3,90.2"/>
		<path class="st0" d="M111.9,90.2"/>
		<g>
			<path class="st0" d="M99.4,96.9c-1.5,0-2.9-0.5-4.1-1.4c-2.9-2.3-3.4-6.5-1.1-9.4l46.4-58.5c2.3-2.9,6.5-3.4,9.4-1.1
				c2.9,2.3,3.4,6.5,1.1,9.4l-46.4,58.5C103.3,96.1,101.3,96.9,99.4,96.9z"/>
			<path class="st0" d="M128.6,96.9H99.4c-3.7,0-6.7-3-6.7-6.7s3-6.7,6.7-6.7h29.2c3.7,0,6.7,3,6.7,6.7S132.3,96.9,128.6,96.9z"/>
			<path class="st0" d="M145.7,38.4h-29.2c-3.7,0-6.7-3-6.7-6.7s3-6.7,6.7-6.7h29.2c3.7,0,6.7,3,6.7,6.7S149.4,38.4,145.7,38.4z"/>
		</g>
	</g>
	<g>
		<path class="st0" d="M312.5,96.9c-3.7,0-6.7-3-6.7-6.7s3-6.7,6.7-6.7c6.4,0,13.8-4.8,15.8-10.2c1.3-3.5,5.1-5.3,8.6-4
			c3.5,1.3,5.3,5.1,4,8.6C336.9,88.6,324.5,96.9,312.5,96.9z"/>
		<path class="st0" d="M334.5,82.3c-0.8,0-1.5-0.1-2.3-0.4c-3.5-1.3-5.3-5.1-4-8.6c0.3-0.9,0.8-2.7,0-3.9c-0.8-1.1-2.7-1.8-5.1-1.8
			c-3.7,0-6.7-3-6.7-6.7s3-6.7,6.7-6.7c6.8,0,12.7,2.7,16,7.5c3.1,4.5,3.7,10.3,1.7,16.1C339.8,80.6,337.2,82.3,334.5,82.3z"/>
	</g>
	<g>
		<path class="st0" d="M311.7,53.1c-0.8,0-1.5-0.1-2.3-0.4c-3.5-1.3-5.3-5.1-4-8.6c3.9-10.7,16.3-19,28.3-19c3.7,0,6.7,3,6.7,6.7
			s-3,6.7-6.7,6.7c-6.4,0-13.8,4.8-15.8,10.2C317,51.4,314.5,53.1,311.7,53.1z"/>
		<path class="st0" d="M323.1,67.7c-6.8,0-12.7-2.7-16-7.5c-3.1-4.5-3.7-10.3-1.7-16.1c1.3-3.5,5.1-5.3,8.6-4c3.5,1.3,5.3,5.1,4,8.6
			c-0.3,0.9-0.8,2.7,0,3.9c0.8,1.1,2.7,1.8,5.1,1.8c3.7,0,6.7,3,6.7,6.7S326.8,67.7,323.1,67.7z"/>
	</g>
	<path class="st0" d="M350.5,38.4h-16.7c-3.7,0-6.7-3-6.7-6.7s3-6.7,6.7-6.7h16.7c3.7,0,6.7,3,6.7,6.7S354.2,38.4,350.5,38.4z"/>
	<path class="st0" d="M312.5,96.9h-8.4c-3.7,0-6.7-3-6.7-6.7s3-6.7,6.7-6.7h8.4c3.7,0,6.7,3,6.7,6.7S316.2,96.9,312.5,96.9z"/>
	<g>
		<path class="st0" d="M459.8,67.7c-0.8,0-1.5-0.1-2.3-0.4c-3.5-1.3-5.3-5.1-4-8.6l19.8-54.3c1.3-3.5,5.1-5.3,8.6-4
			c3.5,1.3,5.3,5.1,4,8.6L466,63.3C465,66,462.5,67.7,459.8,67.7z"/>
		<path class="st0" d="M461.6,96.9c-3.8,0-7.2-1.8-9.4-5c-4.5-6.4-4-18.8,1.2-33.3c1.3-3.5,5.1-5.3,8.6-4c3.5,1.3,5.3,5.1,4,8.6
			c-4,11.1-3.8,18.1-3.1,20.4c3.1,0.6,5.4,3.3,5.4,6.6C468.3,93.9,465.3,96.9,461.6,96.9z M463.2,84.3L463.2,84.3L463.2,84.3z"/>
		<path class="st0" d="M461.6,96.9c-3.7,0-6.7-3-6.7-6.7s3-6.7,6.7-6.7c3.3,0,6.6-2.4,7.2-4c1.3-3.5,5.1-5.3,8.6-4
			c3.5,1.3,5.3,5.1,4,8.6C478.8,91.4,470.3,96.9,461.6,96.9z"/>
	</g>
	<path class="st0" d="M491.9,38.4h-41.8c-3.7,0-6.7-3-6.7-6.7s3-6.7,6.7-6.7h41.8c3.7,0,6.7,3,6.7,6.7S495.5,38.4,491.9,38.4z"/>
	<path class="st0" d="M358.4,96.9c-5,0-9.3-2.2-12.1-6.3c-4.9-7-5-18.9-0.2-31.9c5.9-16.3,19.7-33.6,33.6-33.6c5,0,9.3,2.2,12.1,6.3
		c4.9,7,5,18.9,0.2,31.9l0,0C386.1,79.6,372.3,96.9,358.4,96.9z M379.7,38.4c-4.9,0-15.6,9.7-21.1,24.9c-3.8,10.4-2.9,17.5-1.4,19.7
		c0.4,0.5,0.6,0.6,1.2,0.6c4.9,0,15.6-9.7,21.1-24.9l0,0c3.8-10.4,2.9-17.5,1.4-19.7C380.5,38.5,380.3,38.4,379.7,38.4z M385.8,61
		L385.8,61L385.8,61z"/>
</g>
</svg>
