<?xml version="1.0" encoding="utf-8"?>
<!-- Generator: Adobe Illustrator 25.2.1, SVG Export Plug-In . SVG Version: 6.00 Build 0)  -->
<svg version="1.1" id="Layer_1" xmlns="http://www.w3.org/2000/svg" xmlns:xlink="http://www.w3.org/1999/xlink" x="0px" y="0px"
	 viewBox="0 0 500 122" style="enable-background:new 0 0 500 122;" xml:space="preserve">
<style type="text/css">
	.st0{clip-path:url(#SVGID_2_);fill:#FF0028;}
	.st1{clip-path:url(#SVGID_4_);fill:url(#SVGID_5_);}
	.st2{clip-path:url(#SVGID_7_);fill:url(#SVGID_8_);}
	.st3{clip-path:url(#SVGID_10_);fill:url(#SVGID_11_);}
	.st4{clip-path:url(#SVGID_13_);fill:url(#SVGID_14_);}
	.st5{fill:#F50000;}
</style>
<g>
	<g>
		<defs>
			<path id="SVGID_1_" d="M95.9,0.5c-6-1.9-12.3,1.3-14.3,7.2L57.9,80.9c-1.9,5.8-5.3,10.7-9.6,14.3c0.2-5.3,1.2-10.9,3-16.5
				l14.1-43.3c1.8-5.5-1.2-11.4-6.7-13.1c-5.5-1.8-11.4,1.2-13.1,6.7L31.4,72.3L28.6,81c-1.9,5.9-5.4,10.8-9.8,14.4
				c-1.5,1.2-1.5,1.2,0,0c0.3-5.3,1.3-10.9,3.1-16.6l10.2-31.4c1.6-5-1.1-10.4-6.1-12.1c-5-1.6-10.4,1.1-12.1,6.1L3.8,72.9
				c-3.5,10.7-4.5,21.2-3.4,29.7c1.2,9.6,5.2,16.6,11.5,18.7c3.9,1.3,8.1,0.7,12.4-1.3c2.8-1.3,5.7-3.4,8.4-5.9
				c2.2,3.5,5,5.9,8.6,7.1c4.2,1.4,8.7,0.9,13.2-1c10.1-4.4,19.9-16.4,25.1-32.3l23.8-73.1C105.1,8.8,101.8,2.4,95.9,0.5z"/>
		</defs>
		<clipPath id="SVGID_2_">
			<use xlink:href="#SVGID_1_"  style="overflow:visible;"/>
		</clipPath>
		<rect x="-11.8" y="-2.6" class="st0" width="127.1" height="127.1"/>
	</g>
	<g>
		<defs>
			<path id="SVGID_3_" d="M95.9,0.5c-6-1.9-12.3,1.3-14.3,7.2L57.9,80.9c-1.9,5.8-5.3,10.7-9.6,14.3c0.2-5.3,1.2-10.9,3-16.5
				l14.1-43.3c1.8-5.5-1.2-11.4-6.7-13.1c-5.5-1.8-11.4,1.2-13.1,6.7L31.4,72.3L28.6,81c-1.9,5.9-5.4,10.8-9.8,14.4
				c-1.5,1.2-1.5,1.2,0,0c0.3-5.3,1.3-10.9,3.1-16.6l10.2-31.4c1.6-5-1.1-10.4-6.1-12.1c-5-1.6-10.4,1.1-12.1,6.1L3.8,72.9
				c-3.5,10.7-4.5,21.2-3.4,29.7c1.2,9.6,5.2,16.6,11.5,18.7c3.9,1.3,8.1,0.7,12.4-1.3c2.8-1.3,5.7-3.4,8.4-5.9
				c2.2,3.5,5,5.9,8.6,7.1c4.2,1.4,8.7,0.9,13.2-1c10.1-4.4,19.9-16.4,25.1-32.3l23.8-73.1C105.1,8.8,101.8,2.4,95.9,0.5z"/>
		</defs>
		<clipPath id="SVGID_4_">
			<use xlink:href="#SVGID_3_"  style="overflow:visible;"/>
		</clipPath>
		
			<linearGradient id="SVGID_5_" gradientUnits="userSpaceOnUse" x1="6.7328" y1="5.8601" x2="41.9752" y2="41.1025" gradientTransform="matrix(1 0 0 -1 0 124)">
			<stop  offset="0.2" style="stop-color:#FF0028"/>
			<stop  offset="1" style="stop-color:#8C0064"/>
		</linearGradient>
		<path class="st1" d="M28.5,102.5c-1.5-8.6-0.6-19.3,2.9-30.2L28.6,81c-1.9,5.9-5.4,10.8-9.8,14.4c-5.2,4.3-11.7,6.9-18.5,7.2
			c1.2,9.6,5.2,16.6,11.5,18.7c3.9,1.3,8.1,0.7,12.4-1.3c2.8-1.3,5.7-3.4,8.4-5.9C30.6,110.9,29.2,107,28.5,102.5z"/>
	</g>
	<g>
		<defs>
			<path id="SVGID_6_" d="M95.9,0.5c-6-1.9-12.3,1.3-14.3,7.2L57.9,80.9c-1.9,5.8-5.3,10.7-9.6,14.3c0.2-5.3,1.2-10.9,3-16.5
				l14.1-43.3c1.8-5.5-1.2-11.4-6.7-13.1c-5.5-1.8-11.4,1.2-13.1,6.7L31.4,72.3L28.6,81c-1.9,5.9-5.4,10.8-9.8,14.4
				c-1.5,1.2-1.5,1.2,0,0c0.3-5.3,1.3-10.9,3.1-16.6l10.2-31.4c1.6-5-1.1-10.4-6.1-12.1c-5-1.6-10.4,1.1-12.1,6.1L3.8,72.9
				c-3.5,10.7-4.5,21.2-3.4,29.7c1.2,9.6,5.2,16.6,11.5,18.7c3.9,1.3,8.1,0.7,12.4-1.3c2.8-1.3,5.7-3.4,8.4-5.9
				c2.2,3.5,5,5.9,8.6,7.1c4.2,1.4,8.7,0.9,13.2-1c10.1-4.4,19.9-16.4,25.1-32.3l23.8-73.1C105.1,8.8,101.8,2.4,95.9,0.5z"/>
		</defs>
		<clipPath id="SVGID_7_">
			<use xlink:href="#SVGID_6_"  style="overflow:visible;"/>
		</clipPath>
		
			<linearGradient id="SVGID_8_" gradientUnits="userSpaceOnUse" x1="27.8281" y1="61.8138" x2="65.8991" y2="61.8138" gradientTransform="matrix(1 0 0 -1 0 124)">
			<stop  offset="0.2" style="stop-color:#FF0028"/>
			<stop  offset="1" style="stop-color:#8C0064"/>
		</linearGradient>
		<path class="st2" d="M51.3,78.7l14.1-43.3c1.8-5.5-1.2-11.4-6.7-13.1c-5.5-1.8-11.4,1.2-13.1,6.7L31.4,72.3
			c-3.5,10.9-4.4,21.6-2.9,30.2c5.5-0.1,10.9-1.6,15.6-4.4c1.5-0.9,2.9-1.9,4.2-3C48.5,89.9,49.4,84.3,51.3,78.7z"/>
	</g>
	<g>
		<defs>
			<path id="SVGID_9_" d="M95.9,0.5c-6-1.9-12.3,1.3-14.3,7.2L57.9,80.9c-1.9,5.8-5.3,10.7-9.6,14.3c0.2-5.3,1.2-10.9,3-16.5
				l14.1-43.3c1.8-5.5-1.2-11.4-6.7-13.1c-5.5-1.8-11.4,1.2-13.1,6.7L31.4,72.3L28.6,81c-1.9,5.9-5.4,10.8-9.8,14.4
				c-1.5,1.2-1.5,1.2,0,0c0.3-5.3,1.3-10.9,3.1-16.6l10.2-31.4c1.6-5-1.1-10.4-6.1-12.1c-5-1.6-10.4,1.1-12.1,6.1L3.8,72.9
				c-3.5,10.7-4.5,21.2-3.4,29.7c1.2,9.6,5.2,16.6,11.5,18.7c3.9,1.3,8.1,0.7,12.4-1.3c2.8-1.3,5.7-3.4,8.4-5.9
				c2.2,3.5,5,5.9,8.6,7.1c4.2,1.4,8.7,0.9,13.2-1c10.1-4.4,19.9-16.4,25.1-32.3l23.8-73.1C105.1,8.8,101.8,2.4,95.9,0.5z"/>
		</defs>
		<clipPath id="SVGID_10_">
			<use xlink:href="#SVGID_9_"  style="overflow:visible;"/>
		</clipPath>
		
			<linearGradient id="SVGID_11_" gradientUnits="userSpaceOnUse" x1="51.7752" y1="300.5475" x2="51.7752" y2="173.4475" gradientTransform="matrix(1 0 0 1 0 -176)">
			<stop  offset="0" style="stop-color:#8C0064"/>
			<stop  offset="0.25" style="stop-color:#FF0028;stop-opacity:0"/>
		</linearGradient>
		<rect x="-11.8" y="-2.6" class="st3" width="127.1" height="127.1"/>
	</g>
	<g>
		<defs>
			<path id="SVGID_12_" d="M95.9,0.5c-6-1.9-12.3,1.3-14.3,7.2L57.9,80.9c-1.9,5.8-5.3,10.7-9.6,14.3c0.2-5.3,1.2-10.9,3-16.5
				l14.1-43.3c1.8-5.5-1.2-11.4-6.7-13.1c-5.5-1.8-11.4,1.2-13.1,6.7L31.4,72.3L28.6,81c-1.9,5.9-5.4,10.8-9.8,14.4
				c-1.5,1.2-1.5,1.2,0,0c0.3-5.3,1.3-10.9,3.1-16.6l10.2-31.4c1.6-5-1.1-10.4-6.1-12.1c-5-1.6-10.4,1.1-12.1,6.1L3.8,72.9
				c-3.5,10.7-4.5,21.2-3.4,29.7c1.2,9.6,5.2,16.6,11.5,18.7c3.9,1.3,8.1,0.7,12.4-1.3c2.8-1.3,5.7-3.4,8.4-5.9
				c2.2,3.5,5,5.9,8.6,7.1c4.2,1.4,8.7,0.9,13.2-1c10.1-4.4,19.9-16.4,25.1-32.3l23.8-73.1C105.1,8.8,101.8,2.4,95.9,0.5z"/>
		</defs>
		<clipPath id="SVGID_13_">
			<use xlink:href="#SVGID_12_"  style="overflow:visible;"/>
		</clipPath>
		
			<linearGradient id="SVGID_14_" gradientUnits="userSpaceOnUse" x1="51.7752" y1="300.5475" x2="51.7752" y2="173.4475" gradientTransform="matrix(1 0 0 1 0 -176)">
			<stop  offset="0.1" style="stop-color:#FF0064;stop-opacity:0"/>
			<stop  offset="0.4" style="stop-color:#FF0028"/>
		</linearGradient>
		<rect x="-11.8" y="-2.6" class="st4" width="127.1" height="127.1"/>
	</g>
</g>
<g>
	<ellipse transform="matrix(0.7678 -0.6407 0.6407 0.7678 9.3571 118.7553)" class="st5" cx="168.5" cy="46.5" rx="5.3" ry="3.7"/>
	<g>
		<path class="st5" d="M239.7,104c-0.5,0-1.1-0.1-1.6-0.3c-2.4-0.9-3.7-3.6-2.8-6l15-41.1c0.9-2.4,3.6-3.7,6-2.8
			c2.4,0.9,3.7,3.6,2.8,6l-15,41.1C243.4,102.8,241.6,104,239.7,104z"/>
		<path class="st5" d="M246.1,86.4c-0.5,0-1.1-0.1-1.6-0.3c-2.4-0.9-3.7-3.6-2.8-6c5.4-14.9,18.9-26.6,30.6-26.6
			c2.6,0,4.7,2.1,4.7,4.7c0,2.6-2.1,4.7-4.7,4.7c-6.9,0-17.3,8.2-21.8,20.4C249.9,85.2,248.1,86.4,246.1,86.4z"/>
	</g>
	<g>
		<path class="st5" d="M377.8,104c-0.5,0-1.1-0.1-1.6-0.3c-2.4-0.9-3.7-3.6-2.8-6l15-41.1c0.9-2.4,3.6-3.7,6-2.8
			c2.4,0.9,3.7,3.6,2.8,6l-15,41.1C381.5,102.8,379.7,104,377.8,104z"/>
		<path class="st5" d="M392.7,62.9c-0.5,0-1.1-0.1-1.6-0.3c-2.4-0.9-3.7-3.6-2.8-6c4.2-11.6,16.7-20.7,28.4-20.7
			c2.6,0,4.7,2.1,4.7,4.7s-2.1,4.7-4.7,4.7c-7.8,0-16.8,6.7-19.6,14.5C396.4,61.7,394.6,62.9,392.7,62.9z"/>
		<path class="st5" d="M353.7,121.6c-2.6,0-4.7-2.1-4.7-4.7c0-2.6,2.1-4.7,4.7-4.7c7.8,0,16.8-6.7,19.6-14.5c0.9-2.4,3.6-3.7,6-2.8
			c2.4,0.9,3.7,3.6,2.8,6C377.9,112.6,365.5,121.6,353.7,121.6z"/>
	</g>
	<path class="st5" d="M369.5,87.6c-2.6,0-4.7-2.1-4.7-4.7s2.1-4.7,4.7-4.7c16.6,0,31.1-7.7,33.8-14.6c0.9-2.4,3.7-3.6,6.1-2.7
		c2.4,0.9,3.6,3.7,2.7,6.1C407.5,78.5,388.9,87.6,369.5,87.6z"/>
	<path class="st5" d="M156.8,83.5c-0.5,0-1.1-0.1-1.6-0.3c-2.4-0.9-3.7-3.6-2.8-6l7.5-20.6c0.9-2.4,3.6-3.7,6-2.8
		c2.4,0.9,3.7,3.6,2.8,6l-7.5,20.6C160.5,82.3,158.7,83.5,156.8,83.5z"/>
	<path class="st5" d="M158.1,104c-2.7,0-5-1.2-6.6-3.5c-3.2-4.5-2.8-13.2,0.9-23.4c0.9-2.4,3.6-3.7,6-2.8c2.4,0.9,3.7,3.6,2.8,6
		c-2.8,7.8-2.7,12.7-2.2,14.3c2.2,0.4,3.8,2.3,3.8,4.6C162.8,101.9,160.7,104,158.1,104z M159.2,95.2L159.2,95.2L159.2,95.2z"/>
	<path class="st5" d="M173.2,99.3"/>
	<path class="st5" d="M172.8,99.3"/>
	<g>
		<g>
			<path class="st5" d="M124.5,83.5c-0.5,0-1.1-0.1-1.6-0.3c-2.4-0.9-3.7-3.6-2.8-6l7.5-20.6c0.9-2.4,3.6-3.7,6-2.8
				c2.4,0.9,3.7,3.6,2.8,6l-7.5,20.6C128.2,82.3,126.4,83.5,124.5,83.5z"/>
			<path class="st5" d="M125.8,104c-2.7,0-5-1.2-6.6-3.5c-3.2-4.5-2.8-13.2,0.9-23.4c0.9-2.4,3.6-3.7,6-2.8c2.4,0.9,3.7,3.6,2.8,6
				c-2.8,7.8-2.7,12.7-2.2,14.3c2.2,0.4,3.8,2.3,3.8,4.6C130.5,101.9,128.4,104,125.8,104z M126.9,95.2L126.9,95.2L126.9,95.2z"/>
			<path class="st5" d="M125.8,104c-2.6,0-4.7-2.1-4.7-4.7c0-2.6,2.1-4.7,4.6-4.7c2-0.4,8.1-6.8,11.9-17.5c0.9-2.4,3.6-3.7,6-2.8
				c2.4,0.9,3.7,3.6,2.8,6C142.3,91.8,134.1,104,125.8,104z M125.8,94.6C125.8,94.6,125.8,94.6,125.8,94.6
				C125.8,94.6,125.8,94.6,125.8,94.6z"/>
		</g>
		<path class="st5" d="M106.8,83.5c-0.5,0-1.1-0.1-1.6-0.3c-2.4-0.9-3.7-3.6-2.8-6l7.5-20.6c0.9-2.4,3.6-3.7,6-2.8
			c2.4,0.9,3.7,3.6,2.8,6l-7.5,20.6C110.5,82.3,108.7,83.5,106.8,83.5z"/>
		<path class="st5" d="M142.1,83.5c-0.5,0-1.1-0.1-1.6-0.3c-2.4-0.9-3.7-3.6-2.8-6l7.5-20.6c0.9-2.4,3.6-3.7,6-2.8
			c2.4,0.9,3.7,3.6,2.8,6l-7.5,20.6C145.8,82.3,144,83.5,142.1,83.5z"/>
		<path class="st5" d="M108.2,104c-2.7,0-5-1.2-6.6-3.5c-3.2-4.5-2.8-13.2,0.9-23.4c0.9-2.4,3.6-3.7,6-2.8c2.4,0.9,3.7,3.6,2.8,6
			c-2.8,7.8-2.7,12.7-2.2,14.3c2.2,0.4,3.8,2.3,3.8,4.6C112.9,101.9,110.8,104,108.2,104z M109.3,95.2L109.3,95.2L109.3,95.2z"/>
		<path class="st5" d="M108.2,104c-2.6,0-4.7-2.1-4.7-4.7c0-2.6,2.1-4.7,4.6-4.7c2-0.4,8.1-6.8,11.9-17.5c0.9-2.4,3.6-3.7,6-2.8
			c2.4,0.9,3.7,3.6,2.8,6C124.7,91.8,116.5,104,108.2,104z M108.2,94.6C108.2,94.6,108.2,94.6,108.2,94.6
			C108.2,94.6,108.2,94.6,108.2,94.6z"/>
	</g>
	<g>
		<path class="st5" d="M154.8,68.8c-3.7,0-6.9-1.5-8.7-4.1c-1.6-2.3-2-5.3-0.9-8.1c0.9-2.4,3.6-3.7,6-2.8c2.3,0.8,3.5,3.2,3,5.5
			c0.2,0,0.4,0.1,0.6,0.1c2.6,0,4.7,2.1,4.7,4.7C159.5,66.7,157.4,68.8,154.8,68.8z"/>
		<path class="st5" d="M154.8,68.8c-2.6,0-4.7-2.1-4.7-4.7c0-2.6,2.1-4.7,4.7-4.7c2.4,0,4.7-1.7,5.1-2.8c0.9-2.4,3.6-3.7,6-2.8
			c2.4,0.9,3.7,3.6,2.8,6C166.8,64.9,160.8,68.8,154.8,68.8z"/>
	</g>
	<g>
		<g>
			<path class="st5" d="M229.6,83.5c-0.5,0-1.1-0.1-1.6-0.3c-2.4-0.9-3.7-3.6-2.8-6l7.5-20.6c0.9-2.4,3.6-3.7,6-2.8
				c2.4,0.9,3.7,3.6,2.8,6L234,80.4C233.3,82.3,231.5,83.5,229.6,83.5z"/>
			<path class="st5" d="M230.9,104c-2.7,0-5-1.2-6.6-3.5c-3.2-4.5-2.8-13.2,0.9-23.4c0.9-2.4,3.6-3.7,6-2.8c2.4,0.9,3.7,3.6,2.8,6
				c-2.8,7.8-2.7,12.7-2.2,14.3c2.2,0.4,3.8,2.3,3.8,4.6C235.6,101.9,233.5,104,230.9,104z M232,95.2L232,95.2L232,95.2z"/>
			<path class="st5" d="M230.9,104c-2.6,0-4.7-2.1-4.7-4.7c0-2.6,2.1-4.7,4.6-4.7c2-0.4,8.1-6.8,11.9-17.5c0.9-2.4,3.6-3.7,6-2.8
				c2.4,0.9,3.7,3.6,2.8,6C247.5,91.8,239.2,104,230.9,104z M230.9,94.6C230.9,94.6,230.9,94.6,230.9,94.6
				C230.9,94.6,230.9,94.6,230.9,94.6z"/>
		</g>
		<path class="st5" d="M210.4,104c-3.5,0-6.5-1.6-8.5-4.4c-3.4-4.9-3.5-13.3-0.2-22.4c4.2-11.5,13.9-23.6,23.6-23.6
			c3.5,0,6.5,1.6,8.5,4.4c3.4,4.9,3.5,13.3,0.2,22.4l0,0C229.8,91.8,220.1,104,210.4,104z M225.3,62.9c-3.4,0-10.9,6.8-14.8,17.5
			c-2.7,7.3-2,12.3-1,13.8c0.3,0.4,0.4,0.4,0.8,0.4c3.4,0,10.9-6.8,14.8-17.5l0,0c2.7-7.3,2-12.3,1-13.8
			C225.9,63,225.7,62.9,225.3,62.9z M229.6,78.8L229.6,78.8L229.6,78.8z"/>
	</g>
	<path class="st5" d="M297.1,83.5c-0.5,0-1.1-0.1-1.6-0.3c-2.4-0.9-3.7-3.6-2.8-6L306.6,39c0.9-2.4,3.6-3.7,6-2.8
		c2.4,0.9,3.7,3.6,2.8,6l-13.9,38.2C300.9,82.3,299.1,83.5,297.1,83.5z"/>
	<path class="st5" d="M298.5,104c-2.7,0-5-1.2-6.6-3.5c-3.2-4.5-2.8-13.2,0.9-23.4c0.9-2.4,3.6-3.7,6-2.8c2.4,0.9,3.7,3.6,2.8,6
		c-2.8,7.8-2.7,12.7-2.2,14.3c2.2,0.4,3.8,2.3,3.8,4.6C303.2,101.9,301.1,104,298.5,104z M299.6,95.2L299.6,95.2L299.6,95.2z"/>
	<path class="st5" d="M298.5,104c-2.6,0-4.7-2.1-4.7-4.7c0-2.6,2.1-4.7,4.7-4.7c2.4,0,4.7-1.7,5.1-2.8c0.9-2.4,3.6-3.7,6-2.8
		c2.4,0.9,3.7,3.6,2.8,6C310.5,100.2,304.5,104,298.5,104z"/>
	<path class="st5" d="M313.2,104c-3.7,0-6.9-1.5-8.7-4.1c-1.6-2.3-2-5.3-0.9-8.1c0.9-2.4,3.6-3.7,6-2.8c2.3,0.8,3.5,3.2,3,5.5
		c0.2,0,0.4,0.1,0.6,0.1c2.6,0,4.7,2.1,4.7,4.7C317.8,101.9,315.7,104,313.2,104z"/>
	<path class="st5" d="M277.9,104c-3.5,0-6.5-1.6-8.5-4.4c-3.4-4.9-3.5-13.3-0.2-22.4c4.2-11.5,13.9-23.6,23.6-23.6
		c3.5,0,6.5,1.6,8.5,4.4c3.4,4.9,3.5,13.3,0.2,22.4l0,0C297.4,91.8,287.7,104,277.9,104z M292.9,62.9c-3.4,0-10.9,6.8-14.8,17.5
		c-2.7,7.3-2,12.3-1,13.8c0.3,0.4,0.4,0.4,0.8,0.4c3.4,0,10.9-6.8,14.8-17.5l0,0c2.7-7.3,2-12.3,1-13.8
		C293.4,63,293.3,62.9,292.9,62.9z M297.1,78.8L297.1,78.8L297.1,78.8z"/>
	<g>
		<path class="st5" d="M177.6,99.3"/>
		<path class="st5" d="M178.1,99.3"/>
		<g>
			<path class="st5" d="M169.2,104c-1,0-2-0.3-2.9-1c-2-1.6-2.4-4.6-0.8-6.6l32.6-41.1c1.6-2,4.6-2.4,6.6-0.8c2,1.6,2.4,4.6,0.8,6.6
				l-32.6,41.1C172,103.4,170.6,104,169.2,104z"/>
			<path class="st5" d="M189.8,104h-20.6c-2.6,0-4.7-2.1-4.7-4.7c0-2.6,2.1-4.7,4.7-4.7h20.6c2.6,0,4.7,2.1,4.7,4.7
				C194.5,101.9,192.4,104,189.8,104z"/>
			<path class="st5" d="M201.8,62.9h-20.6c-2.6,0-4.7-2.1-4.7-4.7c0-2.6,2.1-4.7,4.7-4.7h20.6c2.6,0,4.7,2.1,4.7,4.7
				C206.5,60.8,204.4,62.9,201.8,62.9z"/>
		</g>
	</g>
	<g>
		<path class="st5" d="M319,104c-2.6,0-4.7-2.1-4.7-4.7c0-2.6,2.1-4.7,4.7-4.7c4.5,0,9.7-3.4,11.1-7.2c0.9-2.4,3.6-3.7,6-2.8
			c2.4,0.9,3.7,3.6,2.8,6C336.2,98.2,327.5,104,319,104z"/>
		<path class="st5" d="M334.5,93.7c-0.5,0-1.1-0.1-1.6-0.3c-2.4-0.9-3.7-3.6-2.8-6c0.2-0.7,0.6-1.9,0-2.7c-0.6-0.8-1.9-1.3-3.6-1.3
			c-2.6,0-4.7-2.1-4.7-4.7c0-2.6,2.1-4.7,4.7-4.7c4.8,0,8.9,1.9,11.3,5.3c2.2,3.2,2.6,7.3,1.2,11.3
			C338.2,92.6,336.4,93.7,334.5,93.7z"/>
	</g>
	<g>
		<path class="st5" d="M318.5,73.2c-0.5,0-1.1-0.1-1.6-0.3c-2.4-0.9-3.7-3.6-2.8-6c2.7-7.5,11.5-13.4,19.9-13.4
			c2.6,0,4.7,2.1,4.7,4.7c0,2.6-2.1,4.7-4.7,4.7c-4.5,0-9.7,3.4-11.1,7.2C322.2,72,320.4,73.2,318.5,73.2z"/>
		<path class="st5" d="M326.5,83.5c-4.8,0-8.9-1.9-11.3-5.3c-2.2-3.2-2.6-7.3-1.2-11.3c0.9-2.4,3.6-3.7,6-2.8c2.4,0.9,3.7,3.6,2.8,6
			c-0.2,0.7-0.6,1.9,0,2.7c0.6,0.8,1.9,1.3,3.6,1.3c2.6,0,4.7,2.1,4.7,4.7C331.2,81.4,329.1,83.5,326.5,83.5z"/>
	</g>
	<path class="st5" d="M345.7,62.9H334c-2.6,0-4.7-2.1-4.7-4.7c0-2.6,2.1-4.7,4.7-4.7h11.7c2.6,0,4.7,2.1,4.7,4.7
		C350.4,60.8,348.3,62.9,345.7,62.9z"/>
	<path class="st5" d="M319,104h-5.9c-2.6,0-4.7-2.1-4.7-4.7c0-2.6,2.1-4.7,4.7-4.7h5.9c2.6,0,4.7,2.1,4.7,4.7
		C323.7,101.9,321.6,104,319,104z"/>
	<g>
		<path class="st5" d="M422.5,83.5c-0.5,0-1.1-0.1-1.6-0.3c-2.4-0.9-3.7-3.6-2.8-6L432,39c0.9-2.4,3.6-3.7,6-2.8
			c2.4,0.9,3.7,3.6,2.8,6L427,80.4C426.3,82.3,424.5,83.5,422.5,83.5z"/>
		<path class="st5" d="M423.9,104c-2.7,0-5-1.2-6.6-3.5c-3.2-4.5-2.8-13.2,0.9-23.4c0.9-2.4,3.6-3.7,6-2.8c2.4,0.9,3.7,3.6,2.8,6
			c-2.8,7.8-2.7,12.7-2.2,14.3c2.2,0.4,3.8,2.3,3.8,4.6C428.6,101.9,426.5,104,423.9,104z M425,95.2L425,95.2L425,95.2z"/>
		<path class="st5" d="M423.9,104c-2.6,0-4.7-2.1-4.7-4.7c0-2.6,2.1-4.7,4.7-4.7c2.4,0,4.7-1.7,5.1-2.8c0.9-2.4,3.6-3.7,6-2.8
			c2.4,0.9,3.7,3.6,2.8,6C435.9,100.2,429.9,104,423.9,104z"/>
	</g>
	<path class="st5" d="M445.1,62.9h-29.4c-2.6,0-4.7-2.1-4.7-4.7c0-2.6,2.1-4.7,4.7-4.7h29.4c2.6,0,4.7,2.1,4.7,4.7
		C449.8,60.8,447.7,62.9,445.1,62.9z"/>
	<path class="st5" d="M351.3,104c-3.5,0-6.5-1.6-8.5-4.4c-3.4-4.9-3.5-13.3-0.2-22.4c4.2-11.5,13.9-23.6,23.6-23.6
		c3.5,0,6.5,1.6,8.5,4.4c3.4,4.9,3.5,13.3,0.2,22.4l0,0C370.8,91.8,361.1,104,351.3,104z M366.3,62.9c-3.4,0-10.9,6.8-14.8,17.5
		c-2.7,7.3-2,12.3-1,13.8c0.3,0.4,0.4,0.4,0.8,0.4c3.4,0,10.9-6.8,14.8-17.5l0,0c2.7-7.3,2-12.3,1-13.8
		C366.9,63,366.7,62.9,366.3,62.9z M370.6,78.8L370.6,78.8L370.6,78.8z"/>
</g>
</svg>
