<?xml version="1.0" encoding="utf-8"?>
<!-- Generator: Adobe Illustrator 25.2.1, SVG Export Plug-In . SVG Version: 6.00 Build 0)  -->
<svg version="1.1" id="Layer_1" xmlns="http://www.w3.org/2000/svg" xmlns:xlink="http://www.w3.org/1999/xlink" x="0px" y="0px"
	 viewBox="0 0 500 122" style="enable-background:new 0 0 500 122;" xml:space="preserve">
<style type="text/css">
	.st0{fill:#686E78;}
</style>
<g>
	<ellipse transform="matrix(0.7678 -0.6407 0.6407 0.7678 13.3673 66.9571)" class="st0" cx="99.1" cy="15" rx="7.5" ry="5.2"/>
	<g>
		<path class="st0" d="M200.4,96.9c-0.8,0-1.5-0.1-2.3-0.4c-3.5-1.3-5.3-5.1-4-8.6l21.3-58.5c1.3-3.5,5.1-5.3,8.6-4
			c3.5,1.3,5.3,5.1,4,8.6l-21.3,58.5C205.7,95.2,203.1,96.9,200.4,96.9z"/>
		<path class="st0" d="M209.5,71.9c-0.8,0-1.5-0.1-2.3-0.4c-3.5-1.3-5.3-5.1-4-8.6c7.7-21.2,26.8-37.8,43.5-37.8
			c3.7,0,6.7,3,6.7,6.7s-3,6.7-6.7,6.7c-9.8,0-24.6,11.7-31,29C214.8,70.2,212.2,71.9,209.5,71.9z"/>
	</g>
	<g>
		<path class="st0" d="M396.8,96.9c-0.8,0-1.5-0.1-2.3-0.4c-3.5-1.3-5.3-5.1-4-8.6l21.3-58.5c1.3-3.5,5.1-5.3,8.6-4
			c3.5,1.3,5.3,5.1,4,8.6L403,92.5C402.1,95.2,399.5,96.9,396.8,96.9z"/>
		<path class="st0" d="M418.1,38.4c-0.8,0-1.5-0.1-2.3-0.4c-3.5-1.3-5.3-5.1-4-8.6c6-16.5,23.8-29.5,40.5-29.5c3.7,0,6.7,3,6.7,6.7
			s-3,6.7-6.7,6.7c-11.1,0-23.8,9.5-27.9,20.7C423.4,36.7,420.8,38.4,418.1,38.4z"/>
		<path class="st0" d="M362.6,122c-3.7,0-6.7-3-6.7-6.7c0-3.7,3-6.7,6.7-6.7c11.1,0,23.8-9.5,27.9-20.7c1.3-3.5,5.1-5.3,8.6-4
			c3.5,1.3,5.3,5.1,4,8.6C397,109.1,379.3,122,362.6,122z"/>
	</g>
	<path class="st0" d="M385,73.5c-3.7,0-6.7-3-6.7-6.7c0-3.7,3-6.7,6.7-6.7c23.6,0,44.3-11,48.1-20.8c1.3-3.4,5.2-5.1,8.6-3.8
		c3.4,1.3,5.1,5.2,3.8,8.6C439.1,60.6,412.5,73.5,385,73.5z"/>
	<path class="st0" d="M82.3,67.7c-0.8,0-1.5-0.1-2.3-0.4c-3.5-1.3-5.3-5.1-4-8.6l10.6-29.3c1.3-3.5,5.1-5.3,8.6-4
		c3.5,1.3,5.3,5.1,4,8.6L88.6,63.3C87.6,66,85.1,67.7,82.3,67.7z"/>
	<path class="st0" d="M84.2,96.9c-3.8,0-7.2-1.8-9.4-5c-4.5-6.4-4-18.8,1.2-33.3c1.3-3.5,5.1-5.3,8.6-4c3.5,1.3,5.3,5.1,4,8.6
		c-4,11.1-3.8,18.1-3.1,20.4c3.1,0.6,5.4,3.3,5.4,6.6C90.9,93.9,87.9,96.9,84.2,96.9z M85.8,84.3L85.8,84.3L85.8,84.3z"/>
	<path class="st0" d="M105.8,90.2"/>
	<path class="st0" d="M105.1,90.2"/>
	<g>
		<g>
			<path class="st0" d="M36.4,67.7c-0.8,0-1.5-0.1-2.3-0.4c-3.5-1.3-5.3-5.1-4-8.6l10.6-29.3c1.3-3.5,5.1-5.3,8.6-4
				c3.5,1.3,5.3,5.1,4,8.6L42.6,63.3C41.7,66,39.1,67.7,36.4,67.7z"/>
			<path class="st0" d="M38.3,96.9c-3.8,0-7.2-1.8-9.4-5c-4.5-6.4-4-18.8,1.2-33.3c1.3-3.5,5.1-5.3,8.6-4c3.5,1.3,5.3,5.1,4,8.6
				c-4,11.1-3.8,18.1-3.1,20.4c3.1,0.6,5.4,3.3,5.4,6.6C44.9,93.9,41.9,96.9,38.3,96.9z M39.8,84.3L39.8,84.3L39.8,84.3z"/>
			<path class="st0" d="M38.3,96.9c-3.7,0-6.7-3-6.7-6.7c0-3.7,3-6.6,6.6-6.7c2.9-0.5,11.5-9.7,17-24.9c1.3-3.5,5.1-5.3,8.6-4
				c3.5,1.3,5.3,5.1,4,8.6C61.8,79.5,50.1,96.9,38.3,96.9z M38.3,83.6C38.3,83.6,38.3,83.6,38.3,83.6C38.3,83.6,38.3,83.6,38.3,83.6
				z"/>
		</g>
		<path class="st0" d="M11.3,67.7c-0.8,0-1.5-0.1-2.3-0.4c-3.5-1.3-5.3-5.1-4-8.6l10.6-29.3c1.3-3.5,5.1-5.3,8.6-4
			c3.5,1.3,5.3,5.1,4,8.6L17.6,63.3C16.6,66,14,67.7,11.3,67.7z"/>
		<path class="st0" d="M61.4,67.7c-0.8,0-1.5-0.1-2.3-0.4c-3.5-1.3-5.3-5.1-4-8.6l10.6-29.3c1.3-3.5,5.1-5.3,8.6-4
			c3.5,1.3,5.3,5.1,4,8.6L67.7,63.3C66.7,66,64.2,67.7,61.4,67.7z"/>
		<path class="st0" d="M13.2,96.9c-3.8,0-7.2-1.8-9.4-5c-4.5-6.4-4-18.8,1.2-33.3c1.3-3.5,5.1-5.3,8.6-4c3.5,1.3,5.3,5.1,4,8.6
			c-4,11.1-3.8,18.1-3.1,20.4c3.1,0.6,5.4,3.3,5.4,6.6C19.9,93.9,16.9,96.9,13.2,96.9z M14.7,84.3L14.7,84.3L14.7,84.3z"/>
		<path class="st0" d="M13.2,96.9c-3.7,0-6.7-3-6.7-6.7c0-3.7,3-6.6,6.6-6.7c2.9-0.5,11.5-9.7,17-24.9c1.3-3.5,5.1-5.3,8.6-4
			c3.5,1.3,5.3,5.1,4,8.6C36.7,79.5,25,96.9,13.2,96.9z M13.2,83.6C13.2,83.6,13.2,83.6,13.2,83.6C13.2,83.6,13.2,83.6,13.2,83.6z"
			/>
	</g>
	<g>
		<path class="st0" d="M79.5,46.8c-5.3,0-9.8-2.1-12.4-5.8c-2.3-3.3-2.8-7.5-1.3-11.5c1.3-3.5,5.1-5.3,8.6-4c3.2,1.2,5,4.6,4.2,7.9
			c0.2,0,0.5,0.1,0.9,0.1c3.7,0,6.7,3,6.7,6.7S83.2,46.8,79.5,46.8z"/>
		<path class="st0" d="M79.5,46.8c-3.7,0-6.7-3-6.7-6.7s3-6.7,6.7-6.7c3.3,0,6.6-2.4,7.2-4c1.3-3.5,5.1-5.3,8.6-4
			c3.5,1.3,5.3,5.1,4,8.6C96.6,41.3,88.1,46.8,79.5,46.8z"/>
	</g>
	<g>
		<g>
			<path class="st0" d="M186,67.7c-0.8,0-1.5-0.1-2.3-0.4c-3.5-1.3-5.3-5.1-4-8.6l10.6-29.3c1.3-3.5,5.1-5.3,8.6-4
				c3.5,1.3,5.3,5.1,4,8.6l-10.6,29.3C191.2,66,188.7,67.7,186,67.7z"/>
			<path class="st0" d="M187.8,96.9c-3.8,0-7.2-1.8-9.4-5c-4.5-6.4-4-18.8,1.2-33.3c1.3-3.5,5.1-5.3,8.6-4c3.5,1.3,5.3,5.1,4,8.6
				c-4,11.1-3.8,18.1-3.1,20.4c3.1,0.6,5.4,3.3,5.4,6.6C194.5,93.9,191.5,96.9,187.8,96.9z M189.4,84.3L189.4,84.3L189.4,84.3z"/>
			<path class="st0" d="M187.8,96.9c-3.7,0-6.7-3-6.7-6.7c0-3.7,3-6.6,6.6-6.7c2.9-0.5,11.5-9.7,17-24.9c1.3-3.5,5.1-5.3,8.6-4
				c3.5,1.3,5.3,5.1,4,8.6C211.4,79.5,199.7,96.9,187.8,96.9z M187.8,83.6C187.8,83.6,187.8,83.6,187.8,83.6
				C187.8,83.6,187.8,83.6,187.8,83.6z"/>
		</g>
		<path class="st0" d="M158.6,96.9c-5,0-9.3-2.2-12.1-6.3c-4.9-7-5-18.9-0.2-31.9c5.9-16.3,19.7-33.6,33.6-33.6
			c5,0,9.3,2.2,12.1,6.3c4.9,7,5,18.9,0.2,31.9l0,0C186.3,79.6,172.5,96.9,158.6,96.9z M179.9,38.4c-4.9,0-15.6,9.7-21.1,24.9
			c-3.8,10.4-2.9,17.5-1.4,19.7c0.4,0.5,0.6,0.6,1.2,0.6c4.9,0,15.6-9.7,21.1-24.9l0,0c3.8-10.4,2.9-17.5,1.4-19.7
			C180.7,38.5,180.4,38.4,179.9,38.4z M186,61L186,61L186,61z"/>
	</g>
	<path class="st0" d="M282.1,67.7c-0.8,0-1.5-0.1-2.3-0.4c-3.5-1.3-5.3-5.1-4-8.6l19.8-54.3c1.3-3.5,5.1-5.3,8.6-4
		c3.5,1.3,5.3,5.1,4,8.6l-19.8,54.3C287.4,66,284.8,67.7,282.1,67.7z"/>
	<path class="st0" d="M284,96.9c-3.8,0-7.2-1.8-9.4-5c-4.5-6.4-4-18.8,1.2-33.3c1.3-3.5,5.1-5.3,8.6-4c3.5,1.3,5.3,5.1,4,8.6
		c-4,11.1-3.8,18.1-3.1,20.4c3.1,0.6,5.4,3.3,5.4,6.6C290.6,93.9,287.6,96.9,284,96.9z M285.5,84.3L285.5,84.3L285.5,84.3z"/>
	<path class="st0" d="M284,96.9c-3.7,0-6.7-3-6.7-6.7s3-6.7,6.7-6.7c3.3,0,6.6-2.4,7.2-4c1.3-3.5,5.1-5.3,8.6-4
		c3.5,1.3,5.3,5.1,4,8.6C301.1,91.4,292.6,96.9,284,96.9z"/>
	<path class="st0" d="M304.8,96.9c-5.3,0-9.8-2.1-12.4-5.8c-2.3-3.3-2.8-7.5-1.3-11.5c1.3-3.5,5.1-5.3,8.6-4c3.2,1.2,5,4.6,4.2,7.9
		c0.2,0,0.5,0.1,0.9,0.1c3.7,0,6.7,3,6.7,6.7S308.5,96.9,304.8,96.9z"/>
	<path class="st0" d="M254.7,96.9c-5,0-9.3-2.2-12.1-6.3c-4.9-7-5-18.9-0.2-31.9c5.9-16.3,19.7-33.6,33.6-33.6c5,0,9.3,2.2,12.1,6.3
		c4.9,7,5,18.9,0.2,31.9l0,0C282.4,79.6,268.6,96.9,254.7,96.9z M276,38.4c-4.9,0-15.6,9.7-21.1,24.9c-3.8,10.4-2.9,17.5-1.4,19.7
		c0.4,0.5,0.6,0.6,1.2,0.6c4.9,0,15.6-9.7,21.1-24.9l0,0c3.8-10.4,2.9-17.5,1.4-19.7C276.8,38.5,276.5,38.4,276,38.4z M282.1,61
		L282.1,61L282.1,61z"/>
	<g>
		<path class="st0" d="M112,90.2"/>
		<path class="st0" d="M112.6,90.2"/>
		<g>
			<path class="st0" d="M100.1,96.9c-1.5,0-2.9-0.5-4.1-1.4c-2.9-2.3-3.4-6.5-1.1-9.4l46.4-58.5c2.3-2.9,6.5-3.4,9.4-1.1
				c2.9,2.3,3.4,6.5,1.1,9.4l-46.4,58.5C104,96.1,102.1,96.9,100.1,96.9z"/>
			<path class="st0" d="M129.3,96.9h-29.2c-3.7,0-6.7-3-6.7-6.7s3-6.7,6.7-6.7h29.2c3.7,0,6.7,3,6.7,6.7S133,96.9,129.3,96.9z"/>
			<path class="st0" d="M146.5,38.4h-29.2c-3.7,0-6.7-3-6.7-6.7s3-6.7,6.7-6.7h29.2c3.7,0,6.7,3,6.7,6.7S150.1,38.4,146.5,38.4z"/>
		</g>
	</g>
	<g>
		<path class="st0" d="M313.2,96.9c-3.7,0-6.7-3-6.7-6.7s3-6.7,6.7-6.7c6.4,0,13.8-4.8,15.8-10.2c1.3-3.5,5.1-5.3,8.6-4
			c3.5,1.3,5.3,5.1,4,8.6C337.6,88.6,325.2,96.9,313.2,96.9z"/>
		<path class="st0" d="M335.2,82.3c-0.8,0-1.5-0.1-2.3-0.4c-3.5-1.3-5.3-5.1-4-8.6c0.3-0.9,0.8-2.7,0-3.9c-0.8-1.1-2.7-1.8-5.1-1.8
			c-3.7,0-6.7-3-6.7-6.7s3-6.7,6.7-6.7c6.8,0,12.7,2.7,16,7.5c3.1,4.5,3.7,10.3,1.7,16.1C340.5,80.6,338,82.3,335.2,82.3z"/>
	</g>
	<g>
		<path class="st0" d="M312.5,53.1c-0.8,0-1.5-0.1-2.3-0.4c-3.5-1.3-5.3-5.1-4-8.6c3.9-10.7,16.3-19,28.3-19c3.7,0,6.7,3,6.7,6.7
			s-3,6.7-6.7,6.7c-6.4,0-13.8,4.8-15.8,10.2C317.7,51.4,315.2,53.1,312.5,53.1z"/>
		<path class="st0" d="M323.8,67.7c-6.8,0-12.7-2.7-16-7.5c-3.1-4.5-3.7-10.3-1.7-16.1c1.3-3.5,5.1-5.3,8.6-4c3.5,1.3,5.3,5.1,4,8.6
			c-0.3,0.9-0.8,2.7,0,3.9c0.8,1.1,2.7,1.8,5.1,1.8c3.7,0,6.7,3,6.7,6.7S327.5,67.7,323.8,67.7z"/>
	</g>
	<path class="st0" d="M351.2,38.4h-16.7c-3.7,0-6.7-3-6.7-6.7s3-6.7,6.7-6.7h16.7c3.7,0,6.7,3,6.7,6.7S354.9,38.4,351.2,38.4z"/>
	<path class="st0" d="M313.2,96.9h-8.4c-3.7,0-6.7-3-6.7-6.7s3-6.7,6.7-6.7h8.4c3.7,0,6.7,3,6.7,6.7S316.9,96.9,313.2,96.9z"/>
	<g>
		<path class="st0" d="M460.5,67.7c-0.8,0-1.5-0.1-2.3-0.4c-3.5-1.3-5.3-5.1-4-8.6L474,4.4c1.3-3.5,5.1-5.3,8.6-4
			c3.5,1.3,5.3,5.1,4,8.6l-19.8,54.3C465.8,66,463.2,67.7,460.5,67.7z"/>
		<path class="st0" d="M462.4,96.9c-3.8,0-7.2-1.8-9.4-5c-4.5-6.4-4-18.8,1.2-33.3c1.3-3.5,5.1-5.3,8.6-4c3.5,1.3,5.3,5.1,4,8.6
			c-4,11.1-3.8,18.1-3.1,20.4c3.1,0.6,5.4,3.3,5.4,6.6C469.1,93.9,466.1,96.9,462.4,96.9z M463.9,84.3L463.9,84.3L463.9,84.3z"/>
		<path class="st0" d="M462.4,96.9c-3.7,0-6.7-3-6.7-6.7s3-6.7,6.7-6.7c3.3,0,6.6-2.4,7.2-4c1.3-3.5,5.1-5.3,8.6-4
			c3.5,1.3,5.3,5.1,4,8.6C479.5,91.4,471,96.9,462.4,96.9z"/>
	</g>
	<path class="st0" d="M492.6,38.4h-41.8c-3.7,0-6.7-3-6.7-6.7s3-6.7,6.7-6.7h41.8c3.7,0,6.7,3,6.7,6.7S496.3,38.4,492.6,38.4z"/>
	<path class="st0" d="M359.2,96.9c-5,0-9.3-2.2-12.1-6.3c-4.9-7-5-18.9-0.2-31.9c5.9-16.3,19.7-33.6,33.6-33.6c5,0,9.3,2.2,12.1,6.3
		c4.9,7,5,18.9,0.2,31.9l0,0C386.9,79.6,373.1,96.9,359.2,96.9z M380.5,38.4c-4.9,0-15.6,9.7-21.1,24.9c-3.8,10.4-2.9,17.5-1.4,19.7
		c0.4,0.5,0.6,0.6,1.2,0.6c4.9,0,15.6-9.7,21.1-24.9l0,0c3.8-10.4,2.9-17.5,1.4-19.7C381.3,38.5,381,38.4,380.5,38.4z M386.5,61
		L386.5,61L386.5,61z"/>
</g>
</svg>
