<?xml version="1.0" encoding="utf-8"?>
<!-- Generator: Adobe Illustrator 25.2.1, SVG Export Plug-In . SVG Version: 6.00 Build 0)  -->
<svg version="1.1" id="Layer_1" xmlns="http://www.w3.org/2000/svg" xmlns:xlink="http://www.w3.org/1999/xlink" x="0px" y="0px"
	 viewBox="0 0 48 48" style="enable-background:new 0 0 48 48;" xml:space="preserve">
<style type="text/css">
	.st0{fill:#F50000;}
</style>
<g>
	<path class="st0" d="M48,11.8c0-2-1.4-3.7-3.3-4.1L24.9,3.1C24.6,3,24.3,3,24,3c-0.3,0-0.6,0-0.9,0.1L3.3,7.7c-1.9,0.4-3.3,2-3.3,4
		c0,2,1.4,3.7,3.3,4.1l4.4,1V30c0,4.5,6.1,7.2,16.3,7.2c10.2,0,16.3-2.7,16.3-7.2V16.9l4.4-1C46.6,15.5,48,13.8,48,11.8z M9.9,17.3
		l13.2,3.1c0.6,0.1,1.2,0.1,1.8,0l13.2-3.1V30c0,2-5,5-14.1,5S9.9,32.1,9.9,30V17.3z M45.7,11.7c0,0.9-0.6,1.7-1.5,1.9l-19.7,4.6
		l-1,0L3.7,13.6c-0.9-0.2-1.5-1-1.5-1.9c0-0.9,0.6-1.7,1.5-1.9l19.8-4.6c0.1,0,0.3-0.1,0.4-0.1c0.1,0,0.3,0,0.4,0.1l19.8,4.6
		C45.1,10,45.7,10.8,45.7,11.7z"/>
	<path class="st0" d="M45.3,18.3c-0.7,0-1.1,0.6-1.1,1.1v13.7c0,0.7,0.6,1.1,1.1,1.1c0.7,0,1.1-0.6,1.1-1.1l0-13.7
		c0-0.3,0-0.5-0.2-0.7C46,18.4,45.7,18.3,45.3,18.3z"/>
	<path class="st0" d="M45.3,36.6c-1.2,0-2.7,3.8-2.7,5.7c0,1.5,1.2,2.7,2.7,2.7c1.6,0,2.7-1.1,2.7-2.7C48,40.5,46.6,36.6,45.3,36.6z
		"/>
</g>
</svg>
