<?xml version="1.0" encoding="utf-8"?>
<!-- Generator: Adobe Illustrator 25.2.1, SVG Export Plug-In . SVG Version: 6.00 Build 0)  -->
<svg version="1.1" id="Layer_1" xmlns="http://www.w3.org/2000/svg" xmlns:xlink="http://www.w3.org/1999/xlink" x="0px" y="0px"
	 viewBox="0 0 48 48" style="enable-background:new 0 0 48 48;" xml:space="preserve">
<style type="text/css">
	.st0{fill:#F50000;}
</style>
<g>
	<path class="st0" d="M45.8,24.3L45.8,24.3c-0.1-0.2-0.1-0.3,0-0.4l2-5.2c0.5-1.4,0-2.8-1.3-3.6l-4.8-3L41.7,12
		c-0.1-0.1-0.2-0.2-0.2-0.3L40,6.6c-0.3-1.4-1.6-2.4-3.2-2.4c0,0,0,0,0,0l-5.6,0.3c-0.3,0-0.5-0.1-0.7-0.2l-4.4-3.4
		c-1.1-1-2.8-1-3.9,0l-4.4,3.3l-0.1,0.1c0,0-0.2,0.1-0.5,0.1l-6-0.3C9.6,4,8.3,5.1,8,6.4l-1.5,5.3c0,0.2-0.1,0.3-0.3,0.4l-4.7,2.8
		c-1.3,0.7-1.9,2.3-1.4,3.7l2.1,5.1c0,0.1,0,0.2,0,0.3l-2,5.2c-0.5,1.4,0,2.8,1.3,3.6l4.7,2.9c0.2,0.2,0.4,0.4,0.4,0.6l1.5,5.2
		c0.5,1.4,1.7,2.2,3.2,2.2c0,0,0,0,0,0l5.6-0.3c0.3,0,0.5,0.1,0.7,0.2l4.4,3.4l0.1,0.1c0.6,0.4,1.3,0.6,1.9,0.6c0.7,0,1.4-0.2,2-0.6
		l4.4-3.4l0.1-0.1c0,0,0.2-0.1,0.5-0.1l5.7,0.3c1.5,0,2.9-1,3.2-2.4l1.5-5.3c0-0.2,0.1-0.3,0.3-0.4l4.7-2.8c1.3-0.7,1.9-2.3,1.4-3.7
		L45.8,24.3z M43.7,25.2l1.9,5c0.1,0.3,0,0.7-0.4,0.9l-4.7,2.8c-0.7,0.4-1.3,1.1-1.4,1.8L37.8,41c-0.1,0.4-0.5,0.7-0.9,0.7l-5.7-0.3
		c-0.9,0-1.6,0.2-2.1,0.7l-4.4,3.4c-0.3,0.2-0.9,0.2-1.3,0L19,42c-0.7-0.6-1.6-0.6-2.1-0.6c0,0,0,0,0,0l-5.6,0.3
		c-0.2,0-0.8-0.1-1-0.6L8.9,36c-0.2-0.8-0.6-1.4-1.3-2l-4.8-3c-0.3-0.2-0.5-0.6-0.4-0.9l1.9-5c0.3-0.7,0.3-1.6,0-2.2l-2.1-5
		c-0.1-0.3,0-0.7,0.4-0.9l4.7-2.8c0.7-0.4,1.3-1.1,1.4-1.8L10.2,7c0.1-0.4,0.5-0.7,0.9-0.7l6,0.3c0.9,0,1.6-0.2,2.1-0.7l4.5-3.3
		c0.3-0.3,0.7-0.3,1,0l4.5,3.5c0.7,0.6,1.6,0.6,2.1,0.6c0,0,0,0,0,0l5.6-0.3c0.4,0,0.9,0.3,1,0.7l1.4,5.1c0.2,0.7,0.7,1.4,1.4,1.7
		l4.7,3c0.3,0.2,0.5,0.6,0.4,0.9l-1.9,5C43.4,23.6,43.4,24.5,43.7,25.2z"/>
	<path class="st0" d="M34.1,19.4C34.1,19.4,34.1,19.4,34.1,19.4l-5.7-0.2c0,0-0.1,0-0.1,0l-2.1-5.7c-0.2-0.7-0.7-1.2-1.3-1.4
		c-0.6-0.3-1.2-0.3-1.7-0.1c-0.6,0.2-1,0.7-1.2,1.4L20,19.1c0,0.1,0,0.1-0.1,0.1l-5.7,0.2c-0.8,0-1.4,0.5-1.6,0.7l-0.1,0.1
		c-0.8,1-0.6,2.4,0.4,3.2l4.6,3.8L16,33c-0.2,0.7-0.1,1.5,0.2,2c0.6,1,2,1.4,3.2,0.7l4.8-3.4l4.8,3.3c0.4,0.3,0.8,0.4,1.2,0.4
		c0.3,0,0.6,0,0.8-0.1c1.2-0.4,1.8-1.7,1.5-2.8l-1.5-5.9l4.5-3.7l0.1-0.1c0.3-0.3,0.7-0.9,0.7-1.6C36.3,20.5,35.3,19.4,34.1,19.4z
		 M34,21.8l-4.5,3.6c-0.7,0.6-1.1,1.5-0.8,2.4l1.5,5.8l-4.7-3.3c-0.8-0.6-1.9-0.6-2.6,0l-4.7,3.4l1.6-6c0.2-0.9-0.1-1.9-0.8-2.4
		l-4.6-3.8l5.7-0.2c0.6,0,1.6-0.2,2.1-1.6l1.9-5.6l2,5.6c0.2,0.8,1,1.4,1.9,1.6l5.9,0.2C34,21.7,34,21.8,34,21.8
		C34,21.8,34,21.8,34,21.8z"/>
</g>
</svg>
