<?xml version="1.0" encoding="utf-8"?>
<!-- Generator: Adobe Illustrator 25.2.1, SVG Export Plug-In . SVG Version: 6.00 Build 0)  -->
<svg version="1.1" id="Layer_1" xmlns="http://www.w3.org/2000/svg" xmlns:xlink="http://www.w3.org/1999/xlink" x="0px" y="0px"
	 viewBox="0 0 48 48" style="enable-background:new 0 0 48 48;" xml:space="preserve">
<style type="text/css">
	.st0{fill:#F50000;}
</style>
<path class="st0" d="M40.9,6.5C36.5,2.8,30.5,0.7,24,0.7c-6.3,0-12.3,2.1-16.9,5.8C2.5,10.3,0,15.4,0,20.8c0,5.4,2.5,10.5,7.1,14.3
	c4.4,3.7,10.4,5.8,16.9,5.8c2.4,0,4.8-0.3,7.1-0.9l0.3-0.1l6,6.9c0.2,0.3,0.6,0.4,1,0.4l0.1,0c0.7-0.1,1.2-0.7,1.2-1.3V36l0.2-0.2
	c5.2-3.8,8.1-9.2,8.1-15C48,15.4,45.5,10.3,40.9,6.5z M45.4,20.8c0,5.1-2.8,10.1-7.7,13.5c-0.3,0.2-0.5,0.6-0.5,1.1v7.2l-4.3-4.9
	c-0.2-0.3-0.6-0.5-1-0.5c-0.1,0-0.2,0-0.4,0c-2.4,0.7-5,1.1-7.4,1.1c-11.8,0-21.3-7.9-21.3-17.5S12.2,3.3,24,3.3
	C35.8,3.3,45.4,11.1,45.4,20.8z"/>
<g>
	<circle class="st0" cx="17" cy="25.3" r="2.1"/>
	<circle class="st0" cx="24" cy="25.3" r="2.1"/>
	<circle class="st0" cx="31" cy="25.3" r="2.1"/>
</g>
</svg>
