<?xml version="1.0" encoding="utf-8"?>
<!-- Generator: Adobe Illustrator 25.2.1, SVG Export Plug-In . SVG Version: 6.00 Build 0)  -->
<svg version="1.1" id="Layer_1" xmlns="http://www.w3.org/2000/svg" xmlns:xlink="http://www.w3.org/1999/xlink" x="0px" y="0px"
	 viewBox="0 0 523 300" style="enable-background:new 0 0 523 300;" xml:space="preserve">
<style type="text/css">
	.st0{fill:#6F2570;}
	.st1{fill:#FFFFFF;}
	.st2{fill:#DCDCDC;}
</style>
<rect class="st0" width="523" height="300"/>
<g>
	<g transform="matrix( 1, 0, 0, 1, 0,0) ">
		<g>
			<g>
				<g>
					<path class="st1" d="M190.1,100.7c1.5-1.5,3-2.7,4.7-3.8h-68c-1.4,0-2.6,0.2-3.9,0.3c-5.3,0.8-10,3.2-13.9,7.1
						c-5,4.8-7.4,10.9-7.4,17.9c0,1.8,0.2,3.6,0.6,5.3c0.9,4.7,3.2,8.9,6.8,12.6c3.9,3.9,8.6,6.4,14.1,7.1c1.2,0.2,2.4,0.3,3.8,0.3
						h3.8v30.3c0,1.4,0.2,2.7,0.3,3.9c0.8,5.3,3.2,10,7.1,13.9c4.8,5,10.9,7.4,17.9,7.4c1.8,0,3.6-0.2,5.3-0.6
						c4.7-0.9,8.9-3.2,12.6-6.8c3.9-3.9,6.4-8.6,7.1-14.1c0.2-1.2,0.3-2.4,0.3-3.8v-30.3h13.5c-1.5-1.1-3-2.4-4.5-3.8
						c-4.4-4.4-7.1-9.4-8.3-15.1c-0.3-1.7-0.6-3.3-0.6-5.1c0-0.2,0-0.2,0-0.3s0-0.2,0-0.3v-1.4C181.3,113.3,184.3,106.5,190.1,100.7
						 M189,152.5c-0.2,0-0.2,0-0.3,0c-0.6,0.2-1.2,0.5-1.7,0.9c-0.6,0.6-0.9,1.2-0.9,2.1v24.1V179c0,1.8-0.3,3.5-0.6,5.1
						c-1.2,5.8-3.9,10.8-8.3,15.1c-1.5,1.4-3,2.7-4.5,3.8h61.6c1.4,0,2.6-0.2,3.8-0.3c5.3-0.8,10-3.2,14.1-7.1
						c3.6-3.6,5.9-7.9,6.8-12.6c0.3-1.7,0.6-3.5,0.6-5.3c0-7-2.4-12.9-7.4-17.9c-3.9-3.9-8.6-6.4-13.9-7.1c-1.2-0.2-2.6-0.3-3.9-0.3
						L189,152.5 M265.7,99.8c0-0.2,0-0.2,0-0.3c-0.2-0.6-0.5-1.2-0.9-1.7c-0.6-0.6-1.2-0.9-2.1-0.9h-51.8h-0.2
						c-1.1,0-2.1,0.2-3.2,0.3c-5.3,0.8-10,3.2-13.9,7.1c-5,4.8-7.4,10.9-7.4,17.9c0,1.8,0.2,3.6,0.5,5.3c0.9,4.7,3.2,8.9,6.8,12.6
						c3.9,3.9,8.6,6.4,14.1,7.1c1.1,0.2,2,0.2,3,0.3h52.1c0.2,0,0.2,0,0.3,0c0.6-0.2,1.2-0.5,1.7-0.9c0.6-0.6,0.9-1.2,0.9-2.1V99.8
						H265.7z"/>
				</g>
			</g>
		</g>
	</g>
	<g id="_____2_2_">
		<g>
			<g transform="matrix( 1, 0, 0, 1, 0,0) ">
				<g>
					<g>
						<path class="st2" d="M130.6,147.3v8.5l37.9-7v-1.5H130.6z"/>
					</g>
				</g>
			</g>
		</g>
	</g>
	<g>
		<g>
			<path class="st1" d="M361.2,158.4c0,0.9-0.8,1.7-1.7,1.7c-0.5,0-0.9-0.2-1.2-0.5l-1.5-1.5c-1.7,1.4-3.2,2-5.1,2
				c-3.3,0-5.6-2-5.6-4.7c0-1.8,0.9-3,3.3-5c-1.1-1.2-1.5-2.3-1.5-3.6c0-2.4,1.7-4.1,4.2-4.1c2.4,0,4.1,1.5,4.1,3.6
				c0,1.5-0.8,2.7-2.4,4.2l2.7,2.9c0.5-0.6,0.8-1.2,1.2-1.8c0.5-0.6,0.9-0.9,1.5-0.9c0.9,0,1.5,0.8,1.5,1.5c0,0.5-0.2,0.8-0.6,1.4
				c-0.5,0.8-0.9,1.4-1.4,2l1.5,1.7C361.1,157.5,361.2,158,361.2,158.4z M354.9,155.7l-3.2-3.3c-1.5,1.2-2,1.7-2,2.6
				c0,1.2,0.9,2,2.3,2C353,157,354,156.6,354.9,155.7z M351.4,146.6c0,0.6,0.3,1.2,0.9,1.8c1.1-0.8,1.4-1.2,1.4-2s-0.5-1.1-1.1-1.1
				C351.8,145.5,351.4,146,351.4,146.6z"/>
		</g>
		<g>
			<path class="st1" d="M296.6,130.8v-21.2h-6.4c-2.3,0-3.9-1.7-3.9-3.8s1.7-3.8,3.9-3.8h21.2c2.3,0,3.9,1.7,3.9,3.8
				c0,2.3-1.7,3.8-3.9,3.8H305v21.2c0,2.4-1.8,4.2-4.2,4.2C298.4,135.1,296.6,133.3,296.6,130.8z"/>
			<path class="st1" d="M338.4,121L338.4,121c0,2.6-1.8,4.2-4.4,4.2h-11.8c0.9,1.8,2.7,2.9,5.5,2.9c1.4,0,3-0.3,4.2-0.9
				c0.6-0.3,1.1-0.5,1.5-0.5c1.8,0,3.3,1.4,3.3,3.3c0,1.4-0.6,2.4-2.1,3.3c-2.1,1.2-4.7,1.8-7.4,1.8c-8,0-13.9-5.5-13.9-12.9
				c0-7.4,5.6-12.9,13-12.9C333.2,109.3,338.4,114.2,338.4,121z M321.7,119.6h8.5c-0.2-2.1-1.8-3.6-4.1-3.6
				C324,116,322.5,117.4,321.7,119.6z"/>
			<path class="st1" d="M364.7,120.2v10.6c0,2.4-1.7,4.2-4.1,4.2c-1.7,0-3.2-0.9-3.8-2.4c-1.7,1.5-4.1,2.4-7,2.4
				c-5.1,0-8.5-3-8.5-7.6c0-4.7,3.6-7.4,9.7-7.4h5.1v-0.5c0-2-1.4-3.2-3.8-3.2c-1.4,0-2.6,0.5-3.9,1.2c-1.1,0.6-1.5,0.9-2.3,0.9
				c-2,0-3.5-1.5-3.5-3.5c0-1.2,0.6-2.4,1.8-3.3c2.1-1.7,5.3-2.6,8.8-2.6C360.6,109.3,364.7,113.3,364.7,120.2z M356.2,125.5v-0.2
				h-3.9c-1.4,0-2.3,0.8-2.3,1.8c0,1.2,0.9,2,2.6,2C354.7,129.2,356.2,127.7,356.2,125.5z"/>
			<path class="st1" d="M368.8,122.2c0-7.3,5.9-12.9,13.5-12.9c3.9,0,8,2,9.8,4.7c0.6,0.9,0.8,1.5,0.8,2.3c0,2.1-1.7,3.8-3.8,3.8
				c-1.2,0-2.3-0.5-2.9-1.2c-0.9-1.2-2.3-1.7-3.9-1.7c-3,0-4.8,2-4.8,5.1c0,3.2,2,5.1,4.8,5.1c1.5,0,2.9-0.6,3.9-1.7
				c0.9-0.9,1.7-1.2,2.9-1.2c2.1,0,3.8,1.7,3.8,3.8c0,0.8-0.2,1.4-0.6,2.1c-2.1,3.2-5.8,4.8-10,4.8
				C374.7,135.1,368.8,129.5,368.8,122.2z"/>
			<path class="st1" d="M421.5,119.3v11.5c0,2.4-1.8,4.2-4.2,4.2s-4.2-1.8-4.2-4.2v-10.3c0-2.1-1.5-3.6-3.6-3.6s-3.5,1.5-3.5,3.6
				v10.3c0,2.4-1.8,4.2-4.2,4.2c-2.4,0-4.2-1.8-4.2-4.2v-29.7c0-2.4,1.8-4.2,4.2-4.2c2.4,0,4.2,1.8,4.2,4.2v10.4
				c1.7-1.5,3.9-2.3,6.4-2.3C417.9,109.3,421.5,113.3,421.5,119.3z"/>
		</g>
		<g>
			<path class="st1" d="M287.9,190.4c-1.1-1.1-1.7-2.1-1.7-3.5c0-2.3,1.8-3.8,3.8-3.8c0.6,0,1.4,0.2,2,0.6c0.8,0.5,2.9,2.7,6.2,2.7
				c2.3,0,3.3-0.8,3.3-2.4c0-1.5-1.1-2-3.3-3l-3.3-1.5c-5.1-2.3-8.2-5.3-8.2-9.8c0-5.8,5-9.7,11.4-9.7c5.8,0,8.5,2.9,9.2,3.8
				c0.8,0.9,1.1,1.7,1.1,2.6c0,2.1-2,3.8-3.8,3.8c-0.8,0-1.4-0.2-2.1-0.8c-1.1-0.8-2-1.8-4.2-1.8c-1.7,0-2.9,0.6-2.9,2.1
				c0,1.2,0.8,1.8,2.9,2.7l3.8,1.5c5.5,2.3,8.3,5,8.3,9.8c0,6.4-5.3,10.1-12,10.1C294.6,194,290.2,192.6,287.9,190.4z"/>
			<path class="st1" d="M332.1,189.9c0,1.5-0.8,2.7-1.8,3.3s-2.1,0.9-3.6,0.9c-7.1,0-10.9-3.5-10.9-10V176H315c-2,0-3.5-1.5-3.5-3.5
				c0-2.1,1.5-3.5,3.5-3.5h0.8v-2.4c0-2.4,1.8-4.2,4.2-4.2c2.4,0,4.2,1.8,4.2,4.2v2.3h3.5c2.1,0,3.5,1.5,3.5,3.5
				c0,2-1.5,3.5-3.5,3.5h-3.5v7.4c0,2.4,1.2,3.3,3.9,3.3h0.2C330.6,186.4,332.1,187.8,332.1,189.9z"/>
			<path class="st1" d="M335.8,181.9v-9.5c0-2.4,1.8-4.2,4.2-4.2c2.4,0,4.2,1.8,4.2,4.2v10.1c0,2.1,1.5,3.6,3.6,3.6
				c2.1,0,3.5-1.5,3.5-3.6v-10.1c0-2.4,1.8-4.2,4.2-4.2s4.2,1.8,4.2,4.2v9.5c0,7.1-5,12.1-12.1,12.1S335.8,189.1,335.8,181.9z"/>
			<path class="st1" d="M390.6,160.1v29.7c0,2.4-1.7,4.2-4.1,4.2c-1.8,0-3.3-1.2-3.9-2.9c-1.5,1.8-3.8,2.9-6.8,2.9
				c-7,0-11.8-5.3-11.8-12.9s5-13,11.8-13c2.7,0,4.8,0.8,6.4,2.3v-10.3c0-2.4,1.8-4.2,4.2-4.2C388.8,155.8,390.6,157.6,390.6,160.1z
				 M382.3,181.1c0-3.2-2-5.3-4.8-5.3c-2.9,0-4.8,2.1-4.8,5.3s2,5.3,4.8,5.3C380.3,186.4,382.3,184.2,382.3,181.1z"/>
			<path class="st1" d="M420.7,172.2c0,0.6-0.2,1.2-0.6,2l-10.3,20.4c-2.9,5.8-6.1,8.2-10.8,8.2c-1.4,0-2.6-0.3-3.5-0.8
				c-1.2-0.6-1.8-1.8-1.8-3.2c0-2.1,1.7-3.6,3.8-3.6h0.2c2,0,3.2-0.6,4.1-2.6l0.8-1.5l-7.7-16.8c-0.5-0.8-0.6-1.4-0.6-2
				c0-2.3,1.8-4.1,4.1-4.1c1.7,0,3,0.9,3.6,2.4l5.5,12.1l5.6-12.1c0.6-1.4,2.1-2.4,3.6-2.4C418.9,168.1,420.7,170.1,420.7,172.2z"/>
		</g>
	</g>
</g>
</svg>
