<?xml version="1.0" encoding="utf-8"?>
<!-- Generator: Adobe Illustrator 25.2.1, SVG Export Plug-In . SVG Version: 6.00 Build 0)  -->
<svg version="1.1" id="Layer_1" xmlns="http://www.w3.org/2000/svg" xmlns:xlink="http://www.w3.org/1999/xlink" x="0px" y="0px"
	 viewBox="0 0 523 300" style="enable-background:new 0 0 523 300;" xml:space="preserve">
<style type="text/css">
	.st0{fill:#F2F3F5;}
	.st1{fill:#CBD0D8;}
	.st2{fill:#FFFFFF;}
	.st3{fill:#536278;}
</style>
<rect class="st0" width="523" height="300"/>
<path class="st1" d="M300,217.6h-2v4.6h2V217.6z M294.3,222.3h2v-4.6h-2V222.3z M290.7,222.3h2v-4.6h-2V222.3z M287,222.3h2v-4.6h-2
	V222.3z M446.1,215.2h-2v3.2h2V215.2z M442.4,215.2h-2v3.2h2V215.2z M436.7,218.4h2v-3.2h-2V218.4z M435.1,215.2h-2v3.2h2V215.2z
	 M444.1,225.7h2v-3.2h-2V225.7z M440.4,225.7h2v-3.2h-2V225.7z M436.7,225.7h2v-3.2h-2V225.7z M435.1,222.5h-2v3.2h2V222.5z
	 M444.1,233h2v-3.2h-2V233z M440.4,233h2v-3.2h-2V233z M436.7,233h2v-3.2h-2V233z M435.1,229.7h-2v3.2h2V229.7z M444.1,240.2h2V237
	h-2V240.2z M440.4,240.2h2V237h-2V240.2z M436.7,240.2h2V237h-2V240.2z M435.1,237h-2v3.2h2V237z M444.1,247.5h2v-3.2h-2V247.5z
	 M440.4,247.5h2v-3.2h-2V247.5z M436.7,247.5h2v-3.2h-2V247.5z M435.1,244.3h-2v3.2h2V244.3z M444.1,254.8h2v-3.2h-2V254.8z
	 M440.4,254.8h2v-3.2h-2V254.8z M436.7,254.8h2v-3.2h-2V254.8z M433.1,254.8h2v-3.2h-2V254.8z M469.2,215.2h-2v3.2h2V215.2z
	 M465.6,215.2h-2v3.2h2V215.2z M461.9,215.2h-2v3.2h2V215.2z M458.2,215.2h-2v3.2h2V215.2z M467.2,225.7h2v-3.2h-2V225.7z
	 M463.5,225.7h2v-3.2h-2V225.7z M459.9,225.7h2v-3.2h-2V225.7z M456.2,225.7h2v-3.2h-2V225.7z M467.2,233h2v-3.2h-2V233z M463.5,233
	h2v-3.2h-2V233z M459.9,233h2v-3.2h-2V233z M456.2,233h2v-3.2h-2V233z M467.2,240.2h2V237h-2V240.2z M463.5,240.2h2V237h-2V240.2z
	 M459.9,240.2h2V237h-2V240.2z M456.2,240.2h2V237h-2V240.2z M467.2,247.5h2v-3.2h-2V247.5z M463.5,247.5h2v-3.2h-2V247.5z
	 M459.9,247.5h2v-3.2h-2V247.5z M456.2,247.5h2v-3.2h-2V247.5z M467.2,254.8h2v-3.2h-2V254.8z M463.5,254.8h2v-3.2h-2V254.8z
	 M459.9,254.8h2v-3.2h-2V254.8z M294.3,214h2v-4.6h-2V214z M290.7,214h2v-4.6h-2V214z M296.4,200.7h-2v4.6h2V200.7z M292.7,200.7h-2
	v4.6h2V200.7z M298,229.7h2v-4.6h-2V229.7z M294.3,229.7h2v-4.6h-2V229.7z M290.7,229.7h2v-4.6h-2V229.7z M287,229.7h2v-4.6h-2
	V229.7z M298,237.1h2v-4.6h-2V237.1z M294.3,237.1h2v-4.6h-2V237.1z M290.7,237.1h2v-4.6h-2V237.1z M287,237.1h2v-4.6h-2V237.1z
	 M298,244.5h2v-4.6h-2V244.5z M294.3,244.5h2v-4.6h-2V244.5z M290.7,244.5h2v-4.6h-2V244.5z M287,244.5h2v-4.6h-2V244.5z M290.7,252
	h2v-4.6h-2V252z M287,252h2v-4.6h-2V252z M131.3,202.2h-2v4.6h2V202.2z M125.6,206.9h2v-4.6h-2V206.9z M122,206.9h2v-4.6h-2V206.9z
	 M118.3,206.9h2v-4.6h-2V206.9z M127.7,194h-2v4.6h2V194z M124,194h-2v4.6h2V194z M129.3,214.3h2v-4.6h-2V214.3z M125.6,214.3h2
	v-4.6h-2V214.3z M122,214.3h2v-4.6h-2V214.3z M118.3,214.3h2v-4.6h-2V214.3z M129.3,221.7h2v-4.6h-2V221.7z M125.6,221.7h2v-4.6h-2
	V221.7z M122,221.7h2v-4.6h-2V221.7z M118.3,221.7h2v-4.6h-2V221.7z M129.3,229.1h2v-4.6h-2V229.1z M125.6,229.1h2v-4.6h-2V229.1z
	 M122,229.1h2v-4.6h-2V229.1z M118.3,229.1h2v-4.6h-2V229.1z M122,236.6h2v-4.6h-2V236.6z M118.3,236.6h2v-4.6h-2V236.6z
	 M241.6,220.5h12.2v-2.7h-12.2V220.5z M241.6,226h12.2v-2.7h-12.2V226z M241.6,231.5h12.2v-2.7h-12.2V231.5z M336.6,229.7v2.7h14.3
	l-2.1-2.7H336.6z M336.6,237.9H355l-2.1-2.7h-16.3V237.9z M336.6,243.4h20.1v-2.7h-20.1V243.4z M336.6,249h20v-2.7h-20V249z
	 M336.6,254.6h19.8v-2.7h-19.8V254.6z M241.6,237h12.2v-2.7h-12.2V237z M241.6,242.6h12.2v-2.7h-12.2V242.6z M214.8,220.5H227v-2.7
	h-12.2V220.5z M214.8,226H227v-2.7h-12.2V226z M214.8,231.5H227v-2.7h-12.2V231.5z M214.8,237H227v-2.7h-12.2V237z M214.8,242.6H227
	v-2.7h-12.2V242.6z M177.3,209h-12.2v2.7h12.2V209z M177.3,214.5h-12.2v2.7h12.2V214.5z M177.3,220.1h-12.2v2.7h12.2V220.1z
	 M177.3,225.6h-12.2v2.7h12.2V225.6z M165.2,233.8h12.2v-2.7h-12.2V233.8z M185,211.7h12.2V209H185V211.7z M185,217.2h12.2v-2.7H185
	V217.2z M185,222.7h12.2v-2.7H185V222.7z M185,228.3h12.2v-2.7H185V228.3z M185,233.8h12.2v-2.7H185V233.8z M368.2,229.7v2.7h14.3
	l-2.1-2.7H368.2z M368.2,237.9h18.4l-2.1-2.7h-16.3V237.9z M368.2,243.4h20.1v-2.7h-20.1V243.4z M368.2,249h20v-2.7h-20V249z
	 M368.2,254.6H388v-2.7h-19.8V254.6z M336.6,260.3h19.8v-2.7h-19.8V260.3z M368.2,260.3H388v-2.7h-19.8V260.3z M108.2,206.9h2v-4.6
	h-2V206.9z M104.6,206.9h2v-4.6h-2V206.9z M100.9,206.9h2v-4.6h-2V206.9z M97.2,206.9h2v-4.6h-2V206.9z M104.6,198.6h2V194h-2V198.6
	z M100.9,198.6h2V194h-2V198.6z M108.2,214.3h2v-4.6h-2V214.3z M104.6,214.3h2v-4.6h-2V214.3z M100.9,214.3h2v-4.6h-2V214.3z
	 M97.2,214.3h2v-4.6h-2V214.3z M108.2,221.7h2v-4.6h-2V221.7z M104.6,221.7h2v-4.6h-2V221.7z M100.9,221.7h2v-4.6h-2V221.7z
	 M97.2,221.7h2v-4.6h-2V221.7z M108.2,229.1h2v-4.6h-2V229.1z M104.6,229.1h2v-4.6h-2V229.1z M100.9,229.1h2v-4.6h-2V229.1z
	 M97.2,229.1h2v-4.6h-2V229.1z M108.2,236.6h2v-4.6h-2V236.6z M104.6,236.6h2v-4.6h-2V236.6z M100.9,236.6h2v-4.6h-2V236.6z
	 M97.2,236.6h2v-4.6h-2V236.6z M467.7,261.5c0-1.8-1.4-3.3-3.1-3.3c-0.1,0-0.2,0-0.3,0c-0.7-1.6-2.2-2.7-4-2.7
	c-0.4,0-0.8,0.1-1.2,0.2c-0.2-0.5-0.5-1-0.9-1.3v-2.7h-2v2c-0.4,0-0.8,0.1-1.1,0.3c-0.2-0.5-0.6-0.9-1-1.2v-7.1h-6.3v9.5
	c-1.1,0.5-1.9,1.4-2.3,2.5c-1.3,0.4-2.2,1.8-2.2,3.3c0,0.2,0,0.4,0.1,0.6c-1,0.5-1.7,1.4-2.1,2.6l-0.3,0.9l0.9-0.1
	c8.5-0.6,17-1.3,25.5-2.2l2-0.2L467.7,261.5C467.7,261.5,467.7,261.5,467.7,261.5z M448.7,246.4h4.6v5.8c-0.3-0.1-0.6-0.2-0.9-0.2
	c-1.6,0-2.8,1.2-3.1,2.7c0,0,0,0,0,0c-0.2,0-0.4,0-0.6,0.1V246.4z M442.9,263.5c0.4-0.5,0.8-0.9,1.4-1.1l0.6-0.2l-0.2-0.6
	c-0.1-0.2-0.1-0.5-0.1-0.8c0-1.1,0.7-2,1.6-2.2l0.4-0.1l0.1-0.4c0.3-1.3,1.4-2.2,2.6-2.2h0c0.1,0,0.3,0,0.5,0.1l0.7,0.2l0-0.8
	c0-1.3,0.9-2.2,1.9-2.2c0.8,0,1.6,0.6,1.8,1.6l0.2,1l0.8-0.7c0.3-0.3,0.7-0.4,1.1-0.4c0.9,0,1.7,0.7,1.8,1.7l0.1,0.8l0.7-0.4
	c0.4-0.2,0.8-0.3,1.3-0.3c1.3,0,2.5,1,3,2.4l0.2,0.6l0.6-0.2c0.2-0.1,0.4-0.1,0.5-0.1c1,0,1.9,0.9,1.9,2.1
	C458.6,262.3,450.8,263,442.9,263.5z M150.8,243.3L150.8,243.3L150.8,243.3L150.8,243.3z M515.5,256.1c2.5-0.4,4.9-0.8,7.5-1.3v-1.3
	c-2.4,0.4-4.9,0.8-7.2,1.2c-0.1-0.1-0.2-0.3-0.2-0.4v-2.6c0.7-0.2,1.3-0.6,1.9-1.1c0.7-0.1,1.2-0.7,1.6-1.3c0.4-0.7,0.7-1.7,0.8-2.7
	c0-0.3,0-0.5,0-0.8c0-1.3-0.3-2.4-0.9-3.1c0-0.2,0-0.4,0-0.5c0,0,0-0.1,0-0.1c0-1.1-0.3-2.1-0.7-2.9c-0.3-0.6-0.8-1.2-1.5-1.3
	c-0.1-0.7-0.3-1.3-0.6-1.9c-0.4-0.6-0.9-1.1-1.7-1.2c-0.8,0-1.3,0.5-1.7,1.2c-0.3,0.5-0.5,1.1-0.6,1.9c-0.7,0.2-1.1,0.7-1.5,1.4
	c-0.4,0.8-0.6,1.8-0.7,2.9c0,0,0,0.1,0,0.2c0,0.2,0,0.3,0,0.5c-0.6,0.7-0.9,1.9-0.9,3.1c0,0.3,0,0.5,0,0.8c0.1,1,0.4,2,0.8,2.7
	c0.4,0.6,0.9,1.1,1.6,1.3c0.6,0.5,1.3,0.9,2.1,1.1v1.3c-0.2,0-0.3,0-0.5,0c-0.1,0-0.2,0-0.3,0c-0.7-1.6-2.2-2.7-4-2.7
	c-0.4,0-0.8,0.1-1.2,0.2c-0.5-1.2-1.6-2-2.9-2c-0.4,0-0.8,0.1-1.2,0.3c-0.5-1-1.5-1.8-2.7-1.8c-1.6,0-2.8,1.2-3.1,2.7c0,0,0,0,0,0
	c-1.7,0-3.1,1.2-3.7,2.8c-1.3,0.4-2.2,1.8-2.2,3.3c0,0.2,0,0.4,0.1,0.6c-0.9,0.5-1.6,1.3-2,2.3c-2.5,0.3-5,0.7-7.4,1V257
	c0.6-0.2,1.2-0.6,1.7-1c0.7-0.1,1.2-0.7,1.6-1.3c0.4-0.7,0.7-1.7,0.8-2.7c0-0.3,0-0.5,0-0.8c0-1.3-0.3-2.4-0.9-3.1
	c0-0.2,0-0.4,0-0.5v-0.1c0-1.1-0.3-2.1-0.7-2.9c-0.3-0.6-0.8-1.2-1.5-1.3c-0.1-0.7-0.3-1.3-0.6-1.9c-0.4-0.6-0.9-1.2-1.7-1.2
	c-0.8,0-1.3,0.5-1.7,1.2c-0.3,0.5-0.5,1.1-0.6,1.9c-0.7,0.2-1.1,0.7-1.5,1.4c-0.4,0.8-0.6,1.8-0.7,2.9c0,0,0,0.1,0,0.2
	c0,0.2,0,0.3,0,0.5c-0.6,0.7-0.9,1.9-0.9,3.1c0,0.3,0,0.5,0,0.8h0c0.1,1,0.4,2,0.8,2.7c0.4,0.6,0.9,1.1,1.6,1.3
	c0.6,0.5,1.2,0.9,1.9,1.1v2.9c-1.4,0.2-2.8,0.3-4.2,0.5c-1.3,0.1-2.5,0.3-3.8,0.4v-52.1h-1.7l-1.3-4.1h-12.6l-1.3,4.1h-2.1v20.6
	h-4.2l0-20.6h-1.8l-1.3-4.1h-12.6l-1.3,4.1h-2.1v47.5c-0.1,0-0.2,0-0.3,0c-0.2,0-0.5,0-0.7,0.1c-1-2.5-3.2-4.2-5.8-4.2
	c-0.7,0-1.4,0.1-2,0.4c-0.6-1.8-2.2-3.2-4.2-3.2c-0.7,0-1.4,0.2-2,0.5c-0.7-1.6-2.2-2.8-4-2.8c-2.3,0-4.1,1.9-4.4,4.2
	c-0.1,0-0.2,0-0.3,0c-2.5,0-4.6,1.8-5.4,4.3c-1.9,0.6-3.3,2.5-3.3,4.7c0,0.4,0,0.7,0.1,1.1c-1.5,0.7-2.7,2.1-3.2,3.9
	c-0.6,0-1.3,0-1.9,0c-0.2,0-0.3,0-0.5,0v-25.3l-12.1-16.2h-14.6v40.8c-1.6-0.1-3.2-0.1-4.8-0.2v-24.4l-12.1-16.2h-14.6v38.8
	c-2.4-0.2-4.9-0.4-7.3-0.6c0,0-0.1,0-0.1,0c-1.1-0.1-2.3-0.2-3.5-0.3c-0.4-1.4-1.3-2.6-2.5-3.2c0-0.7-0.2-1.4-0.5-2v-3.3
	c1.1-0.2,2.2-0.6,3.2-1.1c1.8-0.2,3.3-1.9,3.6-4c0-0.3,0.1-0.6,0.1-0.8c0-1.3-0.5-2.5-1.4-3.2c0-0.1,0-0.3,0-0.4c0-0.1,0-0.1,0-0.1
	c-0.1-2.2-1.4-4.1-3.3-4.3c-0.4-1.7-1.7-3-3.3-3c-1.6,0-2.9,1.3-3.3,3c-1.9,0.2-3.2,2.1-3.3,4.2c0,0,0,0.1,0,0.2c0,0.2,0,0.3,0,0.4
	c-0.9,0.7-1.4,1.9-1.4,3.2c0,0.3,0,0.6,0.1,0.8h0c0.2,1.4,1,2.7,2,3.4c-0.3-0.1-0.7-0.1-1-0.1c-0.5,0-1,0.1-1.5,0.2
	c-0.5-1.4-1.8-2.5-3.3-2.5c-0.5,0-1.1,0.1-1.5,0.4c-0.5-1.2-1.6-2-2.9-2.1v-32.1h-2l0-9.1h-1.7v-8.9h-2.5l-0.5-5.3h-4.6l-0.5,5.3h-2
	v8.9h-1.7v9.1l-2,0V257c-2.6-0.3-5.1-0.7-7.7-1.1v-3.4c0.6-0.2,1.2-0.6,1.7-1c0.7-0.1,1.2-0.7,1.6-1.3c0.4-0.7,0.7-1.7,0.8-2.7
	c0-0.3,0-0.5,0-0.8c0-1.3-0.3-2.4-0.9-3.1c0-0.2,0-0.3,0-0.5v-0.1c0-1.1-0.3-2.1-0.7-2.9c-0.3-0.6-0.8-1.2-1.5-1.3
	c-0.1-0.7-0.3-1.3-0.6-1.9c-0.4-0.6-0.9-1.2-1.7-1.2c-0.8,0-1.3,0.5-1.7,1.2c-0.3,0.5-0.5,1.1-0.6,1.9c-0.7,0.2-1.1,0.7-1.5,1.4
	c-0.4,0.8-0.6,1.8-0.7,2.9c0,0,0,0.1,0,0.2c0,0.2,0,0.3,0,0.5c-0.6,0.7-0.9,1.9-0.9,3.1c0,0.3,0,0.5,0,0.8h0c0.1,1,0.4,2,0.8,2.7
	c0.4,0.6,0.9,1.1,1.6,1.3c0.6,0.5,1.2,0.9,1.9,1.1v3c-0.8-0.1-1.6-0.2-2.4-0.3c-1.1-0.2-2.2-0.3-3.3-0.5c-1.8-0.3-3.7-0.6-5.5-0.8
	v-3.1c0.6-0.2,1.2-0.6,1.7-1c0.7-0.1,1.2-0.7,1.6-1.3c0.4-0.7,0.7-1.7,0.8-2.7c0-0.3,0-0.5,0-0.8c0-1.3-0.3-2.4-0.9-3.1
	c0-0.2,0-0.3,0-0.5c0-0.1,0-0.1,0-0.2c0-1.1-0.3-2.1-0.7-2.9c-0.3-0.6-0.8-1.2-1.5-1.3c-0.1-0.7-0.3-1.3-0.6-1.9
	c-0.4-0.6-0.9-1.2-1.7-1.2c-0.8,0-1.3,0.5-1.7,1.2c-0.3,0.5-0.5,1.1-0.6,1.9c-0.7,0.2-1.1,0.7-1.5,1.3c-0.4,0.8-0.6,1.8-0.7,2.9
	c0,0,0,0.1,0,0.1c0,0.2,0,0.4,0,0.5c-0.6,0.7-0.9,1.8-0.9,3.1c0,0.3,0,0.5,0,0.8h0c0.1,1,0.4,2,0.8,2.7c0.4,0.6,0.9,1.1,1.6,1.3
	c0.6,0.5,1.2,0.9,1.9,1.1v2.7c-1.5-0.2-3-0.5-4.6-0.7v-38.7h-2V205h-13.5v9.1l-2,0v36.2c-1.2-0.2-2.4-0.3-3.6-0.5
	c-1.2-0.2-2.4-0.3-3.6-0.5c-0.7-0.1-1.3-0.2-2-0.3v-34.9h-2V205h-13.5v9.1l-2,0v32.8c-2.2-0.2-4.3-0.5-6.5-0.7v-5.7
	c1-0.2,1.9-0.8,2.6-1.5c0.9-0.1,1.5-0.8,2.1-1.7c0.6-0.9,1-2.2,1.1-3.6c0-0.4,0.1-0.7,0.1-1.1c0-1.7-0.4-3.2-1.3-4.2
	c0-0.3,0-0.5,0-0.8c0-0.1,0-0.1,0-0.2c0-1.5-0.4-2.8-0.9-3.8c-0.5-0.9-1.1-1.6-2-1.7c-0.2-1-0.5-1.9-0.9-2.6
	c-0.5-0.8-1.2-1.5-2.1-1.5c-0.9,0-1.6,0.6-2.1,1.5c-0.4,0.7-0.7,1.6-0.9,2.6c-0.4,0.1-0.7,0.2-0.9,0.4v-17.1h-2v-3.8h-33.9v3.8h-2
	v30.5c-0.1,0.2-0.1,0.4-0.2,0.6c0,0-0.1,0-0.1,0c-0.6,0-1.1,0.2-1.6,0.5c0.2-0.5,0.3-1.1,0.4-1.8c0-0.3,0-0.5,0-0.8
	c0-1.3-0.3-2.4-0.9-3.1c0-0.2,0-0.3,0-0.5c0-0.1,0-0.1,0-0.2c0-1.1-0.3-2.1-0.7-2.9c-0.3-0.6-0.8-1.2-1.5-1.4
	c-0.1-0.7-0.3-1.3-0.6-1.9c-0.4-0.6-0.9-1.2-1.7-1.2c-0.8,0-1.3,0.5-1.7,1.2c-0.3,0.5-0.5,1.1-0.6,1.9c-0.7,0.2-1.1,0.7-1.5,1.3
	c-0.4,0.8-0.6,1.8-0.7,2.9c0,0,0,0.1,0,0.2c0,0.2,0,0.4,0,0.5c-0.6,0.7-0.9,1.9-0.9,3.1c0,0.3,0,0.5,0,0.8h0c0.1,1,0.4,2,0.8,2.7
	c0.4,0.6,0.9,1.1,1.6,1.3c0.6,0.5,1.3,0.9,2.1,1.1v1.9c-1.2-0.1-2.4-0.1-3.5-0.2c-0.2-1.4-1.2-2.1-2.2-2.5c0-1.8-1.3-3.2-2.9-3.2
	c-0.1,0-0.3,0-0.4,0c-0.1-0.3-0.3-0.6-0.5-0.9c0.6-0.3,1-0.9,1.4-1.5c0.5-0.9,0.9-2.1,1-3.4c0-0.4,0.1-0.7,0.1-1.1
	c0-1.7-0.4-3.3-1.3-4.2c0-0.2,0-0.5,0-0.8c0-0.1,0-0.1,0-0.2c0-1.5-0.4-2.8-0.9-3.8c-0.5-0.9-1.1-1.6-2-1.7c-0.2-1-0.5-1.9-0.9-2.6
	c-0.5-0.8-1.2-1.5-2.1-1.5c-0.9,0-1.6,0.6-2.1,1.5c-0.4,0.7-0.7,1.6-0.9,2.6c-0.9,0.2-1.5,0.9-2,1.7c-0.5,1-0.8,2.3-0.9,3.8
	c0,0.1,0,0.2,0,0.2c0,0.3,0,0.5,0,0.8c-0.7,0.7-1.1,1.8-1.2,3.1v-29h-2v-9.1h-1.7c-0.3-2.5-2.4-4.5-5-4.5c-2.6,0-4.7,2-5,4.5h-1.7
	v9.1l-2,0v42.1c-1.2,0-2.4,0-3.5,0v-42.1h-2v-9.1h-1.7c-0.3-2.5-2.4-4.5-5-4.5c-2.6,0-4.7,2-5,4.5h-1.7v9.1l-2,0v42.7
	c-0.6,0-1.3,0.1-1.9,0.1c-1.4,0.1-2.8,0.2-4.2,0.2c-0.3-0.3-0.7-0.5-1.1-0.7c0,0,0,0,0-0.1c0-0.3,0-0.6-0.1-0.9
	c0.9-0.3,1.7-0.8,2.5-1.4c0.9-0.1,1.5-0.8,2.1-1.6c0.6-0.9,1-2.2,1.1-3.6c0-0.4,0.1-0.7,0.1-1.1c0-1.7-0.4-3.3-1.3-4.2
	c0-0.2,0-0.5,0-0.8c0-0.1,0-0.1,0-0.2c0-1.5-0.4-2.8-0.9-3.8c-0.5-0.9-1.1-1.6-2-1.7c-0.2-1-0.5-1.9-0.9-2.6
	c-0.5-0.8-1.2-1.5-2.1-1.5c-0.9,0-1.6,0.6-2.1,1.5c-0.4,0.7-0.7,1.6-0.9,2.6c-0.9,0.2-1.5,0.9-2,1.7c-0.5,1-0.8,2.3-0.9,3.8
	c0,0.1,0,0.1,0,0.2c0,0.3,0,0.5,0,0.8c-0.9,0.9-1.3,2.4-1.3,4.2c0,0,0,0,0,0.1c-0.7-0.3-1.5-0.5-2.3-0.5c-0.7,0-1.4,0.1-2,0.4
	c-0.6-1.8-2.2-3.2-4.2-3.2c-0.7,0-1.4,0.2-2,0.5c-0.7-1.6-2.2-2.8-4-2.8c-2.3,0-4.1,1.9-4.4,4.2c-0.1,0-0.2,0-0.3,0
	c-2.5,0-4.6,1.8-5.4,4.3c-1.3,0.4-2.3,1.4-2.9,2.7c-6.4-14.1-6.5-30.8-7-46.9l0-0.6h-1.2c-0.3-1.7-1.6-3.1-3.4-3.4v-10.9h-1.2v10.9
	c-1.7,0.3-3.1,1.6-3.4,3.4h-1.5l0,0.6c-0.6,20.8-0.6,42.7-14.5,58.8c-1.4,0.2-2.9,0.5-4.4,0.7v-4.5c1.5-0.2,2.9-0.7,4.2-1.5
	c2.4-0.2,4.3-2.4,4.8-5.2c0.1-0.4,0.1-0.7,0.1-1.1c0-1.8-0.7-3.4-2-4.2c0-0.2,0-0.5,0-0.7c0-0.1,0-0.1,0-0.2
	c-0.1-2.9-1.9-5.4-4.4-5.6c-0.5-2.3-2.2-4-4.3-4c-2.1,0-3.8,1.8-4.3,4c-2.5,0.2-4.3,2.6-4.4,5.6c0,0.1,0,0.1,0,0.2
	c0,0.2,0,0.5,0,0.7c-1.2,0.9-2,2.5-2,4.2c0,0.4,0,0.7,0.1,1.1h0c0.4,2.8,2.4,5,4.7,5.2c1.4,0.8,3,1.4,4.7,1.6v4.9
	c-4.4,0.7-8.7,1.4-12.2,2v1.2v0c3.5-0.6,8.3-1.4,12.9-2.1l0.5-0.1v-5.9c0,0,0,0,0.1,0c0,0,0,0,0.1,0c0,0,0.1,0,0.1,0v5.9l0.7-0.1
	c1.9-0.3,3.7-0.6,5.3-0.8l0.2,0l0.1-0.2c1.2-1.4,2.4-2.9,3.4-4.4l2.9,3.1c0.1,0.1,0.2,0.1,0.3,0.1c0.1,0,0.2,0,0.3-0.1
	c0.2-0.2,0.2-0.4,0-0.6l-2.7-2.8l4,0c-0.2,0.9-0.4,1.9-0.6,2.8l-0.1,0.6l0.6-0.1c1.7-0.3,3.3-0.5,5-0.8c0.8-0.1,1.7-0.2,2.5-0.4
	c1.9-0.3,3.7-0.5,5.6-0.8c1-0.1,1.9-0.3,2.9-0.4c1.3-0.2,2.7-0.3,4-0.5l0.3,0l0-0.3c0-0.1,0-0.1,0-0.2c0.1,0,0.1-0.1,0.2-0.2
	l3.1-5.8c0-0.1,0-0.1,0-0.2l0.2,0c0.1-1.8,1.2-3.2,2.7-3.5l0.4-0.1l0.1-0.4c0.6-2.2,2.3-3.7,4.3-3.7c0.3,0,0.5,0,0.8,0.1l0.7,0.2
	l0-0.8c0-2.1,1.5-3.7,3.2-3.7c1.4,0,2.7,1.1,3.1,2.7l0.2,1l0.8-0.7c0.6-0.5,1.2-0.8,1.9-0.8c1.5,0,2.8,1.2,3.1,2.9l0.1,0.8l0.7-0.4
	c0.7-0.3,1.4-0.5,2.1-0.5c1,0,2,0.4,2.8,1c0.1,0,0.1,0.1,0.2,0.1c0.1,0,0.1,0.1,0.2,0.1c0.1,0.1,0.1,0.1,0.2,0.2
	c0,0,0.1,0.1,0.1,0.1c0.1,0.1,0.1,0.1,0.2,0.2c0,0.1,0.1,0.1,0.1,0.2c0.1,0.1,0.1,0.1,0.2,0.2c0,0.1,0.1,0.1,0.1,0.2
	c0,0.1,0.1,0.1,0.1,0.2c0,0.1,0.1,0.1,0.1,0.2c0,0.1,0.1,0.1,0.1,0.2c0,0.1,0.1,0.1,0.1,0.2c0,0.1,0.1,0.2,0.1,0.3
	c0,0.1,0.1,0.1,0.1,0.2c0.1,0.1,0.1,0.3,0.2,0.4l0.1,0.3l0.1,0.3h0l0.6-0.2c0.1,0,0.2,0,0.2-0.1c0.2-0.1,0.4-0.1,0.6-0.1
	c0,0,0,0,0,0c0.1,0,0.3,0,0.4,0c0.1,0,0.1,0,0.1,0c0.1,0,0.2,0.1,0.4,0.1c0.1,0,0.1,0,0.2,0.1c0.1,0,0.1,0.1,0.2,0.1
	c0.1,0,0.1,0.1,0.2,0.1c0.1,0.1,0.2,0.1,0.3,0.2c0,0,0.1,0.1,0.1,0.1c0.1,0.1,0.2,0.1,0.2,0.2c0,0,0,0,0.1,0.1
	c0.1,0.1,0.2,0.2,0.3,0.4c0,0,0,0,0,0.1c0.2,0.3,0.3,0.6,0.4,0.9c0,0,0,0.1,0,0.1l0,0.1c0.1,0.3,0.1,0.7,0.1,1.1c0,0.1,0,0.2,0,0.4
	l0,0.5l0.4,0.2c0.5,0.2,1,0.5,1.4,0.9l0.2,0.2l0.3,0c1.5-0.1,3-0.2,4.4-0.2c0.7,0,1.4-0.1,2.2-0.1c0.1,0,0.2,0,0.3,0l0.6,0v-42.7
	l2,0v-9.1h1.7v-0.6c0-2.1,1.7-3.8,3.8-3.8c2.1,0,3.8,1.7,3.8,3.8v0.6h1.7l0,9.1h2v42.2l0.6,0c1.6,0,3.2,0,4.8-0.1l0.6,0v-42.1l2,0
	v-9.1h1.7v-0.6c0-2.1,1.7-3.8,3.8-3.8c2.1,0,3.8,1.7,3.8,3.8v0.6h1.7v9.1h2v29.9c-0.5,0.3-0.8,0.8-1.1,1.3h-1.8v1.2
	c-0.7,0.3-1.2,0.8-1.6,1.4v-2.6h-2v4.6h0.1c-0.5,0.6-0.8,1.4-0.8,2.3c0,0.2,0,0.4,0.1,0.6c0,0-0.1,0-0.1,0.1
	c-0.9,0.5-1.6,1.4-1.6,2.6l0.5,0.1l0,0.3c0.1,0,0.3,0,0.4,0c8.9,0,17.8,0.2,26.7,0.5l0-0.4h0l0,0.6c3.9,0.2,7.8,0.3,11.7,0.5
	c4,0.2,8,0.5,12.1,0.8v0c6.5,0.5,13,1,19.6,1.6l0.8,0.1l-0.2-0.8c-0.2-1-0.8-1.9-1.7-2.4c-0.1-1.4-1.1-2.6-2.6-2.6
	c-0.1,0-0.1,0-0.2,0c-0.6-1.2-1.8-2.1-3.2-2.1c-0.3,0-0.6,0-0.8,0.1c-0.4-0.9-1.3-1.6-2.3-1.6c-0.3,0-0.6,0.1-0.9,0.2
	c-0.4-0.8-1.2-1.3-2.2-1.3c-1.2,0-2.2,0.9-2.5,2.1c-1.2,0-2.1,0.7-2.6,1.7c-0.4-0.4-1-0.7-1.7-0.7c-0.1,0-0.1,0-0.2,0
	c-0.6-1.2-1.8-2.1-3.2-2.1c-0.3,0-0.6,0-0.8,0.1c-0.4-0.9-1.3-1.6-2.3-1.6c-0.3,0-0.6,0.1-0.9,0.2c-0.4-0.8-1.2-1.3-2.2-1.3
	c-0.3,0-0.6,0.1-0.9,0.2v-27.7h2v-3.8h31.5v3.8h2v17.5c0,0.1,0,0.1-0.1,0.2c-0.1,0.1-0.1,0.3-0.2,0.4c0,0.1-0.1,0.3-0.1,0.4
	c0,0.1-0.1,0.3-0.1,0.4c0,0.2-0.1,0.3-0.1,0.5c0,0.1,0,0.3-0.1,0.4c0,0.3-0.1,0.6-0.1,0.8c0,0,0,0.1,0,0.1c0,0,0,0.1,0,0.1
	c0,0,0,0.1,0,0.1c0,0.2,0,0.4,0,0.5c0,0.1,0,0.2,0,0.3c-0.9,0.9-1.3,2.4-1.3,4.2c0,0.3,0,0.7,0.1,1.1h0c0,0,0,0,0,0.1
	c0,0.3,0.1,0.5,0.1,0.8c0,0.1,0,0.2,0.1,0.3c0,0.2,0.1,0.4,0.2,0.6c0,0.1,0,0.1,0.1,0.2c0.1,0.3,0.2,0.5,0.3,0.8c0,0,0,0.1,0.1,0.1
	c0.1,0.2,0.2,0.4,0.3,0.6c0,0,0,0.1,0.1,0.1c0,0,0,0.1,0.1,0.1c0,0,0,0,0,0.1c0.2,0.3,0.4,0.6,0.7,0.8v8.5l0.6,0.1
	c4.2,0.4,8.4,0.9,12.6,1.4c0.1,0,0.3,0,0.4,0l0.7,0.1v-32.9h2v-9.1h11v9.1h2v34.8l0.6,0.1c0.8,0.1,1.7,0.2,2.5,0.3
	c1.2,0.2,2.4,0.3,3.6,0.5c1.4,0.2,2.8,0.4,4.3,0.6l0.7,0.1v-36.3l2,0v-9.1h11v9.1h2v38.5l0.5,0.1c1.8,0.3,3.7,0.6,5.5,0.8
	c0.1,0,0.2,0,0.3,0l0.7,0.1v0l0.4,0.1c2,0.3,4,0.6,6,0.9c1.1,0.2,2.2,0.3,3.3,0.5c1,0.2,2.1,0.3,3.1,0.4l0.7,0.1v0l0.4,0.1
	c3,0.4,6,0.8,8.9,1.2l0.7,0.1v-42.3l2,0V207h1.7v-8.9h0.7v0h5.8v0h1.1v8.9h1.7v9.1h2v31c0,0,0,0,0,0c-0.3,0.1-0.6,0.2-0.8,0.4v-0.2
	h-2v2.9c-0.6,0-1.1,0.2-1.6,0.4v-3.3h-2v4.6h0.4c-0.4,0.5-0.7,1-0.9,1.6c-1.1,0.3-1.9,1.2-2.3,2.3c0,0.1-0.1,0.2-0.1,0.3
	c0,0,0,0.1,0,0.1c-0.1,0.4-0.2,0.8-0.2,1.2v0c0,0,0,0.1,0,0.1c0,0.4,0.1,0.8,0.2,1.2l0.3-0.1l0.1,0.6c0,0,0.1,0,0.1,0
	c3,0.4,6,0.7,8.9,1.1v0l0.6,0.1c0.4,0,0.7,0.1,1.1,0.1c2.2,0.3,4.4,0.5,6.6,0.8c0,0,0,0,0.1,0c0.1,0,0.2,0,0.4,0l0.1,0
	c0.2,0,0.4,0,0.6,0.1c0,0,0.1,0,0.1,0c2.5,0.3,4.9,0.5,7.3,0.8l0.1,0l0.1,0c1.3,0.1,2.7,0.3,4,0.4l0.8,0.1l0,0c1,0.1,2,0.2,3.1,0.3
	c0,0,0.1,0,0.1,0c2.6,0.2,5.3,0.5,7.9,0.7l0.1,0l0.7,0.1v-38.9h12.8l11.5,15.4v25.2l0.6,0c0,0,0,0,0,0c2,0.1,4,0.2,6,0.3l0.6,0
	v-40.9h12.8l11.5,15.4l0,26.1h0.7c0.3,0,0.7,0,1,0c0.5,0,1,0,1.6,0l0,0h0v0l0.8,0h0c0.6,0,1.2,0,1.7,0c1.7,0,3.4,0,5.1,0
	c0.1,0,0.1,0,0.2,0c1.6,0,3.2,0,4.7-0.1c10-0.1,19.9-0.5,29.9-1.1l0.1,0l0.8,0v0h0l-0.4-0.8c-0.6-1.4-1.6-2.5-2.9-3.1c0,0,0,0,0-0.1
	c0,0,0,0,0,0c0-0.2,0-0.4,0-0.6c0-0.1,0-0.1,0-0.2c0-0.2-0.1-0.4-0.1-0.6c0-0.1,0-0.1-0.1-0.2c0-0.1-0.1-0.3-0.2-0.4
	c0-0.1-0.1-0.1-0.1-0.2c-0.1-0.2-0.2-0.3-0.3-0.5c0-0.1-0.1-0.1-0.1-0.2c-0.1-0.1-0.2-0.3-0.3-0.4c0,0-0.1-0.1-0.1-0.1
	c-0.1-0.2-0.3-0.3-0.4-0.4c0,0,0,0-0.1-0.1c-0.3-0.3-0.7-0.5-1.1-0.7c0,0,0,0,0,0V210h0.4l0,0h16l0,0h0.1v20.6h6.7V210h0.5v0h16v0
	h0.1v52.3l0.7-0.1c1.5-0.2,3-0.3,4.5-0.5c1.6-0.2,3.2-0.4,4.8-0.6l0.4-0.1v0l0.7-0.1c2.8-0.4,5.7-0.7,8.5-1.1l0.4-0.1l0.1-0.4
	c0.3-1,1-1.8,1.8-2l0.6-0.2l-0.2-0.6c-0.1-0.2-0.1-0.5-0.1-0.8c0-1.1,0.7-2,1.6-2.2l0.4-0.1l0.1-0.4c0.3-1.3,1.4-2.3,2.6-2.2
	c0.1,0,0.3,0,0.5,0.1l0.7,0.2l0-0.8c0-1.3,0.9-2.2,1.9-2.2c0.8,0,1.6,0.6,1.8,1.6l0.2,1l0.8-0.7c0.3-0.3,0.7-0.4,1.1-0.4
	c0.9,0,1.7,0.7,1.8,1.7l0.2,0.8l0.7-0.4c0.4-0.2,0.8-0.3,1.3-0.3c1.3,0,2.5,1,3,2.4l0.2,0.6l0.6-0.2c0.2-0.1,0.4-0.1,0.5-0.1
	c0.7,0,1.4,0.5,1.7,1.3l0.2,0.5l0.4-0.1L515.5,256.1z M14.2,245.4c-0.2,0-0.4,0.1-0.5,0.1c-0.1,0-0.1,0-0.2,0c-0.2,0-0.4,0-0.6-0.1
	l-0.7-0.1v0.1c-1.5-0.2-2.9-0.7-4.2-1.5l-0.1-0.1l-0.2,0c-1.6,0-3.4-1.8-3.7-4.2l-0.6,0.1l0.6-0.1c-0.1-0.3-0.1-0.6-0.1-0.9
	c0-1.6,0.7-2.9,1.7-3.4l0.4-0.2l-0.1-0.4c0-0.3-0.1-0.6-0.1-0.9c0-0.1,0-0.1,0-0.2c0.1-2.5,1.7-4.4,3.4-4.4c0,0,0,0,0,0c0,0,0,0,0,0
	c0,0,0.1,0,0.2,0l0.6,0.1l0.1-0.6c0.3-2.1,1.7-3.5,3.2-3.5c1.5,0,2.9,1.4,3.2,3.5l0.1,0.6l0.6-0.1c0.1,0,0.1,0,0.2,0c0,0,0,0,0,0h0
	l0,0h0c1.6,0,3.3,1.8,3.4,4.4c0,0.1,0,0.1,0,0.2c0,0.3,0,0.6-0.1,0.9l-0.1,0.4l0.4,0.2c1,0.5,1.7,1.8,1.7,3.4c0,0.3,0,0.6-0.1,0.9
	c-0.4,2.4-2.1,4.2-3.7,4.2l-0.2,0l-0.1,0.1c-1.1,0.7-2.3,1.2-3.6,1.4v-0.1L14.2,245.4z M50.7,240.1h-3.8l1.9-4.4
	C49.4,237.2,50.1,238.6,50.7,240.1z M46.2,239.6c-1.3-2.3-2.8-3.9-4.5-4.9h6.7L46.2,239.6z M48.2,233.9h-8.5l6.5-7.4
	C46.7,229,47.4,231.5,48.2,233.9z M39.6,202.3l3.5,0l-4,4l-4-4H39.6z M35.1,201.4l4-4l4,4H35.1z M43.7,212.1l-3.4,0h-5.8l4.6-4.6
	L43.7,212.1z M43.7,212.9l-4.6,4.6l-4.6-4.6H43.7z M45.6,225.2l-6.9,0h-6l6.5-6.5L45.6,225.2z M45.5,226l-6.6,7.5l-6.2-7.5H45.5z
	 M45.7,224.1l-6-6l4.5-4.5C44.6,217.1,45,220.6,45.7,224.1z M44,211.2l-1.4-1.4l-2.9-2.9l3.8-3.8C43.7,205.7,43.8,208.5,44,211.2z
	 M43.3,193.3c0.1,2.4,0.1,4.8,0.2,7.3l-1.5-1.5l-2.3-2.3L43.3,193.3z M39.2,188.5c1.5,0,2.8,1.1,3.1,2.6h-6.2
	C36.4,189.6,37.7,188.5,39.2,188.5z M43,192.3l-3.9,3.9l-3.9-3.9H43z M35,193.3l3.5,3.5l-3.7,3.7C34.8,198.1,34.9,195.7,35,193.3z
	 M34.7,203l3.1,3.1l0.7,0.7l-4.3,4.3C34.4,208.5,34.6,205.7,34.7,203z M34,213.6l4.5,4.5l-5.9,5.9C33.2,220.6,33.7,217.1,34,213.6z
	 M32,226.6l6.1,7.3H30C30.8,231.5,31.5,229.1,32,226.6z M35.7,234.8c-1.7,0.9-3.2,2.5-4.4,4.7l-1.5-4.7H35.7z M29.3,235.9l1.3,4.1
	l-3.1,0C28.2,238.7,28.7,237.3,29.3,235.9z M24.3,245.9c0.9-1.3,1.7-2.7,2.4-4.1l1.7,4.1H24.3z M27.3,240.9h3.2
	c-0.6,1.2-1.1,2.6-1.6,4.1L27.3,240.9z M47.9,246.4c-1.2,0.2-2.4,0.3-3.7,0.5c-1,0.1-1.9,0.3-2.9,0.4c-1.9,0.3-3.7,0.5-5.6,0.8
	c-0.8,0.1-1.7,0.2-2.5,0.4c-1.5,0.2-2.9,0.5-4.4,0.7c1.6-8.5,5.6-14.3,9.9-14.3c0,0,0.1,0,0.1,0c3.8,0,7.3,4.4,9.2,11.4
	C47.9,246.3,47.9,246.3,47.9,246.4z M48.6,245.3c-0.5-1.6-1-3-1.7-4.3h4L48.6,245.3z M87.1,239.5c-0.1-0.2-0.2-0.3-0.3-0.5
	c0,0,0,0,0,0c-0.1-0.2-0.2-0.3-0.3-0.5c0,0-0.1-0.1-0.1-0.1c-0.1-0.1-0.2-0.2-0.3-0.4c0,0,0-0.1-0.1-0.1c-0.1-0.1-0.3-0.3-0.4-0.4
	c0,0-0.1,0-0.1-0.1c-0.1-0.1-0.3-0.2-0.4-0.2c0,0-0.1,0-0.1-0.1c-0.2-0.1-0.3-0.2-0.5-0.2c0,0-0.1,0-0.1,0c-0.1,0-0.3-0.1-0.4-0.1
	c-0.1,0-0.1,0-0.2,0c-0.2,0-0.4,0-0.6,0c0,0,0,0,0,0h0c-0.1,0-0.1,0-0.2,0c0,0-0.1,0-0.1,0c0,0,0,0,0,0c-0.1,0-0.2,0-0.3,0
	c-0.2-0.6-0.6-1.2-0.9-1.7c0,0,0,0,0,0c-0.2-0.2-0.4-0.5-0.6-0.7c0,0,0,0,0,0c-0.2-0.2-0.4-0.4-0.7-0.6c0,0,0,0,0,0
	c0-0.3,0-0.5,0-0.8c0-1.7,0.5-3,1.1-3.4l0.3-0.2l0-0.3c0-0.3-0.1-0.6-0.1-0.9c0-0.1,0-0.1,0-0.2c0-1.3,0.3-2.5,0.7-3.2
	c0.4-0.8,0.9-1.1,1.2-1.1c0,0,0.1,0,0.1,0l0.7,0.1l0.1-0.7c0.1-1.1,0.4-2,0.8-2.6c0.4-0.6,0.8-0.9,1.1-0.9c0.3,0,0.7,0.2,1.1,0.9
	c0.4,0.6,0.7,1.6,0.8,2.6l0.1,0.7l0.7-0.1c0.1,0,0.1,0,0.1,0c0.3,0,0.8,0.3,1.2,1.1c0.4,0.8,0.7,1.9,0.7,3.2c0,0.1,0,0.1,0,0.2
	c0,0.3,0,0.6-0.1,1l0,0.3l0.3,0.2c0.5,0.4,1.1,1.8,1.1,3.4c0,0.3,0,0.6,0,0.9c-0.1,1.2-0.5,2.3-0.9,3.1c-0.4,0.8-1,1.1-1.3,1.1
	l-0.2,0l-0.2,0.2C88.6,239,87.9,239.4,87.1,239.5C87.1,239.6,87.1,239.6,87.1,239.5z M135.7,226l0.3-0.2l0-0.3
	c0-0.3-0.1-0.6-0.1-0.9c0-0.1,0-0.1,0-0.2c0-1.3,0.3-2.5,0.7-3.2c0.4-0.8,0.9-1.1,1.2-1.1c0,0,0.1,0,0.1,0l0.7,0.1l0.1-0.7
	c0.1-1.1,0.4-2,0.8-2.6c0.4-0.6,0.8-0.9,1.1-0.9c0.3,0,0.7,0.2,1.1,0.9c0.4,0.6,0.7,1.6,0.8,2.6l0.1,0.7l0.7-0.1c0.1,0,0.1,0,0.1,0
	c0.3,0,0.8,0.3,1.2,1.1c0.4,0.8,0.7,1.9,0.7,3.2c0,0.1,0,0.1,0,0.2c0,0.3,0,0.6-0.1,1l0,0.3l0.3,0.2c0.5,0.4,1.1,1.8,1.1,3.4
	c0,0.3,0,0.6,0,0.9c-0.1,1.2-0.4,2.2-0.9,2.9c-0.3,0.6-0.7,0.9-1,1.1c-0.4-0.3-0.8-0.5-1.2-0.7c0,0,0,0-0.1,0
	c-0.1,0-0.2-0.1-0.3-0.1c0,0-0.1,0-0.1,0c-0.1,0-0.1,0-0.2-0.1c-0.1,0-0.1,0-0.2,0c-0.1,0-0.1,0-0.2,0c-0.1,0-0.3,0-0.4,0
	c-0.2,0-0.4,0-0.6,0c0,0,0,0,0,0c-0.2,0-0.4,0.1-0.5,0.1c-0.5-1.2-1.6-2-2.9-2c-0.4,0-0.8,0.1-1.2,0.3c0,0-0.1-0.1-0.1-0.1
	c0-0.1-0.1-0.1-0.1-0.2c0-0.1-0.1-0.1-0.1-0.2c0,0-0.1-0.1-0.1-0.1c-0.1-0.1-0.1-0.1-0.2-0.2c0,0,0,0-0.1-0.1
	c-0.4-0.4-0.8-0.7-1.4-0.8c0-0.2,0-0.5,0-0.7C134.6,227.8,135.1,226.5,135.7,226z M124.6,241.7c0.4-0.9,0.7-1.1,1.2-1.3l0.6-0.2
	l-0.2-0.6c-0.1-0.3-0.1-0.5-0.1-0.8c0-1.1,0.7-2,1.6-2.2l0.4-0.1l0.1-0.4c0.3-1.3,1.4-2.3,2.6-2.2c0.1,0,0.3,0,0.5,0.1l0.7,0.2
	l0-0.8c0-0.2,0-0.4,0.1-0.6c0.2-0.6,0.5-1.1,1-1.4l0.2-0.1c0.2-0.1,0.4-0.1,0.6-0.1l0.2,0c0.5,0,0.9,0.3,1.3,0.7c0,0,0,0,0,0
	c0.1,0.1,0.1,0.1,0.2,0.2c0,0,0,0.1,0.1,0.1c0,0.1,0.1,0.1,0.1,0.2c0,0.1,0.1,0.2,0.1,0.3c0,0,0,0,0,0l0.1,0.4l0.2,0.7h0l0.8-0.7
	c0.2-0.2,0.5-0.4,0.8-0.4c0.1,0,0.2,0,0.3,0c0.7,0,1.3,0.4,1.6,1.1c0.1,0.2,0.2,0.4,0.2,0.6l0.1,0.8l0.7-0.4c0.3-0.2,0.6-0.3,1-0.3
	c0.1,0,0.2,0,0.3,0c0.1,0,0.3,0,0.4,0c0.6,0.1,1.2,0.4,1.7,0.9l0.2,0.2l0.2,0c0.3,0.4,0.5,0.8,0.6,1.2l0.1,0.4l0.4-0.1
	c0.2-0.1,0.4-0.1,0.6-0.1c1.1,0,2.1,1,2.1,2.4c0,0,0,0.1,0,0.2l0,0.3l0.3,0.1c1.2,0.5,1.8,0.7,2,2
	C141.8,241.9,133.2,241.7,124.6,241.7z M153.5,238.1l-0.2-0.2l-0.2,0c-0.2,0-0.5-0.2-0.8-0.7c-0.3-0.5-0.6-1.3-0.7-2.2l-0.6,0.1
	l0.6-0.1c0-0.2,0-0.5,0-0.7c0-1.2,0.4-2.2,0.7-2.4l0.3-0.2l0-0.3c0-0.2,0-0.5,0-0.7c0,0,0-0.1,0-0.1c0-0.9,0.2-1.8,0.5-2.3
	c0.3-0.5,0.6-0.7,0.7-0.7c0,0,0,0,0.1,0l0.7,0.1l0.1-0.7c0.1-0.8,0.3-1.5,0.5-1.9c0.3-0.4,0.5-0.6,0.7-0.6c0.1,0,0.4,0.1,0.7,0.6
	c0.3,0.4,0.5,1.1,0.5,1.9l0.1,0.7l0.7-0.1c0,0,0.1,0,0.1,0c0.2,0,0.5,0.2,0.7,0.7c0.3,0.6,0.5,1.4,0.5,2.3c0,0,0,0.1,0,0.1
	c0,0.2,0,0.5,0,0.7l0,0.3l0.3,0.2c0.3,0.2,0.7,1.2,0.7,2.4c0,0.2,0,0.4,0,0.7c-0.1,0.9-0.3,1.7-0.7,2.2c-0.3,0.5-0.7,0.7-0.8,0.7
	l-0.2,0l-0.2,0.2c-0.7,0.7-1.5,1-2.3,1C154.9,239.1,154.2,238.8,153.5,238.1z M155.9,242.3c-0.1,0-0.2,0-0.3,0v-1.9c0,0,0,0,0.1,0
	c0.1,0,0.1,0,0.2,0V242.3z M156.9,242.3c0,0-0.1,0-0.1,0v-2.1c0.5-0.2,1.1-0.4,1.5-0.8c-0.3,0.5-0.6,1-0.6,1.7c0,0.2,0,0.3,0,0.5
	C157.5,241.8,157.2,242,156.9,242.3z M176.8,240.8c0.3-1,1-1.7,1.9-1.6c0.1,0,0.2,0,0.3,0l0.7,0.2l0-0.8c0-0.9,0.7-1.6,1.3-1.6
	c0.6,0,1.1,0.4,1.3,1.2l0.2,1l0.8-0.7c0.2-0.2,0.5-0.3,0.8-0.3c0.6,0,1.2,0.5,1.3,1.2l0.1,0.8l0.7-0.4c0.3-0.2,0.6-0.2,0.9-0.2
	c1,0,1.8,0.7,2.2,1.8l0.2,0.6l0.6-0.2c0.1,0,0.3-0.1,0.4-0.1c0.7,0,1.3,0.6,1.3,1.6c0,0,0,0.1,0,0.2l0,0.5l0.4,0.2
	c0.4,0.1,0.7,0.4,1,0.8c-5-0.5-9.9-0.9-14.8-1.3c0,0,0,0,0-0.1c-0.1-0.2-0.1-0.4-0.2-0.6c0,0,0,0,0-0.1c-0.1-0.2-0.2-0.4-0.3-0.5
	c0,0,0-0.1-0.1-0.1c-0.1-0.2-0.3-0.3-0.4-0.4c0,0-0.1,0-0.1-0.1c-0.2-0.1-0.3-0.2-0.5-0.3c0,0,0,0,0,0c0-0.2,0-0.4-0.1-0.6
	c0,0,0,0,0,0L176.8,240.8z M164.7,235.4c0.6,0,1.1,0.4,1.3,1.2l0.2,1l0.8-0.7c0.2-0.2,0.5-0.3,0.8-0.3c0.6,0,1.2,0.5,1.3,1.2
	l0.1,0.8l0.7-0.4c0.3-0.2,0.6-0.2,0.9-0.2c1,0,1.8,0.7,2.2,1.8l0.2,0.6l0.6-0.2c0.1,0,0.3-0.1,0.4-0.1c0.4,0,0.9,0.3,1.1,0.8l0,0.1
	c0.1,0.1,0.1,0.2,0.1,0.3c0,0,0,0,0,0c0,0.1,0,0.2,0,0.4c0,0,0,0,0,0c0,0,0,0.1,0,0.2l0,0.5h0v0l0.4,0.2c0.1,0,0.2,0.1,0.3,0.1
	c0.3,0.2,0.6,0.5,0.8,0.9c-4.9-0.4-9.7-0.7-14.5-0.9c-1.4-0.1-2.9-0.1-4.3-0.2c0.1,0,0.2-0.1,0.2-0.1l0.4-0.1l-0.1-0.4
	c-0.1-0.2-0.1-0.4-0.1-0.6c0-0.9,0.6-1.6,1.3-1.7l0.3-0.1l0.1-0.3c0.3-1.1,1.1-1.8,2.1-1.8c0.1,0,0.2,0,0.2,0v0.3l0.2-0.3l0.4,0.1
	l0-0.5c0-0.1,0-0.2,0-0.3l0.5-0.7C163.9,235.6,164.3,235.4,164.7,235.4z M200,237.3C200,237.3,200,237.2,200,237.3
	c-0.2-0.2-0.4-0.5-0.5-0.7c-0.1-0.1-0.1-0.2-0.2-0.4c-0.1-0.1-0.1-0.2-0.1-0.3c-0.1-0.1-0.1-0.3-0.2-0.4c0-0.1,0-0.2-0.1-0.2
	c-0.1-0.2-0.1-0.4-0.1-0.6c0-0.1,0-0.1,0-0.2c-0.1-0.3-0.1-0.5-0.1-0.8c0,0,0,0,0,0c0-0.3,0-0.6,0-0.9c0-1,0.2-2,0.5-2.6
	c0,0,0,0,0-0.1c0.2-0.4,0.4-0.6,0.6-0.8l0.2-0.2l0.1-0.1l0-0.3c0-0.3-0.1-0.6-0.1-1c0-0.1,0-0.1,0-0.2c0-0.3,0-0.6,0.1-0.9
	c0-0.1,0-0.3,0.1-0.4c0-0.1,0-0.3,0.1-0.4c0-0.1,0.1-0.3,0.1-0.4c0-0.1,0.1-0.2,0.1-0.3c0-0.1,0.1-0.2,0.1-0.4
	c0.1-0.1,0.1-0.3,0.2-0.4c0.4-0.8,0.9-1.1,1.2-1.1c0,0,0.1,0,0.1,0l0.7,0.1l0.1-0.7c0.1-1.1,0.4-2,0.8-2.6c0.4-0.6,0.8-0.9,1.1-0.9
	c0.3,0,0.7,0.2,1.1,0.9c0.4,0.6,0.7,1.6,0.8,2.6l0.1,0.7l0.7-0.1c0.1,0,0.1,0,0.1,0c0.3,0,0.8,0.3,1.2,1.1c0.4,0.8,0.7,1.9,0.7,3.2
	c0,0.1,0,0.1,0,0.2c0,0.3,0,0.6-0.1,1l0,0.3l0.3,0.2c0.5,0.4,1.1,1.8,1.1,3.4c0,0.3,0,0.6,0,0.9c-0.1,1.2-0.5,2.3-0.9,3.1
	c-0.5,0.8-1,1.1-1.3,1.1l-0.2,0l-0.2,0.2c-1,0.9-2.1,1.4-3.2,1.4c-1.2,0-2.3-0.5-3.2-1.4l-0.2-0.2l-0.2,0c-0.2,0-0.4-0.1-0.6-0.2
	C200.2,237.4,200.1,237.4,200,237.3z M203.3,245.9c-1-0.1-1.9-0.2-2.9-0.3V239c0,0,0,0,0,0c0.8,0.8,1.8,1.3,2.9,1.5V245.9z
	 M204.9,246.1c-0.2,0-0.4,0-0.7-0.1v-5.4c0.1,0,0.2,0,0.2,0h0c0.1,0,0.3,0,0.4,0V246.1z M262.1,249.8c0,0-0.1,0-0.1,0c0,0,0,0,0,0
	c-0.1,0-0.1,0-0.2,0l-0.3-0.1c-0.5-0.1-1.1-0.4-1.5-0.9l-0.2-0.2l-0.2,0c-0.2,0-0.5-0.2-0.8-0.7c-0.3-0.5-0.6-1.3-0.7-2.2l-0.6,0.1
	l0.6-0.1c0-0.2,0-0.5,0-0.7c0-1.2,0.4-2.2,0.7-2.4l0.3-0.2l0-0.3c0-0.2,0-0.5,0-0.7c0,0,0-0.1,0-0.1c0-0.9,0.2-1.8,0.5-2.3
	c0.3-0.5,0.6-0.7,0.7-0.7c0,0,0,0,0.1,0l0.7,0.1l0.1-0.7c0.1-0.8,0.3-1.5,0.5-1.9c0.3-0.4,0.5-0.6,0.7-0.6c0.1,0,0.4,0.1,0.7,0.6
	c0.3,0.4,0.5,1.1,0.5,1.9l0.1,0.7l0.7-0.1c0,0,0.1,0,0.1,0c0.2,0,0.5,0.2,0.7,0.7c0.3,0.6,0.5,1.4,0.5,2.3c0,0.1,0,0.1,0,0.2
	c0,0.2,0,0.4,0,0.7l0,0.3l0.3,0.2c0.3,0.2,0.7,1.2,0.7,2.4c0,0.2,0,0.4,0,0.7c-0.1,0.9-0.4,1.7-0.7,2.2c-0.3,0.5-0.7,0.7-0.8,0.7
	l-0.2,0l-0.2,0.2C263.7,249.4,262.9,249.8,262.1,249.8z M275.7,251.5c-0.1,0-0.3,0-0.4,0l-0.4-0.1c-0.5-0.1-1.1-0.4-1.5-0.9
	l-0.2-0.2l-0.2,0c-0.2,0-0.5-0.2-0.8-0.7c-0.3-0.5-0.6-1.3-0.7-2.2l-0.6,0.1l0.6-0.1c0-0.2,0-0.5,0-0.7c0-1.2,0.4-2.2,0.7-2.4
	l0.3-0.2l0-0.3c0-0.2,0-0.5,0-0.7c0,0,0-0.1,0-0.1c0-0.9,0.2-1.8,0.5-2.3c0.3-0.5,0.6-0.7,0.7-0.7c0,0,0,0,0.1,0l0.7,0.2l0.1-0.7
	c0.1-0.8,0.3-1.5,0.5-1.9c0.3-0.4,0.5-0.6,0.7-0.6c0.1,0,0.4,0.1,0.7,0.6c0.3,0.4,0.5,1.1,0.5,1.9l0.1,0.7l0.7-0.1c0,0,0.1,0,0.1,0
	c0.2,0,0.5,0.2,0.7,0.7c0.3,0.6,0.5,1.4,0.5,2.3v0.1c0,0.2,0,0.5,0,0.7l0,0.3l0.3,0.2c0.3,0.2,0.7,1.2,0.7,2.4c0,0.2,0,0.5,0,0.7
	c-0.1,0.9-0.3,1.7-0.7,2.2c-0.3,0.5-0.7,0.7-0.8,0.7l-0.2,0l-0.2,0.2C277.2,251.1,276.5,251.5,275.7,251.5z M291.6,196.9l0.4-4h2.3
	l0.4,4L291.6,196.9z M311.6,247.5l-0.6,0.1L311.6,247.5c0-0.2-0.1-0.4-0.1-0.7c0-1.1,0.5-2,1.2-2.3l0.4-0.2l-0.1-0.4
	c0-0.2-0.1-0.4-0.1-0.7c0,0,0-0.1,0-0.1c0.1-1.8,1.2-3.1,2.3-3.1l0,0l0-0.1l0,0.1c0,0,0.1,0,0.1,0l0.6,0.1l0.1-0.6
	c0.2-1.5,1.2-2.5,2.2-2.5c1,0,2,1,2.2,2.5l0.1,0.6l0.6-0.1c0.1,0,0.1,0,0.1,0h0l0,0l0,0c1.1,0,2.3,1.3,2.3,3.1c0,0,0,0.1,0,0.1
	c0,0.2,0,0.4-0.1,0.7l-0.1,0.4l0.4,0.2c0.6,0.3,1.2,1.2,1.1,2.3c0,0.2,0,0.4,0,0.7c-0.3,1.7-1.5,3-2.6,2.9l-0.2,0l-0.1,0.1
	c-1.1,0.7-2.4,1.1-3.8,1.1c-1.4,0-2.7-0.4-3.8-1.1l-0.1-0.1l-0.2,0C313.1,250.5,311.9,249.3,311.6,247.5z M318.7,252.9v2.2
	c-0.1-0.1-0.2-0.1-0.3-0.2v-1.9C318.5,252.9,318.6,252.9,318.7,252.9z M317.6,252.9v1.5c-0.3-0.1-0.7-0.2-1.1-0.2
	c-0.2,0-0.3,0-0.4,0c-0.5-1.1-1.2-2-2.2-2.6c0.1,0,0.1,0,0.2,0C315,252.4,316.3,252.8,317.6,252.9z M318.1,261L318.1,261l-0.2,0l0,0
	c-2.5-0.2-4.9-0.5-7.4-0.8c0,0-0.1,0-0.1,0c-0.3,0-0.6-0.1-1-0.1c0,0,0,0-0.1,0c-2.1-0.2-4.2-0.5-6.3-0.7c0,0,0,0,0,0
	c-0.3,0-0.7-0.1-1-0.1l-0.3,0c-3-0.4-6-0.7-9-1.1c-0.1-0.2-0.1-0.4-0.1-0.7c0-1.4,0.9-2.5,2-2.7l0.4-0.1l0.1-0.3l0-0.1
	c0.3-1.3,1.2-2.2,2.2-2.6c0.3-0.1,0.6-0.2,1-0.2c0.1,0,0.2,0,0.4,0c0.1,0,0.2,0,0.2,0l0.7,0.2l0-0.5l0-0.3c0-0.2,0-0.4,0.1-0.5
	c0-0.1,0-0.1,0-0.2c0-0.1,0.1-0.2,0.1-0.3c0-0.1,0.1-0.2,0.1-0.2c0-0.1,0.1-0.1,0.1-0.2c0.1-0.1,0.1-0.2,0.2-0.3
	c0,0,0.1-0.1,0.1-0.1c0.1-0.1,0.2-0.2,0.2-0.3c0,0,0,0,0.1-0.1c0.1-0.1,0.2-0.2,0.3-0.2c0,0,0,0,0,0c0.2-0.1,0.5-0.2,0.8-0.3l0.1,0
	c0.1,0,0.1,0,0.2,0c1,0,2,0.8,2.3,2l0.2,1l0.8-0.7c0.4-0.4,0.9-0.6,1.4-0.6c1.1,0,2.1,0.9,2.3,2.2l0.1,0.8l0.7-0.4
	c0.5-0.3,1-0.4,1.6-0.4c1.7,0,3.1,1.2,3.7,3l0.2,0.6l0.6-0.2c0.2-0.1,0.4-0.1,0.6-0.1c1.2,0,2.4,1.2,2.4,2.7c0,0,0,0.1,0,0.3l0,0.5
	l0.4,0.2c0.9,0.3,1.7,1.1,2.1,2.2C320.2,261.2,319.2,261.1,318.1,261z M431.1,258C431.1,258.1,431.2,258.1,431.1,258
	c0.2,0.1,0.3,0.2,0.4,0.4c0,0,0.1,0.1,0.1,0.1c0.1,0.1,0.2,0.2,0.3,0.4c0,0,0,0.1,0.1,0.1c0.1,0.1,0.2,0.3,0.2,0.4c0,0,0,0,0,0
	c0.1,0.1,0.1,0.3,0.2,0.5c0,0,0,0.1,0,0.1c0,0.2,0.1,0.3,0.1,0.5c0,0,0,0.1,0,0.1c0,0.2,0,0.4,0,0.6c0,0,0,0,0,0c0,0,0,0,0,0
	c0,0.1,0,0.2,0,0.4l0,0.5h0v0l0.2,0.1l0.3,0.1c0.8,0.3,1.5,0.9,2,1.6c0.1,0.1,0.1,0.1,0.2,0.2c-4.4,0.2-8.8,0.4-13.2,0.6
	c-8.5,0.3-17.1,0.5-25.6,0.5h-0.9c0.5-1.4,1.6-2.5,2.9-2.9l0.6-0.2l-0.2-0.6c-0.1-0.4-0.2-0.8-0.2-1.3c0-1.9,1.2-3.3,2.7-3.6
	l0.4-0.1l0.1-0.4c0.6-2.2,2.3-3.7,4.3-3.7c0.3,0,0.5,0,0.8,0.1l0.7,0.2l0-0.8c0-2.1,1.5-3.7,3.2-3.7c1.4,0,2.7,1.1,3.1,2.7l0.2,1
	l0.8-0.7c0.6-0.5,1.2-0.8,1.9-0.8c1.5,0,2.8,1.2,3.1,2.9l0.1,0.8l0.7-0.4c0.7-0.3,1.4-0.5,2.1-0.5c2.2,0,4.1,1.6,4.9,3.9l0.2,0.6
	l0.6-0.2c0.3-0.1,0.6-0.2,0.9-0.2c0.3,0,0.6,0,0.8,0.1c0.2,0,0.3,0.1,0.4,0.2c0,0,0.1,0,0.1,0C430.9,257.9,431,258,431.1,258z
	 M433.2,208.8l0.9-2.8h10.8l0.9,2.8H433.2z M456.5,208.8l0.9-2.8h10.8l0.9,2.8H456.5z M481.3,256c-0.1,0-0.3,0-0.4,0l-0.4-0.1
	c-0.5-0.1-1.1-0.4-1.5-0.9l-0.2-0.2l-0.2,0c-0.2,0-0.5-0.2-0.8-0.7c-0.3-0.5-0.6-1.3-0.7-2.2l-0.6,0.1l0.6-0.1c0-0.2,0-0.5,0-0.7
	c0-1.2,0.4-2.2,0.7-2.4l0.3-0.2l0-0.3c0-0.2,0-0.5,0-0.7c0,0,0-0.1,0-0.1c0-0.9,0.2-1.8,0.5-2.3c0.3-0.5,0.6-0.7,0.7-0.7
	c0,0,0,0,0.1,0l0.7,0.2l0.1-0.7c0.1-0.8,0.3-1.5,0.5-1.9c0.3-0.4,0.5-0.6,0.7-0.6c0.1,0,0.4,0.1,0.7,0.6c0.3,0.4,0.5,1.1,0.5,1.9
	l0.1,0.7l0.7-0.1c0,0,0.1,0,0.1,0c0.2,0,0.5,0.2,0.7,0.7c0.3,0.6,0.5,1.4,0.5,2.3c0,0,0,0.1,0,0.1c0,0.2,0,0.5,0,0.7l0,0.3l0.3,0.2
	c0.3,0.2,0.7,1.2,0.7,2.4c0,0.2,0,0.5,0,0.7c-0.1,0.9-0.4,1.7-0.7,2.2c-0.3,0.5-0.7,0.7-0.8,0.7l-0.2,0l-0.2,0.2
	C482.9,255.7,482.1,256,481.3,256z M514.7,253.6c-0.1-0.1-0.2-0.1-0.3-0.1V252c0,0,0,0,0.1,0h0c0.1,0,0.1,0,0.2,0V253.6z
	 M514.5,250.8c-0.8,0-1.6-0.4-2.3-1l-0.2-0.2l-0.2,0c-0.2,0-0.5-0.2-0.8-0.7c-0.3-0.5-0.6-1.3-0.7-2.2l-0.6,0.1l0.6-0.1
	c0-0.2,0-0.5,0-0.7c0-1.2,0.4-2.2,0.7-2.4l0.3-0.2l0-0.3c0-0.2,0-0.4,0-0.7c0,0,0-0.1,0-0.1c0-0.9,0.2-1.8,0.5-2.3
	c0.3-0.5,0.6-0.7,0.7-0.7c0,0,0,0,0.1,0l0.7,0.1l0.1-0.7c0.1-0.8,0.3-1.5,0.5-1.9c0.3-0.4,0.5-0.6,0.7-0.6c0.1,0,0.4,0.1,0.7,0.6
	c0.3,0.4,0.5,1.1,0.5,1.9l0.1,0.7l0.7-0.1c0,0,0.1,0,0.1,0c0.2,0,0.5,0.2,0.7,0.7c0.3,0.6,0.5,1.4,0.5,2.3v0.1c0,0.2,0,0.5,0,0.7
	l0,0.3l0.3,0.2c0.3,0.2,0.7,1.2,0.7,2.4c0,0.2,0,0.4,0,0.7c-0.1,0.9-0.4,1.7-0.7,2.2c-0.3,0.5-0.7,0.7-0.8,0.7l-0.2,0l-0.2,0.2
	C516,250.4,515.3,250.8,514.5,250.8z"/>
<g>
	<path class="st2" d="M224.7,194.2h-93.4c-25.8,0-46.7-20.9-46.7-46.7v-45.7c0-25.8,20.9-46.7,46.7-46.7h93.4
		c25.8,0,46.7,20.9,46.7,46.7v45.7C271.4,173.3,250.5,194.2,224.7,194.2z"/>
	<path class="st3" d="M261.9,194.7H94.1c-5.5,0-10-4.5-10-10V64.6c0-5.5,4.5-10,10-10h167.8c5.5,0,10,4.5,10,10v120.1
		C271.8,190.2,267.4,194.7,261.9,194.7z M94.1,55.6c-5,0-9.1,4.1-9.1,9.1v120.1c0,5,4.1,9.1,9.1,9.1h167.8c5,0,9.1-4.1,9.1-9.1V64.6
		c0-5-4.1-9.1-9.1-9.1H94.1z"/>
	<g>
		<g>
			<path class="st3" d="M253.3,72.7h-31.8c-1.3,0-2.4-1.1-2.4-2.4c0-1.3,1.1-2.4,2.4-2.4h31.8c1.3,0,2.4,1.1,2.4,2.4
				C255.7,71.6,254.6,72.7,253.3,72.7z"/>
			<path class="st3" d="M260.1,82.9h-45.6c-1.3,0-2.4-1.1-2.4-2.4s1.1-2.4,2.4-2.4h45.6c1.3,0,2.4,1.1,2.4,2.4
				S261.4,82.9,260.1,82.9z"/>
			<path class="st3" d="M260.3,102h-45.5c-1.3,0-2.4-1.1-2.4-2.4c0-1.3,1.1-2.4,2.4-2.4h45.5c1.3,0,2.4,1.1,2.4,2.4
				C262.6,101,261.6,102,260.3,102z"/>
			<path class="st3" d="M260.1,111.2h-44.5c-1.3,0-2.4-1.1-2.4-2.4c0-1.3,1.1-2.4,2.4-2.4h44.5c1.3,0,2.4,1.1,2.4,2.4
				S261.4,111.2,260.1,111.2z"/>
			<path class="st3" d="M260.4,120.6h-44.5c-1.3,0-2.4-1.1-2.4-2.4c0-1.3,1.1-2.4,2.4-2.4h44.5c1.3,0,2.4,1.1,2.4,2.4
				C262.8,119.5,261.7,120.6,260.4,120.6z"/>
			<path class="st3" d="M260.2,129.8h-45.5c-1.3,0-2.4-1.1-2.4-2.4c0-1.3,1.1-2.4,2.4-2.4h45.5c1.3,0,2.4,1.1,2.4,2.4
				C262.6,128.7,261.6,129.8,260.2,129.8z"/>
			<path class="st3" d="M260.1,139.3h-45.5c-1.3,0-2.4-1.1-2.4-2.4s1.1-2.4,2.4-2.4h45.5c1.3,0,2.4,1.1,2.4,2.4
				C262.5,138.2,261.4,139.3,260.1,139.3z"/>
			<path class="st3" d="M231.2,92.9h-16.6c-1.3,0-2.4-1.1-2.4-2.4c0-1.3,1.1-2.4,2.4-2.4h16.6c1.3,0,2.4,1.1,2.4,2.4
				C233.6,91.8,232.6,92.9,231.2,92.9z"/>
			<path class="st3" d="M260.4,92.9h-17.5c-1.3,0-2.4-1.1-2.4-2.4c0-1.3,1.1-2.4,2.4-2.4h17.5c1.3,0,2.4,1.1,2.4,2.4
				C262.7,91.8,261.7,92.9,260.4,92.9z"/>
		</g>
	</g>
	<g>
		<g>
			<path class="st3" d="M141.9,146.9H97c-1.3,0-2.4-1.1-2.4-2.4c0-1.3,1.1-2.4,2.4-2.4h44.9c1.3,0,2.4,1.1,2.4,2.4
				C144.3,145.8,143.2,146.9,141.9,146.9z"/>
			<path class="st3" d="M184.5,146.7h-34.4c-1.3,0-2.4-1.1-2.4-2.4c0-1.3,1.1-2.4,2.4-2.4h34.4c1.3,0,2.4,1.1,2.4,2.4
				C186.8,145.7,185.8,146.7,184.5,146.7z"/>
			<path class="st3" d="M128.5,137H96.9c-1.3,0-2.4-1.1-2.4-2.4c0-1.3,1.1-2.4,2.4-2.4h31.6c1.3,0,2.4,1.1,2.4,2.4
				C130.9,135.9,129.8,137,128.5,137z"/>
		</g>
	</g>
	<path class="st3" d="M184.6,187.8H97.7c-2.1,0-3.8-1.7-3.8-3.8v-27.5c0-2.1,1.7-3.8,3.8-3.8h86.9c2.1,0,3.8,1.7,3.8,3.8v27.5
		C188.4,186.2,186.7,187.8,184.6,187.8z M97.7,153.7c-1.6,0-2.9,1.3-2.9,2.9v27.5c0,1.6,1.3,2.9,2.9,2.9h86.9c1.6,0,2.9-1.3,2.9-2.9
		v-27.5c0-1.6-1.3-2.9-2.9-2.9H97.7z"/>
	<path class="st3" d="M260.9,187.8h-62.2c-2.1,0-3.8-1.7-3.8-3.8v-27.5c0-2.1,1.7-3.8,3.8-3.8h62.2c2.1,0,3.8,1.7,3.8,3.8v27.5
		C264.7,186.2,263,187.8,260.9,187.8z M198.8,153.7c-1.6,0-2.9,1.3-2.9,2.9v27.5c0,1.6,1.3,2.9,2.9,2.9h62.2c1.6,0,2.9-1.3,2.9-2.9
		v-27.5c0-1.6-1.3-2.9-2.9-2.9H198.8z"/>
	<path class="st3" d="M188.4,120.4h-76.2c-9.8,0-17.8-8-17.8-17.8V85.5c0-9.8,8-17.8,17.8-17.8h76.2c9.8,0,17.8,8,17.8,17.8v17.1
		C206.2,112.4,198.2,120.4,188.4,120.4z"/>
	<path class="st3" d="M416.9,300c-0.4-2.3-0.8-3.9-1.2-5.5c-2.8-11.8-5.7-21.4-7.9-27.9l-5.9-21.4l-72.4,13.2c0,0-2.3,15.8-7.1,41.6
		H416.9z"/>
	<path class="st3" d="M338.9,297.3c8,0,13.1-8.7,9.6-16c-0.8-1.7-1.6-3.4-2.5-5c-6.1-12.3-23.6-9.6-25.8,4c0,0.2-0.5,0.5-0.6,0.7
		c-1.1,8.7,5.5,16.3,14,16.3H338.9z"/>
	<path class="st2" d="M438.4,200.3c0-30.4-5.9-44.4-47.3-55.8c-10.5-2.9-26-4.1-41-2.4c-41.8,0.5-57.8,19.2-72.4,18.7
		c-16.1-0.5-29.5-21.4-29.5-21.4c-5.3-5.8-11-2.9-14-1.1c-3.6,2.1-5.2,6.9-5.8,10.3c-0.4,2.2-0.1,4.5,1,6.4
		c5.3,9.6,24.1,41,41.5,43.6c13.8,2.1,41.4-5.6,54-8c8.9,31-5.2,90.6-5.2,90.6c10.5-7.5,45.8,2.2,68.3,10.8
		c11.3,4.3,21.4,1.9,28.8-2.3c7.4-4.2-5.7-48-5.7-48S438.4,226.8,438.4,200.3z"/>
	<path class="st3" d="M400,294.5c-3.8,0-7.8-0.7-12.2-2.3c-20.1-7.7-57.1-18.5-67.9-10.8c-0.2,0.1-0.4,0.1-0.5,0
		c-0.2-0.1-0.2-0.3-0.2-0.5c0.1-0.6,13.8-59.3,5.3-89.9c-2.7,0.5-5.9,1.3-9.7,2.1c-14,3.2-33.2,7.5-44,5.9
		c-17.6-2.6-36.4-34.2-41.8-43.8c-1.1-2-1.5-4.4-1.1-6.7c0.7-3.7,2.3-8.5,6-10.6c2.6-1.5,8.8-5,14.6,1.2c0,0,0,0,0,0.1
		c0.1,0.2,13.4,20.7,29.1,21.2c5.5,0.2,11.3-2.4,18.6-5.7c11.8-5.3,27.9-12.6,53.8-13c14.1-1.6,29.9-0.7,41.1,2.4
		c20.5,5.6,32.7,12.1,39.4,20.9c6.8,9,8.2,20.6,8.2,35.3c0,13.8-7.5,24.4-13.8,30.8c-6,6.1-12,9.7-13.4,10.5
		c0.6,2,3.4,11.9,5.5,22.1c3.2,15.4,3.1,24.2-0.1,26.1C412.8,292.2,407,294.5,400,294.5z M331.7,277.9c16.1,0,41.1,7.7,56.5,13.5
		c12.1,4.6,22.2,1.3,28.4-2.3c5.8-3.3-2.3-35.4-5.9-47.5c-0.1-0.2,0-0.4,0.2-0.5c0.3-0.1,27.1-14.8,27.1-40.7
		c0-28.9-4.6-43.8-46.9-55.4c-11.1-3.1-26.8-4-40.8-2.4c-25.7,0.3-41.8,7.6-53.5,12.9c-7.4,3.4-13.3,6-19,5.8
		c-16-0.5-29-20.3-29.8-21.6c-4.6-5-9.4-3.3-13.4-1c-3.4,1.9-4.9,6.5-5.6,10c-0.4,2.1-0.1,4.2,1,6.1c5.3,9.5,24,40.8,41.1,43.4
		c10.7,1.6,29.8-2.7,43.7-5.8c4-0.9,7.4-1.7,10.1-2.2c0.2,0,0.5,0.1,0.5,0.3c8.1,28.5-3.1,81.5-5,89.7
		C323.1,278.5,327,277.9,331.7,277.9z"/>
	<path class="st3" d="M239.5,159c-4.7,0-7.7-5.2-7.8-5.4c-0.1-0.2-0.1-0.5,0.2-0.6c0.2-0.1,0.5-0.1,0.6,0.2c0,0,2.9,5,7.1,4.9
		c3.2,0,6.4-3,9.4-8.6c0.1-0.2,0.4-0.3,0.6-0.2c0.2,0.1,0.3,0.4,0.2,0.6C246.6,155.9,243.2,159,239.5,159
		C239.6,159,239.6,159,239.5,159z"/>
	<path class="st3" d="M373.5,228.3c-0.2,0-0.3-0.1-0.4-0.3c-0.1-0.2,0-0.5,0.2-0.6c15.3-7.1,22.8-17.5,26.3-25
		c3.8-8.1,4-14.7,4-14.7c0-0.2,0.2-0.4,0.5-0.4c0,0,0,0,0,0c0.2,0,0.4,0.2,0.4,0.5c0,0.3-0.2,6.8-4.1,15
		c-3.6,7.6-11.2,18.3-26.8,25.5C373.7,228.3,373.6,228.3,373.5,228.3z"/>
	<path class="st3" d="M380.3,249.6c-0.2,0-0.4-0.2-0.5-0.4c0-0.2,0.2-0.5,0.4-0.5c18.8-0.2,31.2-7.2,31.4-7.3c0.2-0.1,0.5,0,0.6,0.2
		c0.1,0.2,0,0.5-0.2,0.6C412,242.3,399.4,249.4,380.3,249.6C380.3,249.6,380.3,249.6,380.3,249.6z"/>
	<path class="st2" d="M362.9,248c0,0,3.9,0.4,11.5-1.5c5.8-1.4,4.1-20.2-2.9-15.1c-5.9,4.2-9.3,4.8-9.3,4.8l-5.6-2.8
		c-2.2-1.1-4.6-1.8-7-2.1c-9.7-1.1-9.1,1.1-9.1,1.1c-0.4,2.3,0.4,2.6,2.2,3.4l7.6,3.2c1.1,0.4,1.3,1.9,0.4,2.7
		c-1.3,1.2-2.8,2.2-4.5,2.8c-3,1.2-8.2,3.1-13.6,4.3c-2.5,0.6-3.3,3.7-1,4.9l16.8,1.2c4.3,0.3,8.5-1.2,11.7-4.1L362.9,248z"/>
	<path class="st3" d="M349.3,255.3c-0.4,0-0.8,0-1.1,0l-16.8-1.2c-0.1,0-0.1,0-0.2,0c-1.2-0.6-1.8-1.6-1.6-2.9
		c0.2-1.4,1.3-2.5,2.7-2.9c5.5-1.2,10.8-3.2,13.6-4.3c1.6-0.6,3.1-1.6,4.4-2.7c0.3-0.3,0.4-0.7,0.4-1.1c-0.1-0.4-0.3-0.7-0.7-0.9
		l-7.6-3.2c-1.8-0.7-2.9-1.2-2.5-3.8c0-0.2,0-0.5,0.3-0.8c1-1.1,4.1-1.4,9.4-0.7c2.5,0.3,4.9,1,7.2,2.2l5.5,2.7c0.7-0.2,3.9-1,9-4.7
		c1.9-1.3,3.3-1,4.1-0.5c2.5,1.6,3.5,6.8,2.9,10.8c-0.5,3.1-1.8,5.2-3.6,5.6c-6.7,1.7-10.5,1.6-11.4,1.5l-2.9,2.6
		C357.2,253.8,353.3,255.3,349.3,255.3z M331.5,253.1l16.7,1.2c4.1,0.3,8.2-1.1,11.3-4l3-2.8c0.1-0.1,0.2-0.1,0.4-0.1
		c0,0,3.9,0.4,11.3-1.5c1.5-0.4,2.5-2.1,3-4.9c0.6-3.7-0.3-8.6-2.4-9.9c-0.9-0.5-1.9-0.4-3.1,0.5c-5.9,4.2-9.3,4.8-9.5,4.9
		c-0.1,0-0.2,0-0.3,0l-5.6-2.8c-2.2-1.1-4.5-1.8-6.9-2.1c-6.9-0.8-8.3,0.1-8.6,0.4c0,0-0.1,0.1-0.1,0.1c0,0.1,0,0.1,0,0.2
		c-0.4,1.9,0.1,2.1,1.9,2.9l7.6,3.2c0.6,0.3,1.1,0.8,1.2,1.5c0.1,0.7-0.1,1.4-0.6,1.9c-1.4,1.3-2.9,2.3-4.6,2.9
		c-3.3,1.3-8.4,3.1-13.7,4.3c-1.3,0.3-1.9,1.3-2,2.1C330.4,252,330.8,252.7,331.5,253.1z"/>
	<path class="st2" d="M201.6,110.6c0.4-1.1,1.5-1.8,2.6-1.5c3.1,0.7,19,4.2,21.9,4.9c3,0.7,3.1,4,4.8,7c1.5,2.6,6.5,12.3,12,19
		c1.7,2,1.9,4.9,0.6,7.2c-0.7,1.3-1.7,2.6-2.8,3.4c-2.9,2-5,4.3-10.8-9.5c-0.4-0.8-0.9-1.6-1.7-2.1c-1.1-0.7-2.8-2-4.4-3.9
		c0,0-9.7,11.8-12.1-12.2c-0.2-2.1,0.7-4.2,2.5-5.3c0.1-0.1,0.3-0.2,0.5-0.3l-11.6-3.7C201.9,113.2,201.2,111.8,201.6,110.6z"/>
	<path class="st3" d="M237.6,152.4c-0.2,0-0.5,0-0.8-0.1c-2.1-0.6-4.3-4-7.3-11.2c-0.3-0.8-0.9-1.4-1.5-1.9
		c-1.1-0.7-2.6-1.9-4.2-3.6c-0.9,1-3.5,3.3-6.2,2.5c-3.3-1-5.4-6.1-6.3-15.3c-0.2-2.2,0.7-4.2,2.3-5.4l-10.6-3.4
		c-0.7-0.2-1.3-0.7-1.6-1.4c-0.3-0.7-0.4-1.5-0.2-2.2c0,0,0,0,0,0c0.4-1.3,1.8-2.1,3.1-1.8c5.2,1.1,19.2,4.2,21.9,4.9
		c2.3,0.5,3.1,2.5,3.9,4.5c0.3,0.9,0.7,1.8,1.2,2.7c0.2,0.3,0.4,0.7,0.6,1.1c1.9,3.5,6.5,11.9,11.4,17.8c1.8,2.2,2,5.3,0.6,7.7
		c-0.9,1.6-1.9,2.8-2.9,3.5l-0.4,0.3C239.7,151.7,238.7,152.4,237.6,152.4z M223.8,134.5c0.1,0,0.3,0.1,0.3,0.2
		c1.6,1.9,3.2,3.1,4.3,3.9c0.8,0.6,1.5,1.3,1.9,2.3c2.8,6.7,5,10.1,6.8,10.6c1,0.3,1.9-0.3,3-1.1l0.4-0.3c0.9-0.6,1.8-1.7,2.7-3.2
		c1.2-2.1,1-4.8-0.6-6.7c-4.9-6-9.5-14.4-11.5-17.9c-0.2-0.4-0.4-0.8-0.6-1.1c-0.5-0.9-0.9-1.9-1.2-2.8c-0.8-2-1.4-3.6-3.2-4
		c-2.7-0.6-16.8-3.7-21.9-4.9c-0.9-0.2-1.8,0.3-2.1,1.2c-0.2,0.5-0.1,1,0.1,1.5c0.2,0.4,0.6,0.8,1.1,0.9l11.6,3.7
		c0.2,0.1,0.3,0.2,0.3,0.4c0,0.2-0.1,0.4-0.2,0.4c-0.2,0.1-0.3,0.2-0.4,0.2c-1.6,0.9-2.5,2.8-2.3,4.8c1.1,10.9,3.7,13.9,5.7,14.5
		c2.8,0.8,5.6-2.6,5.6-2.6C223.5,134.6,223.7,134.5,223.8,134.5C223.8,134.5,223.8,134.5,223.8,134.5z"/>
	<path class="st3" d="M226,130c-0.1,0-0.2,0-0.2-0.1c-0.8-0.4-2.2-1.4-2.8-1.9c-3.1-2.2-4.9-4.5-5.6-5.6c-0.5-0.8-0.8-1.7-0.8-2.6
		c0-1.7,1.1-2,1.6-2.2c1.9-0.6,4.8,1.1,5.2,1.3c0.2,0.1,0.3,0.4,0.1,0.6c-0.1,0.2-0.4,0.3-0.6,0.1c-0.8-0.5-3.2-1.7-4.4-1.3
		c-0.5,0.2-1,0.3-1,1.4c0,0.7,0.2,1.4,0.6,2c0.7,1.1,2.4,3.2,5.4,5.4c0.4,0.3,1.9,1.4,2.7,1.8c0.2,0.1,0.3,0.4,0.2,0.6
		C226.3,129.9,226.2,130,226,130z"/>
	<path d="M223.9,135.5c-0.1,0-0.2,0-0.3-0.1c-2.6-2.7-2.4-5.6-2.4-5.7c0-0.2,0.2-0.4,0.5-0.4c0.2,0,0.4,0.2,0.4,0.5
		c0,0-0.1,2.6,2.2,5.1c0.2,0.2,0.2,0.5,0,0.6C224.2,135.5,224,135.5,223.9,135.5z"/>
	<path class="st2" d="M376.1,143.8l-1-28.3l-19.9,10.4l0.2,17.9c0.1,4,3.4,6.2,3.4,6.2c4.1,3.1,9.8,2.5,13.9-0.4l1-0.7
		C375.3,147.7,376.2,145.8,376.1,143.8z"/>
	<path class="st3" d="M365.2,152.6c-2.4,0-4.7-0.7-6.6-2.2c-0.1-0.1-3.4-2.4-3.6-6.6l-0.2-17.9c0-0.2,0.1-0.3,0.2-0.4l19.9-10.4
		c0.1-0.1,0.3-0.1,0.4,0c0.1,0.1,0.2,0.2,0.2,0.4l1,28.3c0.1,2.2-0.9,4.2-2.6,5.5l-1,0.7C370.6,151.7,367.8,152.6,365.2,152.6z
		 M355.6,126.2l0.2,17.6c0.1,3.7,3.2,5.8,3.2,5.9c3.7,2.8,9.1,2.6,13.4-0.4l1-0.7c1.5-1.1,2.3-2.8,2.2-4.7c0,0,0,0,0,0l-1-27.6
		L355.6,126.2z"/>
	<path class="st3" d="M346.2,83c5.3-0.3-1.4,5.3,18.3-0.6c7.8-2.3,3.9,7,5.9,6.4c7.5-2.2,7.2-2.2,10.9-1.2c2.4,0.7,4,5.2,3.5,8.7
		c-0.6,4.5-4.2,5.7-7.5,15.3c-2.3,6.7-1.7,10.8-4.3,11.8c-2.6,1-4.6-2.7-7.6-1.8c-3.8,1.1-3.1,8-6.8,10.8c-2.4,1.8-7.9,2.6-16.7-1.8
		c-1.4-0.7-2.2-2.4-1.7-4c0.5-2,1.2-4.6,2.1-7c4.1-11.4,8-13.9,6.6-16.9c-2.2-4.5-10.5-1.9-11.8-5.6C335.6,93.4,338.9,83.4,346.2,83
		z"/>
	<path class="st2" d="M364.7,102.5l-1.5,2.9c-0.7,1.4-1.3,2.8-1.9,4.3c-1,2.7-2.9,7.4-3.9,10c-3.3,8.4-13.4-0.8-13.4-0.8l-0.7-2.3
		L342,116c-0.3-0.1-0.5-0.3-0.7-0.5c-0.4-0.6-0.4-1.3-0.1-1.9c2-3.1,6.2-10,7.8-16.2C349,97.4,357.7,95.1,364.7,102.5z"/>
	<path class="st3" d="M352.9,123.7c-4.2,0-8.9-4.3-9.1-4.5c-0.1-0.1-0.1-0.1-0.1-0.2l-0.6-2.1l-1.2-0.5c-0.4-0.1-0.7-0.4-0.9-0.7
		c-0.5-0.7-0.6-1.7-0.1-2.4c1.8-2.7,6.2-9.8,7.7-16c0-0.2,0.2-0.3,0.3-0.3c0.1,0,9-2.3,16.1,5.3c0.1,0.1,0.2,0.3,0.1,0.5l-1.5,2.9
		c-0.7,1.4-1.3,2.8-1.8,4.2c-0.7,2-1.9,5-2.9,7.5c-0.4,0.9-0.7,1.8-1,2.5c-0.8,2.1-2.1,3.3-3.8,3.7
		C353.7,123.7,353.3,123.7,352.9,123.7z M344.5,118.6c0.7,0.6,5.8,4.9,9.4,4.1c1.4-0.3,2.4-1.4,3.1-3.1c0.3-0.7,0.6-1.6,1-2.5
		c1-2.4,2.2-5.5,2.9-7.4c0.5-1.5,1.2-2.9,1.9-4.3l1.4-2.6c-6-6.2-13.3-5.1-14.7-4.8c-1.6,6.1-5.5,12.6-7.8,16.1
		c-0.3,0.4-0.3,1,0,1.4c0.1,0.1,0.3,0.3,0.5,0.4l1.4,0.6c0.1,0.1,0.2,0.2,0.3,0.3L344.5,118.6z"/>
	<path class="st2" d="M362.5,112.7c0,0,3.6-7,6.4-4.6C371.6,110.5,367.4,118.1,362.5,112.7z"/>
	<g>
		<g>
			<path class="st3" d="M349,113.9c-0.8,0-1.4-0.2-1.9-0.7c-0.9-0.9-1.4-2.7-1.2-5.2c0.1-1.9,0.7-3.1,1.7-3.5
				c0.7-0.3,1.5-0.4,2.2-0.1c0.6,0.2,1,0.7,1.2,1.2c1.2,3.2,0.7,5.9-0.2,7.2c-0.4,0.7-0.9,1.1-1.4,1.1
				C349.3,113.9,349.2,113.9,349,113.9z M348.8,105.1c-0.3,0-0.6,0.1-0.8,0.2c-0.7,0.3-1,1.2-1.1,2.8c-0.1,2.2,0.2,3.8,0.9,4.5
				c0.4,0.4,0.9,0.5,1.6,0.5c0.2,0,0.4-0.2,0.7-0.7c0.7-1.2,1.2-3.5,0.1-6.5c-0.1-0.3-0.4-0.5-0.7-0.6
				C349.2,105.1,349,105.1,348.8,105.1z M347.8,104.9L347.8,104.9L347.8,104.9z"/>
			<path class="st3" d="M365.8,107.3C365.8,107.3,365.8,107.3,365.8,107.3l-16.6-2.2c-0.2,0-0.4-0.3-0.4-0.5c0-0.2,0.3-0.4,0.5-0.4
				l16.6,2.2c0.2,0,0.4,0.3,0.4,0.5C366.2,107.1,366,107.3,365.8,107.3z"/>
			<path class="st3" d="M341.8,112.1c-0.1,0-0.1,0-0.2,0c-0.5-0.2-0.8-1.1-1-1.6c-0.5-1.6-0.7-4,0.4-5.8c0.3-0.6,0.8-1,1.5-1.1
				c1.6-0.3,3.4,1.2,3.5,1.2c0.2,0.2,0.2,0.4,0.1,0.6c-0.2,0.2-0.4,0.2-0.6,0.1c-0.4-0.4-1.8-1.2-2.7-1.1c-0.4,0.1-0.6,0.3-0.9,0.7
				c-1.4,2.5-0.2,5.9,0.2,6.2c0.2,0.1,0.3,0.4,0.2,0.6C342.1,112,342,112.1,341.8,112.1z"/>
		</g>
	</g>
</g>
</svg>
