<?xml version="1.0" encoding="utf-8"?>
<!-- Generator: Adobe Illustrator 25.2.1, SVG Export Plug-In . SVG Version: 6.00 Build 0)  -->
<svg version="1.1" id="Layer_1" xmlns="http://www.w3.org/2000/svg" xmlns:xlink="http://www.w3.org/1999/xlink" x="0px" y="0px"
	 viewBox="0 0 1046 467" style="enable-background:new 0 0 1046 467;" xml:space="preserve">
<style type="text/css">
	.st0{fill:#1A8DC6;}
	.st1{opacity:0.1;fill:#FFFFFF;}
	.st2{fill:none;stroke:#FFFFFF;stroke-width:6;stroke-linecap:round;stroke-miterlimit:10;}
	.st3{fill:#FFFFFF;stroke:#FFFFFF;stroke-width:6;stroke-linecap:round;stroke-miterlimit:10;}
	.st4{fill:#F0E1D4;stroke:#FFFFFF;stroke-width:6;stroke-linecap:round;stroke-miterlimit:10;}
	.st5{fill:#1A3BC6;}
	.st6{fill:#1A57C6;}
	.st7{fill:#FFB000;}
	.st8{fill:#272D3F;}
	.st9{fill:#333D54;}
	.st10{fill:#1A4DC6;}
	.st11{fill:#FFCFC9;}
	.st12{fill:#FAB6AD;}
	.st13{fill:#FFFFFF;}
	.st14{fill:none;stroke:#FFFFFF;stroke-width:6;stroke-miterlimit:10;}
	.st15{fill:#FFFFFF;stroke:#FFFFFF;stroke-width:6;stroke-miterlimit:10;}
</style>
<rect class="st0" width="1046" height="467"/>
<g>
	
		<ellipse transform="matrix(0.7071 -0.7071 0.7071 0.7071 -64.2064 283.9902)" class="st1" cx="310.7" cy="219.5" rx="142" ry="174.1"/>
	<g>
		<g id="CHAIR">
			<path class="st2" d="M249.4,272.3l37.2,40.1c4.2,3.2,6.7,8.4,6.7,13.8v42.2c0,5.4-4.4,9.7-9.7,9.7l0,0h-48.3"/>
			<path class="st3" d="M293.1,266L293.1,266c0,3.6-2.9,6.3-6.3,6.3h-91.8c-10.2,0-18.7-8.3-18.7-18.7v-73c0-7,5.7-12.7,12.7-12.7
				l0,0H236c4.7,0,8.6,3.9,8.6,8.6l0,0v64.2c0,10.2,8.3,18.7,18.7,18.7l0,0h23.4C290.3,259.7,293.1,262.4,293.1,266z"/>
			<path class="st4" d="M292.9,267.8c-0.8,2.8-3.2,4.5-6.2,4.5h-91.8c-10.2,0-18.7-8.3-18.7-18.7v-73c0-4.7,2.8-9.1,7-11.4
				c-1.3,2.1-1.9,4.4-1.9,6.8v75.7c0,8.8,7.1,15.8,15.8,15.8l0,0h94.7C292.1,267.9,292.4,267.8,292.9,267.8z"/>
			<path class="st2" d="M245.1,216.1h17.4c16.9,0,30.5,13.6,30.5,30.5v21.3"/>
			<path class="st2" d="M209.1,272.3l37.2,40.1c4.2,3.2,6.7,8.4,6.7,13.8v42.2c0,5.4-4.4,9.7-9.7,9.7l0,0h-48.3"/>
		</g>
		<g id="RIGHT_HAND">
			<path id="HAND" class="st5" d="M250.2,119.6c0,0,17.4-2.6,27.9,20.3c9.1,20,15.9,38.7,15.9,38.7s14.1,8,37.9,16.4v11.4
				c0,0-36.2,2.1-48.3,0c-8.9-1.6-33.5-34.4-35.1-56.7C246.8,127.2,250.2,119.6,250.2,119.6z"/>
			<path id="ARM" class="st5" d="M327.2,206.2c-1.3-0.3-0.3-4.4,0.5-7c0.5-1.5,1.5-2.1,2.9-2.8c2.8-1.3,7.5-1.9,10.2-1.3
				c3.9,0.8,6.5,2.6,8.9,5.5c0.6,0.8,4.2,4.7,4.2,5.8L327.2,206.2z"/>
		</g>
		<path id="TORSO" class="st6" d="M233.4,110.5c-14.9,1.6-44,19.8-39.2,86.8c3.1,42.7,31.2,64.2,34.6,62.7
			c3.4-1.5,61.1-29.9,47.8-45.2c-12.7-14.6-8.4-25.8-6.5-45.7s5-41.3-11-48.7C233.1,108.4,237.5,110,233.4,110.5z"/>
		<path class="st7" d="M317,358.6c0.2,4.7-4.2,7.6-4.2,17.2h41.1c0,0,0.6-8.1-7.6-9.9c-8.3-1.8-15.6-4.4-16.4-7.3H317z"/>
		<g id="PANT">
			<path class="st8" d="M272.8,211.9c0,0,62.7-4.1,77.8,14.6c15.3,18.7-14.3,92.1-17.4,132.6c0,0-14.9,1.6-21.1,0
				c-6-1.6-11.4-79.9,3.9-99c0,0-55.9,14-78.6-3.6S263.3,212.2,272.8,211.9z"/>
		</g>
		<path class="st7" d="M405.8,320.9c2.8,3.6,1.1,8.8,6.8,16.4l32.5-26c0,0-4.2-6.8-11.9-3.1s-14.9,6.5-17.2,4.5L405.8,320.9z"/>
		<g id="PANT-2">
			<path class="st9" d="M227.1,258.4c1,5.2,51.8,20.5,108.7-16.9c0,0,8.8,49.2,66.1,81.9c0,0,12.7-5.7,16.1-13.2
				c0,0-40.5-51.7-54.8-93.6c-6-17.5-82.1-8.4-93.3-4.7C258.8,215.5,222.9,235,227.1,258.4z"/>
		</g>
		<path id="HAND-2" class="st10" d="M229.1,127.6c13.2,4.4,31.5,43.2,31.5,43.2s20.6,1.9,52,15.1c0,0,0.6,6.8-3.4,12.3
			c0,0-34.4,4.4-52.3,2.6c-6-0.6-28.9-17.7-41.6-41.6C204,138.1,213.1,122.2,229.1,127.6z"/>
		<g id="ARM-2">
			<path class="st11" d="M312.4,186.1c0,0,8.8-4.5,12.8-3.7c4.1,1,8.9,4.5,9.6,5.7c0.5,1,4.1,6,4.1,7.1c0,1.1-11.5,0.6-13.2,0.6
				s-12.3,0.2-14.5-0.3C309.2,195,312.4,186.1,312.4,186.1z"/>
			<path class="st12" d="M325.6,195.8c1.6,0,13.2,0.5,13.2-0.6c0-1.1-3.6-6.2-4.1-7.1c-0.5-1-5.4-4.7-9.6-5.7
				C325.2,182.3,330.3,189.3,325.6,195.8"/>
		</g>
		<path class="st11" d="M246.3,89.2c0.3,2.1-4.2,12.3-12.3,20.3c-7.1,7,23.6,12.3,24.4,12.2s4.4-10.9,5-13.5
			C264,105.6,246.3,89.2,246.3,89.2z"/>
		<path class="st12" d="M263.3,108.2c-0.3,1.1-1.6,4.7-2.9,8.3c-3.4-1.6-7.3-4.9-10.4-10.9c-3.4-6.7-2.9-13.3-3.4-15.1
			c0-0.3,0-0.6,0.2-1C249.4,92.1,264,105.9,263.3,108.2z"/>
		<path class="st11" d="M272.8,78.7c1.3,5,2.4,13.6,0.6,17.7c-1.8,4.1-4.9,11.7-6,12.2c-1.1,0.3-14.5-1.3-17.4-7.1
			c-3.1-5.7-3.2-10.6-3.6-12.2c-0.3-1.8,6.8-15.8,15.9-15.4C271.5,74.1,272.3,77.2,272.8,78.7z"/>
		<path class="st7" d="M278.3,76.2c-2.4,1-0.6,3.9-5.2,4.2c-4.5,0.5-5.7-5.2-5.7-5.2s-0.5,2.3-2.8,3.1c0,0,1.3-2.4-0.5-3.4
			c-1.8-1-2.8,0.3-2.8,0.3s-1.5-0.8-2.4,1.1c-0.8,1.8,0.6,2.9,2.6,3.1c0,0,0.2,2.8-4.2,3.1c-4.4,0.5-5.2-2.3-5.2-2.3s-0.6-0.6-1,1.3
			c-0.3,1.9,1.1,5-1.8,7.5c-1.1,1-1.9,1.3-2.3,1.5c1.5,1.3,0.8,5.4-2.6,7c-4.7,2.3-8.1,0.6-8.6-2.6c-0.3-2.9,1.5-1.8,1-4.1
			c0,0-3.1,2.3-5-1c-1.6-2.6,1.1-4.4,1.1-4.4s-1.9-2.8-0.3-4.7c1.9-2.3,4.9-0.8,4.4-2.1c-0.5-1.3-1.6-4.5,0.3-6.3
			c1.9-1.8,4.7-1.1,5.2-1.9c0.5-1-0.2-2.4-2.1-1.5c0.2-1.3,0.8-2.3,1.9-3.1c1.6-1.1,4.2-0.8,5.8-0.3c0.3-1.6,1-3.4,2.9-4.2
			c3.1-1.5,5.4,0.3,6.5,1.8c0.3-1.1,1.3-1.8,2.4-1.9c3.7-0.5,6.7,0.5,7.5,3.4c0.8,3.1,6.2-4.1,8.8,2.1c0.5,1.3-0.8,2.3,0.6,3.2
			c0.8,0.6,1.9-1.3,1.1-1.9c1.1,0.5,1.9,1.3,2.6,2.3C281,70.7,282.2,74.6,278.3,76.2z"/>
		<path id="CHAIR-2" class="st2" d="M181.1,216.1h21.3c16.9,0,30.5,13.6,30.5,30.5v21.3"/>
		<path class="st13" d="M417.2,203H295.7c-1.9,0-3.4,1.5-3.4,3.4l0,0l0,0c0,1.9,1.5,3.4,3.4,3.4l0,0h121.5V203z"/>
		<path class="st14" d="M417.2,203H295.7c-1.9,0-3.4,1.5-3.4,3.4l0,0l0,0c0,1.9,1.5,3.4,3.4,3.4l0,0h121.5"/>
		<path class="st2" d="M364.6,377.8l19.7-164.3c0.6-3.6,5.7-3.6,6.3-0.2L414.9,377"/>
		<g id="LAPTOP">
			<path class="st15" d="M310.8,196.6h93.4c1.3,0,2.3,1,2.3,2.3v1.5c0,1.3-1,2.3-2.3,2.3h-93.4c-1.3,0-2.3-1-2.3-2.3v-1.5
				C308.5,197.6,309.5,196.6,310.8,196.6z"/>
			<path class="st15" d="M400.5,196.5h-68.6c-1.8,0-2.9-1.6-2.3-3.2l19.3-41.1c1.1-2.3,3.6-3.9,6.3-3.9h68.6c1.8,0,2.9,1.6,2.3,3.2
				l-19.3,41.1C405.7,195,403.2,196.5,400.5,196.5z"/>
		</g>
	</g>
</g>
<g>
	<path class="st13" d="M540.7,152.1c-4.7,0-8.7-1.6-11.8-4.7c-3.1-3.1-4.6-7-4.6-11.7s1.5-8.6,4.6-11.7c3.1-3.1,7-4.7,11.8-4.7
		c2.8,0,5.5,0.7,7.9,2c2.4,1.4,4.3,3.2,5.7,5.4l-7,4c-0.6-1.1-1.5-2-2.7-2.6c-1.2-0.6-2.5-1-4-1c-2.5,0-4.5,0.8-6.1,2.4
		c-1.5,1.6-2.3,3.6-2.3,6.2c0,2.6,0.8,4.7,2.3,6.2c1.6,1.6,3.6,2.3,6.1,2.3c1.5,0,2.8-0.3,4-1c1.2-0.6,2.1-1.5,2.7-2.7l7,4
		c-1.4,2.3-3.3,4.1-5.7,5.5C546.2,151.4,543.6,152.1,540.7,152.1z"/>
	<path class="st13" d="M555.7,128.9h20.4v7.2h-6.4v15.3h-7.5V136h-6.5V128.9z"/>
	<path class="st13" d="M593.8,131v-2.1h7.5v22.5h-7.5v-2.1c-1.5,1.8-3.7,2.7-6.4,2.7c-3,0-5.5-1.1-7.6-3.4c-2-2.3-3-5.1-3-8.5
		c0-3.4,1-6.2,3-8.5c2-2.3,4.5-3.4,7.6-3.4C590.2,128.3,592.3,129.2,593.8,131z M585.7,143.7c0.8,0.9,2,1.4,3.4,1.4
		c1.4,0,2.6-0.5,3.4-1.4c0.9-0.9,1.3-2.1,1.3-3.6s-0.4-2.6-1.3-3.6c-0.8-0.9-2-1.4-3.4-1.4c-1.4,0-2.6,0.5-3.4,1.4
		c-0.9,0.9-1.3,2.1-1.3,3.6S584.8,142.8,585.7,143.7z"/>
	<path class="st13" d="M619.7,136.6v-7.7h7.5v22.5h-7.5v-7.7h-6.6v7.7h-7.5v-22.5h7.5v7.7H619.7z"/>
	<path class="st13" d="M639,135.2h3.7c2.7,0,4.8,0.7,6.4,2.2c1.6,1.5,2.4,3.4,2.4,5.9c0,2.5-0.8,4.5-2.4,5.9
		c-1.6,1.5-3.7,2.2-6.5,2.2h-11.2v-22.5h7.5V135.2z M639,145.1h3.2c0.6,0,1.1-0.2,1.4-0.5c0.4-0.3,0.5-0.8,0.5-1.3
		c0-0.5-0.2-1-0.5-1.3c-0.4-0.3-0.8-0.5-1.4-0.5H639V145.1z"/>
	<path class="st13" d="M650.4,128.9h20.4v7.2h-6.4v15.3H657V136h-6.5V128.9z"/>
	<path class="st13" d="M694.9,142.9h-15.5c0.7,1.8,2.4,2.7,5,2.7c1.6,0,3-0.5,4.1-1.6l5.4,3.8c-2.2,2.8-5.4,4.2-9.7,4.2
		c-3.8,0-6.9-1.1-9.2-3.3c-2.3-2.2-3.4-5.1-3.4-8.5c0-3.4,1.1-6.2,3.4-8.5c2.2-2.3,5.1-3.4,8.6-3.4c3.4,0,6.1,1.1,8.3,3.4
		c2.2,2.2,3.3,5,3.3,8.5C695.2,141.1,695.1,142.1,694.9,142.9z M679.2,137.7h8.6c-0.6-2.1-2-3.2-4.2-3.2
		C681.3,134.6,679.9,135.6,679.2,137.7z"/>
	<path class="st13" d="M722.7,136.6v-7.7h7.5v22.5h-7.5v-7.7h-6.6v7.7h-7.5v-22.5h7.5v7.7H722.7z"/>
	<path class="st13" d="M750.3,131v-2.1h7.5v22.5h-7.5v-2.1c-1.5,1.8-3.7,2.7-6.4,2.7c-3,0-5.5-1.1-7.6-3.4c-2-2.3-3-5.1-3-8.5
		c0-3.4,1-6.2,3-8.5c2-2.3,4.5-3.4,7.6-3.4C746.6,128.3,748.8,129.2,750.3,131z M742.2,143.7c0.8,0.9,2,1.4,3.4,1.4
		c1.4,0,2.6-0.5,3.4-1.4c0.9-0.9,1.3-2.1,1.3-3.6s-0.4-2.6-1.3-3.6c-0.8-0.9-2-1.4-3.4-1.4c-1.4,0-2.6,0.5-3.4,1.4
		c-0.9,0.9-1.3,2.1-1.3,3.6S741.3,142.8,742.2,143.7z"/>
	<path class="st13" d="M787.9,144.3v-15.4h7.5v22.5h-33.3v-22.5h7.5v15.4h5.5v-15.4h7.4v15.4H787.9z"/>
	<path class="st13" d="M807,139.4l8.7-10.5h5.8v22.5h-7.3v-10.5l-8.7,10.5h-5.8v-22.5h7.3V139.4z"/>
	<path class="st13" d="M843.4,128.9h7.2v22.5h-7.2v-10.8l-4.8,7.5h-0.8l-4.8-7.4v10.8h-7.2v-22.5h7.2l5.2,8.1L843.4,128.9z"/>
	<path class="st13" d="M525.2,182.9h21.6v22.5h-7.5V190h-6.6v15.4h-7.5V182.9z"/>
	<path class="st13" d="M566.9,185v-2.1h7.5v22.5h-7.5v-2.1c-1.5,1.8-3.7,2.7-6.4,2.7c-3,0-5.6-1.1-7.6-3.4c-2-2.3-3-5.1-3-8.5
		c0-3.4,1-6.2,3-8.5c2-2.3,4.5-3.4,7.6-3.4C563.2,182.3,565.4,183.2,566.9,185z M558.7,197.7c0.8,0.9,2,1.4,3.4,1.4
		c1.4,0,2.6-0.5,3.4-1.4c0.9-0.9,1.3-2.1,1.3-3.6s-0.4-2.6-1.3-3.6c-0.8-0.9-2-1.4-3.4-1.4c-1.4,0-2.6,0.5-3.4,1.4
		c-0.9,0.9-1.3,2.1-1.3,3.6S557.9,196.8,558.7,197.7z"/>
	<path class="st13" d="M592.5,182.3c3,0,5.5,1.1,7.5,3.4c2,2.3,3.1,5.1,3.1,8.5c0,3.4-1,6.2-3.1,8.5c-2,2.2-4.5,3.4-7.5,3.4
		c-2.7,0-4.9-0.9-6.4-2.7v11.1h-7.5v-31.5h7.5v2.1C587.7,183.2,589.8,182.3,592.5,182.3z M587.4,197.7c0.9,0.9,2,1.4,3.4,1.4
		c1.4,0,2.5-0.5,3.4-1.4c0.9-0.9,1.3-2.1,1.3-3.6s-0.4-2.6-1.3-3.6c-0.9-0.9-2-1.4-3.4-1.4c-1.4,0-2.6,0.5-3.4,1.4
		c-0.9,0.9-1.3,2.1-1.3,3.6S586.6,196.8,587.4,197.7z"/>
	<path class="st13" d="M603.8,182.9h20.4v7.2h-6.4v15.3h-7.5V190h-6.5V182.9z"/>
	<path class="st13" d="M640.9,190.6v-7.7h7.5v22.5h-7.5v-7.7h-6.6v7.7h-7.5v-22.5h7.5v7.7H640.9z"/>
	<path class="st13" d="M674.8,196.9h-15.5c0.7,1.8,2.4,2.7,5,2.7c1.6,0,3-0.5,4.1-1.6l5.4,3.8c-2.2,2.8-5.4,4.2-9.7,4.2
		c-3.8,0-6.9-1.1-9.2-3.3c-2.3-2.2-3.4-5.1-3.4-8.5c0-3.4,1.1-6.2,3.4-8.5c2.2-2.3,5.1-3.4,8.6-3.4c3.4,0,6.1,1.1,8.3,3.4
		c2.2,2.2,3.3,5,3.3,8.5C675.1,195.1,675,196.1,674.8,196.9z M659.1,181c-1,0-1.8-0.4-2.5-1.1s-1.1-1.6-1.1-2.5s0.4-1.8,1.1-2.5
		s1.6-1.1,2.5-1.1c1,0,1.8,0.4,2.5,1.1s1.1,1.6,1.1,2.5s-0.4,1.8-1.1,2.5S660.1,181,659.1,181z M659.2,191.7h8.6
		c-0.6-2.1-2-3.2-4.2-3.2C661.3,188.6,659.8,189.6,659.2,191.7z M667.9,181c-1,0-1.8-0.4-2.5-1.1c-0.7-0.7-1.1-1.6-1.1-2.5
		s0.4-1.8,1.1-2.5c0.7-0.7,1.5-1.1,2.5-1.1c1,0,1.8,0.4,2.5,1.1c0.7,0.7,1.1,1.6,1.1,2.5s-0.4,1.8-1.1,2.5
		C669.7,180.6,668.9,181,667.9,181z"/>
	<path class="st13" d="M692.2,182.3c3,0,5.5,1.1,7.5,3.4c2,2.3,3.1,5.1,3.1,8.5c0,3.4-1,6.2-3.1,8.5c-2,2.2-4.5,3.4-7.5,3.4
		c-2.7,0-4.9-0.9-6.4-2.7v11.1h-7.5v-31.5h7.5v2.1C687.3,183.2,689.4,182.3,692.2,182.3z M687.1,197.7c0.9,0.9,2,1.4,3.4,1.4
		s2.5-0.5,3.4-1.4c0.9-0.9,1.3-2.1,1.3-3.6s-0.4-2.6-1.3-3.6c-0.9-0.9-2-1.4-3.4-1.4s-2.5,0.5-3.4,1.4c-0.9,0.9-1.3,2.1-1.3,3.6
		S686.2,196.8,687.1,197.7z"/>
	<path class="st13" d="M716.9,206c-3.4,0-6.2-1.1-8.5-3.4c-2.3-2.3-3.5-5.1-3.5-8.5c0-3.3,1.2-6.1,3.5-8.4c2.4-2.3,5.2-3.5,8.5-3.5
		c3.4,0,6.2,1.2,8.5,3.5c2.3,2.3,3.5,5.1,3.5,8.4c0,3.4-1.2,6.2-3.5,8.5C723.1,204.9,720.3,206,716.9,206z M716.9,198.8
		c1.3,0,2.4-0.4,3.3-1.3c0.9-0.9,1.3-2,1.3-3.4s-0.4-2.5-1.3-3.4c-0.9-0.9-1.9-1.3-3.3-1.3c-1.3,0-2.4,0.4-3.2,1.3
		c-0.9,0.9-1.3,2-1.3,3.4s0.4,2.5,1.3,3.4C714.5,198.4,715.6,198.8,716.9,198.8z"/>
	<path class="st13" d="M749.9,182.9h7.2v22.5h-7.2v-10.8L745,202h-0.8l-4.8-7.4v10.8h-7.2v-22.5h7.2l5.2,8.1L749.9,182.9z"/>
	<path class="st13" d="M532.5,247.4l8.7-10.5h5.8v22.5h-7.3v-10.5l-8.7,10.5h-5.8v-22.5h7.3V247.4z"/>
	<path class="st13" d="M575.7,247.9c2.2,1.2,3.3,3,3.3,5.4c0,2-0.9,3.6-2.6,4.9c-1.7,1.3-4,1.9-6.9,1.9c-4.7,0-8-1.8-9.8-5.4
		l5.8-3.4c0.7,1.7,1.9,2.6,3.8,2.6c0.6,0,1.2-0.1,1.6-0.4c0.4-0.3,0.6-0.7,0.6-1.1c0-0.9-0.6-1.4-1.8-1.4h-2.7v-5.8h2.3
		c1.1,0,1.7-0.5,1.7-1.4c0-1-0.7-1.4-2-1.4c-1.5,0-2.6,0.8-3.2,2.4l-5.8-3.2c2-3.5,5.1-5.3,9.5-5.3c2.6,0,4.7,0.7,6.3,2
		c1.6,1.3,2.4,2.9,2.4,4.8C578.2,245.2,577.4,246.8,575.7,247.9z"/>
	<path class="st13" d="M597.9,239v-2.1h7.5v22.5h-7.5v-2.1c-1.5,1.8-3.7,2.7-6.4,2.7c-3,0-5.5-1.1-7.6-3.4c-2-2.3-3-5.1-3-8.5
		c0-3.4,1-6.2,3-8.5c2-2.3,4.5-3.4,7.6-3.4C594.2,236.3,596.4,237.2,597.9,239z M589.7,251.7c0.8,0.9,2,1.4,3.4,1.4
		c1.4,0,2.6-0.5,3.4-1.4c0.9-0.9,1.3-2.1,1.3-3.6s-0.4-2.6-1.3-3.6c-0.8-0.9-2-1.4-3.4-1.4c-1.4,0-2.6,0.5-3.4,1.4
		c-0.9,0.9-1.3,2.1-1.3,3.6S588.9,250.8,589.7,251.7z"/>
	<path class="st13" d="M623.5,236.3c3,0,5.5,1.1,7.5,3.4c2,2.3,3.1,5.1,3.1,8.5c0,3.4-1,6.2-3.1,8.5c-2,2.2-4.5,3.4-7.5,3.4
		c-2.7,0-4.9-0.9-6.4-2.7v11.1h-7.5v-31.5h7.5v2.1C618.7,237.2,620.8,236.3,623.5,236.3z M618.5,251.7c0.9,0.9,2,1.4,3.4,1.4
		s2.5-0.5,3.4-1.4c0.9-0.9,1.3-2.1,1.3-3.6s-0.4-2.6-1.3-3.6c-0.9-0.9-2-1.4-3.4-1.4s-2.5,0.5-3.4,1.4c-0.9,0.9-1.3,2.1-1.3,3.6
		S617.6,250.8,618.5,251.7z"/>
	<path class="st13" d="M653.2,239v-2.1h7.5v22.5h-7.5v-2.1c-1.5,1.8-3.7,2.7-6.4,2.7c-3,0-5.6-1.1-7.6-3.4c-2-2.3-3-5.1-3-8.5
		c0-3.4,1-6.2,3-8.5c2-2.3,4.5-3.4,7.6-3.4C649.6,236.3,651.7,237.2,653.2,239z M645.1,251.7c0.8,0.9,2,1.4,3.4,1.4
		c1.4,0,2.6-0.5,3.4-1.4c0.9-0.9,1.3-2.1,1.3-3.6s-0.4-2.6-1.3-3.6c-0.8-0.9-2-1.4-3.4-1.4c-1.4,0-2.6,0.5-3.4,1.4
		c-0.9,0.9-1.3,2.1-1.3,3.6S644.2,250.8,645.1,251.7z"/>
	<path class="st13" d="M676.2,260.1c-3.7,0-6.7-1.1-9-3.4c-2.2-2.3-3.3-5.3-3.3-9c0-3.8,0.6-6.8,1.8-9c1.2-2.2,3.4-4.1,6.5-5.6
		c3.4-1.7,5.5-2.8,6.3-3.4c0.9-0.7,1.5-1.6,2-2.7l6.1,3.5c-0.5,1.7-1.3,3-2.5,4c-1.2,1-3.1,2-5.7,3c-2,0.8-3.4,1.5-4.2,2.1
		c-0.9,0.6-1.5,1.3-1.8,2.2c1.5-1.3,3.4-1.9,5.8-1.9c2.5,0,4.7,0.9,6.7,2.7c2,1.8,3,4.2,3,7.2c0,3.1-1.1,5.6-3.2,7.6
		C682.6,259.1,679.8,260.1,676.2,260.1z M680.4,249.6c0-1.2-0.4-2.1-1.2-2.9c-0.8-0.8-1.9-1.1-3.1-1.1c-1.1,0-2.1,0.4-3,1.1
		c-0.8,0.7-1.3,1.6-1.3,2.8c0,1.2,0.4,2.2,1.3,3c0.9,0.8,1.9,1.2,3.1,1.2c1.2,0,2.2-0.4,3-1.1C680,251.7,680.4,250.7,680.4,249.6z"
		/>
	<path class="st13" d="M706.5,239v-2.1h7.5v22.5h-7.5v-2.1c-1.5,1.8-3.7,2.7-6.4,2.7c-3,0-5.6-1.1-7.6-3.4c-2-2.3-3-5.1-3-8.5
		c0-3.4,1-6.2,3-8.5c2-2.3,4.5-3.4,7.6-3.4C702.8,236.3,704.9,237.2,706.5,239z M698.3,251.7c0.8,0.9,2,1.4,3.4,1.4
		c1.4,0,2.6-0.5,3.4-1.4c0.9-0.9,1.3-2.1,1.3-3.6s-0.4-2.6-1.3-3.6c-0.8-0.9-2-1.4-3.4-1.4c-1.4,0-2.6,0.5-3.4,1.4
		c-0.9,0.9-1.3,2.1-1.3,3.6S697.5,250.8,698.3,251.7z"/>
	<path class="st13" d="M716.5,236.9h20.4v7.2h-6.4v15.3H723V244h-6.5V236.9z"/>
	<path class="st13" d="M746.9,243.2h3.7c2.7,0,4.8,0.7,6.4,2.2c1.6,1.5,2.4,3.4,2.4,5.9c0,2.5-0.8,4.5-2.4,5.9
		c-1.6,1.5-3.7,2.2-6.5,2.2h-11.2v-22.5h7.5V243.2z M746.9,253.1h3.2c0.6,0,1.1-0.2,1.4-0.5c0.4-0.3,0.5-0.8,0.5-1.3
		c0-0.5-0.2-1-0.5-1.3c-0.4-0.3-0.8-0.5-1.4-0.5h-3.2V253.1z M761.2,259.4v-22.5h7.5v22.5H761.2z"/>
	<path class="st13" d="M790.3,247.9c2.1,1,3.1,2.7,3.1,5c0,2-0.7,3.6-2,4.7c-1.4,1.2-3.3,1.7-5.8,1.7H773v-22.5h11.8
		c2.5,0,4.5,0.6,5.8,1.8c1.4,1.2,2,2.7,2,4.7C792.6,245.4,791.9,246.9,790.3,247.9z M783.7,242.5h-3.5v3h3.5c1.2,0,1.8-0.5,1.8-1.4
		C785.5,243,784.9,242.5,783.7,242.5z M780.2,253.7h4.1c1.2,0,1.8-0.5,1.8-1.6c0-1-0.6-1.5-1.8-1.5h-4.1V253.7z"/>
	<path class="st13" d="M812.3,239v-2.1h7.5v22.5h-7.5v-2.1c-1.5,1.8-3.7,2.7-6.4,2.7c-3,0-5.6-1.1-7.6-3.4c-2-2.3-3-5.1-3-8.5
		c0-3.4,1-6.2,3-8.5c2-2.3,4.5-3.4,7.6-3.4C808.6,236.3,810.8,237.2,812.3,239z M804.2,251.7c0.8,0.9,2,1.4,3.4,1.4
		c1.4,0,2.6-0.5,3.4-1.4c0.9-0.9,1.3-2.1,1.3-3.6s-0.4-2.6-1.3-3.6c-0.8-0.9-2-1.4-3.4-1.4c-1.4,0-2.6,0.5-3.4,1.4
		c-0.9,0.9-1.3,2.1-1.3,3.6S803.3,250.8,804.2,251.7z"/>
	<path class="st13" d="M831.4,247.4l8.7-10.5h5.8v22.5h-7.3v-10.5l-8.7,10.5h-5.8v-22.5h7.3V247.4z M842.2,234.5h-14.5v-6.3h14.5
		V234.5z"/>
	<path class="st13" d="M848.4,236.9h20.4v7.2h-6.4v15.3h-7.5V244h-6.5V236.9z"/>
	<path class="st13" d="M892.8,250.9h-15.5c0.7,1.8,2.4,2.7,5,2.7c1.6,0,3-0.5,4.1-1.6l5.4,3.8c-2.2,2.8-5.4,4.2-9.7,4.2
		c-3.8,0-6.9-1.1-9.2-3.3c-2.3-2.2-3.4-5.1-3.4-8.5c0-3.4,1.1-6.2,3.4-8.5c2.2-2.3,5.1-3.4,8.6-3.4c3.4,0,6.1,1.1,8.3,3.4
		c2.2,2.2,3.3,5,3.3,8.5C893.1,249.1,893,250.1,892.8,250.9z M877.2,245.7h8.6c-0.6-2.1-2-3.2-4.2-3.2
		C879.3,242.6,877.8,243.6,877.2,245.7z"/>
	<path class="st13" d="M546.4,290.9v15.4h2.9v13.1h-7.2v-6h-11.7v6h-7.2v-13.1h2.7c1.1-1.9,1.7-4.4,1.7-7.6v-7.8H546.4z
		 M533.7,306.3h5.4v-8.8h-4.2v1.1C534.9,301.7,534.5,304.3,533.7,306.3z"/>
	<path class="st13" d="M573.6,304.9h-15.5c0.8,1.8,2.4,2.7,5,2.7c1.6,0,3-0.5,4.1-1.6l5.4,3.8c-2.2,2.8-5.4,4.2-9.7,4.2
		c-3.8,0-6.9-1.1-9.2-3.3c-2.3-2.2-3.4-5.1-3.4-8.5c0-3.4,1.1-6.2,3.4-8.5c2.2-2.3,5.1-3.4,8.6-3.4c3.4,0,6.1,1.1,8.3,3.4
		c2.2,2.2,3.3,5,3.3,8.5C573.9,303.1,573.8,304.1,573.6,304.9z M558,299.7h8.6c-0.6-2.1-2-3.2-4.2-3.2
		C560.1,296.6,558.6,297.6,558,299.7z"/>
	<path class="st13" d="M591.2,298.6v-7.7h7.5v22.5h-7.5v-7.7h-6.6v7.7h-7.5v-22.5h7.5v7.7H591.2z"/>
	<path class="st13" d="M610.5,297.2h3.7c2.7,0,4.8,0.7,6.4,2.2c1.6,1.5,2.4,3.4,2.4,5.9c0,2.5-0.8,4.5-2.4,5.9
		c-1.6,1.5-3.7,2.2-6.5,2.2H603v-22.5h7.5V297.2z M610.5,307.1h3.2c0.6,0,1.1-0.2,1.4-0.5c0.4-0.3,0.5-0.8,0.5-1.3
		c0-0.5-0.2-1-0.5-1.3c-0.4-0.3-0.8-0.5-1.4-0.5h-3.2V307.1z"/>
	<path class="st13" d="M625.8,290.9H642v7.2h-8.7v15.3h-7.5V290.9z"/>
	<path class="st13" d="M651.9,301.4l8.7-10.5h5.8v22.5h-7.3v-10.5l-8.7,10.5h-5.8v-22.5h7.3V301.4z"/>
	<path class="st13" d="M670.5,309.3c0-1.3,0.5-2.4,1.4-3.3s2-1.4,3.3-1.4c1.3,0,2.4,0.5,3.3,1.4c0.9,0.9,1.4,2,1.4,3.3
		c0,1.3-0.5,2.4-1.4,3.3c-0.9,0.9-2,1.3-3.3,1.3c-1.3,0-2.4-0.5-3.3-1.3C670.9,311.8,670.5,310.7,670.5,309.3z M678.3,301.9H672
		l-1.5-11v-9h9.2v9L678.3,301.9z"/>
</g>
</svg>
