<?xml version="1.0" encoding="utf-8"?>
<!-- Generator: Adobe Illustrator 25.2.1, SVG Export Plug-In . SVG Version: 6.00 Build 0)  -->
<svg version="1.1" id="sv" xmlns="http://www.w3.org/2000/svg" xmlns:xlink="http://www.w3.org/1999/xlink" x="0px" y="0px"
	 viewBox="0 0 300 250" style="enable-background:new 0 0 300 250;" xml:space="preserve">
<style type="text/css">
	.st0{fill:#FFFFFF;}
	.st1{fill:#536278;}
	.st2{fill:#F50000;}
</style>
<path class="st0" d="M138.9,129.8H23c-4.2,0-7.6-3.4-7.6-7.6V46c0-4.2,3.4-7.6,7.6-7.6h115.9c4.2,0,7.6,3.4,7.6,7.6v76.2
	C146.5,126.4,143.1,129.8,138.9,129.8z"/>
<path class="st1" d="M138.9,130.8H23c-4.7,0-8.6-3.8-8.6-8.6V46c0-4.7,3.8-8.6,8.6-8.6h115.9c4.7,0,8.6,3.8,8.6,8.6v76.2
	C147.5,126.9,143.6,130.8,138.9,130.8z M23,39.5c-3.6,0-6.6,2.9-6.6,6.6v76.2c0,3.6,2.9,6.6,6.6,6.6h115.9c3.6,0,6.6-2.9,6.6-6.6V46
	c0-3.6-2.9-6.6-6.6-6.6H23z"/>
<circle class="st0" cx="23.9" cy="45.7" r="2.5"/>
<path class="st1" d="M23.9,49.2c-0.4,0-0.7-0.1-1.1-0.2c-0.9-0.3-1.6-0.9-2-1.7c-0.9-1.7-0.2-3.8,1.5-4.7c0.8-0.4,1.8-0.5,2.7-0.2
	c0.9,0.3,1.6,0.9,2,1.7c0.9,1.7,0.2,3.8-1.5,4.7C25,49.1,24.4,49.2,23.9,49.2z M23.9,44.2c-0.2,0-0.5,0.1-0.7,0.2
	c-0.7,0.4-1,1.3-0.6,2c0.4,0.7,1.3,1,2,0.6c0.7-0.4,1-1.3,0.6-2c-0.2-0.4-0.5-0.6-0.9-0.7C24.2,44.2,24,44.2,23.9,44.2z"/>
<circle class="st0" cx="32.4" cy="45.9" r="2.5"/>
<path class="st1" d="M32.4,49.4c-1.3,0-2.5-0.7-3.1-1.9l0,0c-0.4-0.8-0.5-1.8-0.2-2.7c0.3-0.9,0.9-1.6,1.7-2
	c0.8-0.4,1.8-0.5,2.7-0.2c0.9,0.3,1.6,0.9,2,1.7c0.4,0.8,0.5,1.8,0.2,2.7c-0.3,0.9-0.9,1.6-1.7,2C33.5,49.3,32.9,49.4,32.4,49.4z
	 M32.4,44.4c-0.2,0-0.5,0.1-0.7,0.2c-0.4,0.2-0.6,0.5-0.7,0.9c-0.1,0.4-0.1,0.8,0.1,1.1l0,0c0.4,0.7,1.3,1,2,0.6
	c0.7-0.4,1-1.3,0.6-2C33.4,44.7,32.9,44.4,32.4,44.4z"/>
<circle class="st0" cx="40.9" cy="46.1" r="2.5"/>
<path class="st1" d="M40.9,49.6c-1.3,0-2.5-0.7-3.1-1.9c-0.4-0.8-0.5-1.8-0.2-2.7c0.3-0.9,0.9-1.6,1.7-2c0.8-0.4,1.8-0.5,2.7-0.2
	c0.9,0.3,1.6,0.9,2,1.7c0.9,1.7,0.2,3.8-1.5,4.7C42,49.5,41.4,49.6,40.9,49.6z M40.9,44.6c-0.2,0-0.5,0.1-0.7,0.2
	c-0.7,0.4-1,1.3-0.6,2c0.4,0.7,1.3,1,2,0.6c0.7-0.4,1-1.3,0.6-2C42,44.9,41.4,44.6,40.9,44.6z"/>
<path class="st0" d="M22.9,129.7c0,0,3.8-32.6,40-31.8s51.8,0.9,51.8,0.9s18.1,7.7,20.1,30.6L22.9,129.7z"/>
<path class="st1" d="M21.8,130.7l0.1-1.1c0-0.3,4.3-33.5,41.1-32.6c35.8,0.9,51.6,0.9,51.8,0.9h0.2l0.2,0.1
	c0.2,0.1,18.7,8.2,20.8,31.4l0.1,1.1L21.8,130.7z M61.5,98.9c-30.3,0-36.4,24.1-37.4,29.8l109.7-0.3c-2.3-20-17.5-27.7-19.3-28.6
	c-2,0-18-0.1-51.6-0.9C62.5,98.9,62,98.9,61.5,98.9z"/>
<path class="st0" d="M38.2,129.5h5.9c0,0,0.5,9.3,11.8,9c0,0,2.1,4.7,9.7,1.9c0,0,2.5,4.1,7,2.8c1.2-0.4-0.5-8.4-0.5-8.4
	s3.3,4.9,7.9,4.8s-4.3-18-6.8-18.4s-5.4,0.9-5.5,3c0,0-4.2-5.9-8.9,0c0,0-2.6-5.1-7.2,0.1c0,0-2.6-4.4-6.3-2.3
	C41.7,124,38.2,129.5,38.2,129.5z"/>
<path class="st1" d="M70.9,144.3c-2.6,0-4.6-1.5-5.7-2.8c-6.1,2-8.9-0.8-9.9-2.1c0,0,0,0,0,0c-9.4,0-11.6-6.5-12.1-9h-6.8l1-1.5
	c0.1-0.2,3.7-5.7,7.5-7.9c2.9-1.7,5.5,0,6.9,1.6c1.5-1.4,2.9-1.9,4.4-1.8c1.3,0.2,2.2,0.9,2.8,1.6c1.4-1.4,2.9-2.1,4.4-2
	c1.7,0,3.1,1,4,1.8c0.2-0.3,0.5-0.6,0.8-0.9c1.3-1.1,3.4-1.6,5.2-1.3c3.1,0.5,9.2,13.8,8.9,17.9c-0.2,2.3-1.8,2.5-2.3,2.5
	c-2.6,0-4.8-1.3-6.3-2.6c0.9,5.6-0.2,5.9-0.8,6.1C72.2,144.2,71.5,144.3,70.9,144.3z M66,139.1l0.4,0.7c0.1,0.1,2.1,3.2,5.6,2.4
	c0.2-1-0.3-4.5-0.9-7.3l-1.1-4.9l2.9,4.2c0,0,3.1,4.5,7.1,4.4c0.1,0,0.2,0,0.3-0.4c0.7-3.5-5.4-15.3-7.2-16.1
	c-1.2-0.2-2.7,0.2-3.5,0.9c-0.4,0.4-0.7,0.8-0.7,1.2l-0.1,2.9l-1.7-2.4c0,0-1.6-2.2-3.6-2.2c-1.2,0-2.4,0.7-3.6,2.3l-1,1.2l-0.7-1.4
	c0,0-0.8-1.5-2.1-1.7c-1.3-0.2-2.6,1-3.5,2l-0.9,1l-0.7-1.2c-0.2-0.4-2.2-3.5-4.9-1.9c-2.2,1.3-4.5,4-5.7,5.7H45l0,0.9
	c0,0.3,0.6,8.3,10.8,8l0.7,0l0.3,0.6c0.1,0.1,1.9,3.8,8.4,1.3L66,139.1z"/>
<g>
	<path class="st1" d="M55.9,139.5c-0.4,0-0.8-0.3-1-0.7l-4.2-14.3c-0.2-0.5,0.1-1.1,0.7-1.2c0.5-0.2,1.1,0.1,1.2,0.7l4.2,14.3
		c0.2,0.5-0.1,1.1-0.7,1.2C56.1,139.4,56,139.5,55.9,139.5z"/>
</g>
<g>
	<path class="st1" d="M65.6,141.3c-0.4,0-0.8-0.2-0.9-0.6L58,124.5c-0.2-0.5,0-1.1,0.5-1.3c0.5-0.2,1.1,0,1.3,0.5l6.7,16.2
		c0.2,0.5,0,1.1-0.5,1.3C65.8,141.3,65.7,141.3,65.6,141.3z"/>
</g>
<g>
	<path class="st1" d="M72.6,137.5c-0.4,0-0.8-0.2-0.9-0.6l-5-13.1c-0.2-0.5,0.1-1.1,0.6-1.3c0.5-0.2,1.1,0.1,1.3,0.6l5,13.1
		c0.2,0.5-0.1,1.1-0.6,1.3C72.8,137.5,72.7,137.5,72.6,137.5z"/>
</g>
<g>
	<path class="st1" d="M135.3,71c0-2.8-2.2-5.2-5.1-5.8c0-0.3-0.1-0.7-0.1-1c2.4-0.9,4.1-3,4.1-5.5c0-3.3-3-5.9-6.6-5.9
		c-0.2,0-0.4,0-0.6,0c-0.4-0.9-0.8-1.8-1.3-2.7c1.6-0.9,2.6-2.4,2.6-3.9c0-2.8-3.1-5.1-6.9-5.1c-0.7,0-1.4,0.1-2,0.2
		c-0.5-0.5-0.9-0.9-1.4-1.4c0.7-0.8,1.2-1.8,1.2-2.8c0-2.8-3.1-5.1-6.9-5.1c-1.6,0-3.1,0.4-4.3,1.1c-0.1-0.1-0.3-0.1-0.4-0.2
		c0.2-0.4,0.2-0.9,0.2-1.3c0-2.8-3.1-5.1-6.9-5.1c-2.8,0-5.2,1.2-6.3,3c-0.2,0-0.4,0-0.5,0c-0.4-2.6-3.3-4.6-6.9-4.6
		c-3.8,0-6.9,2.3-6.9,5.1c0,0.3,0,0.6,0.1,0.9c-0.2,0.1-0.4,0.1-0.6,0.2c-1.2-1.6-3.2-2.6-5.5-2.6c-3.6,0-6.6,2.7-6.6,5.9
		c0,0.9,0.2,1.7,0.6,2.4c-0.4,0.3-0.7,0.5-1.1,0.8c-0.8-0.3-1.7-0.5-2.7-0.5c-3.6,0-6.6,2.7-6.6,5.9c0,1.2,0.4,2.3,1.1,3.3
		c-0.4,0.7-0.9,1.3-1.3,2c-0.3,0-0.7-0.1-1-0.1c-3.6,0-6.6,2.7-6.6,5.9c0,2.1,1.2,4,3.1,5c-0.2,0.8-0.4,1.7-0.5,2.6
		c-3.1,0.5-5.4,2.9-5.4,5.8c0,2.8,2.2,5.1,5.1,5.8c0.1,0.4,0.1,0.8,0.2,1.3c-1.7,1.1-2.8,2.9-2.8,4.9c0,3.1,2.7,5.7,6.1,5.9
		c0.3,0.6,0.6,1.2,0.9,1.8c-1.2,1.1-2,2.6-2,4.2c0,3.3,3,5.9,6.6,5.9c1,0,1.9-0.2,2.7-0.5c7.1,6.8,16.6,11,27.2,11
		c8.9,0,17-3,23.6-7.9c1,0.6,2.2,0.9,3.5,0.9c3.6,0,6.6-2.7,6.6-5.9c0-1.5-0.6-2.8-1.5-3.8c0.3-0.4,0.5-0.8,0.8-1.1
		c0.5,0.1,1.1,0.2,1.6,0.2c3.6,0,6.6-2.7,6.6-5.9c0-2.2-1.4-4.1-3.3-5.2c0.2-0.7,0.4-1.4,0.5-2.1C132.7,76.6,135.3,74,135.3,71z"/>
</g>
<path class="st0" d="M119.4,69.2c0-2.8-4.2-2.9-4.2-2.9s-1.1,3.5-6.4,3.6c-5.3,0.1-7.5-4.3-7.5-4.3c-2.4,1.3-4.2,1.6-5.7,1.4
	c-0.8-2.5-3.1-4.3-5.9-4.3c-3.4,0-6.2,2.8-6.2,6.2c0,1.9,0.8,3.6,2.2,4.7l0,0.1c0,0-18,14.5-21.7,23.2c-3.7,8.6-0.1,13.9,10.2,15.4
	s19.2-11,19.2-11c19,0.6,21.9-17.4,21.9-17.4c1.5,1.1,3.7-0.6,3.7-0.6C117,78.2,119.4,69.2,119.4,69.2z"/>
<path class="st1" d="M75.8,113.4c-0.6,0-1.2,0-1.9-0.1c-5.8-0.8-9.6-2.9-11.4-6c-1.6-2.8-1.4-6.5,0.4-10.8
	c3.4-7.8,17.6-19.9,21.2-22.9c-1.1-1.3-1.7-2.9-1.7-4.6c0-4,3.2-7.2,7.2-7.2c2.9,0,5.5,1.7,6.6,4.4c1.3,0,2.8-0.4,4.5-1.3l0.9-0.5
	l0.5,0.9c0.1,0.2,2,3.8,6.6,3.7c4.5-0.1,5.4-2.8,5.5-2.9l0.2-0.7l0.7,0c1.8,0,5.1,0.9,5.1,3.9l0,0.3c0,0.1-2.2,8.7-0.5,13.4l0.3,0.7
	l-0.6,0.5c-0.8,0.6-2.2,1.3-3.6,1.2c-1,4-5.7,17.1-21.7,17.1c-0.2,0-0.3,0-0.5,0C92.1,104.4,84.7,113.4,75.8,113.4z M89.6,63.7
	c-2.9,0-5.2,2.3-5.2,5.2c0,1.5,0.7,3,1.8,3.9l0.6,0.5l-0.4,0.9l-0.2,0.2C86,74.6,68.4,88.9,64.8,97.3c-1.6,3.7-1.8,6.7-0.5,9
	c1.4,2.6,4.8,4.3,9.9,5c9.5,1.4,18.2-10.5,18.3-10.6l0.3-0.4l0.5,0c7.5,0.2,13.3-2.5,17.2-8c2.9-4.2,3.6-8.5,3.7-8.5l0.3-1.6
	l1.3,0.9c0.5,0.4,1.4,0.1,2-0.3c-1.4-5,0.3-12.5,0.6-13.7c-0.1-1.2-1.7-1.6-2.6-1.7c-0.7,1.2-2.5,3.5-7,3.6c-4.4,0.1-6.9-2.5-7.9-4
	c-2,0.9-3.8,1.3-5.5,1.1L94.8,68l-0.2-0.6C93.9,65.2,91.9,63.7,89.6,63.7z"/>
<g>
	<path class="st1" d="M93.3,102.3c-0.1,0-0.2,0-0.3,0c-4.5-1.4-7.6-4-9.3-7.6c-3.4-7.6,0.8-17.1,1-17.5c0.2-0.5,0.8-0.7,1.3-0.5
		c0.5,0.2,0.7,0.8,0.5,1.3c0,0.1-4,9.1-1,15.8c1.4,3.1,4.1,5.3,8.1,6.5c0.5,0.2,0.8,0.7,0.7,1.3C94.1,102,93.7,102.3,93.3,102.3z"/>
</g>
<g>
	<path class="st1" d="M88.2,71.7c-0.4,0-0.8-0.2-0.9-0.6c-0.1-0.2-1-2.4-0.1-4.2c0.3-0.7,1.1-1.6,2.7-2c0.5-0.1,1.1,0.2,1.2,0.7
		s-0.2,1.1-0.7,1.2c-0.7,0.2-1.1,0.5-1.4,0.9c-0.4,0.8-0.1,2.1,0.1,2.5c0.2,0.5,0,1.1-0.5,1.3C88.5,71.7,88.4,71.7,88.2,71.7z"/>
</g>
<g>
	<path class="st1" d="M110.1,74.2c-0.2,0-0.3,0-0.5-0.1c-0.5-0.3-0.7-0.9-0.4-1.4c0,0,2-3.6,7.5-0.8c0.5,0.2,0.7,0.8,0.4,1.3
		c-0.2,0.5-0.8,0.7-1.3,0.4c-3.8-1.9-4.9,0-4.9,0C110.8,74,110.4,74.2,110.1,74.2z"/>
</g>
<g>
	<path class="st1" d="M103.3,89.8c-1.4,0-2.4-0.4-3.1-1.1c-1.5-1.7-0.6-4.4-0.5-4.7c0.2-0.5,0.8-0.8,1.3-0.6
		c0.5,0.2,0.8,0.8,0.6,1.3c-0.2,0.5-0.5,2,0.1,2.7c0.5,0.6,1.9,0.6,3.8,0.1c0.5-0.1,1.1,0.2,1.2,0.7c0.1,0.5-0.2,1.1-0.7,1.2
		C105,89.7,104.1,89.8,103.3,89.8z"/>
</g>
<g>
	<ellipse class="st1" cx="112.6" cy="77.4" rx="1.7" ry="2.4"/>
</g>
<path class="st0" d="M273.4,218.2H120.2c-6.2,0-11.3-5.1-11.3-11.3v-83c0-6.2,5.1-11.3,11.3-11.3h153.1c6.2,0,11.3,5.1,11.3,11.3v83
	C284.7,213.2,279.6,218.2,273.4,218.2z"/>
<path class="st1" d="M273.4,219.2H120.2c-6.8,0-12.3-5.5-12.3-12.3v-83c0-6.8,5.5-12.3,12.3-12.3h153.1c6.8,0,12.3,5.5,12.3,12.3v83
	C285.7,213.7,280.1,219.2,273.4,219.2z M120.2,113.7c-5.7,0-10.3,4.6-10.3,10.3v83c0,5.7,4.6,10.3,10.3,10.3h153.1
	c5.7,0,10.3-4.6,10.3-10.3v-83c0-5.7-4.6-10.3-10.3-10.3H120.2z"/>
<g>
	<path class="st2" d="M252.1,38.3H170c-2.9,0-5.3,2.4-5.3,5.3v13.5l-12.1,12.1c-1,1-0.3,2.6,1.1,2.6c3.3,0.1,8.1,0.1,11,0.1v10.3
		c0,2.9,2.4,5.3,5.3,5.3h82.1c2.9,0,5.3-2.4,5.3-5.3V43.6C257.4,40.7,255,38.3,252.1,38.3z"/>
</g>
<g>
	<path class="st1" d="M16,164.2h82.1c2.9,0,5.3,2.4,5.3,5.3V183l12.1,12.1c1,1,0.3,2.6-1.1,2.6c-3.3,0.1-8.1,0.1-11,0.1v10.3
		c0,2.9-2.4,5.3-5.3,5.3H16c-2.9,0-5.3-2.4-5.3-5.3v-38.7C10.7,166.6,13,164.2,16,164.2z"/>
</g>
<g>
	<path class="st0" d="M201.3,71.6c-2.9,0-5.5-1.1-7.5-3.4c-0.9-1-1.5-2-2-2.9c-3.9,0.8-8,0.8-8.8,0.8c-0.6,0-1-0.5-1-1
		c0-0.6,0.4-1,1-1c2.4,0,5.4-0.2,8.2-0.7c-0.3-2,0.5-3.3,1-4c1.5-2,4.5-3,6.3-2.1c1.2,0.6,1.6,1.7,1.3,3.2c-0.6,2.2-3.1,3.6-6,4.4
		c0.3,0.7,0.8,1.3,1.5,2c3.2,3.6,7.4,3,10.4,1.9c0.8-0.3,1.6-0.7,2.3-1.1c-2.7-1.3-3.7-3.3-4.1-4.4c-0.7-2.2-0.2-4.6,1.3-5.5
		c2-1.2,7.2-2,10-0.4c1.2,0.7,1.9,1.8,1.9,3.1c0,1.8-1.8,4.3-4.4,6.5c1.7,0.2,3.6,0.3,5.7,0.1c3.7-0.4,6.4-1.1,8.3-2
		c-0.8-1.1-1-2.1-1.1-2.9c-0.1-2.6,1.7-4.9,3.7-5.8c1.2-0.6,2.3-0.5,3,0.1c1,0.9,1.6,2.7,0.9,5c-0.4,1.2-1.2,2.7-3.2,4.1
		c1.1,0.8,2.5,1.5,4.3,2.1c0.5,0.2,0.8,0.8,0.6,1.3c-0.2,0.5-0.8,0.8-1.3,0.6c-2.5-0.9-4.2-1.9-5.4-2.9c-2.2,1.1-5.2,2-9.5,2.4
		c-3.4,0.3-6.1,0.1-8.1-0.4c-1.3,0.8-2.6,1.5-4,2C204.5,71.2,202.9,71.6,201.3,71.6z M210.9,58.4c-1.9,0-3.9,0.4-4.8,1
		c-0.4,0.3-1,1.5-0.4,3.1c0.6,1.7,2.1,3,4.3,3.7c3-2.2,4.9-4.8,4.9-5.9c0-0.6-0.3-1-0.9-1.4C213.3,58.6,212.1,58.4,210.9,58.4z
		 M230.6,57.8c-0.6,0-2.4,1.1-3.1,2.9c-0.4,1.2-0.2,2.3,0.7,3.4c1.9-1.3,2.6-2.6,2.8-3.4C231.5,59.2,231.1,58.1,230.6,57.8
		C230.7,57.8,230.7,57.8,230.6,57.8z M197,58.9c-0.9,0-2.3,0.5-3.2,1.6c-0.5,0.7-0.7,1.5-0.6,2.4c2.5-0.7,4.3-1.6,4.7-3
		c0.2-0.7-0.1-0.8-0.2-0.9C197.5,58.9,197.2,58.9,197,58.9z"/>
</g>
<g>
	<path class="st0" d="M46.9,200.1c-5.1,0-7.9-2.4-9.5-4.5c-0.7-1-1.3-2.1-1.7-3.2c-4.9,0.9-10.2,1-11.9,1.1c-0.6,0-1-0.4-1-1
		c0-0.6,0.4-1,1-1c3.5,0,7.8-0.4,11.4-1c-0.7-2.8-0.5-5.5,0.1-6.8c0.9-2.1,3.8-2.4,6-1.6c2.3,0.8,4.1,3,3.2,5.8
		c-0.6,1.9-3.4,3.2-6.7,4c0.3,0.8,0.8,1.7,1.3,2.4c2.1,2.8,5.4,4,9.7,3.6c3.5-0.4,6.2-1.8,8.1-3.4c-0.3-0.2-0.6-0.4-0.9-0.7
		c-3.1-2.3-4.9-5.4-5.1-8.5c-0.2-3,1.5-5.3,4.6-6.4c3.3-1.1,7.3-0.5,8.6,1.4c1.1,1.7,0.6,5.7-1.1,9.4c-0.6,1.2-1.4,2.8-2.7,4.3
		c3.5,1.6,7.6,2.2,11.6,1.3c2.6-0.5,4.8-1.8,6.6-3.4c-0.1-0.1-0.2-0.2-0.3-0.3c-2.7-3-3.5-6.8-3.3-9.2c0.1-1.2,0.7-2.1,1.7-2.8
		c2.2-1.3,6-0.8,7.9,0c0.7,0.3,1.4,1.1,1.2,3.3c-0.3,2.2-1.7,5.7-4.2,8.7c2.2,1.5,5,2.4,8.5,2.5c0.6,0,1,0.5,1,1c0,0.6-0.5,1-1,1
		c-4-0.1-7.3-1.2-9.9-3c-2,1.9-4.6,3.4-7.7,4.1c-4.6,0.9-9.4,0.3-13.4-1.8c-2.2,2.1-5.4,3.8-9.7,4.3C48.2,200,47.5,200.1,46.9,200.1
		z M58.7,180.5c-0.9,0-1.8,0.1-2.8,0.4c-1.6,0.5-3.4,1.7-3.2,4.4c0.2,2.5,1.7,5,4.3,7c0.4,0.3,0.8,0.6,1.2,0.8
		c1.3-1.5,2.2-3,2.7-4.1c1.7-3.6,1.7-6.8,1.2-7.5C61.8,181,60.4,180.5,58.7,180.5z M79.8,181c-1,0-1.9,0.2-2.5,0.5
		c-0.5,0.3-0.7,0.6-0.7,1.2c-0.1,2,0.5,5.2,2.8,7.7c0.1,0.1,0.1,0.1,0.2,0.2c1.4-1.7,2.5-3.5,3.1-5.1c0.9-2.3,0.7-3.6,0.6-3.8
		C82.5,181.3,81.1,181,79.8,181z M38.8,183.7c-0.9,0-1.6,0.3-1.8,0.8c-0.4,0.8-0.5,3.1,0.1,5.6c2.9-0.7,5-1.6,5.4-2.7
		c0.7-2.2-1.4-3.1-2-3.4C39.8,183.8,39.3,183.7,38.8,183.7z"/>
</g>
<g>
	<path class="st1" d="M178.4,171.6c0,0-20.5-9.8-14.5-21.5c6-11.6,15.1,3.6,10.8-14.5c-4.2-18.1-0.4-35.7,23.9-37.2
		c0,0,1.8-3.2,6.4-3.3c4.6-0.1,5.8,3.1,6.6,6.5c0.8,3.4,10-8.3,20.9,1.6s2.9,19.5,9.2,21.9c6.2,2.4,11.2,0.6,14.3,1.5
		s0.9,7.1-2.8,14.3c-3.8,7.3-3.3,14.8,8.3,15.5c11.6,0.7,9,15,8.8,16.5s-3.1,11.8-19.6,12.2S178.4,171.6,178.4,171.6z"/>
</g>
<path class="st0" d="M136.6,216.2c0,0,21.8-51.9,47-49.8c25.2,2.1,47.8,0.3,47.8,0.3s14.3-4.1,19.6,11.6c5.3,15.7,16,39,16,39"/>
<path class="st1" d="M266.1,217.6c-0.1-0.2-10.8-23.5-16-39.1c-4.9-14.6-17.8-11.1-18.4-11l-0.2,0c-0.2,0-23,1.8-48-0.3
	c-24.2-2-45.8,48.7-46,49.2l-1.8-0.8c0.1-0.1,5.6-13.2,14.2-25.9c11.6-17.2,23.1-25.5,33.9-24.6c24.1,2,46,0.4,47.6,0.3
	c1.4-0.3,15.4-3.4,20.7,12.3c5.2,15.5,15.8,38.7,15.9,38.9L266.1,217.6z"/>
<path class="st0" d="M135.6,217.6l9.3-20.9L115,167.1c-1.1-1-1.1-2.8,0-3.8h0c1-1,2.6-1.1,3.7-0.1l8.3,7.1l-3.6-11.1
	c-0.5-1.6,0.3-3.3,1.9-3.9h0c1.5-0.5,3.1,0.2,3.8,1.6l5,10.8l-0.1-4.1c0-1.8,1.5-3.4,3.3-3.3h0c1.6,0,2.9,1.2,3.1,2.7l2.7,15.7
	l8.7-0.2c1.7,0,3-1.6,2.6-3.3l-2.3-11.6c-0.4-2,0.8-3.9,2.8-4.4h0c1.7-0.5,3.5,0.3,4.3,1.9c3.4,6.2,11.4,21.6,11.4,26.9
	c0,6.6-7.8,29.7-7.8,29.7"/>
<path class="st1" d="M136.5,218l-1.8-0.8l9-20.3l-29.4-29.1c-0.7-0.7-1.1-1.6-1.1-2.6c0-1,0.4-1.9,1.1-2.6c1.4-1.4,3.6-1.4,5-0.2
	l5.6,4.8l-2.5-7.7c-0.7-2.1,0.5-4.4,2.6-5.1c2-0.7,4.1,0.3,5,2.2l3,6.6c0.1-1,0.5-1.8,1.2-2.5c0.8-0.8,1.9-1.3,3.1-1.2
	c2,0,3.8,1.5,4.1,3.5l2.5,14.9l7.8-0.2c0.5,0,1-0.3,1.3-0.7c0.3-0.4,0.5-0.9,0.4-1.5l-2.3-11.6c-0.5-2.5,1-4.9,3.5-5.6
	c2.2-0.6,4.4,0.4,5.5,2.4c4.3,8,11.5,22.1,11.5,27.4c0,6.7-7.5,29-7.8,30l-1.9-0.6c0.1-0.2,7.7-22.9,7.7-29.3
	c0-3.5-4.2-13.3-11.3-26.4c-0.6-1.1-1.9-1.7-3.2-1.4c-1.4,0.4-2.3,1.8-2,3.3l2.3,11.6c0.2,1.1-0.1,2.2-0.8,3.1
	c-0.7,0.9-1.7,1.4-2.9,1.4l-9.6,0.2l-2.8-16.6c-0.2-1.1-1.1-1.9-2.2-1.9c-0.6,0-1.2,0.2-1.6,0.7s-0.7,1-0.7,1.6l0.2,8.9l-7-15.1
	c-0.4-1-1.5-1.4-2.5-1.1c-1.1,0.4-1.7,1.5-1.3,2.6l4.8,14.5l-11-9.5c-0.7-0.6-1.7-0.5-2.3,0.1c-0.3,0.3-0.5,0.7-0.5,1.2
	s0.2,0.9,0.5,1.2l30.4,30.1L136.5,218z"/>
<path class="st0" d="M196.4,221.8c0,0-4.4-3.3-1.5-7.7c2.9-4.4,11.1-7.2,15.2-6.6c0,0,2.4-3.8,12.9-2.1c0,0,16.2,1.9,22.6,12.2
	l-11.9-0.1c0,0-4.7,8.5-6.5,8.5c-1.7,0-6.2-1.3-4-8c0,0-6.5,10-8.2,10c-1.7,0-6.2-1.2-5-5.3c0,0-6.7,3.2-7.1-2.1
	C202.9,220.6,200.2,222.9,196.4,221.8z"/>
<path class="st1" d="M215,229c-1.2,0-3.9-0.5-5.3-2.4c-0.4-0.5-0.8-1.3-0.9-2.4c-1.4,0.4-3.5,0.8-5-0.1c-0.6-0.3-1.2-0.9-1.6-1.9
	c-1.3,0.7-3.4,1.4-6.1,0.6l-0.2-0.1l-0.2-0.1c-1.8-1.3-4.4-4.9-1.7-9c2.9-4.4,10.9-7.5,15.6-7.1c1.1-1.1,4.6-3.5,13.5-2.1
	c0.6,0.1,16.8,2,23.3,12.6l1,1.5l-13.2-0.2c-2.3,4-5.2,8.5-7,8.5c-1.3,0-3.3-0.6-4.6-2.2c-0.6-0.8-0.9-1.7-1-2.7
	C218.4,226.7,216.2,229,215,229z M214.9,227L214.9,227L214.9,227z M211.5,220.9l-0.6,2.1c-0.3,1-0.2,1.8,0.3,2.5
	c0.9,1.2,2.8,1.6,3.7,1.6c1.1-0.5,4.7-5.3,7.4-9.6l4-6.2l-2.2,7.1c-0.7,2.3-0.7,4.1,0.2,5.3c0.8,1.1,2.1,1.4,2.9,1.4
	c0.9-0.4,3.7-4.4,5.6-8l0.3-0.5l10.6,0.1c-6.7-8.4-20.7-10.2-20.8-10.2c-9.5-1.6-11.9,1.7-11.9,1.7l-0.4,0.5l-0.6-0.1
	c-4-0.6-11.7,2.3-14.2,6.2c-2.1,3.2,0.4,5.6,1.1,6.2c3.2,0.8,5.4-1.1,5.4-1.1l1.5-1.3l0.2,2c0.1,1.4,0.7,1.8,0.9,1.9
	c1.3,0.8,4-0.2,4.8-0.6L211.5,220.9z M227.1,225L227.1,225L227.1,225z"/>
<g>
	<path class="st1" d="M202.9,221.6c0,0-0.1,0-0.1,0c-0.5-0.1-0.9-0.6-0.9-1.1c0.6-5.7,8.2-14,8.5-14.4c0.4-0.4,1-0.4,1.4-0.1
		c0.4,0.4,0.4,1,0.1,1.4c-0.1,0.1-7.5,8.2-8,13.2C203.8,221.2,203.4,221.6,202.9,221.6z"/>
</g>
<g>
	<path class="st1" d="M209.9,224.3c-0.1,0-0.1,0-0.2,0c-0.5-0.1-0.9-0.6-0.8-1.2c0.9-4.6,11.4-17.3,12.6-18.7c0.4-0.4,1-0.5,1.4-0.1
		c0.4,0.4,0.5,1,0.1,1.4c-3.2,3.8-11.5,14.3-12.2,17.8C210.8,224,210.4,224.3,209.9,224.3z"/>
</g>
<g>
	<path class="st1" d="M221.8,221.3c-0.2,0-0.4-0.1-0.5-0.2c-0.5-0.3-0.6-0.9-0.3-1.4l7.1-11.1c0.3-0.5,0.9-0.6,1.4-0.3
		c0.5,0.3,0.6,0.9,0.3,1.4l-7.1,11.1C222.5,221.1,222.1,221.3,221.8,221.3z"/>
</g>
<g>
	<path class="st1" d="M153.7,192.5c-0.3,0-0.6-0.1-0.8-0.4l-11-13c-0.4-0.4-0.3-1.1,0.1-1.4c0.4-0.4,1.1-0.3,1.4,0.1l11,13
		c0.4,0.4,0.3,1.1-0.1,1.4C154.2,192.5,153.9,192.5,153.7,192.5z"/>
</g>
<g>
	<path class="st1" d="M135.3,182.7c-0.5,0-0.9-0.4-1-0.9l-2.3-16.7c-0.1-0.5,0.3-1.1,0.9-1.1c0.5-0.1,1.1,0.3,1.1,0.9l2.3,16.7
		c0.1,0.5-0.3,1.1-0.9,1.1C135.4,182.7,135.4,182.7,135.3,182.7z"/>
</g>
<g>
	<path class="st1" d="M129.1,177.9c-0.4,0-0.8-0.2-0.9-0.6l-3.8-8.8c-0.2-0.5,0-1.1,0.5-1.3c0.5-0.2,1.1,0,1.3,0.5l3.8,8.8
		c0.2,0.5,0,1.1-0.5,1.3C129.4,177.8,129.3,177.9,129.1,177.9z"/>
</g>
<path class="st0" d="M213.1,108.3c0,0,0.4,18.9,12.9,23.5c0,0,8.3-0.9,8.5,8c0.3,8.9-12,3.3-12,3.3s-6.8,9.2-2.5,22.8l11.3,0.7
	c0,0-10.9,16.4-25.4,16c-14.5-0.4-21.2-16-21.2-16h10.3l0.3-17.4c0,0-14.9-4.3-15.7-17.6c-0.8-13.3,11.8-23.3,13.7-22.9
	c1.8,0.4,4.3-1.6,4.3-1.6S211.6,106.6,213.1,108.3z"/>
<path class="st1" d="M206.5,183.7c-0.2,0-0.4,0-0.5,0c-6.2-0.2-12-3.1-16.7-8.5c-3.5-4-5.3-8-5.3-8.1l-0.6-1.4h10.8l0.2-15.6
	c-3.1-1.1-14.9-6.2-15.6-18.3c-0.5-9,4.8-16.9,10-21.3c1.3-1.1,3.6-2.9,4.9-2.6c1,0.2,2.7-0.7,3.5-1.4l0.3-0.2l0.3,0
	c4.3-0.2,14.5-0.3,16.2,1.5l0.3,0.3l0,0.4c0,0.2,0.5,18.1,12,22.5c0.9-0.1,4.1-0.1,6.5,2.1c1.8,1.6,2.8,3.9,2.9,6.9
	c0.1,2.4-0.7,4.1-2.2,5.1c-3.1,2-8.3,0.3-10.4-0.6c-1.3,2.2-5.2,10-2.1,20.5l12.4,0.7l-1,1.5c-0.1,0.2-2.9,4.3-7.4,8.4
	C218.9,180.9,212.6,183.7,206.5,183.7z M186.5,167.6c2,3.7,8.4,13.7,19.6,14c0.2,0,0.3,0,0.5,0c11,0,20-10.3,23-14.2l-10.2-0.6
	l-0.2-0.7c-4.4-13.9,2.4-23.3,2.6-23.7l0.5-0.7l0.7,0.3c1.8,0.8,6.9,2.6,9.3,1.1c0.9-0.6,1.3-1.7,1.3-3.4c-0.1-2.4-0.8-4.3-2.2-5.5
	c-2.1-1.9-5.2-1.6-5.3-1.6l-0.2,0l-0.2-0.1c-5.4-2-9.5-6.9-11.7-14.1c-1.4-4.4-1.7-8.4-1.8-9.8c-1.6-0.7-8.2-0.9-14.1-0.7
	c-0.8,0.6-2.9,1.9-4.8,1.6c-1.9,0.3-13.3,9.4-12.5,21.8c0.7,12.4,14.8,16.7,14.9,16.7l0.7,0.2l-0.3,19.1H186.5z"/>
<g>
	<path class="st1" d="M200.4,151.3c-1.9,0-3.9-0.3-6.2-0.9c-0.5-0.2-0.8-0.7-0.7-1.2c0.2-0.5,0.7-0.8,1.2-0.7
		c11.5,3.3,17.4-4.1,17.6-4.4c0.3-0.4,1-0.5,1.4-0.2c0.4,0.3,0.5,1,0.2,1.4C213.9,145.3,209.2,151.3,200.4,151.3z"/>
</g>
<g>
	<path class="st1" d="M215.2,119.9c-0.3,0-0.6-0.1-0.8-0.4c-3.5-4.5-9.3-2.7-9.5-2.6c-0.5,0.2-1.1-0.1-1.3-0.6
		c-0.2-0.5,0.1-1.1,0.6-1.3c0.3-0.1,7.3-2.4,11.7,3.3c0.3,0.4,0.3,1.1-0.2,1.4C215.7,119.8,215.5,119.9,215.2,119.9z"/>
</g>
<g>
	<path class="st1" d="M191.6,126.5c-0.4,0-0.7-0.2-0.9-0.5c-0.3-0.5-0.1-1.1,0.4-1.4c0.1,0,5.7-3.2,5.6-7.5
		c-0.1-4.2-6.3-5.6-6.4-5.6c-0.5-0.1-0.9-0.7-0.8-1.2c0.1-0.5,0.7-0.9,1.2-0.8c0.3,0.1,7.8,1.8,8,7.5c0.1,5.5-6.3,9.2-6.6,9.3
		C191.9,126.4,191.8,126.5,191.6,126.5z"/>
</g>
<path class="st0" d="M190.9,128.1c0,0,10,1.5,13.4,0.4c0,0-3.3,7.9-7.3,7.3S190.9,128.1,190.9,128.1z"/>
<path class="st1" d="M197.4,136.9c-0.2,0-0.4,0-0.6,0c-4.6-0.7-6.8-8.1-6.9-8.4l-0.4-1.5l1.5,0.2c2.7,0.4,10.3,1.2,13,0.4l2.1-0.7
	l-0.8,2C204.8,129.7,201.8,136.9,197.4,136.9z M192.4,129.3c0.9,2.1,2.6,5.2,4.8,5.5c2,0.3,4.2-2.7,5.4-5
	C199.4,130.1,194.8,129.6,192.4,129.3z"/>
<g>
	<ellipse transform="matrix(0.3685 -0.9296 0.9296 0.3685 18.1717 270.7261)" class="st1" cx="208.4" cy="122" rx="2.9" ry="2"/>
</g>
<g>
	
		<ellipse transform="matrix(0.3685 -0.9296 0.9296 0.3685 10.0245 251.4189)" class="st1" cx="190.1" cy="118.3" rx="2.6" ry="1.9"/>
</g>
<g>
	<path class="st1" d="M231.2,140.1c-0.4,0-0.7-0.2-0.9-0.6c-0.5-1-1-1.5-1.6-1.7c-0.9-0.2-1.8,0.5-1.8,0.5c-0.4,0.3-1.1,0.3-1.4-0.1
		c-0.4-0.4-0.3-1,0.1-1.4c0.2-0.1,1.7-1.4,3.5-1c1.3,0.3,2.3,1.2,3,2.8c0.2,0.5,0,1.1-0.5,1.3C231.4,140.1,231.3,140.1,231.2,140.1z
		"/>
</g>
<circle class="st0" cx="120.8" cy="121" r="2.5"/>
<path class="st1" d="M120.8,124.5c-0.4,0-0.7-0.1-1.1-0.2c-0.9-0.3-1.6-0.9-2-1.7c-0.9-1.7-0.2-3.8,1.5-4.7c1.7-0.9,3.8-0.2,4.7,1.5
	c0.4,0.8,0.5,1.8,0.2,2.7c-0.3,0.9-0.9,1.6-1.7,2C121.9,124.3,121.3,124.5,120.8,124.5z M120.8,119.5c-0.2,0-0.5,0.1-0.7,0.2
	c-0.7,0.4-1,1.3-0.6,2v0c0.2,0.4,0.5,0.6,0.9,0.7c0.4,0.1,0.8,0.1,1.1-0.1c0.7-0.4,1-1.3,0.6-2C121.9,119.7,121.3,119.5,120.8,119.5
	z"/>
<circle class="st0" cx="129.3" cy="121.1" r="2.5"/>
<path class="st1" d="M129.3,124.6c-1.3,0-2.5-0.7-3.1-1.9l0,0c-0.9-1.7-0.2-3.8,1.5-4.7c0.8-0.4,1.8-0.5,2.7-0.2
	c0.9,0.3,1.6,0.9,2,1.7c0.4,0.8,0.5,1.8,0.2,2.7c-0.3,0.9-0.9,1.6-1.7,2C130.4,124.5,129.8,124.6,129.3,124.6z M128,121.8
	c0.4,0.7,1.3,1,2,0.6c0.7-0.4,1-1.3,0.6-2c-0.4-0.7-1.3-1-2-0.6C127.9,120.2,127.6,121.1,128,121.8L128,121.8z"/>
<circle class="st0" cx="137.8" cy="121.3" r="2.5"/>
<path class="st1" d="M137.8,124.8c-1.3,0-2.5-0.7-3.1-1.9c-0.4-0.8-0.5-1.8-0.2-2.7c0.3-0.9,0.9-1.6,1.7-2c1.7-0.9,3.8-0.2,4.7,1.5
	c0.9,1.7,0.2,3.8-1.5,4.7C138.9,124.7,138.4,124.8,137.8,124.8z M137.8,119.8c-0.2,0-0.5,0.1-0.7,0.2c-0.7,0.4-1,1.3-0.6,2
	c0.4,0.7,1.3,1,2,0.6c0.7-0.4,1-1.3,0.6-2C138.9,120.1,138.4,119.8,137.8,119.8z"/>
</svg>
