<?xml version="1.0" encoding="utf-8"?>
<!-- Generator: Adobe Illustrator 25.2.1, SVG Export Plug-In . SVG Version: 6.00 Build 0)  -->
<svg version="1.1" id="sv" xmlns="http://www.w3.org/2000/svg" xmlns:xlink="http://www.w3.org/1999/xlink" x="0px" y="0px"
	 viewBox="0 0 300 250" style="enable-background:new 0 0 300 250;" xml:space="preserve">
<style type="text/css">
	.st0{fill:#536278;}
	.st1{fill:#F50000;}
	.st2{fill:#FFFFFF;}
</style>
<g>
	<path class="st0" d="M48.3,42v26.5l18.2-15.8C66.5,52.7,56.6,42.4,48.3,42z"/>
</g>
<g>
	<path class="st1" d="M139.1,73.8c-1.1,0-2-0.9-2-2s0.9-2,2-2c4,0,7.3-3.3,7.3-7.3c0-4-3.3-7.3-7.3-7.3c-1.5,0-2.9,0.4-4.1,1.2
		c-0.9,0.6-2.2,0.4-2.8-0.5c-0.6-0.9-0.4-2.2,0.5-2.8c1.9-1.3,4-1.9,6.3-1.9c6.2,0,11.3,5.1,11.3,11.3
		C150.4,68.7,145.3,73.8,139.1,73.8z"/>
</g>
<g>
	<path class="st1" d="M104.7,51.2H79.9c-4-10.5-17.1-10.3-17.1-10.3v12.8c-11.2,4.1-20,13-23.7,24.1h-5.9c-2.3,0-4.2,1.8-4.2,4.1
		v14.5c0,1.3,1,2.5,2.4,2.6c2,0.3,4.5,0.9,4.5,2.2c0,1-0.4,1.8-1,2.6c-0.6,0.8-0.2,2,0.8,2.3l4,1.3c5.7,14.4,20.1,24.7,37.1,24.7
		h27.9c21.9,0,39.6-17.1,39.6-38.2v-4.5C144.4,68.3,126.6,51.2,104.7,51.2z"/>
</g>
<g>
	<path class="st0" d="M122.5,69.1c-0.4,0-0.7-0.2-0.9-0.5c-2.6-4.9-12.6-6.3-13.4-6.4H91.7c-0.6,0-1-0.4-1-1s0.4-1,1-1l16.6,0
		c0.5,0.1,11.8,1.4,15,7.5c0.3,0.5,0.1,1.1-0.4,1.4C122.8,69.1,122.6,69.1,122.5,69.1z"/>
</g>
<g>
	<path class="st2" d="M61.1,90.5c-0.6,0-1-0.4-1-1c0-4.2-3.4-7.6-7.6-7.6s-7.6,3.4-7.6,7.6c0,0.6-0.4,1-1,1s-1-0.4-1-1
		c0-5.3,4.3-9.6,9.6-9.6s9.6,4.3,9.6,9.6C62.1,90.1,61.6,90.5,61.1,90.5z"/>
</g>
<circle class="st2" cx="112.1" cy="47.7" r="13.5"/>
<path class="st0" d="M112.1,62.2c-8,0-14.5-6.5-14.5-14.5s6.5-14.5,14.5-14.5s14.5,6.5,14.5,14.5S120.1,62.2,112.1,62.2z
	 M112.1,35.2c-6.9,0-12.5,5.6-12.5,12.5s5.6,12.5,12.5,12.5c6.9,0,12.5-5.6,12.5-12.5S119,35.2,112.1,35.2z"/>
<g>
	<path class="st0" d="M83.2,35.3c-0.6,0-1-0.4-1-1V18c0-0.6,0.4-1,1-1s1,0.4,1,1v16.3C84.2,34.9,83.8,35.3,83.2,35.3z"/>
</g>
<g>
	<path class="st0" d="M112.5,53.2c-0.6,0-1-0.4-1-1v-9.3c0-0.6,0.4-1,1-1s1,0.4,1,1v9.3C113.5,52.7,113,53.2,112.5,53.2z"/>
</g>
<g>
	<path class="st0" d="M91.3,26.5H74.8c-0.6,0-1-0.4-1-1s0.4-1,1-1h16.5c0.6,0,1,0.4,1,1S91.8,26.5,91.3,26.5z"/>
</g>
<g>
	<path class="st0" d="M136.4,191.3c0,0,13.6-28.8,44.9-17.5l42.4,11.5c0,0,20.7,6,27.3,22.5c6.5,16.5,6.5,18.4,6.5,18.4l-135.9-1
		L136.4,191.3z"/>
</g>
<path class="st2" d="M187.4,152.9l-6.1,20.9c0,0-10.6-1-8.7,10.5c1.9,11.5,13.2,20.6,20.4,21.2c7.2,0.6,28.9-2.8,27.4-20.8l-8.3-2.8
	l8.9-30.7L187.4,152.9z"/>
<path class="st0" d="M194.8,206.6c-0.6,0-1.3,0-1.8-0.1c-7.2-0.6-19.3-9.6-21.3-22c-0.6-3.9,0-7,1.9-9c2.2-2.4,5.5-2.7,7-2.7
	l6.1-20.8l35.8-1.8l-9,31.1l8,2.7l0.1,0.7c0.5,5.6-1.2,10.3-4.9,14C210.8,204.6,200.9,206.6,194.8,206.6z M180.7,174.8
	c-1.1,0-3.9,0.2-5.7,2.1c-1.5,1.6-1.9,4-1.4,7.3c1.3,7.7,10,19.6,19.5,20.4c4.5,0.4,15.8-1,22.1-7.3c3.1-3.1,4.6-7.1,4.3-11.8
	l-8.6-2.9l8.8-30.2l-31.6,1.6l-6.1,21l-0.8-0.1C181.2,174.8,181.1,174.8,180.7,174.8z"/>
<g>
	<path class="st0" d="M188.8,109.5c0,0-4.3-16.4,11.2-20.1s23.2,5.7,27.6,6c4.4,0.2,10.4,5.3,10.9,12.3c0.5,7.1,3.1,9.7,6.8,8.7
		c0,0-0.8,3.1-1.7,3.2c0,0,1.2,1.3,2.6,1c1.3-0.3-3,1.3-3,1.3s4.4,14.7-4.7,24s-13.6,12.3-13.6,12.3s-3.5,2.8-11.2,0.4
		S188.8,109.5,188.8,109.5z"/>
</g>
<path class="st2" d="M222.3,153.1c-5,4.5-11.6,7.3-18.7,7.3c-15.6,0-28.3-13-28.3-29c0-12.3,7.4-22.7,17.9-27c0,0,11-4.1,12.2-5.7
	c1.2-1.7,11.7-0.9,12.6,1.5s-0.5,3.8-0.5,3.8s4.9,2.2,8.4,1.3c3.5-0.9,8.8,10,7.5,11.8c-1.3,1.8-5.6,2.5-5.6,7.4
	c0,4.9-4.5,15-7.7,15.9s-0.4,4.2,3.8,2.6c0,0,3.6-3.5,6.4-3.4c2.8,0.1,7.6-0.1,8.3,6.4s-3.6,9.6-6.2,10.4
	C226.8,158.1,222.3,153.1,222.3,153.1z"/>
<path class="st0" d="M203.6,161.4c-16.1,0-29.3-13.5-29.3-30c0-12.4,7.3-23.4,18.5-27.9c5.1-1.9,11.1-4.5,11.7-5.4
	c1.2-1.8,6.6-1.3,7.7-1.1c2.2,0.3,5.9,1,6.6,2.9c0.6,1.6,0.4,2.8,0,3.6c1.5,0.6,4.4,1.4,6.7,0.8c1.7-0.5,3.7,0.8,5.7,3.7
	c1.7,2.4,4.3,7.8,2.9,9.7c-0.5,0.7-1.3,1.2-2.1,1.8c-1.6,1.1-3.4,2.2-3.4,5c0,5-4.5,15.7-8.5,16.9c-0.5,0.1-0.7,0.3-0.7,0.4
	c0,0,0,0,0,0c0,0,0.1,0.2,0.4,0.4c0.6,0.4,1.8,0.5,3.3,0c0.8-0.8,4.1-3.6,6.9-3.5l0.4,0c2.8,0.1,8.1,0.2,8.9,7.3
	c0.7,6.6-3.3,10.3-6.9,11.5c-4.7,1.5-8.7-1.5-10.3-2.9C217,158.9,210.4,161.4,203.6,161.4z M209.3,98.7c-1.6,0-2.9,0.2-3.2,0.5
	c-1.2,1.8-10,5.1-12.6,6.1c-10.4,4.2-17.2,14.5-17.2,26.1c0,15.5,12.2,28,27.3,28c6.7,0,13.1-2.5,18.1-7l0.7-0.7l0.7,0.8
	c0,0,4.1,4.6,8.9,3.1c0.6-0.2,6.3-2.2,5.5-9.4c-0.6-5.4-4.1-5.5-7-5.5l-0.4,0c0,0,0,0-0.1,0c-1.9,0-4.7,2.2-5.6,3.1l-0.1,0.1
	l-0.2,0.1c-2.7,1-4.7,0.3-5.7-0.5c-0.7-0.6-1-1.4-0.8-2.1c0.1-0.5,0.5-1.4,2.1-1.8c2.6-0.7,7-10.3,7-15c0-3.9,2.5-5.5,4.3-6.7
	c0.7-0.4,1.3-0.9,1.6-1.3c0.4-0.9-1.4-5.7-3.9-8.6c-1-1.2-2-1.8-2.5-1.6c-3.9,1-8.9-1.3-9.1-1.4l-1.3-0.6l1.1-1
	c0.1-0.1,0.9-1,0.3-2.7c-0.1-0.2-0.7-0.7-2.8-1.2C212.6,98.9,210.8,98.7,209.3,98.7z"/>
<g>
	<path class="st0" d="M82,138.6c0,0-2.7-10.5,0.5-10.6c3.2-0.1,11.6,8.9,11.6,8.9L82,138.6z"/>
</g>
<path class="st2" d="M106.4,228.5l2-73.4c0,0-31.1-4.3-41.5-12.2s-29.5-23.6-29.5-23.6s5.5-6.7,11.6-3.7s29.9,21.3,29.9,21.3
	l32.3-2.2l-20.1-13c0,0,3.7-9.6,16.7-3.3s29.1,15,30.1,19.1c1,4.1,10.8,91.1,10.8,91.1"/>
<path class="st0" d="M147.7,228.7c-0.1-0.9-9.8-87-10.8-91c-0.3-1.1-3.2-5.6-29.6-18.4c-4.3-2.1-8-2.6-10.9-1.4
	c-2.3,0.9-3.5,2.6-4.1,3.5l21.9,14.1l-35.7,2.4l-0.3-0.2c-0.2-0.2-23.8-18.3-29.7-21.1c-4.2-2-8.2,1.2-9.7,2.7
	c3.8,3.1,19.6,16.1,28.7,22.9c10.1,7.6,40.8,12,41.1,12l0.9,0.1l-2,74.3l-2-0.1l1.9-72.5c-5.3-0.8-31.5-5-41.1-12.3
	c-10.3-7.8-29.4-23.5-29.6-23.6l-0.8-0.6l0.6-0.8c0.2-0.3,6.1-7.3,12.8-4c5.8,2.8,26.9,18.9,29.8,21.1l28.9-1.9l-18.2-11.8l0.3-0.8
	c0.1-0.2,1.5-3.8,5.6-5.4c3.5-1.4,7.7-0.9,12.5,1.5c19.5,9.4,29.8,16.1,30.6,19.8c1,4.1,10.4,87.7,10.8,91.2L147.7,228.7z"/>
<g>
	<path class="st0" d="M203.5,111.8c-0.5,0-1-0.4-1-0.9c-0.1-1.9-0.7-3.3-1.8-4.2c-2.2-1.7-5.8-1-5.8-1c-0.5,0.1-1.1-0.2-1.2-0.8
		c-0.1-0.5,0.2-1.1,0.8-1.2c0.2,0,4.5-0.9,7.5,1.4c1.6,1.2,2.5,3.2,2.6,5.7C204.5,111.3,204.1,111.8,203.5,111.8
		C203.5,111.8,203.5,111.8,203.5,111.8z"/>
</g>
<g>
	<path class="st0" d="M215.2,123.1c-0.1,0-0.2,0-0.3,0c-0.5-0.2-0.8-0.7-0.7-1.3c0.5-1.7,0.9-3.9-0.1-5.1c-1.2-1.4-3.7-1.1-3.8-1.1
		c-0.6,0.1-1.1-0.3-1.1-0.9c-0.1-0.5,0.3-1.1,0.8-1.1c0.2,0,3.7-0.5,5.6,1.8c1.3,1.6,1.5,3.9,0.5,7
		C216,122.8,215.6,123.1,215.2,123.1z"/>
</g>
<g>
	<path class="st0" d="M190.6,129.8c-0.3,0-0.5-0.1-0.7-0.3c-1.2-1.2-3.9-4.3-3.1-6.3c0.2-0.6,0.8-1.2,2.2-1.3c2.6-0.1,9.3-6.2,13-10
		c0.4-0.4,1-0.4,1.4,0c0.4,0.4,0.4,1,0,1.4c-1,1.1-10.2,10.4-14.4,10.6c-0.4,0-0.5,0.1-0.5,0.1c-0.1,0.5,1.2,2.5,2.8,4.1
		c0.4,0.4,0.4,1,0,1.4C191.1,129.7,190.8,129.8,190.6,129.8z"/>
</g>
<g>
	<path class="st0" d="M199.9,142.4c-3.8,0-6.4-3.5-6.5-3.7c-0.3-0.4-0.2-1.1,0.2-1.4c0.4-0.3,1.1-0.2,1.4,0.2c0,0,2.3,3,5.1,2.9
		c1.8-0.1,3.5-1.4,5.2-3.9c0.3-0.5,0.9-0.6,1.4-0.3s0.6,0.9,0.3,1.4c-2,3.1-4.3,4.8-6.8,4.9C200.1,142.4,200,142.4,199.9,142.4z"/>
</g>
<g>
	<path class="st0" d="M226.5,148.7c0,0-0.1,0-0.1,0c-0.5-0.1-0.9-0.6-0.9-1.1c0-0.1,0.4-3.1,2.7-4.3c1.4-0.8,3.2-0.7,5.3,0.3
		c0.5,0.2,0.7,0.8,0.5,1.3c-0.2,0.5-0.8,0.7-1.3,0.5c-1.5-0.7-2.6-0.8-3.5-0.3c-1.4,0.8-1.7,2.8-1.7,2.9
		C227.4,148.3,227,148.7,226.5,148.7z"/>
</g>
<g>
	
		<ellipse transform="matrix(0.7071 -0.7071 0.7071 0.7071 -26.6117 183.2173)" class="st0" cx="207.9" cy="123.7" rx="2.9" ry="2.2"/>
</g>
<g>
	
		<ellipse transform="matrix(0.7071 -0.7071 0.7071 0.7071 -22.1843 171.1059)" class="st0" cx="195.5" cy="112.3" rx="2.9" ry="2.2"/>
</g>
</svg>
