<?xml version="1.0" encoding="utf-8"?>
<!-- Generator: Adobe Illustrator 25.2.1, SVG Export Plug-In . SVG Version: 6.00 Build 0)  -->
<svg version="1.1" id="sv" xmlns="http://www.w3.org/2000/svg" xmlns:xlink="http://www.w3.org/1999/xlink" x="0px" y="0px"
	 viewBox="0 0 300 250" style="enable-background:new 0 0 300 250;" xml:space="preserve">
<style type="text/css">
	.st0{fill:#FFFFFF;}
	.st1{fill:#536278;}
	.st2{fill:#F50000;}
	.st3{fill:none;stroke:#3D5FEA;stroke-miterlimit:10;}
</style>
<path class="st0" d="M208.3,219.4c14.8,12.1,31.8,9.2,31.8,9.2s16.3-2.9,21.7-19c5.4-16.1-5.4-52.8-9.2-70.5
	c-3.8-17.7-41.9-36.3-41.9-36.3s-32,3.8-40.3,3.4c-7.2-0.4-31.3,6.3-37.6,8.1c-1,0.3-2,0.7-3,1.1l-83.7,39c-2,0.9-3.7,2.3-5,4l0,0
	c0,0-10.7,18.1-2.9,35.1s34,11.2,34,11.2l69.8-26.4l5.6,41.2"/>
<path class="st1" d="M235.2,230.2c-6.3,0-17.5-1.4-27.7-9.8l1.5-1.9c14.2,11.6,30.6,8.9,30.8,8.9c0.1,0,15.7-3,20.8-18.2
	c4.3-12.9-2.3-40.6-6.7-58.9c-1-4-1.9-7.8-2.5-10.9c-3.5-16.1-37.2-33.4-40.9-35.3c-3.7,0.4-32.2,3.7-40.1,3.3
	c-5.5-0.3-22.8,3.9-37.2,8c-0.9,0.3-1.9,0.6-2.8,1l-83.7,39c-1.8,0.8-3.3,2.1-4.5,3.6c-0.7,1.2-10.1,18.2-2.8,33.9
	c7.1,15.5,31,10.9,32.6,10.5l71.2-26.9l5.8,42.7l-2.4,0.3l-5.4-39.7l-68.6,25.9c-1.1,0.2-27.2,5.8-35.4-11.9
	c-8-17.4,2.5-35.5,3-36.3l0.1-0.1c1.4-1.9,3.3-3.4,5.5-4.4l83.7-39c1-0.5,2.1-0.9,3.1-1.2c7.1-2,30.7-8.5,38-8.1
	c8.1,0.4,39.8-3.3,40.1-3.4l0.4,0l0.3,0.2c1.6,0.8,38.6,19,42.5,37.1c0.7,3.1,1.6,6.9,2.5,10.9c4.7,19.7,11.2,46.7,6.6,60.3
	c-5.5,16.6-22,19.7-22.7,19.8C240,229.8,238.2,230.2,235.2,230.2z"/>
<path class="st0" d="M166.3,101.3c0,0,1.1,9.5,1.1,13.1s-0.5,6.1-0.5,6.1s24.9,4.8,39-2.5c14.1-7.2-3.8-29.6-3.8-29.6L166.3,101.3z"
	/>
<path class="st1" d="M184.5,123.2c-9.3,0-17.2-1.5-17.8-1.6l-1.2-0.2l0.2-1.2c0,0,0.4-2.6,0.4-5.9c0-3.4-1.1-12.8-1.1-12.9l-0.1-1
	l37.5-13.5l0.5,0.7c0.5,0.6,11.4,14.3,9.3,24.2c-0.7,3.2-2.6,5.7-5.8,7.3C200.1,122.3,191.8,123.2,184.5,123.2z M168.3,119.4
	c5,0.8,25.2,3.5,37.1-2.5c2.5-1.3,4-3.1,4.5-5.6c1.6-7.6-6.1-18.6-8.2-21.5l-34,12.3c0.3,2.5,1,9.3,1,12.2
	C168.6,116.5,168.4,118.3,168.3,119.4z"/>
<path class="st2" d="M234,118.8l-6.2,4.6L96.4,220.2L54.8,231l22.8-37.3l131.3-96.2l6.1-4.4c6.3-4.6,15.2-3.4,20,2.7l1.8,2.2
	C241.9,104.5,240.6,113.9,234,118.8z"/>
<path class="st1" d="M52.2,232.9l24.5-40.1l0.2-0.1L214.2,92.1c6.9-5,16.4-3.8,21.7,2.9l1.8,2.2c2.7,3.4,3.9,7.6,3.3,11.9
	c-0.6,4.3-2.8,8.1-6.3,10.6l0,0L97,221.3l-0.2,0.1L52.2,232.9z M78.5,194.5L57.4,229l38.5-10l137.4-101.3c2.9-2.2,4.8-5.4,5.3-9
	c0.5-3.6-0.5-7.2-2.8-10.1l-1.8-2.2c-4.5-5.6-12.5-6.7-18.3-2.5l-6.1,4.4L78.5,194.5z"/>
<g>
	<polygon class="st0" points="77.7,195.9 94.4,219.5 75.8,224.3 57.4,229 	"/>
</g>
<g>
	<path class="st1" d="M77.7,198.1l14.6,20.6l-16.8,4.4l-15.5,4l8.8-14.4L77.7,198.1 M77.6,193.7l-10.8,17.7l-12,19.6l21.3-5.5
		l20.3-5.3L77.6,193.7L77.6,193.7z"/>
</g>
<g>
	<polygon class="st1" points="76.2,225.5 54.8,231 66.8,211.4 	"/>
</g>
<g>
	<path class="st1" d="M234,118.8l-6.2,4.6l-18.9-25.9l6.1-4.4c6.3-4.6,15.2-3.4,20,2.7l1.8,2.2C241.9,104.5,240.6,113.9,234,118.8z"
		/>
</g>
<path class="st0" d="M117.3,103.3l-8.8-13.5c1.4-3.4,2.2-7.2,2.2-11.1c0-16.9-14.6-30.5-32.5-30.5c-18,0-32.5,13.7-32.5,30.5
	c0,16.9,14.6,30.5,32.5,30.5c10.5,0,19.8-4.7,25.7-11.9L117.3,103.3z"/>
<path class="st2" d="M78.2,110.5c-18.6,0-33.8-14.2-33.8-31.8s15.1-31.8,33.8-31.8c18.6,0,33.8,14.2,33.8,31.8c0,3.8-0.7,7.4-2.1,11
	l10.7,16.4l-16.2-7.2C97.8,106.2,88.4,110.5,78.2,110.5z M78.2,49.4c-17.3,0-31.3,13.2-31.3,29.3s14,29.3,31.3,29.3
	c9.8,0,18.8-4.2,24.8-11.4l0.6-0.7l10.4,4.6l-6.9-10.6l0.2-0.6c1.4-3.4,2.1-7,2.1-10.6C109.5,62.5,95.5,49.4,78.2,49.4z"/>
<g>
	<path class="st2" d="M73,92.2c-0.1,0-0.3,0-0.4,0c-2.1-0.1-4-1.3-5.1-3l-6.2-9.8c-0.9-1.4-0.5-3.3,0.9-4.2c1.4-0.9,3.3-0.5,4.2,0.9
		l6.2,9.8c0.1,0.1,0.2,0.2,0.4,0.2c0.2,0,0.3,0,0.4-0.2l16-19.5c1.1-1.3,3-1.5,4.3-0.4c1.3,1.1,1.5,3,0.4,4.3l-16,19.5
		C76.9,91.3,75,92.2,73,92.2z"/>
</g>
<path class="st0" d="M186.5,117.9c0,0-5.2,2.2-3.3,8c1.9,5.9,12.4,22.3,12.4,22.3L170,135.1c-1.7-0.9-3.7-0.4-4.8,1.1l-0.4,0.5
	c-1.3,1.7-0.9,4.1,0.8,5.4v0c0,0-2.6,0.5-3.6,1.6c-1,1.1-1.3,5,2,7.5c0,0-2.4,3.9,1.2,9.4c3.6,5.6,4.6,6.3,4.6,6.3l-6.3,4.5
	c0,0,2.3,16.8,10.1,17s17.4-2.6,22.8-9.7c5.5-7.2,11.8-20.4,12.4-23.9c0.6-3.6,1-10.8-3.6-16.3C200.7,133,188.6,116.7,186.5,117.9z"
	/>
<path class="st1" d="M174.4,189.6c-0.3,0-0.5,0-0.8,0c-8.8-0.2-11.2-17.3-11.3-18l-0.1-0.7l5.8-4.2c-0.7-0.9-1.9-2.6-3.8-5.5
	c-2.9-4.5-2.2-8.1-1.6-9.8c-1.8-1.8-2.3-3.8-2.4-4.9c-0.1-1.5,0.2-3,1-3.7c0.6-0.6,1.5-1.1,2.3-1.4c-0.3-0.5-0.5-1.1-0.6-1.7
	c-0.2-1.3,0.2-2.7,1-3.7l0.4-0.5c1.5-2,4.1-2.6,6.3-1.5l21.6,11.1c-3.2-5.3-8.8-14.6-10.1-18.8c-1.8-5.4,1.8-8.6,3.9-9.5
	c2.1-1.1,5.4,2.2,16.6,16.3c1.4,1.8,2.7,3.4,3.7,4.6c5.1,6.1,4.4,14.1,3.8,17.3c-0.6,3.8-7,17.1-12.7,24.5
	C191.7,187,181.9,189.6,174.4,189.6z M164.8,172c0.8,4.8,3.5,15.1,8.8,15.2c7,0.2,16.4-2.2,21.8-9.3c5.3-6.9,11.6-20,12.2-23.4
	c0.5-2.8,1.1-10-3.3-15.3c-1-1.1-2.2-2.8-3.7-4.6c-3.8-4.8-11.7-14.7-13.9-15.5c-0.8,0.4-3.9,2.2-2.5,6.5c1.8,5.7,12.1,21.9,12.2,22
	l2.4,3.8l-29.6-15.2c-1.1-0.6-2.5-0.3-3.3,0.8l-0.4,0.5c-0.4,0.6-0.6,1.2-0.5,1.9c0.1,0.7,0.5,1.3,1,1.7l2.2,1.6l-2.7,0.5
	c-0.9,0.2-2.4,0.7-2.9,1.2c-0.1,0.2-0.4,0.8-0.3,1.9c0.1,0.9,0.4,2.5,2.2,3.9l0.9,0.7l-0.6,0.9c-0.1,0.1-1.9,3.4,1.2,8.1
	c3.3,5.1,4.3,6,4.3,6l1.1,1l-1.2,0.9L164.8,172z"/>
<path class="st0" d="M74.2,199.5c0,0-3-18,4.4-24.5s31.7-24.9,42.1-16.2c10.3,8.7,14.4,23.9,14.5,26.5c0.1,2.6-1.2,4.4-3.3,4.4
	c-2.1,0-20.5-25.1-22-24.6c-1.5,0.5,19.1,30.8,18.8,32.7c-0.2,1.9-4.5,5.1-7.2,4.3c0,0-6.7,3-10.6,0.1c0,0-5.5,1.9-9.3-1
	c-3.8-2.9-14.6-14.3-14.6-14.3l-9.4,6.9L74.2,199.5z"/>
<path class="st1" d="M115.4,204.6c-1.6,0-3.2-0.3-4.5-1.1c-1.6,0.4-6.3,1.3-9.8-1.4c-3.3-2.5-11.5-11-14-13.7l-8.3,6.1l-5.2,8.3
	l-0.5-3.2c-0.1-0.8-3-18.8,4.8-25.6c1.3-1.1,31-26.9,43.7-16.2c10.5,8.9,14.8,24.3,15,27.4c0.1,1.8-0.4,3.4-1.4,4.4
	c-0.8,0.8-1.9,1.3-3.1,1.3c-1.4,0-3.4-2.1-12.5-13.4c-1.5-1.8-3.1-3.8-4.7-5.7c1.9,3.1,4.2,6.8,6.2,9.9c7.9,12.6,9.3,15,9.1,16.1
	c-0.2,1.5-1.8,3.1-3.3,4.1c-1.8,1.1-3.6,1.6-5,1.4C120.8,203.7,118.2,204.6,115.4,204.6z M111.3,200.8l0.5,0.4
	c3.2,2.4,9.3-0.2,9.3-0.3l0.4-0.2l0.4,0.1c0.8,0.3,2.1-0.1,3.5-1c1.3-0.9,2-1.8,2.2-2.2c-0.5-1.5-5.1-8.8-8.7-14.7
	c-9.6-15.3-10.5-17.2-10.1-18.3l0.2-0.6l0.6-0.2c1.3-0.4,2.2,0.4,11.7,12.1c4,4.9,9.4,11.6,10.8,12.5c0.4,0,0.8-0.2,1.1-0.5
	c0.5-0.5,0.8-1.5,0.7-2.6c-0.1-2.5-4.2-17.2-14.1-25.6c-9.2-7.8-32.3,9-40.5,16.1c-5,4.3-4.9,14.6-4.4,20l1.9-3l10.4-7.7l0.7,0.8
	c0.1,0.1,10.7,11.4,14.4,14.2c3.3,2.5,8.1,0.9,8.2,0.9L111.3,200.8z"/>
<line class="st0" x1="197.1" y1="161.2" x2="165.5" y2="142"/>
<path class="st1" d="M197.1,162.4c-0.2,0-0.4-0.1-0.6-0.2l-31.5-19.2c-0.6-0.4-0.8-1.1-0.4-1.7c0.4-0.6,1.1-0.8,1.7-0.4l31.5,19.2
	c0.6,0.4,0.8,1.1,0.4,1.7C197.9,162.2,197.5,162.4,197.1,162.4z"/>
<line class="st0" x1="190.7" y1="169.3" x2="164" y2="151.2"/>
<path class="st1" d="M190.7,170.5c-0.2,0-0.5-0.1-0.7-0.2l-26.7-18.1c-0.6-0.4-0.7-1.1-0.3-1.7c0.4-0.6,1.1-0.7,1.7-0.3l26.7,18.1
	c0.6,0.4,0.7,1.1,0.3,1.7C191.5,170.3,191.1,170.5,190.7,170.5z"/>
<line class="st0" x1="181.1" y1="176.6" x2="169.7" y2="166.6"/>
<path class="st1" d="M181.1,177.8c-0.3,0-0.6-0.1-0.8-0.3l-11.4-9.9c-0.5-0.4-0.6-1.2-0.1-1.7c0.4-0.5,1.2-0.6,1.7-0.1l11.4,9.9
	c0.5,0.4,0.6,1.2,0.1,1.7C181.8,177.6,181.5,177.8,181.1,177.8z"/>
<line class="st0" x1="243.1" y1="182.8" x2="206.4" y2="162.4"/>
<path class="st1" d="M243.1,184c-0.2,0-0.4,0-0.6-0.2l-36.8-20.4c-0.6-0.3-0.8-1.1-0.5-1.7c0.3-0.6,1.1-0.8,1.7-0.5l36.8,20.4
	c0.6,0.3,0.8,1.1,0.5,1.7C244,183.8,243.6,184,243.1,184z"/>
<line class="st0" x1="208.8" y1="219.9" x2="173.6" y2="188.4"/>
<path class="st1" d="M208.8,221.1c-0.3,0-0.6-0.1-0.8-0.3l-35.1-31.5c-0.5-0.5-0.5-1.2-0.1-1.7c0.5-0.5,1.2-0.5,1.7-0.1l35.1,31.5
	c0.5,0.4,0.5,1.2,0.1,1.7C209.4,220.9,209.1,221.1,208.8,221.1z"/>
<line class="st0" x1="100.3" y1="169.8" x2="121.7" y2="202"/>
<path class="st1" d="M121.7,203.2c-0.4,0-0.8-0.2-1-0.5l-21.4-32.2c-0.4-0.6-0.2-1.3,0.3-1.7c0.6-0.4,1.3-0.2,1.7,0.3l21.4,32.2
	c0.4,0.6,0.2,1.3-0.3,1.7C122.1,203.2,121.9,203.2,121.7,203.2z"/>
<line class="st0" x1="91.5" y1="176.5" x2="111.1" y2="202.1"/>
<path class="st1" d="M111.1,203.3c-0.4,0-0.7-0.2-1-0.5l-19.6-25.6c-0.4-0.5-0.3-1.3,0.2-1.7c0.5-0.4,1.3-0.3,1.7,0.2l19.6,25.6
	c0.4,0.5,0.3,1.3-0.2,1.7C111.6,203.3,111.4,203.3,111.1,203.3z"/>
<g>
	<path class="st3" d="M227.1,87.1"/>
</g>
<g>
	<path class="st1" d="M213.3,37.9c-3.8-26.3-38.8-15.7-44.9-15.4c-6.1,0.3-10.4-3.1-10.4-3.1c-1.7,1.4-1,5.2-0.4,7.4
		c-7.6,0.9-13.5,7.4-13.5,15.3c0,8.5,6.9,15.5,15.5,15.5c0.2,0,0.4,0,0.6,0c13.8,11.6,50.3,42.1,49.2,40.2
		c-1.3-2.3,7.4-27.7,7.4-27.7C233.6,44.5,213.3,37.9,213.3,37.9z"/>
</g>
<path class="st0" d="M150.8,54.5c0,5.6,0,11.2,0,16.8c0,3.8,0,7.6,0,11.5c0,3.3-0.1,6.3,1,9.6c1.2,3.7,3.4,7.2,6.5,9.7
	c2.9,2.4,6.5,3.2,10.2,3.4c4.3,0.3,8.7,0.4,13,0.3c2.8,0,5.5-0.2,8.1-1.5c1.7-0.8,3.2-1.9,4.7-3c4-3.1,7.5-7.1,9.3-11.9
	c0.4-1.1,0.7-2.1,0.9-3.2c0,0,13.9,1.8,16.4-6.2s-4.4-10.3-4.4-10.3s-6.6-1.1-7.9,0.9c-1.2,2-1.1,6.6-1.1,6.6l-4.4,2.9
	c0,0,2.7-12.9,0.6-16.2c0,0-3.4-6.2-2.2-11.5c0,0-12.3-1.7-13.5-12.5c0,0-7.1,7-16.2,5.2C171.6,45.1,165.7,58.5,150.8,54.5z"/>
<path class="st1" d="M179.1,107c-3.8,0-7.4-0.1-10.8-0.3c-4.7-0.3-8.1-1.5-10.9-3.7c-3.1-2.5-5.5-6-6.9-10.3
	c-1.1-3.2-1.1-6.2-1.1-9.4V52.9l1.5,0.4c13.8,3.7,19.1-8.2,19.4-8.7l0.4-0.9l1,0.2c8.4,1.6,15-4.8,15.1-4.9l1.8-1.8l0.3,2.5
	c1.1,9.7,12,11.4,12.4,11.4l1.3,0.2l-0.3,1.3c-1.1,4.8,2.1,10.6,2.1,10.6c1.7,2.6,0.8,9.9,0.1,14.2l1.5-1c0-1.5,0.2-4.8,1.3-6.6
	c1.5-2.5,7.4-1.7,9.1-1.5l0.2,0c0.1,0,7.9,2.8,5.2,11.8c-2.3,7.5-13,7.4-16.6,7.2c-0.2,0.8-0.4,1.6-0.7,2.4c-1.7,4.6-5,8.9-9.7,12.4
	c-1.7,1.3-3.3,2.3-4.9,3.1c-2.8,1.4-5.8,1.6-8.6,1.6C180.6,107,179.9,107,179.1,107z M152,56.1v27.3c0,3.1,0,5.8,0.9,8.6
	c1.2,3.8,3.3,7,6.1,9.1c2.3,1.9,5.3,2.9,9.5,3.1c4,0.3,8.2,0.4,12.9,0.3c2.5,0,5.2-0.2,7.5-1.3c1.5-0.7,2.9-1.7,4.5-2.9
	c4.3-3.3,7.3-7.2,8.9-11.3c0.4-1,0.7-2,0.8-3l0.2-1.1l1.1,0.1c0.1,0,12.9,1.5,15.1-5.3c2-6.4-2.8-8.5-3.6-8.7
	c-3-0.5-6.1-0.3-6.5,0.3c-0.7,1.2-1,4.3-0.9,6l0,0.7l-7.4,4.8l0.6-2.9c1.1-5.2,2-13.3,0.7-15.2c-0.2-0.3-3.2-5.9-2.6-11.2
	c-1.3-0.3-3.3-0.9-5.5-2.1c-3.9-2.1-6.4-5.3-7.4-9.1c-2.6,2-8.1,5.2-14.7,4.3C170.6,49.4,164.4,58.5,152,56.1z"/>
<path class="st0" d="M171.1,62.4h22.6c2.8,0,5.1,2.4,5.1,5.4v0c0,7.8-5.9,14.1-13.2,14.1h-5.7c-5.4,0-9.7-4.6-9.8-10.3
	c0-3.2-0.1-6.4-0.1-8C170,62.9,170.5,62.4,171.1,62.4z"/>
<path class="st1" d="M185.6,83.1h-5.7c-6,0-10.9-5.2-11-11.5l-0.1-8c0-0.6,0.2-1.3,0.7-1.7c0.4-0.4,1-0.7,1.6-0.7h22.6
	c3.5,0,6.3,3,6.3,6.6C200,76.2,193.5,83.1,185.6,83.1z M171.3,63.6l0.1,7.9c0.1,5,3.9,9.1,8.6,9.1h5.7c6.6,0,12-5.8,12-12.9
	c0-2.3-1.7-4.2-3.8-4.2H171.3z"/>
<path class="st0" d="M142.7,62.5h18.2c2.2,0,4.1,2.3,4.1,5.2v0c0,7.5-4.8,13.5-10.6,13.5h-4.6c-4.3,0-7.8-4.4-7.9-9.9
	c0-3.1-0.1-6.1-0.1-7.7C141.8,63,142.2,62.5,142.7,62.5z"/>
<path class="st1" d="M154.3,82.4h-4.6c-5,0-9-5-9.1-11.1l-0.1-7.7c0-0.7,0.2-1.3,0.7-1.8c0.4-0.4,0.9-0.6,1.4-0.6h18.2
	c2.9,0,5.3,2.9,5.3,6.4C166.2,75.8,160.9,82.4,154.3,82.4z M143.1,63.7l0.1,7.6c0,4.8,3,8.7,6.6,8.7h4.6c5.2,0,9.4-5.5,9.4-12.3
	c0-2.1-1.3-4-2.9-4H143.1z"/>
<g>
	<rect x="164.6" y="64.7" class="st1" width="5" height="2.4"/>
</g>
<line class="st0" x1="199" y1="68.4" x2="211.2" y2="69.1"/>
<rect x="203.9" y="62.6" transform="matrix(5.789143e-02 -0.9983 0.9983 5.789143e-02 124.5771 269.5086)" class="st1" width="2.4" height="12.2"/>
<path class="st0" d="M166.3,66.5c0,0,1.1,1.6-0.1,3.2c-1.2,1.6-9.2,6-3.4,12.1c0,0,1.5,0.8,1.5,2"/>
<path class="st1" d="M164.3,85c-0.7,0-1.2-0.5-1.2-1.2c0-0.3-0.5-0.8-0.9-1l-0.3-0.2c-1.7-1.8-2.5-3.6-2.4-5.5
	c0.1-3.2,3-5.7,4.6-7.2c0.4-0.4,0.9-0.8,1.1-1c0.6-0.9,0.1-1.8,0.1-1.8c-0.4-0.6-0.2-1.3,0.3-1.7c0.6-0.4,1.3-0.2,1.7,0.3
	c0.6,0.9,1.2,2.8-0.1,4.6c-0.3,0.4-0.8,0.8-1.4,1.4c-1.5,1.3-3.7,3.2-3.8,5.4c0,1.2,0.5,2.3,1.6,3.6c0.5,0.3,2,1.4,2,3
	C165.5,84.5,165,85,164.3,85z"/>
<g>
	<path class="st1" d="M187.5,58.3c-0.4,0-0.8-0.2-1-0.6c-3.2-5-9.1-3.2-9.3-3.1c-0.6,0.2-1.3-0.1-1.5-0.8s0.1-1.3,0.8-1.5
		c2.7-0.9,8.7-1.2,12.1,4.1c0.4,0.6,0.2,1.3-0.4,1.7C187.9,58.2,187.7,58.3,187.5,58.3z"/>
</g>
<g>
	<path class="st1" d="M155.2,58.4c-0.3,0-0.7-0.1-0.9-0.4c-0.4-0.5-0.4-1.3,0.1-1.7c4.2-3.6,9.6-1.3,9.8-1.2c0.6,0.3,0.9,1,0.6,1.6
		c-0.3,0.6-1,0.9-1.6,0.6c-0.1,0-4.3-1.8-7.2,0.8C155.8,58.3,155.5,58.4,155.2,58.4z"/>
</g>
<g>
	<ellipse class="st1" cx="157.9" cy="69.3" rx="3.1" ry="3.9"/>
</g>
<g>
	<ellipse class="st1" cx="180.2" cy="69.5" rx="3.1" ry="3.9"/>
</g>
<g>
	<path class="st1" d="M174.3,93.6c-1.8,0-3.6-1-5.3-3c-0.3-0.1-1-0.1-1.5,0c-0.7,0.1-1.3-0.4-1.4-1.1c-0.1-0.7,0.4-1.3,1.1-1.4
		c1.8-0.2,3,0,3.6,0.7c0.7,0.8,2.4,2.6,4.1,2.2c1-0.3,1.5-0.8,2-1.4c0.6-0.6,1.3-1.4,2.6-1.4h1.6c0.7,0,1.2,0.5,1.2,1.2
		s-0.5,1.2-1.2,1.2h-1.6c-0.2,0-0.3,0.1-0.8,0.6c-0.6,0.7-1.5,1.6-3.1,2.1C175.1,93.5,174.7,93.6,174.3,93.6z M169.1,90.6
		L169.1,90.6L169.1,90.6z"/>
</g>
</svg>
