<?xml version="1.0" encoding="utf-8"?>
<!-- Generator: Adobe Illustrator 25.2.1, SVG Export Plug-In . SVG Version: 6.00 Build 0)  -->
<svg version="1.1" id="sv" xmlns="http://www.w3.org/2000/svg" xmlns:xlink="http://www.w3.org/1999/xlink" x="0px" y="0px"
	 viewBox="0 0 300 250" style="enable-background:new 0 0 300 250;" xml:space="preserve">
<style type="text/css">
	.st0{fill:#536278;}
	.st1{fill:#FFFFFF;}
	.st2{fill:#F50000;}
</style>
<g>
	<path class="st0" d="M128.1,20.8c-0.9,0-1.7,0-2.6,0.1c-4.1-2.6-8.9-4-14-4c-10.8,0-20.2,6.5-24.2,15.9c-2.2-0.6-4.6-1-7-1
		c-14.6,0-26.4,11.8-26.4,26.4s11.8,26.4,26.4,26.4c10.8,0,20.2-6.5,24.2-15.9c2.2,0.6,4.6,1,7,1c1.9,0,3.8-0.2,5.7-0.6
		c3.3,1.6,7,2.5,10.9,2.5c14,0,25.4-11.4,25.4-25.4S142.1,20.8,128.1,20.8z"/>
</g>
<path class="st1" d="M89.8,78c-1.4,1.9-4.3,2.2-6.8,2.2c-6.5,0-11.8-5.3-11.8-11.8S76.4,56.5,83,56.5c4.5,0,8.5,2.5,10.5,6.3
	c0,0,2.9,5.2,10,3.2c7.1-2.1,26.3-13.4,29.7-33.3c0,0,15.8,10.3,19.4,25.9s-0.6,41.6-24,47.2c-6.8,0.6-19.9,33-19.9,33l-30.8-10.3
	l9.8-45.9c0,0,3.8-4.1,5.5-3.8C94.9,79,91,76.4,89.8,78z"/>
<path class="st0" d="M109.2,139.9l-32.5-10.8l10-47l0.2-0.2c0.3-0.4,0.9-1,1.6-1.6c-1.7,0.8-3.8,0.9-5.6,0.9
	c-7.1,0-12.8-5.8-12.8-12.8c0-7.1,5.8-12.8,12.8-12.8c4.8,0,9.1,2.6,11.3,6.8c0.1,0.2,2.6,4.5,8.8,2.7c7.7-2.2,25.8-13.5,28.9-32.5
	l0.3-1.5l1.3,0.8c0.7,0.4,16.2,10.7,19.8,26.5c3.9,16.7-1.2,42.8-24.7,48.4l-0.1,0c-4.5,0.4-14.1,20.1-19,32.3L109.2,139.9z
	 M79,127.8l29,9.7c2.4-5.9,13.5-31.9,20.3-32.7c22.1-5.3,26.9-30,23.2-45.9c-2.9-12.5-14-21.6-17.7-24.4c-4,19-22.2,30.2-30.1,32.5
	c-7.8,2.2-11.1-3.6-11.1-3.6c-1.9-3.6-5.6-5.8-9.6-5.8c-6,0-10.8,4.9-10.8,10.8c0,6,4.9,10.8,10.8,10.8c2.2,0,4.9-0.2,6-1.7l0,0
	c1-1.4,3-1,4.3-0.3c1.1,0.5,1.5,1.2,1.3,1.9c-0.1,0.3-0.4,0.9-1.5,0.7c-0.6-0.1-2.7,1.5-4.5,3.3L79,127.8z M90.6,78.6
	C90.6,78.6,90.5,78.7,90.6,78.6c0,0,0.1,0,0.2-0.1C90.7,78.5,90.6,78.6,90.6,78.6L90.6,78.6z"/>
<path class="st1" d="M105.8,201.6v-93.9c0-4.1,3.3-7.4,7.4-7.5l144.9-0.4c4.1,0,7.5,3.3,7.5,7.5v95.3L105.8,201.6z"/>
<path class="st0" d="M266.5,203.6l-161.8-1v-94.9c0-4.7,3.8-8.4,8.4-8.5l144.9-0.4c2.2,0,4.4,0.9,6,2.5c1.6,1.6,2.5,3.7,2.5,6V203.6
	z M106.8,200.6l157.8,1v-94.3c0-1.7-0.7-3.4-1.9-4.6c-1.2-1.2-2.8-1.9-4.6-1.9c0,0,0,0,0,0l-144.9,0.4c-3.6,0-6.4,2.9-6.4,6.5V200.6
	z"/>
<g>
	<path class="st0" d="M280.7,200.4H87.9v14.7h180.7c6.7,0,12.1-5.4,12-12.1C280.6,201.4,280.6,200.3,280.7,200.4z"/>
</g>
<g>
	<path class="st0" d="M88.6,75.1c0,0-0.1,0-0.1,0c-0.5-0.1-0.9-0.6-0.9-1.1c0.5-3.7-0.1-6.5-1.8-8.5c-2.5-2.8-6.5-2.9-6.5-2.9
		c-0.6,0-1-0.5-1-1s0.4-1,1-1c0.2,0,4.9,0,8,3.5c2.1,2.4,2.9,5.8,2.3,10.1C89.5,74.7,89.1,75.1,88.6,75.1z"/>
</g>
<g>
	<path class="st0" d="M125.1,67.8c0,0-0.1,0-0.1,0c-0.5-0.1-0.9-0.5-0.9-1.1c0-0.1,0.2-2,2-3.2c1.5-1,3.6-1.2,6.3-0.4
		c0.5,0.2,0.8,0.7,0.7,1.2c-0.2,0.5-0.7,0.8-1.2,0.7c-2-0.6-3.6-0.5-4.6,0.1c-1,0.7-1.2,1.8-1.2,1.8
		C126.1,67.5,125.6,67.8,125.1,67.8z"/>
</g>
<g>
	<path class="st0" d="M150.4,65.8c-0.4,0-0.8-0.2-0.9-0.6c-0.3-0.6-0.6-1-1.1-1.2c-1.1-0.4-2.7,0.4-3.3,0.7
		c-0.5,0.3-1.1,0.1-1.4-0.3c-0.3-0.5-0.1-1.1,0.3-1.4c0.3-0.2,2.7-1.6,4.9-0.9c0.7,0.2,1.8,0.9,2.4,2.4c0.2,0.5,0,1.1-0.6,1.3
		C150.6,65.7,150.5,65.8,150.4,65.8z"/>
</g>
<g>
	<path class="st0" d="M125,56.7c-5,2-5.7,4.5-4.6,4.6c1.1,0.1,9.4-1.5,11.3-3.9C133.7,55,126.7,56,125,56.7z"/>
</g>
<g>
	<path class="st0" d="M144.9,54.3c0,0,2.8,7.2,8.5,7.3S149.6,53.2,144.9,54.3z"/>
</g>
<g>
	<path class="st0" d="M136.1,81.7c-2.6,0-4.5-2.2-4.6-2.3c-0.4-0.4-0.3-1.1,0.1-1.4c0.4-0.4,1-0.3,1.4,0.1c0,0,1.4,1.6,3.1,1.6
		c0,0,0,0,0,0c1,0,2-0.6,3-1.8c0.4-0.4,1-0.5,1.4-0.1c0.4,0.4,0.5,1,0.1,1.4C139.3,80.8,137.8,81.7,136.1,81.7
		C136.2,81.7,136.1,81.7,136.1,81.7z"/>
</g>
<g>
	<path class="st0" d="M138,75.3c-0.1,0-0.2,0-0.4-0.1c-0.5-0.2-0.8-0.8-0.6-1.3c0.4-1.1,1.5-1.1,2.3-1.1c0.4,0,0.8,0,1.3-0.1
		c0.3-1.2-1.3-6.2-2-8.4l-0.1-0.3c-1.2-3.8,0.6-5.8,1.7-6.4c0.5-0.2,1.1,0,1.3,0.5c0.2,0.5,0,1.1-0.5,1.3c-0.2,0.1-1.7,1-0.7,4
		l0.1,0.3c1.6,5,2.7,8.6,1.8,10.1c-0.3,0.4-0.7,0.7-1.1,0.8c-0.7,0.1-1.4,0.1-1.8,0.1c-0.2,0-0.4,0-0.5,0
		C138.6,75.1,138.3,75.3,138,75.3z"/>
</g>
<g>
	<path class="st0" d="M110.9,101.2c-0.2,0-0.4-0.1-0.6-0.2c-6.2-4.6-8.9-10.4-9.7-12.5l-2.8,0.3c-0.5,0.1-1-0.3-1.1-0.9
		c-0.1-0.5,0.3-1,0.9-1.1l4.4-0.5l0.2,0.8c0,0.1,2.2,7,9.3,12.2c0.4,0.3,0.5,1,0.2,1.4C111.5,101.1,111.2,101.2,110.9,101.2z"/>
</g>
<path class="st1" d="M22.4,214.3c0,0,34.3-90.2,59.2-88.4c25,1.8,26.1,17.7,26.1,17.7l-16.4,83.5l-74.2,0.7L22.4,214.3z"/>
<path class="st0" d="M15.6,228.8l5.9-14.9c1.4-3.8,34.9-90.9,60.2-89.1c13.3,0.9,19.9,5.9,23.2,9.9c3.6,4.4,3.9,8.6,3.9,8.8l0,0.1
	l0,0.1l-16.6,84.3L15.6,228.8z M80.8,126.8c-9.7,0-22.5,14.8-37.3,43c-11.5,22-20.1,44.5-20.2,44.8l0,0l-4.8,12.1l71.9-0.6
	l16.2-82.6c-0.2-1.5-2.3-15-25.2-16.7C81.3,126.8,81,126.8,80.8,126.8z"/>
<path class="st1" d="M37.5,227l39.8-60.6c0,0,20.8-29.3,32.4-35c11.5-5.8,41.4-18.4,41.4-18.4s1.6,5.8-2.7,8.6
	c-4.2,2.9-15.7,9.5-15.7,9.5s8.8,1.1,10,13.4c0.2,2.2-0.5,4.5-2.1,6.1l-2.8,3c0,0-5.3,7.4-11.3,2c0,0-7.4,12-18.4,11.8l-17.3,59.3
	L37.5,227z"/>
<path class="st0" d="M35.6,228l40.9-62.2c0.9-1.2,21.1-29.6,32.7-35.4c11.4-5.7,41.2-18.3,41.5-18.4l1.1-0.4l0.3,1.1
	c0.1,0.3,1.7,6.5-3.1,9.7c-3.2,2.2-10.4,6.4-13.8,8.4c2.9,1.3,7.7,4.7,8.5,13.5c0.3,2.5-0.6,5.1-2.4,6.9l-2.8,2.9
	c-0.4,0.5-3,3.9-6.8,4.3c-1.8,0.2-3.5-0.3-5.1-1.5c-2,2.8-8.6,11-17.8,11.4l-17.3,59.3L35.6,228z M150.4,114.4
	c-5.6,2.4-30.1,12.8-40.2,17.9c-11.2,5.6-31.8,34.4-32,34.7l-38.8,59l50.7-0.2l17.3-59.3l0.8,0c10.2,0.1,17.4-11.3,17.5-11.4l0.6-1
	l0.9,0.8c1.4,1.3,2.9,1.9,4.4,1.7c3.1-0.3,5.4-3.5,5.4-3.5l0.1-0.1l2.8-3c1.4-1.4,2-3.4,1.8-5.3c-1.1-11.3-8.8-12.4-9.1-12.5
	l-2.9-0.4l2.5-1.5c0.1-0.1,11.5-6.7,15.7-9.5C150.4,119.1,150.5,116.1,150.4,114.4z"/>
<g>
	<path class="st0" d="M94.7,172.2c-0.1,0-0.2,0-0.3,0c-0.5-0.2-0.8-0.7-0.7-1.2l1.3-4.6l0.5-0.2c0.1,0,13.2-4.2,14.6-13.7l0-0.2
		c0.4-1.1,1.3-2,2.8-2.6c2.1-0.9,5-1,6.5-0.3c0.5,0.2,0.7,0.8,0.4,1.3c-0.2,0.5-0.8,0.7-1.3,0.4c-0.9-0.4-3.1-0.4-4.8,0.3
		c-0.9,0.4-1.4,0.8-1.6,1.3c-1.5,9.6-12.8,14.1-15.5,15l-1.1,3.6C95.5,171.9,95.1,172.2,94.7,172.2z"/>
</g>
<g>
	<path class="st0" d="M119.2,158.4c-1,0-1.8-0.1-2.2-0.1c-3.8-0.3-4.8-4.2-4.8-6.2c0-0.6,0.4-1,1-1s1,0.4,1,1c0,0.2,0.1,3.9,3,4.2
		c4.1,0.4,7.7-0.4,8.2-1.7c1.4-3.6,1.4-6.5-0.1-8.6c-3.4-4.8-12.9-4.6-13-4.6c-0.5,0-1-0.4-1-1c0-0.6,0.4-1,1-1
		c0.4,0,10.7-0.3,14.7,5.4c1.9,2.7,2,6.2,0.3,10.5C126.3,158,122,158.4,119.2,158.4z"/>
</g>
<g>
	<path class="st0" d="M137,155.5c-0.6,0-1-0.4-1-1c0,0,0-5.1-2-12c-1.8-6.4-11.3-6.8-11.4-6.8c-0.6,0-1-0.5-1-1c0-0.6,0.5-1,1-1
		c0.4,0,11,0.5,13.2,8.3c2.1,7.2,2.1,12.3,2.1,12.5C138,155.1,137.5,155.5,137,155.5L137,155.5z"/>
</g>
<g>
	<path class="st0" d="M132.7,132.2C132.7,132.2,132.7,132.2,132.7,132.2l-7.5-0.6c-0.6,0-1-0.5-0.9-1.1c0-0.6,0.5-1,1.1-0.9l7.4,0.6
		c0.6,0,1,0.5,0.9,1.1C133.7,131.8,133.3,132.2,132.7,132.2z"/>
</g>
<path class="st1" d="M258.7,115.6c0,0-1.5,6.4,1,10l-8.5-3c0,0-2.5,7.6,3.2,12.7c0,0-3.6,6.8,1.8,11.8c0,0-2.3,6,0.1,8.4
	c2.4,2.3,9.6,4.8,9.6,4.8l0.1,8.5c0,0,11.9-6.4,7.6-16.8c0,0,4.3-3.8,0.1-10.3c0,0,3.7-3.3,0.5-9.2c0,0,2.7-4.3,1.2-6.7
	S258.7,115.6,258.7,115.6z"/>
<path class="st0" d="M265,170.5l-0.1-9.4c-1.9-0.7-7.1-2.8-9.3-4.8c-2.4-2.3-1.2-7-0.6-8.8c-4.2-4.4-2.6-9.9-1.8-11.8
	c-5.4-5.5-3-13-2.9-13.3l0.3-1l7.2,2.5c-1.2-3.8-0.1-8.3,0-8.5l0.3-1.2l1.1,0.6c2.6,1.3,15.5,7.9,17.1,10.5c1.5,2.4-0.2,5.9-0.9,7.3
	c2.3,4.7,0.5,8-0.5,9.3c3.1,5.4,0.9,9.1-0.2,10.4c3.9,10.8-8.1,17.4-8.3,17.5L265,170.5z M252,124c-0.4,2.1-0.9,7,3.2,10.7l0.6,0.5
	l-0.4,0.7c-0.1,0.2-3.2,6.2,1.6,10.6l0.5,0.5l-0.2,0.6c-0.5,1.4-1.7,5.8-0.1,7.3c1.9,1.8,7.3,3.9,9.2,4.6l0.7,0.2l0.1,7.4
	c1-0.7,2.4-1.9,3.7-3.4c2.9-3.5,3.6-7.3,2-11.3l-0.3-0.7l0.5-0.5c0.1-0.1,3.6-3.4-0.1-9l-0.5-0.7l0.6-0.6c0.1-0.1,3.1-2.9,0.3-8
	l-0.3-0.5l0.3-0.5c0.6-1,2.2-4.1,1.2-5.6c-0.9-1.5-9.3-6.1-15.1-9.1c-0.3,1.9-0.5,5.6,1.1,7.9l1.8,2.5L252,124z"/>
<g>
	<path class="st2" d="M218.5,122.4l-1,25.8L200,133.6c0,0-27.4-0.4-27.8,0l-17.5,14.6l-1-25.8c0,0,8-0.2,10.6-21.1
		c0.5-3.6,0.8-7.8,0.8-12.7c0.5-33.6,20.2-55.7,20.2-55.7h1.5c0,0,19.7,22.2,20.2,55.7c0.1,4.6,0.3,8.5,0.7,11.9
		C210.4,122.2,218.5,122.4,218.5,122.4z"/>
</g>
<path class="st0" d="M273.7,142.7c-0.1,0-0.2,0-0.3-0.1l-19.1-6.3c-0.5-0.2-0.8-0.7-0.6-1.3c0.2-0.5,0.7-0.8,1.3-0.6l19.1,6.3
	c0.5,0.2,0.8,0.7,0.6,1.3C274.5,142.4,274.1,142.7,273.7,142.7z"/>
<g>
	<path class="st0" d="M273.6,153c-0.1,0-0.2,0-0.3,0l-17.4-4.8c-0.5-0.1-0.8-0.7-0.7-1.2c0.1-0.5,0.7-0.8,1.2-0.7l17.4,4.8
		c0.5,0.1,0.8,0.7,0.7,1.2C274.4,152.7,274,153,273.6,153z"/>
</g>
<g>
	<path class="st0" d="M274.2,133.4c-0.1,0-0.3,0-0.4-0.1l-14.5-6.8c-0.5-0.2-0.7-0.8-0.5-1.3c0.2-0.5,0.8-0.7,1.3-0.5l14.5,6.8
		c0.5,0.2,0.7,0.8,0.5,1.3C275,133.2,274.6,133.4,274.2,133.4z"/>
</g>
<g>
	<path class="st0" d="M172.2,133.6l-17.5,14.6l-1-25.8c0,0,8-0.2,10.6-21.1C165.2,110.5,172.2,133.6,172.2,133.6z"/>
</g>
<g>
	<path class="st0" d="M218.5,122.4l-1,25.8L200,133.6c0,0,7.1-17.1,7.8-33.1C210.4,122.2,218.5,122.4,218.5,122.4z"/>
</g>
<g>
	<path class="st0" d="M180.4,109.4v37.2h10.2v-37.3C190.6,109.3,180.4,109.2,180.4,109.4z"/>
</g>
<g>
	<circle class="st1" cx="185.3" cy="75.2" r="8"/>
</g>
<g>
	<path class="st2" d="M237.2,190.1c0.1-0.5,0.2-1,0.2-1.5c0.9-9.5-7.6-18.1-19.1-19.2c-6.1-0.6-11.7,1.1-15.9,4.2
		c-0.3-7.1-4.8-13.1-11.2-15.5v-7.8h-11.4v7.6c-6.4,2.1-11.2,7.9-11.8,14.9c-2.8-1.5-6-2.6-9.5-2.9c-11.5-1.1-21.5,5.7-22.4,15.2
		c-0.2,1.7,0,3.3,0.4,4.9c-7.2,0.8-13.3,4.8-15.9,10.4h131.1C249.1,195.3,243.8,191.4,237.2,190.1z"/>
</g>
</svg>
