<?xml version="1.0" encoding="utf-8"?>
<!-- Generator: Adobe Illustrator 25.2.1, SVG Export Plug-In . SVG Version: 6.00 Build 0)  -->
<svg version="1.1" id="sv" xmlns="http://www.w3.org/2000/svg" xmlns:xlink="http://www.w3.org/1999/xlink" x="0px" y="0px"
	 viewBox="0 0 300 250" style="enable-background:new 0 0 300 250;" xml:space="preserve">
<style type="text/css">
	.st0{fill:#FFFFFF;}
	.st1{fill:#536278;}
	.st2{fill:#F50000;}
</style>
<g>
	<path class="st0" d="M105.4,228.9c0,0,3-31.6,20.7-42.8s0,0,0,0l85.8-0.2c0,0,10.4,28.2,12.2,44"/>
	<path class="st1" d="M223,230c-1.6-14.1-10.3-38.7-11.9-43.1l-84.8,0.2c-16.8,10.9-20,41.5-20,41.9l-2-0.2c0-0.3,0.8-8.1,3.8-17.4
		c2.8-8.6,8-20.2,17.4-26.1l7.9-4.9c0.5-0.3,1.1-0.2,1.4,0.3c0.1,0.2,0.2,0.3,0.2,0.5c0,0.3-0.2,0.7-0.5,0.8l-4.9,3.1l82.3-0.2
		c0,0,0,0,0,0c0.4,0,0.8,0.3,0.9,0.7c0.4,1.2,10.5,28.5,12.3,44.2L223,230z"/>
	<g>
		<path class="st2" d="M183.2,85.9c6.3,2.1,13.5,9.1,18.4,13.5c5.8,5.3,11.1,11.2,15.4,17.7c9.3,14.1,12.4,30.6,14.8,47.1
			c1.7,11.8,2.9,23.9,2.7,35.8c-0.2,10.5-8.2,18-16.7,22.9c-10.5,6-20.8,8.2-32.7,4.3c-7.6-2.5-14.6-6.9-19.7-13.1
			c-3-3.6-5.3-7.8-6.9-12.2c-0.5-1.4-3.9-16.8-2.9-16.8c0,0-29.6,0-29.6,0s2.1-15.7-4.8-20.3c-6.9-4.5-29.6-20.3-29.6-20.3
			c-0.3-0.2-3.6,1.2-4,1.3c-3.3,1-6.7,1.8-10.2,2.2c-11.1,1.5-20.6-1.3-24.4-12.6c-3.1-9.2-1.9-20.9,7.2-26.3
			c8.2-4.9,17.2-8.7,26-12.6c10.1-4.5,20.2-8.8,30.5-12.8c8.6-3.4,16.3-6.2,25.6-6.7c6.3-0.4,16.3-2.2,22.1,1.4
			C169.1,81.3,183.2,85.9,183.2,85.9z"/>
	</g>
	<g>
		
			<rect x="203.4" y="156" transform="matrix(0.9268 -0.3756 0.3756 0.9268 -51.8017 89.7922)" class="st0" width="2" height="43.5"/>
	</g>
	<g>
		<path class="st1" d="M208,38.9c0-0.2,0-0.3,0-0.4c0-9.4-7.6-17-17-17c-0.8,0-1.5,0.1-2.2,0.2c-2.4-1.5-5.2-2.3-8.1-2.3
			c-9,0-16.2,7.6-16.2,17s7.3,17,16.2,17c0.6,0,1.3,0,1.9-0.1c1.3,0.7,2.6,1.3,4,1.7c0,0.2,0,0.3,0,0.4c0,9.4,7.6,17,17,17
			s17-7.6,17-17C220.5,47.5,215.2,40.9,208,38.9z"/>
	</g>
	<path class="st0" d="M200.4,52.6c-2.7,0-5.1,1.3-6.6,3.4l-0.1-1.3c-18.1-1.6-11.8-28.1-11.8-28.1c-7.7-3.3-18.1,3.5-23.2,15.4
		s-3,24.1,4.7,27.5l-9.1,33.5l27,9.7l13.6-46.2c1.5,1.4,3.4,2.3,5.6,2.3c4.4,0,8-3.6,8-8C208.5,56.2,204.9,52.6,200.4,52.6z"/>
	<path class="st1" d="M181.9,113.9L153,103.5l9.1-33.6c-3.6-1.9-6.1-5.8-6.9-10.9c-0.9-5.4,0-11.6,2.6-17.5
		c5.3-12.3,16.3-19.4,24.5-15.9l0.8,0.3l-0.2,0.8c0,0.1-3.3,14.6,2.2,22.2c2,2.7,4.9,4.3,8.7,4.6l0.8,0.1c1.6-1.4,3.7-2.1,5.8-2.1
		c5,0,9,4.1,9,9s-4.1,9-9,9c-1.8,0-3.6-0.6-5.1-1.6L181.9,113.9z M155.5,102.3l25.1,9l13.7-46.8l1.2,1.2c1.3,1.3,3.1,2,4.9,2
		c3.9,0,7-3.2,7-7c0-3.9-3.2-7-7-7c-2.3,0-4.4,1.1-5.7,3l-1.6,2.2l-0.3-3.2c-4-0.5-7.2-2.3-9.3-5.4c-5.3-7.4-3.4-19.6-2.7-23
		c-7.1-2.4-16.4,4.2-21.2,15.1c-2.4,5.5-3.3,11.4-2.4,16.3c0.8,4.8,3.1,8.3,6.5,9.8l0.8,0.3L155.5,102.3z"/>
	<path class="st0" d="M145.2,160.5c2.3-0.6,4.5-1.3,6.7-2.2c24.6-10.2,36.2-38.4,26-63s-38.4-36.2-63-26
		c-15.9,6.6-26.3,20.7-29,36.5c-0.1,0.3-9.5,42.2-14.5,48.3l35.3,27.5C106.8,181.6,132.3,165.5,145.2,160.5z"/>
	<path class="st1" d="M106.7,182.8L70,154.2l0.6-0.8c3.8-4.7,11-33.4,14.3-47.9c2.8-16.7,13.9-30.7,29.6-37.2
		c12.1-5,25.5-5.1,37.6,0c12.1,5,21.6,14.5,26.6,26.6c10.4,25-1.5,53.9-26.5,64.3c-2.2,0.9-4.5,1.7-6.8,2.3
		c-12.7,4.9-37.9,20.8-38.2,21L106.7,182.8z M72.8,153.9l34.1,26.5c4-2.5,26.1-16.2,38-20.8l0.1,0c2.2-0.6,4.5-1.3,6.6-2.2
		c24-10,35.4-37.6,25.5-61.7C172.1,84,163.1,75,151.4,70.2c-11.6-4.8-24.5-4.8-36.1,0c-15.1,6.3-25.7,19.6-28.4,35.7
		C85.9,110.2,77.8,145.7,72.8,153.9z"/>
	<g>
		<g>
			<path class="st1" d="M68,199.7l-4.2-3.2c-9.3-7.2-11.1-20.5-4-29.9l11.5-15l38,29.1l-11.5,15C90.8,205.1,77.4,206.9,68,199.7z"/>
		</g>
	</g>
	<g>
		<g>
			<path class="st1" d="M85.7,163.4c-0.2-0.5-0.1-1.1,0.3-1.6c6.2-6.6,12.4-13.6,17.3-19.8c0.5-0.7,1.1-1.3,1.6-2
				c1.5-1.8,3.1-3.8,4.5-5.8c-2.7-1.8-5.2-4-7-6.8c-3.5-5.3-2.5-12.6,2.2-16.6c1.9-1.6,3.9-2.1,5.7-1.5c1.4,0.5,2.3,1.8,2.9,2.8
				c2.9,4.9,3.7,11.1,2.2,16.7c-0.4,1.6-1.1,3.1-1.9,4.5c1.7,1,3.5,1.8,5.1,2.5c0.4,0.2,0.8,0.4,1.2,0.5c1.3-1.7,2.2-3,2.7-3.7
				l0.8-1.1c2.8-4.2,4.7-6.9,10.9-9.7c4.5-2.1,11-1.1,14.3,2.2c2.4,2.3,2.9,5.3,1.6,8.5c-1.4,3.3-4.4,6-8.6,7.6
				c-5.9,2.3-13.4,2.2-20.7-0.3c-7.6,10.2-22.9,30.3-23.7,31.3c-0.5,0.6-1.4,0.8-2,0.3c-0.6-0.5-0.8-1.4-0.3-2
				c0.2-0.2,15.3-20.1,23.2-30.6c-0.2-0.1-0.4-0.2-0.6-0.3c-1.7-0.8-3.6-1.7-5.4-2.7c-1.4,2.2-3.1,4.2-4.7,6.1
				c-0.5,0.7-1.1,1.3-1.6,2c-5,6.3-11.2,13.4-17.5,20c-0.5,0.6-1.5,0.6-2,0.1C85.9,163.7,85.8,163.6,85.7,163.4z M111.7,115.8
				c-0.3-0.8-0.7-1.5-1.1-2.2c-0.4-0.6-0.8-1.3-1.4-1.5c-0.8-0.3-1.9,0.3-2.7,1c-3.5,3-4.3,8.8-1.6,12.8c1.5,2.4,3.7,4.3,6.1,5.9
				c0.7-1.2,1.2-2.5,1.6-3.7C113.6,124,113.3,119.6,111.7,115.8z M147.5,127.6c-0.2-0.6-0.6-1.1-1.1-1.6c-2.5-2.4-7.7-3.2-11.1-1.6
				c-5.4,2.5-7,4.7-9.7,8.7l-0.8,1.2c-0.4,0.6-1.2,1.7-2.2,3.1c6.3,1.9,12.7,2,17.8,0c3.4-1.3,5.9-3.5,7-6
				C147.9,130,147.9,128.7,147.5,127.6z"/>
		</g>
	</g>
	<g>
		<path class="st1" d="M196.2,61.4c-0.1,0-0.1,0-0.2,0c-0.5-0.1-0.9-0.6-0.8-1.2c0-0.1,0.5-2.1,2.4-3.2c1.5-0.9,3.5-1,5.9-0.3
			c0.5,0.2,0.8,0.7,0.7,1.2c-0.2,0.5-0.7,0.8-1.2,0.7c-1.8-0.5-3.3-0.5-4.3,0.1c-1.2,0.7-1.5,1.9-1.5,1.9
			C197.1,61.1,196.7,61.4,196.2,61.4z"/>
	</g>
	<g>
		<path class="st1" d="M166.3,49.2c-0.2,0-0.4-0.1-0.6-0.2c-0.2-0.1-1.7-1.2-1.6-2.8c0-1.1,0.7-2,2.1-2.7c2.7-1.5,2.4-5.4,2.4-5.4
			c0-0.6,0.4-1,0.9-1.1c0.6,0,1,0.4,1.1,0.9c0,0.2,0.4,5.2-3.4,7.4c-0.7,0.4-1.1,0.8-1.1,1.1c0,0.4,0.5,0.9,0.7,1
			c0.5,0.3,0.6,0.9,0.3,1.4C166.9,49.1,166.6,49.2,166.3,49.2z"/>
	</g>
	<g>
		<path class="st1" d="M167.1,54.2c-3.6,0-5.5-2.1-6-3.4c-0.2-0.5,0.1-1.1,0.6-1.3c0.5-0.2,1.1,0.1,1.3,0.6c0.1,0.1,1.3,3,6.2,1.9
			c0.5-0.1,1.1,0.2,1.2,0.8c0.1,0.5-0.2,1.1-0.8,1.2C168.7,54.1,167.8,54.2,167.1,54.2z"/>
	</g>
	<g>
		<path class="st1" d="M171,72.2c-2.4,0-5.1-0.5-7.8-1.7c-0.5-0.2-0.7-0.8-0.5-1.3c0.2-0.5,0.8-0.7,1.3-0.5
			c11.3,5,21.1-4.2,21.2-4.3c0.4-0.4,1-0.4,1.4,0c0.4,0.4,0.4,1,0,1.4C186.6,66,180,72.2,171,72.2z"/>
	</g>
	<g>
		
			<ellipse transform="matrix(0.2238 -0.9746 0.9746 0.2238 93.6873 188.7791)" class="st1" cx="165.4" cy="35.6" rx="1.1" ry="2.6"/>
	</g>
	<g>
		
			<ellipse transform="matrix(0.4597 -0.8881 0.8881 0.4597 59.8921 181.8062)" class="st1" cx="179.4" cy="41.7" rx="1.4" ry="3.6"/>
	</g>
	<g>
		<path class="st1" d="M177.6,48.5c-0.5,0-0.9-0.3-1-0.8c-0.5-2.4-3.8-2-3.9-2c-0.6,0.1-1-0.3-1.1-0.9c-0.1-0.5,0.3-1,0.9-1.1
			c1.8-0.2,5.4,0.3,6.1,3.6c0.1,0.5-0.2,1.1-0.8,1.2C177.7,48.5,177.6,48.5,177.6,48.5z"/>
	</g>
	<g>
		<path class="st1" d="M160.3,40.3c-0.2,0-0.4-0.1-0.6-0.2c-0.4-0.4-0.5-1-0.1-1.4c1.9-2.2,5.8-0.5,6.2-0.3c0.5,0.2,0.7,0.8,0.5,1.3
			c-0.2,0.5-0.8,0.7-1.3,0.5c-1-0.4-3.2-1.1-3.8-0.3C160.9,40.1,160.6,40.3,160.3,40.3z"/>
	</g>
	<g>
		<path class="st1" d="M194.9,67.5c-0.2,0-0.4-0.1-0.6-0.2c-1.6-1.1-2.8-4.7-3-5.5c-0.2-0.5,0.1-1.1,0.6-1.3
			c0.5-0.2,1.1,0.1,1.3,0.6c0.5,1.5,1.5,3.9,2.3,4.4c0.4,0.3,0.6,0.9,0.2,1.4C195.5,67.3,195.2,67.5,194.9,67.5z"/>
	</g>
	<path class="st0" d="M149.5,99.6c0,0-5.1,1.8-2.2,7.8c2.9,6,10.2,8.9,10.2,19.6s-1.1,20.7,5.6,25.8c0,0-0.2,18.2-3.1,25.8
		c0,0,24.9,3.8,36.2-21.1l-9.3-20.2c0,0,2.5-19.8-5.1-34.5s-15.6-21.6-20.2-16.5c0,0-4.5-2.5-6.5-1.1c-2,1.5-2.5,4.1-1.8,6
		c0,0-3.7-1.8-5.6,0.9C145.8,94.8,149.5,99.6,149.5,99.6z"/>
	<path class="st1" d="M163.5,179.9c-2.2,0-3.5-0.2-3.6-0.2l-1.2-0.2l0.4-1.2c2.5-6.7,3-22,3-25c-5.9-4.8-5.8-13.3-5.7-22.3
		c0-1.3,0-2.6,0-3.9c0-6.8-3-10.2-6-13.6c-1.6-1.8-3.1-3.5-4.1-5.6c-1.1-2.3-1.3-4.3-0.6-6c0.5-1.3,1.5-2.1,2.2-2.6
		c-1.1-1.7-2.9-5.3-1.1-7.7c1.4-1.9,3.5-2.1,5.2-1.7c-0.1-1.9,0.7-4,2.5-5.4c2-1.4,5.4-0.1,6.9,0.7c1.3-1.1,2.8-1.6,4.4-1.4
		c4.9,0.6,10.9,7.3,16.8,18.7c7.3,14,5.5,32.2,5.2,34.8l9.3,20.3l-0.2,0.4C188.3,177.6,170.9,179.9,163.5,179.9z M161.4,177.8
		c5,0.4,24.1,0.5,33.7-20.2l-9.2-20l0-0.3c0-0.2,2.4-19.7-5-33.9c-5.5-10.5-11.2-17.1-15.3-17.6c-1.3-0.2-2.3,0.3-3.2,1.3l-0.5,0.6
		l-0.7-0.4c-1.3-0.7-4.3-2-5.4-1.1c-1.6,1.2-2,3.3-1.5,4.9l0.7,2.2l-2.1-1c-0.1-0.1-2.9-1.4-4.4,0.6c-1.2,1.7,0.9,5.2,1.7,6.3
		l0.8,1.1l-1.3,0.5c-0.1,0-1.6,0.6-2.2,2.1c-0.5,1.2-0.3,2.6,0.5,4.3c0.9,1.9,2.3,3.5,3.8,5.2c3,3.5,6.5,7.4,6.5,14.9
		c0,1.3,0,2.7,0,4c-0.1,9.1-0.2,16.9,5.3,21l0.4,0.3l0,0.5C164.1,153.6,164,169.6,161.4,177.8z"/>
	<path class="st0" d="M87.4,97.4c0,0,2-26,19-35c8.7-4,14.9-1,16,1c1,2.1,1,4.5-7.7,6.6c0,0,4.7,4.3-0.8,6.8c0,0,2.5,3.9-2.3,5.8
		c-4.9,1.8-9.9,0.5-9.9,0.5s5.2,1.4,5.5,3.5c0.3,2.2-3.4,2.9-7.6,3c-4.2,0.1-4.5-0.4-4.9,0s-1.4,3-2.8,3.7
		C90.3,93.9,87.4,97.4,87.4,97.4z"/>
	<path class="st1" d="M86.1,100.4l0.2-3.1c0-0.3,0.5-6.7,3.2-14.4c3.5-10.2,9.2-17.6,16.3-21.5c9-4.2,15.9-1.3,17.3,1.5
		c0.4,0.8,0.9,2.1,0.3,3.5c-0.8,1.7-3.1,3-7.1,4.1c0.6,0.9,1.3,2.2,1,3.6c-0.2,1.2-1,2.3-2.3,3.1c0.3,0.8,0.5,1.9,0.1,3.1
		c-0.5,1.4-1.6,2.4-3.4,3.1c-1.7,0.6-3.4,0.9-4.9,1c0.6,0.5,1,1.2,1.1,1.9c0.1,0.8-0.1,1.5-0.6,2c-1.1,1.3-3.7,2-8,2.1
		c-2.2,0-3.4-0.1-4-0.1c-0.1,0-0.2,0-0.2,0c-0.1,0.1-0.2,0.3-0.2,0.4c-0.6,1-1.4,2.6-2.7,3.3c-0.9,0.5-3,2.7-4,3.9L86.1,100.4z
		 M114.6,61.4c-2.2,0-4.9,0.5-7.9,1.9c-12.9,6.8-16.9,24.1-18,31.1c0.9-0.9,1.8-1.7,2.5-2.1c0.7-0.4,1.4-1.7,1.9-2.4
		c0.3-0.5,0.4-0.8,0.7-1c0.5-0.5,1.1-0.5,1.8-0.4c0.6,0.1,1.7,0.2,3.8,0.1c5-0.1,6.2-1.1,6.5-1.3c0.1-0.1,0.2-0.3,0.1-0.5
		c-0.1-0.9-2.5-2.1-4.7-2.7c0,0,0,0-0.1,0l0.5-1.9c0,0,0,0,0,0c0.3,0.1,5,1.2,9.3-0.4c1.2-0.5,2-1.1,2.2-1.9
		c0.4-1.2-0.4-2.4-0.4-2.4l-0.6-1l1-0.5c1.3-0.6,2-1.3,2.1-2c0.2-1.2-1-2.7-1.5-3.1l-1.4-1.3l1.8-0.4c5.3-1.3,6.9-2.5,7.3-3.4
		c0.2-0.5,0.1-1-0.2-1.8C120.9,62.8,118.4,61.4,114.6,61.4z"/>
	<g>
		<path class="st1" d="M177,111.6c-0.4,0-0.7-0.2-0.9-0.6c-2.9-5.9-11.1-21.6-14.9-23.9c-0.5-0.3-0.6-0.9-0.4-1.4
			c0.3-0.5,0.9-0.6,1.4-0.4c5,3,14.6,22.5,15.7,24.7c0.2,0.5,0,1.1-0.5,1.3C177.3,111.6,177.2,111.6,177,111.6z"/>
	</g>
	<g>
		<path class="st1" d="M170.5,116.7c-0.4,0-0.7-0.2-0.9-0.6c-0.1-0.2-9.7-19.4-16.7-24.1c-0.5-0.3-0.6-0.9-0.3-1.4
			c0.3-0.5,0.9-0.6,1.4-0.3c7.4,4.9,17,24,17.4,24.8c0.2,0.5,0,1.1-0.4,1.3C170.8,116.7,170.6,116.7,170.5,116.7z"/>
	</g>
	<g>
		<path class="st1" d="M163.2,121.2c-0.4,0-0.8-0.2-0.9-0.6c-0.1-0.1-6.3-14.3-13.4-20.2c-0.4-0.4-0.5-1-0.1-1.4
			c0.4-0.4,1-0.5,1.4-0.1c7.5,6.3,13.7,20.4,14,21c0.2,0.5,0,1.1-0.5,1.3C163.5,121.2,163.3,121.2,163.2,121.2z"/>
	</g>
	<g>
		<path class="st1" d="M102.3,84.2c-0.1,0-0.2,0-0.2,0c-1.2-0.3-5.5-0.3-8.1-0.2c-0.5,0-1-0.4-1-1c0-0.6,0.4-1,1-1
			c0.7,0,6.8-0.2,8.7,0.2c0.5,0.1,0.9,0.7,0.7,1.2C103.2,83.9,102.8,84.2,102.3,84.2z"/>
	</g>
	<g>
		<path class="st1" d="M113.7,77.8c-0.2,0-0.5-0.1-0.7-0.3c-2.3-2-11.7-1.9-17.1-1.4c-0.6,0-1-0.4-1.1-0.9c-0.1-0.5,0.4-1,0.9-1.1
			c1.5-0.1,14.9-1.3,18.6,1.9c0.4,0.4,0.5,1,0.1,1.4C114.3,77.7,114,77.8,113.7,77.8z"/>
	</g>
	<g>
		<path class="st1" d="M114.5,71c-0.1,0-0.2,0-0.4-0.1c-2.7-1-10.4-3.5-13.4-2.4c-0.5,0.2-1.1-0.1-1.3-0.6c-0.2-0.5,0.1-1.1,0.6-1.3
			c4.2-1.5,13.7,2,14.8,2.4c0.5,0.2,0.8,0.8,0.6,1.3C115.3,70.8,114.9,71,114.5,71z"/>
	</g>
</g>
</svg>
