<?xml version="1.0" encoding="utf-8"?>
<!-- Generator: Adobe Illustrator 25.2.1, SVG Export Plug-In . SVG Version: 6.00 Build 0)  -->
<svg version="1.1" id="sv" xmlns="http://www.w3.org/2000/svg" xmlns:xlink="http://www.w3.org/1999/xlink" x="0px" y="0px"
	 viewBox="0 0 300 250" style="enable-background:new 0 0 300 250;" xml:space="preserve">
<style type="text/css">
	.st0{fill:#536278;}
	.st1{fill:#FFFFFF;}
	.st2{fill:#F50000;}
</style>
<g>
	<g>
		<path class="st0" d="M19.3,229c0,0-5.2-42.5,27.8-50.9c24.3-7.7,30.5-9.8,30.5-9.8S92.6,168,98,182s19.4,47.5,19.4,47.5L19.3,229z
			"/>
	</g>
	<g>
		<path class="st0" d="M75.3,114.9c0-4.2-2.6-7.6-5.8-7.6c-0.8,0-1.5,0.2-2.2,0.6c-1-4-4.6-7-8.9-7c-3.1,0-5.9,1.6-7.6,4
			c-0.4,0-0.9,0-1.3,0c-13.4,0-24.3,10.9-24.3,24.3c0,13.4,10.9,24.3,24.3,24.3c13.4,0,24.3-10.9,24.3-24.3c0-2.7-0.4-5.3-1.3-7.7
			C74.2,120,75.3,117.6,75.3,114.9z"/>
	</g>
	<path class="st1" d="M41.4,183l5.7-4.8v-31.4c0,0-6.1-1-5.8-6s3-5.8,6.5-5.5s7.2-6.6,5.2-12h-2.7c0,0-0.6-9.2,14.3-8.3
		c4,1,8.5,4.4,11.3,10c0,0,4.9,0.2,5.8,1.8c0.8,1.6-3,3.2-2.4,4.6c0.5,1.4,5,6.6,4.4,14.8c-0.7,8.3-11.1,12.7-11.1,12.7l-0.1,11.9
		c0,0,8.4,2.9,9.6,11.9c1.3,9-6.2,13.3-9.4,14.1C61.9,199.2,45.8,195.5,41.4,183z"/>
	<path class="st0" d="M66.2,198.4c-9.9,0-21.9-4.1-25.7-15.2l-0.2-0.7l5.9-5v-30.1c-2.5-0.7-6-2.7-5.8-6.8c0.1-2.4,0.8-4.1,2-5.1
		c1.6-1.4,3.8-1.5,5.5-1.3c0.9,0.1,1.8-0.6,2.7-1.8c1.4-1.9,2.5-5.2,1.7-8.3h-2.9l-0.1-0.9c0-0.1-0.2-3.3,2.5-6
		c2.6-2.6,7-3.8,12.9-3.4l0.2,0c4.7,1.2,9,4.9,11.7,10c1.7,0.1,5.1,0.6,6,2.4c0.8,1.5-0.5,2.8-1.4,3.7c-0.3,0.3-0.9,0.9-0.9,1.1
		c0.1,0.1,0.3,0.5,0.6,1c1.4,2.3,4.4,7.2,3.8,14.2c-0.6,7.7-8.8,12.1-11.1,13.3l-0.1,10.6c2.1,0.9,8.5,4.4,9.6,12.5
		c1.3,9.5-6.3,14.3-10.1,15.2C70.9,198.2,68.6,198.4,66.2,198.4z M42.6,183.3c3,7.3,14.2,16,29.9,12.5c2.1-0.5,9.8-4.1,8.6-12.9
		c-1.2-8.3-8.6-11-9-11.1l-0.7-0.2l0.1-13.3l0.6-0.3c0.1,0,9.9-4.3,10.5-11.9c0.5-6.3-2.2-10.8-3.5-13c-0.4-0.6-0.6-1.1-0.8-1.4
		c-0.5-1.3,0.6-2.3,1.4-3.1c0.3-0.3,1.2-1.1,1.1-1.3c-0.3-0.6-2.6-1.2-4.9-1.3l-0.6,0l-0.3-0.5c-2.4-4.8-6.3-8.4-10.6-9.5
		c-5.3-0.3-9.1,0.6-11.2,2.8c-1.3,1.2-1.7,2.6-1.8,3.5h2.4l0.2,0.7c1.4,3.9,0.1,8.4-1.8,10.8c-1.3,1.7-2.9,2.6-4.4,2.5
		c-2-0.1-3.3,0.1-4.1,0.8c-0.8,0.7-1.2,1.9-1.3,3.8c-0.2,4,4.7,4.9,5,4.9l0.8,0.1l0,0.9v31.9L42.6,183.3z"/>
	<g>
		<path class="st0" d="M267.5,160.7c2.3-3.2,2.9-7.5,2.9-11.8c0-13.6-10.7-24.6-23.8-24.6c-2.7,0-5.2,0.5-7.6,1.3
			c-3.1-5.7-9.5-9.5-16.8-9.5c-10.5,0-19,7.9-19,17.6c0,2.4,0.5,4.7,1.5,6.8c2,4.4,5.9,7.9,10.7,9.6l0.7,40.8
			c0,0-31.2-2.5-29.7,28.4l52.6,10.9c0,0,37.3,0.2,41.5-7.6c4.2-7.7-14.7-17.4-13.6-25.3C267.8,189.4,265.6,163.3,267.5,160.7z"/>
	</g>
	<g>
		<path class="st0" d="M65.1,129c-0.4,0-0.8-0.2-0.9-0.6c0-0.1-1-2.6,0.2-4.7c0.8-1.5,2.4-2.4,4.7-2.8c0.5-0.1,1.1,0.3,1.2,0.8
			c0.1,0.5-0.3,1.1-0.8,1.2c-1.6,0.3-2.7,0.9-3.2,1.8c-0.8,1.3-0.1,3-0.1,3c0.2,0.5-0.1,1.1-0.6,1.3C65.4,129,65.2,129,65.1,129z"/>
	</g>
	<g>
		<path class="st0" d="M71.9,128.6h-3.1l0.2-3.4c0-0.6,0.5-1,1-1c0.6,0,1,0.5,1,1l-0.1,1.4h1c0.6,0,1,0.4,1,1
			C72.9,128.1,72.4,128.6,71.9,128.6z"/>
	</g>
	<g>
		<path class="st0" d="M73.7,136.1c-1.5,0-3.2-0.3-4.4-1.3c-0.4-0.4-0.5-1-0.1-1.4c0.4-0.4,1-0.5,1.4-0.1c1.6,1.4,5.2,0.7,6.5,0.4
			c0.5-0.2,1.1,0.1,1.2,0.7s-0.1,1.1-0.7,1.2C77.5,135.6,75.7,136.1,73.7,136.1z"/>
	</g>
	<g>
		<path class="st0" d="M48.4,144.4c0,0-0.1,0-0.1,0c-0.5-0.1-0.9-0.6-0.8-1.1c0,0,0.2-1.5,0.1-2.7c-0.3-0.2-1.5-0.4-2.5-0.4
			c-0.6,0-1-0.4-1-1s0.4-1,1-1c1,0,4.4,0,4.6,2.2c0.1,1.5-0.1,3.1-0.1,3.2C49.4,144.1,48.9,144.4,48.4,144.4z"/>
	</g>
	<g>
		<path class="st0" d="M69.5,160.1c-10.5,0-13.8-6.2-14.7-8.8l-1.4,0.5c-0.5,0.2-1.1-0.1-1.3-0.6c-0.2-0.5,0.1-1.1,0.6-1.3l3.5-1.4
			l0.2,1.2c0.1,0.4,1.8,9.6,15.9,8.1c0.5-0.1,1,0.3,1.1,0.9c0.1,0.5-0.3,1-0.9,1.1C71.5,160,70.5,160.1,69.5,160.1z"/>
	</g>
	<g>
		<path class="st0" d="M31.1,117.5c-0.2,0-0.4-0.1-0.6-0.2c-0.8-0.6-3.1-1.8-4.5-1c-0.5,0.3-1.1,0.1-1.4-0.3
			c-0.3-0.5-0.1-1.1,0.3-1.4c2.9-1.8,6.6,0.9,6.8,1c0.4,0.3,0.5,1,0.2,1.4C31.7,117.3,31.4,117.5,31.1,117.5z"/>
	</g>
	<g>
		<rect x="56.7" y="214.8" class="st1" width="2" height="14.8"/>
	</g>
	<path class="st1" d="M218.8,130.1c0,0-9.9,4.6-13.4,12.9c-3.5,8.3-9.4,14.8-11.2,15.3c-1.8,0.5,0.4,3.5,0.4,3.5
		s-1.4,24.3,21.2,22.7l0.4,6.6c0,0,10.3-4.8,10.5-15.4c0.3-10.7-8.5-12.9-9.4-15.6c-0.9-2.6-4.9-7.8,2.5-14c7.4-6.3,8.5-7.8,7.7-8.5
		C226.6,136.8,218.8,130.1,218.8,130.1z"/>
	<path class="st0" d="M215.2,192.7l-0.4-7.1c-6.2,0.2-11.2-1.4-14.8-5c-6.4-6.3-6.5-16.4-6.4-18.4c-0.5-0.8-1.4-2.4-0.9-3.6
		c0.2-0.6,0.7-1,1.3-1.2c1.2-0.3,6.9-6.3,10.5-14.7c3.6-8.5,13.5-13.2,13.9-13.4l0.6-0.3l0.5,0.4c0,0,7.8,6.8,8.6,7.5
		c0.5,0.4,0.6,0.9,0.6,1.3c0,1.3-1.3,2.8-8.3,8.8c-5.8,4.9-4,8.8-2.8,11.6c0.2,0.5,0.4,1,0.6,1.4c0.2,0.5,1.1,1.2,2.1,2
		c3,2.3,7.5,5.9,7.4,13.9c-0.3,11.2-10.7,16.1-11.1,16.3L215.2,192.7z M216.7,183.4l0.3,6.1c2.7-1.7,8.4-6.2,8.6-13.8
		c0.2-7-3.7-10-6.6-12.3c-1.3-1.1-2.4-1.9-2.8-3c-0.1-0.3-0.3-0.7-0.5-1.2c-1.3-2.8-3.6-8.1,3.3-13.9c1.9-1.6,6.9-5.9,7.5-7.1
		c-1.1-1-6.4-5.5-8-7c-2.1,1.1-9.5,5.4-12.4,12.1c-3.4,8.1-9.5,15.2-11.8,15.9c0,0.4,0.4,1.3,0.9,2l0.2,0.3l0,0.3
		c0,0.1-0.5,11,5.8,17.3c3.4,3.3,8.2,4.8,14.3,4.4L216.7,183.4z"/>
	<g>
		<path class="st0" d="M213.6,149.1c-0.5,0-0.9-0.3-1-0.8c-0.3-1.8-1.1-3-2.3-3.8c-2.7-1.6-6.8-0.4-6.8-0.4
			c-0.5,0.2-1.1-0.1-1.3-0.6c-0.2-0.5,0.1-1.1,0.6-1.3c0.2-0.1,5-1.6,8.5,0.5c1.7,1,2.8,2.8,3.2,5.1c0.1,0.5-0.3,1.1-0.8,1.2
			C213.7,149.1,213.7,149.1,213.6,149.1z"/>
	</g>
	<g>
		<path class="st0" d="M200,172.8c-0.5,0-0.9-0.4-1-0.8c-0.1-0.5,0.3-1.1,0.8-1.1c4-0.6,5.1-3.8,5.1-3.9c0.2-0.5,0.7-0.8,1.2-0.7
			c0.5,0.2,0.8,0.7,0.7,1.2c-0.1,0.2-1.4,4.5-6.7,5.4C200.1,172.8,200,172.8,200,172.8z"/>
	</g>
	<g>
		<ellipse class="st0" cx="206.7" cy="153.1" rx="1.9" ry="2.1"/>
	</g>
	<g>
		<path class="st1" d="M232.3,154.8c0,0,9.4,1.3,9.8,7.8c0.4,6.5-6,8.2-6,8.2s0.8-4.5-0.8-7S230.6,158.4,232.3,154.8z"/>
	</g>
	<g>
		<path class="st2" d="M228.2,202.1c0,0-54.6,17.2-62.4,28H240C240,230.1,223.1,216.6,228.2,202.1z"/>
	</g>
	<g>
		<path class="st0" d="M176.7,146.8c3.6-6.6,5.6-14.1,5.6-22.1c0-25.6-20.7-46.3-46.3-46.3S89.7,99,89.7,124.6s20.7,46.3,46.3,46.3
			c9.7,0,18.6-3,26.1-8l20.3,6.8L176.7,146.8z"/>
	</g>
	<g>
		<path class="st2" d="M137.9,42.4H91.8c-1.3,0-2.3,1-2.3,2.3v37.5c0,1.3,1,2.3,2.3,2.3h20.3l11.5,11.1c1.5,1.4,3.9,0.4,3.9-1.7
			v-9.5h10.4c1.3,0,2.3-1,2.3-2.3V44.8C140.3,43.5,139.2,42.4,137.9,42.4z"/>
	</g>
	<path class="st1" d="M231.2,20.8h-74c-3.3,0-6,2.7-6,6v59c0,3.3,2.7,6,6,6h12.3v12.6c0,2.2,2.6,3.4,4.2,1.9l15.9-14.4h41.5
		c3.3,0,6-2.7,6-6v-59C237.2,23.5,234.5,20.8,231.2,20.8z"/>
	<path class="st0" d="M172,107.9c-0.5,0-1-0.1-1.4-0.3c-1.3-0.6-2.1-1.8-2.1-3.2V92.8h-11.3c-3.9,0-7-3.1-7-7v-59c0-3.9,3.1-7,7-7
		h74c3.9,0,7,3.1,7,7v59c0,3.9-3.1,7-7,7H190L174.4,107C173.7,107.6,172.9,107.9,172,107.9z M157.2,21.8c-2.8,0-5,2.2-5,5v59
		c0,2.8,2.2,5,5,5h13.3v13.6c0,0.6,0.3,1.1,0.9,1.4s1.2,0.2,1.7-0.3l16.2-14.7h41.9c2.8,0,5-2.2,5-5v-59c0-2.8-2.2-5-5-5H157.2z"/>
</g>
</svg>
