<?xml version="1.0" encoding="utf-8"?>
<!-- Generator: Adobe Illustrator 25.2.1, SVG Export Plug-In . SVG Version: 6.00 Build 0)  -->
<svg version="1.1" id="sv" xmlns="http://www.w3.org/2000/svg" xmlns:xlink="http://www.w3.org/1999/xlink" x="0px" y="0px"
	 viewBox="0 0 300 250" style="enable-background:new 0 0 300 250;" xml:space="preserve">
<style type="text/css">
	.st0{fill:#FFFFFF;}
	.st1{fill:#536278;}
	.st2{fill:#0084BF;}
</style>
<polygon class="st0" points="138.6,41.9 138.6,155.6 36.8,155.6 36.8,19.5 116.2,19.5 "/>
<path class="st1" d="M139.6,156.6H35.8V18.5h80.9l23,23V156.6z M37.8,154.6h99.8V42.3l-21.8-21.8h-78V154.6z"/>
<g>
	<g>
		<path class="st2" d="M116.4,41.9l0.2-23.4l23,23C139.6,41.5,116.7,42.2,116.4,41.9z"/>
	</g>
</g>
<g>
	<path class="st1" d="M68,140.7c-0.6,0-1-0.4-1-1v-20.6c0-0.2,0-0.5-0.1-0.8c-0.2-2.7-0.8-8.9,7.4-16.5c1-0.9,2-1.8,3.1-2.8
		c8.3-7.5,18.5-16.9,18.5-23.9v-23c0-0.6,0.4-1,1-1s1,0.4,1,1v23c0,7.8-10.2,17.1-19.2,25.4c-1,1-2.1,1.9-3,2.8
		c-7.5,7-7,12.3-6.8,14.9c0,0.4,0.1,0.7,0.1,1v20.6C69,140.3,68.5,140.7,68,140.7z"/>
</g>
<g>
	<path class="st1" d="M108,65c-0.3,0-0.5-0.1-0.7-0.3L96.2,52.8c-0.4-0.4-0.4-1,0-1.4c0.4-0.4,1-0.4,1.4,0l11.1,11.9
		c0.4,0.4,0.4,1,0,1.4C108.5,64.9,108.3,65,108,65z"/>
</g>
<g>
	<path class="st1" d="M85.7,65c-0.2,0-0.5-0.1-0.7-0.3c-0.4-0.4-0.4-1,0-1.4l11.1-11.9c0.4-0.4,1-0.4,1.4,0c0.4,0.4,0.4,1,0,1.4
		L86.4,64.7C86.2,64.9,86,65,85.7,65z"/>
</g>
<g>
	<path class="st1" d="M50.5,59.5c-0.2,0-0.5-0.1-0.7-0.3c-0.4-0.4-0.4-1,0-1.4L67,39.9c0.4-0.4,1-0.4,1.4,0c0.4,0.4,0.4,1,0,1.4
		L51.3,59.2C51.1,59.4,50.8,59.5,50.5,59.5z"/>
</g>
<g>
	<path class="st1" d="M67.3,58.9c-0.2,0-0.5-0.1-0.7-0.3l-17.9-17c-0.4-0.4-0.4-1,0-1.4c0.4-0.4,1-0.4,1.4,0l17.9,17
		c0.4,0.4,0.4,1,0,1.4C67.9,58.8,67.6,58.9,67.3,58.9z"/>
</g>
<g>
	<g>
		<circle class="st2" cx="104.7" cy="124.5" r="9.7"/>
	</g>
</g>
<path class="st1" d="M230.9,79.7c-3,0-5.8,0.5-8.4,1.5c-1.7-0.9-3.7-1.4-5.8-1.4c-5.3,0-9.8,3.2-11.8,7.8c-3,2.6-4.9,6.4-4.9,10.7
	c0,4.8,2.4,9,6,11.5c2,12.2,12.4,21.5,25,21.5c14,0,25.3-11.5,25.3-25.8S244.9,79.7,230.9,79.7z"/>
<g>
	<path class="st1" d="M243.9,85.7c0,0,2.7-3.2,1.5-4.6s1.7,1,1.5,3.1c0,0,1.7-0.3,3.2,0.5c0,0-4.4,0.9-4.9,2.4L243.9,85.7z"/>
</g>
<path class="st0" d="M204.1,100.9c0,0,0.6,5-1.3,7.3c-1.8,2.3-8.2,3.3-2.5,7.5c0,0-8.3,24.4,16.9,25.7v17.4l27.1-6.3l0.5-25.3
	c0,0-8.6,1.6-12-5.1c0,0,7.5-0.9,7.6-5.9c0.1-5-4.9-5.5-7.3-5.6c-2.4-0.1-11.4-4.2-7.8-13.7C225.3,96.7,215,87.3,204.1,100.9z"/>
<path class="st1" d="M216.2,160v-17.7c-7.2-0.5-12.3-3-15.3-7.4c-4.7-6.9-2.5-16.2-1.7-18.8c-1.5-1.2-2.2-2.4-2.2-3.5
	c0.1-1.7,1.7-2.7,3.1-3.6c0.8-0.5,1.6-1,2-1.5c1.3-1.6,1.2-5.3,1-6.6l0-0.4l0.3-0.3c3.8-4.7,7.9-7.3,12.4-7.7
	c6-0.5,10.1,3.3,10.3,3.4l0.5,0.5l-0.2,0.6c-1.2,3.1-1,5.8,0.4,8.1c1.9,2.9,5.3,4.2,6.4,4.2c5.6,0.3,8.4,2.5,8.3,6.6
	c-0.1,4.4-4.6,6-7,6.6c3.4,4.6,10.1,3.5,10.2,3.4l1.2-0.2l-0.5,27.3L216.2,160z M205.1,101.2c0.1,1.4,0.3,5.4-1.5,7.6
	c-0.6,0.8-1.6,1.4-2.5,1.9c-0.9,0.6-2.1,1.3-2.2,1.9c0,0.2,0.2,0.9,1.9,2.2l0.6,0.4l-0.2,0.7c0,0.1-3.5,10.6,1.3,17.8
	c2.7,4,7.7,6.3,14.7,6.6l1,0v17l25.1-5.8l0.4-23.4c-2.6,0.2-8.9-0.1-11.9-5.8l-0.6-1.3l1.4-0.2c0.1,0,6.7-0.9,6.8-5
	c0.1-2.9-1.9-4.4-6.4-4.6c-1.7-0.1-5.7-1.7-8-5.1c-1.2-1.9-2.3-4.9-0.9-9.2c-1.2-0.9-4.3-2.8-8.3-2.5
	C212.1,94.9,208.5,97.1,205.1,101.2z"/>
<path class="st0" d="M125.9,70.6c0,0-6.3,5.5-3,12.5c3.3,7.1,10.3,7.3,10.3,7.3S136.1,74.5,125.9,70.6z"/>
<path class="st1" d="M134,91.5l-0.9,0c-0.3,0-7.7-0.4-11.2-7.9c-3.6-7.7,3.2-13.7,3.3-13.7l0.5-0.4l0.6,0.2
	c10.9,4.1,8.1,20.3,7.9,21L134,91.5z M126.1,71.8c-1.3,1.3-4.8,5.6-2.4,10.9c2.3,5,6.7,6.3,8.6,6.6
	C132.7,86.1,133.4,75.2,126.1,71.8z"/>
<g>
	<path class="st1" d="M213.6,108.7c-0.3,0-0.7-0.2-0.9-0.5c-2.2-3.9-5.4-3.3-5.5-3.3c-0.5,0.1-1,0.2-1.1-0.4c-0.1-0.5,0.2-0.9,0.7-1
		c0.2,0,5.2-2,8.2,3.3c0.3,0.5-0.6,1.4-1,1.7C213.9,108.7,213.7,108.7,213.6,108.7z"/>
</g>
<g>
	<path class="st1" d="M205,120.2c-0.5,0-1-0.1-1.4-0.2c-0.5-0.1-0.8-0.7-0.7-1.2c0.1-0.5,0.7-0.8,1.2-0.7c0.3,0.1,2.5,0.6,3.6-1.5
		l0.2-0.4l2.4-0.3c0.5-0.1,1.1,0.3,1.1,0.9c0.1,0.5-0.3,1.1-0.9,1.1l-1.5,0.2C208.1,119.8,206.4,120.2,205,120.2z"/>
</g>
<g>
	<path class="st1" d="M232.2,119.3c-0.2,0-0.3,0-0.5-0.1c-0.5-0.3-0.7-0.9-0.4-1.4l1.1-2c0-0.5,0.2-1.6,1.2-2.3
		c0.9-0.6,2-0.7,3.5-0.2c0.5,0.2,0.8,0.8,0.6,1.3s-0.8,0.8-1.3,0.6c-0.8-0.3-1.4-0.3-1.7-0.1c-0.3,0.2-0.4,0.7-0.4,0.9l0,0.3
		l-1.4,2.4C232.8,119.1,232.5,119.3,232.2,119.3z"/>
</g>
<g>
	<path class="st1" d="M217.2,142.4c-0.5,0-1-0.4-1-1c0-0.6,0.4-1,1-1c13.1-0.5,13.1-12.1,13.1-12.6c0-0.6,0.4-1,1-1c0,0,0,0,0,0
		c0.5,0,1,0.4,1,1C232.3,127.9,232.3,141.8,217.2,142.4C217.3,142.4,217.2,142.4,217.2,142.4z"/>
</g>
<path class="st0" d="M115.7,62.3c-2,3.1,14,11.3,15.2,14c1.1,2.7,2.2,11.5-4,12.1c-6.2,0.6-12.3-4.1-12.9,0.2
	c-0.6,4.3,9.6,9.3,24.1,8.8c0,0,0.8,73.6,50.6,87.8l-9.3,3.4l-57.4-21.1c0,0-18.8-16.4-18.3-19.9s-4.6-1.1-2.7,4
	c1.9,5.1,3.4,8.5,1.8,9.3s-27.9-5.6-27.9-5.6s-1.4,3,4,5.4c5.4,2.4,24.1,9.9,29.4,13.7c5.3,3.8,58.1,43.4,69.6,46c0,0,1.3,8-2.2,9.3
	s84.9,1,84.9,1s13.1-53.5-15.8-74.9l0.1-7.7l-27.2,6.8l-0.3-5.5l-44.6-16.6c0,0-25.5-56.1-29.1-58.9
	C139.9,70.7,117.5,59.5,115.7,62.3z"/>
<path class="st1" d="M244.5,231.5c-7.6,0-17.1,0-26.6-0.1c-12.3-0.1-22.2-0.1-29.2-0.3c-14.1-0.3-14.2-0.4-14.3-1.5
	c-0.1-0.4,0.1-1,0.7-1.2c2-0.7,1.9-5.3,1.7-7.5c-7.8-2.3-30.2-17.1-66.8-44.1c-1.2-0.9-2-1.5-2.5-1.8c-4.1-3-16.9-8.4-24.6-11.6
	c-1.9-0.8-3.5-1.5-4.6-2c-2.4-1.1-3.9-2.4-4.5-4c-0.6-1.5-0.1-2.7,0-2.8l0.3-0.7l0.8,0.2c11.9,2.9,25.4,5.8,27.3,5.6
	c0.5-0.5-0.9-4.3-1.8-6.7l-0.5-1.2c-1.1-3-0.1-5.2,1-6.3c0.8-0.7,1.8-0.9,2.6-0.5c0.4,0.2,1.2,0.9,1,2.6
	c-0.1,1.9,9.1,11.3,17.9,18.9l56.9,20.9l6.1-2.2c-19.3-6.6-33.7-23.5-41.8-49c-5.5-17.4-6.5-33.7-6.6-37.8
	c-11.7,0.2-19.8-3-22.8-6.3c-1.3-1.5-1.5-2.8-1.3-3.7c0.1-1,0.6-1.7,1.2-2.2c1.3-0.9,3.2-0.4,5.6,0.2c2.1,0.6,4.5,1.2,7,0.9
	c1.4-0.1,2.4-0.7,3-1.9c1.6-2.6,0.8-7.2,0.1-8.9c-0.3-0.8-3.6-3.1-6-4.7c-5.8-4.1-10.9-7.6-9.1-10.2l0,0c0.3-0.5,0.8-0.7,1.5-0.8
	c5-0.8,24.5,9.3,27.8,11.9c3.5,2.8,25.8,51.6,29.2,58.9l44.8,16.7l0.2,5l27.2-6.8l-0.1,8.5c11.8,9,18.3,24.9,18.8,46
	c0.3,16-2.9,29.6-3,29.7l-0.2,0.8l-0.8,0C260.2,231.5,253.7,231.5,244.5,231.5z M177.6,228.9c9.7,0.6,52.4,0.7,81.9,0.6
	c1.4-6.6,10.6-53.7-15.6-73.1l-0.4-0.3l0.1-6.9l-27.1,6.7l-0.3-6.1l-44.4-16.5l-0.2-0.4c-10.2-22.5-26.3-56.6-28.8-58.6
	c-1.5-1.2-7.4-4.5-13.6-7.3c-8.6-3.9-12-4.4-12.7-4.1c-0.4,1.1,6.4,5.9,8.6,7.4c3.9,2.7,6.1,4.3,6.7,5.6c0.8,1.9,1.8,7.2-0.3,10.7
	c-1,1.6-2.6,2.6-4.5,2.8c-2.8,0.3-5.5-0.4-7.7-1c-1.7-0.4-3.4-0.9-4-0.5c-0.2,0.1-0.3,0.4-0.4,0.8c-0.1,0.6,0.2,1.3,0.8,2.1
	c2.7,3,11.2,5.9,22.2,5.6l1,0l0,1c0,0.7,1.4,73,49.9,86.8l3,0.8l-12.5,4.5l-58-21.2l-0.1-0.1c-4.5-3.9-19.2-17.1-18.7-20.8
	c0-0.2,0-0.4,0-0.5c-0.1,0.1-0.4,0.2-0.6,0.6c-0.3,0.4-0.9,1.7-0.2,3.7l0.5,1.2c1.9,5.1,3.1,8.1,0.8,9.3c-1.5,0.8-15.6-2.4-27.5-5.2
	c0.1,0.8,0.8,2.1,3.5,3.3c1.1,0.5,2.7,1.2,4.6,2c7.7,3.3,20.6,8.7,25,11.9c0.5,0.3,1.3,1,2.5,1.8c46.6,34.4,62,42.9,66.7,43.9
	l0.7,0.1l0.1,0.7C178.7,220.8,179.4,226,177.6,228.9z M116.5,62.8L116.5,62.8C116.5,62.8,116.5,62.8,116.5,62.8
	C116.5,62.8,116.5,62.8,116.5,62.8z"/>
<g>
	<circle class="st1" cx="208.4" cy="109.2" r="1.6"/>
</g>
<g>
	<path class="st1" d="M177.6,181.4c-0.1,0-0.3,0-0.4-0.1c-0.5-0.2-0.7-0.8-0.5-1.3l17.2-39.1c0.2-0.5,0.8-0.7,1.3-0.5
		c0.5,0.2,0.7,0.8,0.5,1.3l-17.2,39.1C178.3,181.2,177.9,181.4,177.6,181.4z"/>
</g>
<g>
	<path class="st1" d="M189.5,223c-4.2,0-8.9-0.4-12.3-1.9c-0.5-0.2-0.7-0.8-0.5-1.3c0.2-0.5,0.8-0.7,1.3-0.5
		c7.2,3.1,20.9,1.1,21,1.1c0.5-0.1,1.1,0.3,1.1,0.8c0.1,0.5-0.3,1.1-0.8,1.1C199,222.4,194.6,223,189.5,223z"/>
</g>
<g>
	<path class="st1" d="M198.5,222.7l-11.1-38.1l36.6-17.4c0.5-0.2,1.1,0,1.3,0.5c0.2,0.5,0,1.1-0.5,1.3l-35.1,16.7l10,34.4
		c5.5-2.2,26.8-10.4,32.4-9.1c0.5,0.1,0.9,0.7,0.8,1.2c-0.1,0.5-0.7,0.9-1.2,0.8c-4.7-1.1-24.9,6.5-32.3,9.4L198.5,222.7z"/>
</g>
<g>
	<path class="st1" d="M219.6,165.8l3.1-12.4c0.1-0.5,0.7-0.9,1.2-0.7c0.5,0.1,0.9,0.7,0.7,1.2l-2.2,8.7l21.7-8
		c0.5-0.2,1.1,0.1,1.3,0.6c0.2,0.5-0.1,1.1-0.6,1.3L219.6,165.8z"/>
</g>
<g>
	<path class="st1" d="M207.5,176.8c-0.1,0-0.3,0-0.4-0.1c-0.5-0.2-0.7-0.8-0.5-1.3l9.8-21.2c0.2-0.5,0.8-0.7,1.3-0.5
		c0.5,0.2,0.7,0.8,0.5,1.3l-9.8,21.2C208.3,176.6,207.9,176.8,207.5,176.8z"/>
</g>
<g>
	<path class="st1" d="M196,182.2c-0.2,0-0.4-0.1-0.6-0.2c-0.4-0.3-0.6-0.9-0.2-1.4l21.2-29.5c0.3-0.4,0.9-0.6,1.4-0.2
		c0.4,0.3,0.6,0.9,0.2,1.4l-21.2,29.5C196.6,182,196.3,182.2,196,182.2z"/>
</g>
</svg>
