<?xml version="1.0" encoding="utf-8"?>
<!-- Generator: Adobe Illustrator 25.2.1, SVG Export Plug-In . SVG Version: 6.00 Build 0)  -->
<svg version="1.1" id="Layer_1" xmlns="http://www.w3.org/2000/svg" xmlns:xlink="http://www.w3.org/1999/xlink" x="0px" y="0px"
	 viewBox="0 0 100 100" style="enable-background:new 0 0 100 100;" xml:space="preserve">
<style type="text/css">
	.st0{fill:#F50000;}
</style>
<path class="st0" d="M86.1,0.5C81.3-1.1,76,1.5,74.5,6.4L55,66.3c-1.5,4.7-4.3,8.7-7.9,11.7c0.2-4.3,1-8.9,2.5-13.5L61.1,29
	c1.5-4.5-1-9.3-5.5-10.8c-4.5-1.5-9.3,1-10.8,5.5L33.3,59.3L31,66.4c-1.6,4.8-4.4,8.8-8,11.8c-1.2,1-1.2,1,0,0
	c0.2-4.4,1.1-9,2.6-13.6l8.4-25.7c1.3-4.1-0.9-8.5-5-9.9c-4.1-1.3-8.5,0.9-9.9,5l-8.4,25.7c-2.9,8.8-3.7,17.4-2.8,24.3
	c1,7.8,4.3,13.6,9.4,15.3c3.2,1,6.7,0.6,10.1-1c2.3-1.1,4.6-2.7,6.9-4.9c1.8,2.8,4.1,4.9,7,5.8c3.4,1.1,7.2,0.7,10.8-0.8
	c8.3-3.6,16.3-13.5,20.5-26.4l19.5-59.9C93.7,7.3,91,2,86.1,0.5z"/>
</svg>
