<?xml version="1.0" encoding="UTF-8"?>
<!-- Generator: Adobe Illustrator 25.2.1, SVG Export Plug-In . SVG Version: 6.00 Build 0)  -->
<svg xmlns="http://www.w3.org/2000/svg" xmlns:xlink="http://www.w3.org/1999/xlink" version="1.1" id="Layer_1" x="0px" y="0px" viewBox="0 0 1686.6 2386.8" style="enable-background:new 0 0 1686.6 2386.8;" xml:space="preserve">
<style type="text/css">
	.st0{fill:#FFFFFF;}
	.st1{fill:#686E78;}
</style>
<rect x="0" class="st0" width="1686.6" height="2386.8"></rect>
<g>
	
		<ellipse transform="matrix(0.7678 -0.6407 0.6407 0.7678 -581.2249 578.6717)" class="st1" cx="507.7" cy="1091.2" rx="16.7" ry="11.6"></ellipse>
	<g>
		<path class="st1" d="M733,1273.3c-1.8,0-3.3-0.2-5.1-0.9c-7.8-2.9-11.8-11.3-8.9-19.1l47.4-130.1c2.9-7.8,11.3-11.8,19.1-8.9    c7.8,2.9,11.8,11.3,8.9,19.1L747,1263.5C744.8,1269.5,739,1273.3,733,1273.3z"></path>
		<path class="st1" d="M753.2,1217.7c-1.8,0-3.3-0.2-5.1-0.9c-7.8-2.9-11.8-11.3-8.9-19.1c17.1-47.1,59.6-84,96.7-84    c8.2,0,14.9,6.7,14.9,14.9s-6.7,14.9-14.9,14.9c-21.8,0-54.7,26-68.9,64.5C765,1214,759.2,1217.7,753.2,1217.7z"></path>
	</g>
	<g>
		<path class="st1" d="M1169.6,1273.3c-1.8,0-3.3-0.2-5.1-0.9c-7.8-2.9-11.8-11.3-8.9-19.1l47.4-130.1c2.9-7.8,11.3-11.8,19.1-8.9    c7.8,2.9,11.8,11.3,8.9,19.1l-47.6,130.1C1181.4,1269.5,1175.6,1273.3,1169.6,1273.3z"></path>
		<path class="st1" d="M1217,1143.3c-1.8,0-3.3-0.2-5.1-0.9c-7.8-2.9-11.8-11.3-8.9-19.1c13.3-36.7,52.9-65.6,90-65.6    c8.2,0,14.9,6.7,14.9,14.9c0,8.2-6.7,14.9-14.9,14.9c-24.7,0-52.9,21.1-62,46C1228.8,1139.5,1223,1143.3,1217,1143.3z"></path>
		<path class="st1" d="M1093.6,1329.1c-8.2,0-14.9-6.7-14.9-14.9c0-8.2,6.7-14.9,14.9-14.9c24.7,0,52.9-21.1,62-46    c2.9-7.8,11.3-11.8,19.1-8.9c7.8,2.9,11.8,11.3,8.9,19.1C1170.1,1300.4,1130.7,1329.1,1093.6,1329.1z"></path>
	</g>
	<path class="st1" d="M1143.4,1221.3c-8.2,0-14.9-6.7-14.9-14.9c0-8.2,6.7-14.9,14.9-14.9c52.5,0,98.5-24.5,106.9-46.2   c2.9-7.6,11.6-11.3,19.1-8.4c7.6,2.9,11.3,11.6,8.4,19.1C1263.7,1192.6,1204.5,1221.3,1143.4,1221.3z"></path>
	<path class="st1" d="M470.4,1208.4c-1.8,0-3.3-0.2-5.1-0.9c-7.8-2.9-11.8-11.3-8.9-19.1l23.6-65.1c2.9-7.8,11.3-11.8,19.1-8.9   s11.8,11.3,8.9,19.1l-23.6,65.1C482.2,1204.6,476.7,1208.4,470.4,1208.4z"></path>
	<path class="st1" d="M474.7,1273.3c-8.4,0-16-4-20.9-11.1c-10-14.2-8.9-41.8,2.7-74c2.9-7.8,11.3-11.8,19.1-8.9s11.8,11.3,8.9,19.1   c-8.9,24.7-8.4,40.2-6.9,45.4c6.9,1.3,12,7.3,12,14.7C489.6,1266.6,482.9,1273.3,474.7,1273.3z M478.2,1245.3L478.2,1245.3   L478.2,1245.3z"></path>
	<path class="st1" d="M522.7,1258.4"></path>
	<path class="st1" d="M521.1,1258.4"></path>
	<g>
		<g>
			<path class="st1" d="M368.4,1208.4c-1.8,0-3.3-0.2-5.1-0.9c-7.8-2.9-11.8-11.3-8.9-19.1l23.6-65.1c2.9-7.8,11.3-11.8,19.1-8.9     s11.8,11.3,8.9,19.1l-23.8,65.1C380.2,1204.6,374.4,1208.4,368.4,1208.4z"></path>
			<path class="st1" d="M372.6,1273.3c-8.4,0-16-4-20.9-11.1c-10-14.2-8.9-41.8,2.7-74c2.9-7.8,11.3-11.8,19.1-8.9     s11.8,11.3,8.9,19.1c-8.9,24.7-8.4,40.2-6.9,45.4c6.9,1.3,12,7.3,12,14.7C387.3,1266.6,380.6,1273.3,372.6,1273.3z M376,1245.3     L376,1245.3L376,1245.3z"></path>
			<path class="st1" d="M372.6,1273.3c-8.2,0-14.9-6.7-14.9-14.9c0-8.2,6.7-14.7,14.7-14.9c6.4-1.1,25.6-21.6,37.8-55.4     c2.9-7.8,11.3-11.8,19.1-8.9c7.8,2.9,11.8,11.3,8.9,19.1C424.9,1234.6,398.9,1273.3,372.6,1273.3z M372.6,1243.7L372.6,1243.7     L372.6,1243.7z"></path>
		</g>
		<path class="st1" d="M312.6,1208.4c-1.8,0-3.3-0.2-5.1-0.9c-7.8-2.9-11.8-11.3-8.9-19.1l23.6-65.1c2.9-7.8,11.3-11.8,19.1-8.9    s11.8,11.3,8.9,19.1l-23.6,65.1C324.4,1204.6,318.6,1208.4,312.6,1208.4z"></path>
		<path class="st1" d="M424,1208.4c-1.8,0-3.3-0.2-5.1-0.9c-7.8-2.9-11.8-11.3-8.9-19.1l23.6-65.1c2.9-7.8,11.3-11.8,19.1-8.9    c7.8,2.9,11.8,11.3,8.9,19.1l-23.6,65.1C435.8,1204.6,430.2,1208.4,424,1208.4z"></path>
		<path class="st1" d="M316.8,1273.3c-8.4,0-16-4-20.9-11.1c-10-14.2-8.9-41.8,2.7-74c2.9-7.8,11.3-11.8,19.1-8.9    c7.8,2.9,11.8,11.3,8.9,19.1c-8.9,24.7-8.4,40.2-6.9,45.4c6.9,1.3,12,7.3,12,14.7C331.7,1266.6,325,1273.3,316.8,1273.3z     M320.2,1245.3L320.2,1245.3L320.2,1245.3z"></path>
		<path class="st1" d="M316.8,1273.3c-8.2,0-14.9-6.7-14.9-14.9c0-8.2,6.7-14.7,14.7-14.9c6.4-1.1,25.6-21.6,37.8-55.4    c2.9-7.8,11.3-11.8,19.1-8.9s11.8,11.3,8.9,19.1C369.1,1234.6,343.1,1273.3,316.8,1273.3z M316.8,1243.7L316.8,1243.7    L316.8,1243.7z"></path>
	</g>
	<g>
		<path class="st1" d="M464.2,1161.9c-11.8,0-21.8-4.7-27.6-12.9c-5.1-7.3-6.2-16.7-2.9-25.6c2.9-7.8,11.3-11.8,19.1-8.9    c7.1,2.7,11.1,10.2,9.3,17.6c0.4,0,1.1,0.2,2,0.2c8.2,0,14.9,6.7,14.9,14.9S472.4,1161.9,464.2,1161.9z"></path>
		<path class="st1" d="M464.2,1161.9c-8.2,0-14.9-6.7-14.9-14.9c0-8.2,6.7-14.9,14.9-14.9c7.3,0,14.7-5.3,16-8.9    c2.9-7.8,11.3-11.8,19.1-8.9c7.8,2.9,11.8,11.3,8.9,19.1C502.2,1149.7,483.3,1161.9,464.2,1161.9z"></path>
	</g>
	<g>
		<g>
			<path class="st1" d="M701,1208.4c-1.8,0-3.3-0.2-5.1-0.9c-7.8-2.9-11.8-11.3-8.9-19.1l23.6-65.1c2.9-7.8,11.3-11.8,19.1-8.9     s11.8,11.3,8.9,19.1l-23.6,65.1C712.5,1204.6,707,1208.4,701,1208.4z"></path>
			<path class="st1" d="M705,1273.3c-8.4,0-16-4-20.9-11.1c-10-14.2-8.9-41.8,2.7-74c2.9-7.8,11.3-11.8,19.1-8.9     c7.8,2.9,11.8,11.3,8.9,19.1c-8.9,24.7-8.4,40.2-6.9,45.4c6.9,1.3,12,7.3,12,14.7C719.9,1266.6,713.2,1273.3,705,1273.3z      M708.5,1245.3L708.5,1245.3L708.5,1245.3z"></path>
			<path class="st1" d="M705,1273.3c-8.2,0-14.9-6.7-14.9-14.9c0-8.2,6.7-14.7,14.7-14.9c6.4-1.1,25.6-21.6,37.8-55.4     c2.9-7.8,11.3-11.8,19.1-8.9s11.8,11.3,8.9,19.1C757.5,1234.6,731.4,1273.3,705,1273.3z M705,1243.7L705,1243.7L705,1243.7z"></path>
		</g>
		<path class="st1" d="M640.1,1273.3c-11.1,0-20.7-4.9-26.9-14c-10.9-15.6-11.1-42-0.4-70.9c13.1-36.2,43.8-74.7,74.7-74.7    c11.1,0,20.7,4.9,26.9,14c10.9,15.6,11.1,42,0.4,70.9l0,0C701.7,1234.8,671,1273.3,640.1,1273.3z M687.4,1143.3    c-10.9,0-34.7,21.6-46.9,55.4c-8.4,23.1-6.4,38.9-3.1,43.8c0.9,1.1,1.3,1.3,2.7,1.3c10.9,0,34.7-21.6,46.9-55.4l0,0    c8.4-23.1,6.4-38.9,3.1-43.8C689.2,1143.5,688.5,1143.3,687.4,1143.3z M701,1193.5L701,1193.5L701,1193.5z"></path>
	</g>
	<path class="st1" d="M914.6,1208.4c-1.8,0-3.3-0.2-5.1-0.9c-7.8-2.9-11.8-11.3-8.9-19.1l44-120.7c2.9-7.8,11.3-11.8,19.1-8.9   s11.8,11.3,8.9,19.1l-44,120.7C926.4,1204.6,920.6,1208.4,914.6,1208.4z"></path>
	<path class="st1" d="M918.9,1273.3c-8.4,0-16-4-20.9-11.1c-10-14.2-8.9-41.8,2.7-74c2.9-7.8,11.3-11.8,19.1-8.9s11.8,11.3,8.9,19.1   c-8.9,24.7-8.4,40.2-6.9,45.4c6.9,1.3,12,7.3,12,14.7C933.5,1266.6,926.9,1273.3,918.9,1273.3z M922.2,1245.3L922.2,1245.3   L922.2,1245.3z"></path>
	<path class="st1" d="M918.9,1273.3c-8.2,0-14.9-6.7-14.9-14.9c0-8.2,6.7-14.9,14.9-14.9c7.3,0,14.7-5.3,16-8.9   c2.9-7.8,11.3-11.8,19.1-8.9s11.8,11.3,8.9,19.1C956.9,1261.1,938,1273.3,918.9,1273.3z"></path>
	<path class="st1" d="M965.1,1273.3c-11.8,0-21.8-4.7-27.6-12.9c-5.1-7.3-6.2-16.7-2.9-25.6c2.9-7.8,11.3-11.8,19.1-8.9   c7.1,2.7,11.1,10.2,9.3,17.6c0.4,0,1.1,0.2,2,0.2c8.2,0,14.9,6.7,14.9,14.9C980,1266.9,973.3,1273.3,965.1,1273.3z"></path>
	<path class="st1" d="M853.7,1273.3c-11.1,0-20.7-4.9-26.9-14c-10.9-15.6-11.1-42-0.4-70.9c13.1-36.2,43.8-74.7,74.7-74.7   c11.1,0,20.7,4.9,26.9,14c10.9,15.6,11.1,42,0.4,70.9l0,0C915.3,1234.8,884.6,1273.3,853.7,1273.3z M901.1,1143.3   c-10.9,0-34.7,21.6-46.9,55.4c-8.4,23.1-6.4,38.9-3.1,43.8c0.9,1.1,1.3,1.3,2.7,1.3c10.9,0,34.7-21.6,46.9-55.4l0,0   c8.4-23.1,6.4-38.9,3.1-43.8C902.8,1143.5,902.2,1143.3,901.1,1143.3z M914.6,1193.5L914.6,1193.5L914.6,1193.5z"></path>
	<g>
		<path class="st1" d="M536.5,1258.4"></path>
		<path class="st1" d="M537.8,1258.4"></path>
		<g>
			<path class="st1" d="M510,1273.3c-3.3,0-6.4-1.1-9.1-3.1c-6.4-5.1-7.6-14.5-2.4-20.9l103.2-130.1c5.1-6.4,14.5-7.6,20.9-2.4     s7.6,14.5,2.4,20.9l-103.2,130.1C518.7,1271.5,514.5,1273.3,510,1273.3z"></path>
			<path class="st1" d="M574.9,1273.3H510c-8.2,0-14.9-6.7-14.9-14.9c0-8.2,6.7-14.9,14.9-14.9h64.9c8.2,0,14.9,6.7,14.9,14.9     C589.8,1266.6,583.2,1273.3,574.9,1273.3z"></path>
			<path class="st1" d="M613.2,1143.3h-64.9c-8.2,0-14.9-6.7-14.9-14.9c0-8.2,6.7-14.9,14.9-14.9h64.9c8.2,0,14.9,6.7,14.9,14.9     C628.1,1136.6,621.2,1143.3,613.2,1143.3z"></path>
		</g>
	</g>
	<g>
		<path class="st1" d="M983.8,1273.3c-8.2,0-14.9-6.7-14.9-14.9c0-8.2,6.7-14.9,14.9-14.9c14.2,0,30.7-10.7,35.1-22.7    c2.9-7.8,11.3-11.8,19.1-8.9s11.8,11.3,8.9,19.1C1038,1254.9,1010.5,1273.3,983.8,1273.3z"></path>
		<path class="st1" d="M1032.7,1240.9c-1.8,0-3.3-0.2-5.1-0.9c-7.8-2.9-11.8-11.3-8.9-19.1c0.7-2,1.8-6,0-8.7c-1.8-2.4-6-4-11.3-4    c-8.2,0-14.9-6.7-14.9-14.9s6.7-14.9,14.9-14.9c15.1,0,28.2,6,35.6,16.7c6.9,10,8.2,22.9,3.8,35.8    C1044.5,1237.1,1038.9,1240.9,1032.7,1240.9z"></path>
	</g>
	<g>
		<path class="st1" d="M982.2,1175.9c-1.8,0-3.3-0.2-5.1-0.9c-7.8-2.9-11.8-11.3-8.9-19.1c8.7-23.8,36.2-42.2,62.9-42.2    c8.2,0,14.9,6.7,14.9,14.9s-6.7,14.9-14.9,14.9c-14.2,0-30.7,10.7-35.1,22.7C993.8,1172.2,988.2,1175.9,982.2,1175.9z"></path>
		<path class="st1" d="M1007.3,1208.4c-15.1,0-28.2-6-35.6-16.7c-6.9-10-8.2-22.9-3.8-35.8c2.9-7.8,11.3-11.8,19.1-8.9    s11.8,11.3,8.9,19.1c-0.7,2-1.8,6,0,8.7c1.8,2.4,6,4,11.3,4c8.2,0,14.9,6.7,14.9,14.9C1022.2,1201.9,1015.6,1208.4,1007.3,1208.4z    "></path>
	</g>
	<path class="st1" d="M1068.3,1143.3h-37.1c-8.2,0-14.9-6.7-14.9-14.9c0-8.2,6.7-14.9,14.9-14.9h37.1c8.2,0,14.9,6.7,14.9,14.9   C1083.1,1136.6,1076.5,1143.3,1068.3,1143.3z"></path>
	<path class="st1" d="M983.8,1273.3h-18.7c-8.2,0-14.9-6.7-14.9-14.9c0-8.2,6.7-14.9,14.9-14.9h18.7c8.2,0,14.9,6.7,14.9,14.9   C998.7,1266.6,992,1273.3,983.8,1273.3z"></path>
	<g>
		<path class="st1" d="M1311.2,1208.4c-1.8,0-3.3-0.2-5.1-0.9c-7.8-2.9-11.8-11.3-8.9-19.1l44-120.7c2.9-7.8,11.3-11.8,19.1-8.9    s11.8,11.3,8.9,19.1l-44,120.7C1323,1204.6,1317.3,1208.4,1311.2,1208.4z"></path>
		<path class="st1" d="M1315.5,1273.3c-8.4,0-16-4-20.9-11.1c-10-14.2-8.9-41.8,2.7-74c2.9-7.8,11.3-11.8,19.1-8.9    s11.8,11.3,8.9,19.1c-8.9,24.7-8.4,40.2-6.9,45.4c6.9,1.3,12,7.3,12,14.7C1330.4,1266.6,1323.7,1273.3,1315.5,1273.3z     M1318.8,1245.3L1318.8,1245.3L1318.8,1245.3z"></path>
		<path class="st1" d="M1315.5,1273.3c-8.2,0-14.9-6.7-14.9-14.9c0-8.2,6.7-14.9,14.9-14.9c7.3,0,14.7-5.3,16-8.9    c2.9-7.8,11.3-11.8,19.1-8.9s11.8,11.3,8.9,19.1C1353.5,1261.1,1334.6,1273.3,1315.5,1273.3z"></path>
	</g>
	<path class="st1" d="M1382.6,1143.3h-92.9c-8.2,0-14.9-6.7-14.9-14.9c0-8.2,6.7-14.9,14.9-14.9h92.9c8.2,0,14.9,6.7,14.9,14.9   C1397.5,1136.6,1390.8,1143.3,1382.6,1143.3z"></path>
	<path class="st1" d="M1086,1273.3c-11.1,0-20.7-4.9-26.9-14c-10.9-15.6-11.1-42-0.4-70.9c13.1-36.2,43.8-74.7,74.7-74.7   c11.1,0,20.7,4.9,26.9,14c10.9,15.6,11.1,42,0.4,70.9l0,0C1147.6,1234.8,1116.9,1273.3,1086,1273.3z M1133.4,1143.3   c-10.9,0-34.7,21.6-46.9,55.4c-8.4,23.1-6.4,38.9-3.1,43.8c0.9,1.1,1.3,1.3,2.7,1.3c10.9,0,34.7-21.6,46.9-55.4l0,0   c8.4-23.1,6.4-38.9,3.1-43.8C1135.2,1143.5,1134.5,1143.3,1133.4,1143.3z M1146.7,1193.5L1146.7,1193.5L1146.7,1193.5z"></path>
</g>
</svg>
