<?xml version="1.0" encoding="UTF-8"?>
<!-- Generator: Adobe Illustrator 25.2.1, SVG Export Plug-In . SVG Version: 6.00 Build 0)  -->
<svg xmlns="http://www.w3.org/2000/svg" xmlns:xlink="http://www.w3.org/1999/xlink" version="1.1" id="Layer_1" x="0px" y="0px" viewBox="0 0 99 116" style="enable-background:new 0 0 99 116;" xml:space="preserve">
<style type="text/css">
	.st0{clip-path:url(#SVGID_2_);fill:#FF0028;}
	.st1{clip-path:url(#SVGID_2_);fill:url(#SVGID_3_);}
	.st2{clip-path:url(#SVGID_2_);fill:url(#SVGID_4_);}
	.st3{clip-path:url(#SVGID_2_);fill:url(#SVGID_5_);}
	.st4{clip-path:url(#SVGID_2_);fill:url(#SVGID_6_);}
</style>
<g>
	<defs>
		<path id="SVGID_1_" d="M91.2,0.5c-5.6-1.8-11.7,1.3-13.5,6.9L55.1,76.9c-1.8,5.5-5,10.1-9.2,13.6c0.2-5,1.1-10.3,2.9-15.6    l13.4-41.2c1.7-5.2-1.2-10.8-6.4-12.5c-5.2-1.7-10.8,1.2-12.5,6.4L30,68.8L27.3,77c-1.8,5.6-5.1,10.2-9.3,13.7    c-1.4,1.2-1.4,1.2,0,0c0.3-5.1,1.2-10.4,3-15.7l9.7-29.8c1.6-4.8-1.1-9.9-5.8-11.5c-4.8-1.6-9.9,1.1-11.5,5.8L3.7,69.4    C0.4,79.6-0.6,89.5,0.4,97.6c1.2,9.1,5,15.8,10.9,17.8c3.7,1.2,7.7,0.7,11.7-1.2c2.7-1.3,5.4-3.2,8-5.6c2.1,3.3,4.8,5.6,8.1,6.7    c4,1.3,8.3,0.9,12.5-1c9.6-4.2,18.9-15.6,23.8-30.7l22.6-69.5C100,8.4,96.9,2.4,91.2,0.5z"></path>
	</defs>
	<clipPath id="SVGID_2_">
		<use xlink:href="#SVGID_1_" style="overflow:visible;"></use>
	</clipPath>
	<rect x="-11.1" y="-2.4" class="st0" width="120.8" height="120.8"></rect>
	<linearGradient id="SVGID_3_" gradientUnits="userSpaceOnUse" x1="6.4816" y1="112.3005" x2="39.9813" y2="78.8008">
		<stop offset="0.2" style="stop-color:#FF0028"></stop>
		<stop offset="1" style="stop-color:#8C0064"></stop>
	</linearGradient>
	<path class="st1" d="M27.1,97.5c-1.4-8.2-0.6-18.4,2.8-28.8L27.3,77c-1.8,5.6-5.1,10.2-9.3,13.7c-4.9,4.1-11.1,6.5-17.6,6.8   c1.2,9.1,5,15.8,10.9,17.8c3.7,1.2,7.7,0.7,11.7-1.2c2.7-1.3,5.4-3.2,8-5.6C29.2,105.5,27.9,101.8,27.1,97.5z"></path>
	<linearGradient id="SVGID_4_" gradientUnits="userSpaceOnUse" x1="26.5042" y1="59.1148" x2="62.7028" y2="59.1148">
		<stop offset="0.2" style="stop-color:#FF0028"></stop>
		<stop offset="1" style="stop-color:#8C0064"></stop>
	</linearGradient>
	<path class="st2" d="M48.8,74.9l13.4-41.2c1.7-5.2-1.2-10.8-6.4-12.5c-5.2-1.7-10.8,1.2-12.5,6.4L30,68.8   c-3.4,10.4-4.2,20.5-2.8,28.8c5.3-0.1,10.4-1.5,14.8-4.1c1.4-0.8,2.8-1.8,4-2.8C46.2,85.5,47.1,80.2,48.8,74.9z"></path>
	
		<linearGradient id="SVGID_5_" gradientUnits="userSpaceOnUse" x1="49.3396" y1="-0.4232" x2="49.3396" y2="120.4232" gradientTransform="matrix(1 0 0 -1 0 118)">
		<stop offset="0" style="stop-color:#8C0064"></stop>
		<stop offset="0.25" style="stop-color:#FF0028;stop-opacity:0"></stop>
	</linearGradient>
	<rect x="-11.1" y="-2.4" class="st3" width="120.8" height="120.8"></rect>
	
		<linearGradient id="SVGID_6_" gradientUnits="userSpaceOnUse" x1="49.3396" y1="-0.4232" x2="49.3396" y2="120.4232" gradientTransform="matrix(1 0 0 -1 0 118)">
		<stop offset="0.1" style="stop-color:#FF0064;stop-opacity:0"></stop>
		<stop offset="0.4" style="stop-color:#FF0028"></stop>
	</linearGradient>
	<rect x="-11.1" y="-2.4" class="st4" width="120.8" height="120.8"></rect>
</g>
</svg>
