<?xml version="1.0" encoding="UTF-8"?>
<!-- Generator: Adobe Illustrator 25.2.1, SVG Export Plug-In . SVG Version: 6.00 Build 0)  -->
<svg xmlns="http://www.w3.org/2000/svg" xmlns:xlink="http://www.w3.org/1999/xlink" version="1.1" id="Layer_1" x="0px" y="0px" viewBox="0 0 500 132" style="enable-background:new 0 0 500 132;" xml:space="preserve">
<style type="text/css">
	.st0{clip-path:url(#SVGID_2_);fill:#FF0028;}
	.st1{clip-path:url(#SVGID_4_);fill:url(#SVGID_5_);}
	.st2{clip-path:url(#SVGID_7_);fill:url(#SVGID_8_);}
	.st3{clip-path:url(#SVGID_10_);fill:url(#SVGID_11_);}
	.st4{clip-path:url(#SVGID_13_);fill:url(#SVGID_14_);}
	.st5{fill:#F50000;}
</style>
<g>
	<g>
		<g>
			<defs>
				<path id="SVGID_1_" d="M95.9,1.3c-6-1.9-12.3,1.3-14.3,7.2L57.9,81.6c-1.9,5.8-5.3,10.7-9.6,14.3c0.2-5.3,1.2-10.9,3-16.5      l14.1-43.3c1.8-5.5-1.2-11.4-6.7-13.1c-5.5-1.8-11.4,1.2-13.1,6.7L31.4,73l-2.8,8.7c-1.9,5.9-5.4,10.8-9.8,14.4      c-1.5,1.2-1.5,1.2,0,0c0.3-5.3,1.3-10.9,3.1-16.6l10.2-31.4c1.6-5-1.1-10.4-6.1-12.1c-5-1.6-10.4,1.1-12.1,6.1L3.8,73.6      c-3.5,10.7-4.5,21.2-3.4,29.7c1.2,9.6,5.2,16.6,11.5,18.7c3.9,1.3,8.1,0.7,12.4-1.3c2.8-1.3,5.7-3.4,8.4-5.9      c2.2,3.5,5,5.9,8.6,7.1c4.2,1.4,8.7,0.9,13.2-1c10.1-4.4,19.9-16.4,25.1-32.3l23.8-73.1C105.1,9.6,101.8,3.2,95.9,1.3z"></path>
			</defs>
			<clipPath id="SVGID_2_">
				<use xlink:href="#SVGID_1_" style="overflow:visible;"></use>
			</clipPath>
			<rect x="-11.8" y="-1.8" class="st0" width="127" height="127"></rect>
		</g>
		<g>
			<defs>
				<path id="SVGID_3_" d="M95.9,1.3c-6-1.9-12.3,1.3-14.3,7.2L57.9,81.6c-1.9,5.8-5.3,10.7-9.6,14.3c0.2-5.3,1.2-10.9,3-16.5      l14.1-43.3c1.8-5.5-1.2-11.4-6.7-13.1c-5.5-1.8-11.4,1.2-13.1,6.7L31.4,73l-2.8,8.7c-1.9,5.9-5.4,10.8-9.8,14.4      c-1.5,1.2-1.5,1.2,0,0c0.3-5.3,1.3-10.9,3.1-16.6l10.2-31.4c1.6-5-1.1-10.4-6.1-12.1c-5-1.6-10.4,1.1-12.1,6.1L3.8,73.6      c-3.5,10.7-4.5,21.2-3.4,29.7c1.2,9.6,5.2,16.6,11.5,18.7c3.9,1.3,8.1,0.7,12.4-1.3c2.8-1.3,5.7-3.4,8.4-5.9      c2.2,3.5,5,5.9,8.6,7.1c4.2,1.4,8.7,0.9,13.2-1c10.1-4.4,19.9-16.4,25.1-32.3l23.8-73.1C105.1,9.6,101.8,3.2,95.9,1.3z"></path>
			</defs>
			<clipPath id="SVGID_4_">
				<use xlink:href="#SVGID_3_" style="overflow:visible;"></use>
			</clipPath>
			
				<linearGradient id="SVGID_5_" gradientUnits="userSpaceOnUse" x1="6.7302" y1="15.1808" x2="41.9586" y2="50.4093" gradientTransform="matrix(1 0 0 -1 0 134)">
				<stop offset="0.2" style="stop-color:#FF0028"></stop>
				<stop offset="1" style="stop-color:#8C0064"></stop>
			</linearGradient>
			<path class="st1" d="M28.5,103.2C27,94.6,27.9,83.9,31.4,73l-2.8,8.7c-1.9,5.9-5.4,10.8-9.8,14.4c-5.2,4.3-11.7,6.9-18.5,7.2     c1.2,9.6,5.2,16.6,11.5,18.7c3.9,1.3,8.1,0.7,12.4-1.3c2.8-1.3,5.7-3.4,8.4-5.9C30.6,111.6,29.2,107.7,28.5,103.2z"></path>
		</g>
		<g>
			<defs>
				<path id="SVGID_6_" d="M95.9,1.3c-6-1.9-12.3,1.3-14.3,7.2L57.9,81.6c-1.9,5.8-5.3,10.7-9.6,14.3c0.2-5.3,1.2-10.9,3-16.5      l14.1-43.3c1.8-5.5-1.2-11.4-6.7-13.1c-5.5-1.8-11.4,1.2-13.1,6.7L31.4,73l-2.8,8.7c-1.9,5.9-5.4,10.8-9.8,14.4      c-1.5,1.2-1.5,1.2,0,0c0.3-5.3,1.3-10.9,3.1-16.6l10.2-31.4c1.6-5-1.1-10.4-6.1-12.1c-5-1.6-10.4,1.1-12.1,6.1L3.8,73.6      c-3.5,10.7-4.5,21.2-3.4,29.7c1.2,9.6,5.2,16.6,11.5,18.7c3.9,1.3,8.1,0.7,12.4-1.3c2.8-1.3,5.7-3.4,8.4-5.9      c2.2,3.5,5,5.9,8.6,7.1c4.2,1.4,8.7,0.9,13.2-1c10.1-4.4,19.9-16.4,25.1-32.3l23.8-73.1C105.1,9.6,101.8,3.2,95.9,1.3z"></path>
			</defs>
			<clipPath id="SVGID_7_">
				<use xlink:href="#SVGID_6_" style="overflow:visible;"></use>
			</clipPath>
			
				<linearGradient id="SVGID_8_" gradientUnits="userSpaceOnUse" x1="27.8171" y1="71.1124" x2="65.873" y2="71.1124" gradientTransform="matrix(1 0 0 -1 0 134)">
				<stop offset="0.2" style="stop-color:#FF0028"></stop>
				<stop offset="1" style="stop-color:#8C0064"></stop>
			</linearGradient>
			<path class="st2" d="M51.3,79.4l14.1-43.3c1.8-5.5-1.2-11.4-6.7-13.1c-5.5-1.8-11.4,1.2-13.1,6.7L31.4,73     c-3.5,10.9-4.4,21.6-2.9,30.2c5.5-0.1,10.9-1.6,15.6-4.4c1.5-0.9,2.9-1.9,4.2-3C48.5,90.6,49.4,85,51.3,79.4z"></path>
		</g>
		<g>
			<defs>
				<path id="SVGID_9_" d="M95.9,1.3c-6-1.9-12.3,1.3-14.3,7.2L57.9,81.6c-1.9,5.8-5.3,10.7-9.6,14.3c0.2-5.3,1.2-10.9,3-16.5      l14.1-43.3c1.8-5.5-1.2-11.4-6.7-13.1c-5.5-1.8-11.4,1.2-13.1,6.7L31.4,73l-2.8,8.7c-1.9,5.9-5.4,10.8-9.8,14.4      c-1.5,1.2-1.5,1.2,0,0c0.3-5.3,1.3-10.9,3.1-16.6l10.2-31.4c1.6-5-1.1-10.4-6.1-12.1c-5-1.6-10.4,1.1-12.1,6.1L3.8,73.6      c-3.5,10.7-4.5,21.2-3.4,29.7c1.2,9.6,5.2,16.6,11.5,18.7c3.9,1.3,8.1,0.7,12.4-1.3c2.8-1.3,5.7-3.4,8.4-5.9      c2.2,3.5,5,5.9,8.6,7.1c4.2,1.4,8.7,0.9,13.2-1c10.1-4.4,19.9-16.4,25.1-32.3l23.8-73.1C105.1,9.6,101.8,3.2,95.9,1.3z"></path>
			</defs>
			<clipPath id="SVGID_10_">
				<use xlink:href="#SVGID_9_" style="overflow:visible;"></use>
			</clipPath>
			
				<linearGradient id="SVGID_11_" gradientUnits="userSpaceOnUse" x1="51.7548" y1="301.2242" x2="51.7548" y2="174.1744" gradientTransform="matrix(1 0 0 1 0 -176)">
				<stop offset="0" style="stop-color:#8C0064"></stop>
				<stop offset="0.25" style="stop-color:#FF0028;stop-opacity:0"></stop>
			</linearGradient>
			<rect x="-11.8" y="-1.8" class="st3" width="127" height="127"></rect>
		</g>
		<g>
			<defs>
				<path id="SVGID_12_" d="M95.9,1.3c-6-1.9-12.3,1.3-14.3,7.2L57.9,81.6c-1.9,5.8-5.3,10.7-9.6,14.3c0.2-5.3,1.2-10.9,3-16.5      l14.1-43.3c1.8-5.5-1.2-11.4-6.7-13.1c-5.5-1.8-11.4,1.2-13.1,6.7L31.4,73l-2.8,8.7c-1.9,5.9-5.4,10.8-9.8,14.4      c-1.5,1.2-1.5,1.2,0,0c0.3-5.3,1.3-10.9,3.1-16.6l10.2-31.4c1.6-5-1.1-10.4-6.1-12.1c-5-1.6-10.4,1.1-12.1,6.1L3.8,73.6      c-3.5,10.7-4.5,21.2-3.4,29.7c1.2,9.6,5.2,16.6,11.5,18.7c3.9,1.3,8.1,0.7,12.4-1.3c2.8-1.3,5.7-3.4,8.4-5.9      c2.2,3.5,5,5.9,8.6,7.1c4.2,1.4,8.7,0.9,13.2-1c10.1-4.4,19.9-16.4,25.1-32.3l23.8-73.1C105.1,9.6,101.8,3.2,95.9,1.3z"></path>
			</defs>
			<clipPath id="SVGID_13_">
				<use xlink:href="#SVGID_12_" style="overflow:visible;"></use>
			</clipPath>
			
				<linearGradient id="SVGID_14_" gradientUnits="userSpaceOnUse" x1="51.7548" y1="301.2242" x2="51.7548" y2="174.1744" gradientTransform="matrix(1 0 0 1 0 -176)">
				<stop offset="0.1" style="stop-color:#FF0064;stop-opacity:0"></stop>
				<stop offset="0.4" style="stop-color:#FF0028"></stop>
			</linearGradient>
			<rect x="-11.8" y="-1.8" class="st4" width="127" height="127"></rect>
		</g>
	</g>
	<g>
		<ellipse transform="matrix(0.7678 -0.6407 0.6407 0.7678 -6.4394 83.157)" class="st5" cx="111.5" cy="50.5" rx="5.7" ry="4"></ellipse>
		<g>
			<path class="st5" d="M188.7,112.9c-0.6,0-1.2-0.1-1.7-0.3c-2.6-1-4-3.9-3-6.5l16.2-44.6c1-2.6,3.9-4,6.5-3c2.6,1,4,3.9,3,6.5     l-16.2,44.6C192.8,111.6,190.8,112.9,188.7,112.9z"></path>
			<path class="st5" d="M195.7,93.8c-0.6,0-1.2-0.1-1.7-0.3c-2.6-1-4-3.9-3-6.5c5.9-16.2,20.5-28.8,33.2-28.8c2.8,0,5.1,2.3,5.1,5.1     s-2.3,5.1-5.1,5.1c-7.5,0-18.8,8.9-23.6,22.1C199.7,92.5,197.8,93.8,195.7,93.8z"></path>
		</g>
		<g>
			<path class="st5" d="M338.4,112.9c-0.6,0-1.2-0.1-1.7-0.3c-2.6-1-4-3.9-3-6.5l16.2-44.6c1-2.6,3.9-4,6.5-3c2.6,1,4,3.9,3,6.5     l-16.2,44.6C342.5,111.6,340.5,112.9,338.4,112.9z"></path>
			<path class="st5" d="M354.7,68.3c-0.6,0-1.2-0.1-1.7-0.3c-2.6-1-4-3.9-3-6.5C354.5,48.9,368,39,380.7,39c2.8,0,5.1,2.3,5.1,5.1     c0,2.8-2.3,5.1-5.1,5.1c-8.4,0-18.2,7.2-21.3,15.8C358.7,67,356.8,68.3,354.7,68.3z"></path>
			<path class="st5" d="M312.4,132c-2.8,0-5.1-2.3-5.1-5.1s2.3-5.1,5.1-5.1c8.4,0,18.2-7.2,21.3-15.8c1-2.6,3.9-4,6.5-3     c2.6,1,4,3.9,3,6.5C338.6,122.1,325.1,132,312.4,132z"></path>
		</g>
		<path class="st5" d="M329.5,95.1c-2.8,0-5.1-2.3-5.1-5.1c0-2.8,2.3-5.1,5.1-5.1c18,0,33.7-8.4,36.7-15.9c1-2.6,4-3.9,6.6-2.9    c2.6,1,3.9,4,2.9,6.6C370.8,85.2,350.5,95.1,329.5,95.1z"></path>
		<path class="st5" d="M98.8,90.6c-0.6,0-1.2-0.1-1.7-0.3c-2.6-1-4-3.9-3-6.5l8.1-22.3c1-2.6,3.9-4,6.5-3c2.6,1,4,3.9,3,6.5    l-8.1,22.3C102.8,89.3,100.8,90.6,98.8,90.6z"></path>
		<path class="st5" d="M100.2,112.9c-2.9,0-5.5-1.3-7.2-3.8c-3.4-4.9-3.1-14.4,0.9-25.4c1-2.6,3.9-4,6.5-3c2.6,1,4,3.9,3,6.5    c-3.1,8.5-2.9,13.8-2.4,15.6c2.3,0.5,4.1,2.5,4.1,5C105.3,110.6,103,112.9,100.2,112.9z M101.4,103.3L101.4,103.3L101.4,103.3z"></path>
		<path class="st5" d="M116.6,107.8"></path>
		<path class="st5" d="M116.1,107.8"></path>
		<g>
			<g>
				<path class="st5" d="M177.7,90.6c-0.6,0-1.2-0.1-1.7-0.3c-2.6-1-4-3.9-3-6.5l8.1-22.3c1-2.6,3.9-4,6.5-3c2.6,1,4,3.9,3,6.5      l-8.1,22.3C181.8,89.3,179.8,90.6,177.7,90.6z"></path>
				<path class="st5" d="M179.2,112.9c-2.9,0-5.5-1.3-7.2-3.8c-3.4-4.9-3.1-14.4,0.9-25.4c1-2.6,3.9-4,6.5-3c2.6,1,4,3.9,3,6.5      c-3.1,8.5-2.9,13.8-2.4,15.6c2.3,0.5,4.1,2.5,4.1,5C184.3,110.6,182,112.9,179.2,112.9z M180.4,103.3L180.4,103.3L180.4,103.3z"></path>
				<path class="st5" d="M179.2,112.9c-2.8,0-5.1-2.3-5.1-5.1c0-2.8,2.3-5.1,5-5.1c2.2-0.4,8.7-7.4,12.9-18.9c1-2.6,3.9-4,6.5-3      c2.6,1,4,3.9,3,6.5C197.1,99.6,188.2,112.9,179.2,112.9z M179.2,102.7C179.2,102.7,179.2,102.7,179.2,102.7      C179.2,102.7,179.2,102.7,179.2,102.7z"></path>
			</g>
			<path class="st5" d="M156.9,112.9c-3.8,0-7.1-1.7-9.2-4.8c-3.7-5.3-3.8-14.4-0.2-24.3c4.5-12.4,15.1-25.6,25.6-25.6     c3.8,0,7.1,1.7,9.2,4.8c3.7,5.3,3.8,14.4,0.2,24.3l0,0C178,99.7,167.5,112.9,156.9,112.9z M173.1,68.3c-3.7,0-11.9,7.4-16.1,18.9     c-2.9,8-2.2,13.3-1,15c0.3,0.4,0.5,0.5,0.9,0.5c3.7,0,11.9-7.4,16.1-18.9l0,0c2.9-8,2.2-13.3,1-15     C173.7,68.4,173.5,68.3,173.1,68.3z M177.7,85.5L177.7,85.5L177.7,85.5z"></path>
		</g>
		<path class="st5" d="M251,90.6c-0.6,0-1.2-0.1-1.7-0.3c-2.6-1-4-3.9-3-6.5l15.1-41.4c1-2.6,3.9-4,6.5-3c2.6,1,4,3.9,3,6.5    l-15.1,41.4C255,89.3,253.1,90.6,251,90.6z"></path>
		<path class="st5" d="M252.4,112.9c-2.9,0-5.5-1.3-7.2-3.8c-3.4-4.9-3.1-14.4,0.9-25.4c1-2.6,3.9-4,6.5-3c2.6,1,4,3.9,3,6.5    c-3.1,8.5-2.9,13.8-2.4,15.6c2.3,0.5,4.1,2.5,4.1,5C257.5,110.6,255.3,112.9,252.4,112.9z M253.6,103.3L253.6,103.3L253.6,103.3z"></path>
		<path class="st5" d="M252.4,112.9c-2.8,0-5.1-2.3-5.1-5.1c0-2.8,2.3-5.1,5.1-5.1c2.6,0,5.1-1.8,5.5-3c1-2.6,3.9-4,6.5-3    c2.6,1,4,3.9,3,6.5C265.5,108.7,259,112.9,252.4,112.9z"></path>
		<path class="st5" d="M268.4,112.9c-4,0-7.5-1.6-9.4-4.4c-1.8-2.5-2.1-5.7-1-8.8c1-2.6,3.9-4,6.5-3c2.5,0.9,3.8,3.5,3.2,6    c0.2,0,0.4,0.1,0.7,0.1c2.8,0,5.1,2.3,5.1,5.1C273.5,110.6,271.2,112.9,268.4,112.9z"></path>
		<path class="st5" d="M230.2,112.9c-3.8,0-7.1-1.7-9.2-4.8c-3.7-5.3-3.8-14.4-0.2-24.3c4.5-12.4,15-25.6,25.6-25.6    c3.8,0,7.1,1.7,9.2,4.8c3.7,5.3,3.8,14.4,0.2,24.3l0,0C251.3,99.7,240.7,112.9,230.2,112.9z M246.4,68.3    c-3.7,0-11.9,7.4-16.1,18.9c-2.9,8-2.2,13.3-1,15c0.3,0.4,0.5,0.5,0.9,0.5c3.7,0,11.9-7.4,16.1-18.9l0,0c2.9-8,2.2-13.3,1-15    C247,68.4,246.8,68.3,246.4,68.3z M251,85.5L251,85.5L251,85.5z"></path>
		<g>
			<path class="st5" d="M121.4,107.8"></path>
			<path class="st5" d="M121.9,107.8"></path>
			<g>
				<path class="st5" d="M112.3,112.9c-1.1,0-2.2-0.4-3.2-1.1c-2.2-1.7-2.6-4.9-0.8-7.2L143.6,60c1.7-2.2,4.9-2.6,7.2-0.8      c2.2,1.7,2.6,4.9,0.8,7.2L116.3,111C115.3,112.2,113.8,112.9,112.3,112.9z"></path>
				<path class="st5" d="M134.6,112.9h-22.3c-2.8,0-5.1-2.3-5.1-5.1c0-2.8,2.3-5.1,5.1-5.1h22.3c2.8,0,5.1,2.3,5.1,5.1      C139.7,110.6,137.4,112.9,134.6,112.9z"></path>
				<path class="st5" d="M147.6,68.3h-22.3c-2.8,0-5.1-2.3-5.1-5.1s2.3-5.1,5.1-5.1h22.3c2.8,0,5.1,2.3,5.1,5.1      S150.5,68.3,147.6,68.3z"></path>
			</g>
		</g>
		<g>
			<path class="st5" d="M274.7,112.9c-2.8,0-5.1-2.3-5.1-5.1c0-2.8,2.3-5.1,5.1-5.1c4.9,0,10.5-3.6,12-7.8c1-2.6,3.9-4,6.5-3     c2.6,1,4,3.9,3,6.5C293.4,106.5,283.9,112.9,274.7,112.9z"></path>
			<path class="st5" d="M291.5,101.7c-0.6,0-1.2-0.1-1.7-0.3c-2.6-1-4-3.9-3-6.5c0.3-0.7,0.6-2,0-2.9c-0.6-0.9-2-1.4-3.9-1.4     c-2.8,0-5.1-2.3-5.1-5.1c0-2.8,2.3-5.1,5.1-5.1c5.2,0,9.7,2.1,12.2,5.7c2.4,3.4,2.9,7.9,1.3,12.3     C295.6,100.5,293.6,101.7,291.5,101.7z"></path>
		</g>
		<g>
			<path class="st5" d="M274.2,79.4c-0.6,0-1.2-0.1-1.7-0.3c-2.6-1-4-3.9-3-6.5c3-8.1,12.4-14.5,21.6-14.5c2.8,0,5.1,2.3,5.1,5.1     s-2.3,5.1-5.1,5.1c-4.9,0-10.5,3.6-12,7.8C278.2,78.2,276.3,79.4,274.2,79.4z"></path>
			<path class="st5" d="M282.9,90.6c-5.2,0-9.7-2.1-12.2-5.7c-2.4-3.4-2.9-7.9-1.3-12.3c1-2.6,3.9-4,6.5-3c2.6,1,4,3.9,3,6.5     c-0.3,0.7-0.6,2,0,2.9c0.6,0.9,2,1.4,3.9,1.4c2.8,0,5.1,2.3,5.1,5.1C288,88.3,285.7,90.6,282.9,90.6z"></path>
		</g>
		<path class="st5" d="M303.7,68.3H291c-2.8,0-5.1-2.3-5.1-5.1s2.3-5.1,5.1-5.1h12.7c2.8,0,5.1,2.3,5.1,5.1S306.5,68.3,303.7,68.3z"></path>
		<path class="st5" d="M274.7,112.9h-6.4c-2.8,0-5.1-2.3-5.1-5.1c0-2.8,2.3-5.1,5.1-5.1h6.4c2.8,0,5.1,2.3,5.1,5.1    C279.8,110.6,277.6,112.9,274.7,112.9z"></path>
		<g>
			<path class="st5" d="M387,90.6c-0.6,0-1.2-0.1-1.7-0.3c-2.6-1-4-3.9-3-6.5l15.1-41.4c1-2.6,3.9-4,6.5-3c2.6,1,4,3.9,3,6.5     l-15.1,41.4C391,89.3,389.1,90.6,387,90.6z"></path>
			<path class="st5" d="M388.5,112.9c-2.9,0-5.5-1.3-7.2-3.8c-3.4-4.9-3.1-14.4,0.9-25.4c1-2.6,3.9-4,6.5-3c2.6,1,4,3.9,3,6.5     c-3.1,8.5-2.9,13.8-2.4,15.6c2.3,0.5,4.1,2.5,4.1,5C393.5,110.6,391.3,112.9,388.5,112.9z M389.6,103.3L389.6,103.3L389.6,103.3z     "></path>
			<path class="st5" d="M388.5,112.9c-2.8,0-5.1-2.3-5.1-5.1c0-2.8,2.3-5.1,5.1-5.1c2.6,0,5.1-1.8,5.5-3c1-2.6,3.9-4,6.5-3     c2.6,1,4,3.9,3,6.5C401.5,108.7,395,112.9,388.5,112.9z"></path>
		</g>
		<path class="st5" d="M411.5,68.3h-31.9c-2.8,0-5.1-2.3-5.1-5.1s2.3-5.1,5.1-5.1h31.9c2.8,0,5.1,2.3,5.1,5.1S414.3,68.3,411.5,68.3    z"></path>
		<path class="st5" d="M309.8,112.9c-3.8,0-7.1-1.7-9.2-4.8c-3.7-5.3-3.8-14.4-0.2-24.3c4.5-12.4,15-25.6,25.6-25.6    c3.8,0,7.1,1.7,9.2,4.8c3.7,5.3,3.8,14.4,0.2,24.3l0,0C330.9,99.7,320.4,112.9,309.8,112.9z M326,68.3c-3.7,0-11.9,7.4-16.1,18.9    c-2.9,8-2.2,13.3-1,15c0.3,0.4,0.5,0.5,0.9,0.5c3.7,0,11.9-7.4,16.1-18.9l0,0c2.9-8,2.2-13.3,1-15C326.6,68.4,326.4,68.3,326,68.3    z M330.6,85.5L330.6,85.5L330.6,85.5z"></path>
	</g>
</g>
</svg>
