<?xml version="1.0" encoding="UTF-8"?>
<!-- Generator: Adobe Illustrator 25.2.1, SVG Export Plug-In . SVG Version: 6.00 Build 0)  -->
<svg xmlns="http://www.w3.org/2000/svg" xmlns:xlink="http://www.w3.org/1999/xlink" version="1.1" id="Слой_1" x="0px" y="0px" viewBox="0 0 100 100" style="enable-background:new 0 0 100 100;" xml:space="preserve">
<style type="text/css">
	.st0{fill:#686E78;}
	.st1{fill-rule:evenodd;clip-rule:evenodd;fill:#686E78;}
</style>
<g>
	<g>
		<path class="st0" d="M50,2.8C76,2.8,97.2,24,97.2,50S76,97.2,50,97.2S2.8,76,2.8,50S24,2.8,50,2.8 M50,0C22.4,0,0,22.4,0,50    s22.4,50,50,50s50-22.4,50-50S77.6,0,50,0L50,0z"></path>
	</g>
	<path class="st1" d="M49.9,51c-4.4,0-8.6-1.8-11.7-4.9c-3.1-3.1-4.8-7.2-4.8-11.7s1.8-8.7,4.8-11.9c3.1-3.2,7.3-5,11.7-5   c2.2,0,4.4,0.5,6.4,1.3s3.9,2.1,5.4,3.7c1.6,1.6,2.8,3.4,3.6,5.5s1.2,4.3,1.2,6.4c0,2.2-0.4,4.4-1.2,6.4s-2,3.9-3.6,5.5   s-3.3,2.8-5.4,3.6C54.2,50.6,52.1,51.1,49.9,51L49.9,51z M49.9,27.4c-0.9,0-1.9,0.2-2.7,0.6s-1.7,0.9-2.2,1.6   c-0.6,0.6-1.1,1.5-1.5,2.3c-0.4,0.8-0.5,1.8-0.5,2.7s0.2,1.8,0.5,2.6c0.4,0.8,0.8,1.6,1.5,2.2c0.6,0.6,1.4,1.1,2.2,1.4   c0.8,0.3,1.8,0.5,2.6,0.4c0.9,0,1.8-0.1,2.6-0.5s1.6-0.8,2.2-1.5c0.6-0.6,1.1-1.4,1.5-2.2s0.6-1.7,0.6-2.6s-0.1-1.9-0.5-2.7   s-0.8-1.7-1.5-2.3c-0.6-0.6-1.4-1.2-2.2-1.6C51.7,27.6,50.8,27.4,49.9,27.4L49.9,27.4z M56.6,64.9l9.5,9.3c0.5,0.5,0.7,0.9,1,1.6   c0.3,0.6,0.4,1.2,0.4,1.9s-0.1,1.2-0.4,1.9c-0.3,0.6-0.6,1.1-1,1.6s-0.9,0.9-1.5,1.1c-0.6,0.3-1.2,0.4-1.9,0.4   c-0.6,0-1.3-0.2-1.9-0.4c-0.6-0.3-1.1-0.6-1.5-1.1l-9.5-9.3L40.7,81c-0.5,0.5-1,0.8-1.6,1c-0.6,0.3-1.2,0.4-1.9,0.4   c-1.3-0.1-2.5-0.6-3.4-1.4c-0.5-0.5-0.7-0.9-1-1.6c-0.3-0.6-0.4-1.2-0.4-1.9s0.1-1.2,0.4-1.9c0.3-0.6,0.6-1.1,1-1.6l9.6-9.3   c-3.4-1.1-6.8-2.6-9.9-4.4c-1.1-0.7-1.9-1.8-2.1-3.1c-0.3-1.2-0.1-2.6,0.6-3.7c0.4-0.6,0.8-1,1.4-1.4c0.6-0.4,1.1-0.6,1.8-0.7   c0.6-0.1,1.3-0.1,1.9,0s1.3,0.4,1.8,0.7c3.3,2,7.2,3.2,11.1,3.2s7.8-1.1,11.1-3.2c0.6-0.4,1.1-0.6,1.8-0.7c0.6-0.1,1.3-0.2,1.9,0   c0.6,0.1,1.3,0.4,1.8,0.7c0.6,0.4,1,0.8,1.4,1.4c0.6,1.1,0.8,2.4,0.6,3.6c-0.3,1.2-0.9,2.3-2,3.1C63.5,62.4,60.1,63.8,56.6,64.9   L56.6,64.9z"></path>
</g>
</svg>
