<?xml version="1.0" encoding="UTF-8"?>
<!-- Generator: Adobe Illustrator 25.2.1, SVG Export Plug-In . SVG Version: 6.00 Build 0)  -->
<svg xmlns="http://www.w3.org/2000/svg" xmlns:xlink="http://www.w3.org/1999/xlink" version="1.1" id="Layer_1" x="0px" y="0px" viewBox="0 0 48 48" style="enable-background:new 0 0 48 48;" xml:space="preserve">
<style type="text/css">
	.st0{fill:#F50000;}
</style>
<g>
	<path class="st0" d="M46.6,20.1c-1.2-1.6-3.1-2.5-5.1-2.5h-9.3V8.2c0-2.6-2.1-4.7-4.7-4.7c-1.3,0-2.7,0.7-3.7,1.8L12.9,19v-0.3   c0-0.6-0.5-1.1-1.1-1.1H1.1c-0.6,0-1.1,0.5-1.1,1.1v24.6c0,0.6,0.5,1.1,1.1,1.1h10.6c0.6,0,1.1-0.5,1.1-1.1v-1.4l3.5,2.3   c0.2,0.1,0.4,0.2,0.6,0.2h21.9c2,0,3.8-1.4,4.5-3.4l4.4-15.4C48.3,23.8,47.8,21.7,46.6,20.1z M10.6,42.2H2.3V19.8h8.3v2.4v17.5   V42.2z M45.6,25l-4.3,15.3c-0.4,1.1-1.3,1.8-2.3,1.8H17.4l-4.5-3V22.6L25.6,6.8c0.5-0.6,1.3-1,1.9-1c1.3,0,2.4,1,2.4,2.4v10.5   c0,0.6,0.5,1.1,1.1,1.1h10.5c1.3,0,2.5,0.6,3.3,1.6C45.6,22.5,45.9,23.9,45.6,25z"></path>
	<path class="st0" d="M6.4,22.2c-1,0-1.8,0.8-1.8,1.8c0,1,0.8,1.8,1.8,1.8S8.2,25,8.2,24C8.2,23,7.4,22.2,6.4,22.2z"></path>
</g>
</svg>
