<?xml version="1.0" encoding="UTF-8"?>
<!-- Generator: Adobe Illustrator 25.2.1, SVG Export Plug-In . SVG Version: 6.00 Build 0)  -->
<svg xmlns="http://www.w3.org/2000/svg" xmlns:xlink="http://www.w3.org/1999/xlink" version="1.1" id="Layer_1" x="0px" y="0px" viewBox="0 0 48 48" style="enable-background:new 0 0 48 48;" xml:space="preserve">
<style type="text/css">
	.st0{fill:#F50000;}
</style>
<g>
	<path class="st0" d="M8.3,18.6c0.7,0,1.2-0.6,1.2-1.2c0-4,1.5-7.8,4.3-10.7c2.7-2.8,6.3-4.3,10.1-4.3c8,0,14.5,6.7,14.5,14.9   c0,8.2-12.8,20.7-14.2,22.1L24,39.9l-0.4-0.3C20.2,36.4,14,30,11,23.4c-0.2-0.4-0.6-0.7-1.1-0.7c-0.1,0-0.3,0-0.5,0.1   c-0.3,0.1-0.5,0.3-0.7,0.7c-0.1,0.3-0.1,0.7,0,0.9c3.4,7.4,10.3,14.3,14.2,17.8c0.1,0.1,0.2,0.2,0.2,0.2l0,0   c0.2,0.2,0.5,0.2,0.8,0.2c0.3,0,0.6-0.1,0.8-0.3c0.2-0.1,16.1-14.7,16.1-25C40.9,7.9,33.3,0,24,0S7.1,7.8,7.1,17.4   C7.1,18,7.7,18.6,8.3,18.6z"></path>
	<path class="st0" d="M30.5,17.1c0-3.6-2.9-6.5-6.5-6.5c-3.6,0-6.5,2.9-6.5,6.5s2.9,6.5,6.5,6.5C27.6,23.6,30.5,20.6,30.5,17.1z    M28,17.1c0,2.2-1.8,4-4,4s-4-1.8-4-4s1.8-4,4-4S28,14.8,28,17.1z"></path>
	<path class="st0" d="M47.8,46.1l-7-12.2c-0.1-0.3-0.6-0.5-0.7-0.6c-0.3-0.1-0.6-0.1-0.9,0.1c-0.6,0.4-0.8,1-0.4,1.7l5.9,10.5H3.3   l5.9-10.6c0.3-0.6,0.1-1.3-0.5-1.7c-0.2-0.1-0.4-0.1-0.6-0.1H7.9l-0.1,0c-0.2,0.1-0.5,0.3-0.7,0.7l-7,12.2c-0.2,0.3-0.2,0.8,0,1.3   C0.4,47.7,0.8,48,1.3,48h45.5c0.4,0,0.8-0.2,1-0.6C48.1,47,48.1,46.6,47.8,46.1z"></path>
</g>
</svg>
