<?xml version="1.0" encoding="UTF-8"?>
<!-- Generator: Adobe Illustrator 25.2.1, SVG Export Plug-In . SVG Version: 6.00 Build 0)  -->
<svg xmlns="http://www.w3.org/2000/svg" xmlns:xlink="http://www.w3.org/1999/xlink" version="1.1" id="Layer_1" x="0px" y="0px" viewBox="0 0 250 116" style="enable-background:new 0 0 250 116;" xml:space="preserve">
<style type="text/css">
	.st0{fill:url(#SVGID_1_);}
	.st1{fill:#222222;}
	.st2{fill:#2D50C8;}
	.st3{clip-path:url(#SVGID_3_);fill:#FF0028;}
	.st4{clip-path:url(#SVGID_3_);fill:url(#SVGID_4_);}
	.st5{clip-path:url(#SVGID_3_);fill:url(#SVGID_5_);}
	.st6{clip-path:url(#SVGID_3_);fill:url(#SVGID_6_);}
	.st7{clip-path:url(#SVGID_3_);fill:url(#SVGID_7_);}
</style>
<g>
	<g>
		
			<linearGradient id="SVGID_1_" gradientUnits="userSpaceOnUse" x1="-645.7466" y1="58.4116" x2="-551.1756" y2="58.4116" gradientTransform="matrix(1 0 0 1 751.0481 0)">
			<stop offset="0.2" style="stop-color:#2D50C8"></stop>
			<stop offset="0.8" style="stop-color:#222222"></stop>
		</linearGradient>
		<path class="st0" d="M196.5,61.8h-87.9c-1.8,0-3.3-1.5-3.3-3.3s1.5-3.3,3.3-3.3h87.9c1.8,0,3.3,1.5,3.3,3.3S198.4,61.8,196.5,61.8    z"></path>
	</g>
	<g>
		<path class="st1" d="M173.4,77.5c1.8,0,3.3-1.5,3.3-3.3c0-1.8-1.5-3.3-3.3-3.3c-3.4,0-6.9,1.3-10.1,3.5c0.1-1.5-0.8-2.8-2.3-3.3    c-1.8-0.6-3.6,0.4-4.2,2.1l-5.1,15.7c-2.5,7.8-6.5,12.5-8.3,13.3c-0.5-1.2-0.8-5,1.2-11.2l5.1-15.7c0.6-1.8-0.4-3.6-2.1-4.2    c-1.8-0.6-3.6,0.4-4.2,2.1l-0.1,0.2c-1.5-1.6-3.5-2.5-5.7-2.5c-7.4,0-14.4,9.3-17.3,18c-2.2,6.9-2,13.2,0.7,16.8    c1.5,2.1,3.8,3.3,6.4,3.3c3.4,0,6.8-2,9.7-5c0.3,0.9,0.7,1.8,1.2,2.5c1.1,1.5,2.7,2.4,4.5,2.5c0.1,0,0.2,0,0.4,0    c1.4,0,2.8-0.5,4.1-1.3c0.4,0.5,0.9,0.9,1.6,1.1c0.3,0.1,0.7,0.2,1,0.2c1.4,0,2.7-0.9,3.2-2.3l4.4-13.5    C160,84.7,167.4,77.5,173.4,77.5z M127.2,102.3c-0.4,0-0.6-0.1-1-0.5c-1.1-1.5-1.5-5.5,0.3-10.8c2.7-8.2,8.2-13.4,10.9-13.4    c0.4,0,0.6,0.1,1,0.5c1.1,1.5,1.5,5.5-0.3,10.8C135.5,97,129.9,102.3,127.2,102.3z"></path>
		<path class="st1" d="M87.7,102.3c-0.5-1-1-4.9,1.1-11.4l5.1-15.7c0.6-1.8-0.4-3.6-2.1-4.2c-1.8-0.6-3.6,0.4-4.2,2.1l-5.1,15.7    c-2.5,7.6-2.5,14.2-0.1,17.6c1.2,1.6,2.9,2.5,4.9,2.5c1.8,0,3.3-1.5,3.3-3.3C90.6,103.9,89.3,102.5,87.7,102.3z"></path>
		<path class="st1" d="M202.8,97.9c-1.8-0.6-3.6,0.4-4.2,2.1c-0.3,0.9-1.9,2-3.5,2.2c-0.5-1.1-0.9-4.9,1.2-11.3l8-24.7    c0.9-2.9,0.6-5.7-1-7.9c-1.5-2.1-4-3.2-6.7-3.2c-1.8,0-3.3,1.5-3.3,3.3s1.5,3.3,3.3,3.3c0.4,0,1,0.1,1.3,0.5    c0.3,0.4,0.3,1.1,0,1.9l-3,9.2c-1.5-1.6-3.5-2.5-5.7-2.5c-7.4,0-14.4,9.3-17.3,18c-2.2,6.9-2,13.2,0.7,16.8    c1.5,2.1,3.8,3.3,6.4,3.3c3.4,0,6.8-2,9.7-5c0.3,0.9,0.7,1.8,1.2,2.5c1.1,1.5,2.7,2.4,4.5,2.5c0.1,0,0.2,0,0.4,0    c4.6,0,9-2.9,10.3-6.8C205.5,100.4,204.5,98.5,202.8,97.9z M178.9,102.3c-0.4,0-0.6-0.1-1-0.5c-1.1-1.5-1.5-5.5,0.3-10.8    c2.7-8.2,8.2-13.4,10.9-13.4c0.4,0,0.6,0.1,1,0.5c1.1,1.5,1.5,5.5-0.3,10.8C187.2,97,181.6,102.3,178.9,102.3z"></path>
		<path class="st1" d="M111.3,102.3h-9l19.7-26.1c0,0,0,0,0-0.1c0-0.1,0.1-0.1,0.1-0.2c0,0,0.1-0.1,0.1-0.1c0-0.1,0.1-0.1,0.1-0.2    c0,0,0-0.1,0.1-0.1c0-0.1,0-0.1,0.1-0.2c0-0.1,0-0.1,0.1-0.2c0-0.1,0-0.1,0-0.2c0-0.1,0-0.1,0-0.2c0,0,0-0.1,0-0.1    c0-0.1,0-0.1,0-0.2c0,0,0-0.1,0-0.1c0-0.1,0-0.1,0-0.2c0,0,0-0.1,0-0.1c0,0,0,0,0-0.1c0-0.1,0-0.1,0-0.2c0-0.1,0-0.1,0-0.2    c0-0.1,0-0.1,0-0.2c0-0.1,0-0.1,0-0.2c0,0,0-0.1,0-0.1c0-0.1,0-0.1-0.1-0.2c0,0,0-0.1,0-0.1c0-0.1,0-0.1-0.1-0.2    c0,0,0-0.1-0.1-0.1c0,0,0-0.1-0.1-0.1c0-0.1-0.1-0.1-0.1-0.2c0,0,0-0.1-0.1-0.1c0-0.1-0.1-0.1-0.1-0.2c0,0-0.1-0.1-0.1-0.1    c0,0-0.1-0.1-0.1-0.1c0,0-0.1-0.1-0.1-0.1c0,0-0.1-0.1-0.1-0.1c0,0-0.1-0.1-0.1-0.1c0,0,0,0-0.1,0c0,0,0,0-0.1,0    c0,0-0.1-0.1-0.2-0.1c0,0-0.1-0.1-0.1-0.1c-0.1,0-0.1-0.1-0.2-0.1c0,0-0.1,0-0.1-0.1c-0.1,0-0.1,0-0.2-0.1c-0.1,0-0.1,0-0.2-0.1    c-0.1,0-0.1,0-0.2,0c-0.1,0-0.1,0-0.2,0c0,0-0.1,0-0.2,0c-0.1,0-0.1,0-0.2,0c0,0-0.1,0-0.1,0c-0.1,0-0.1,0-0.2,0c0,0-0.1,0-0.1,0    h-15.7c-1.8,0-3.3,1.5-3.3,3.3c0,1.8,1.5,3.3,3.3,3.3h9l-19.7,26.1c0,0,0,0,0,0.1c0,0.1-0.1,0.1-0.1,0.2c0,0-0.1,0.1-0.1,0.1    c0,0.1-0.1,0.1-0.1,0.2c0,0,0,0.1-0.1,0.1c0,0.1,0,0.1-0.1,0.2c0,0.1,0,0.1-0.1,0.2c0,0.1,0,0.1,0,0.2c0,0.1,0,0.1,0,0.2    c0,0,0,0.1,0,0.1c0,0.1,0,0.1,0,0.2c0,0,0,0.1,0,0.1c0,0.1,0,0.1,0,0.2c0,0,0,0.1,0,0.1c0,0,0,0,0,0.1c0,0.1,0,0.1,0,0.2    c0,0.1,0,0.1,0,0.2c0,0.1,0,0.1,0,0.2c0,0.1,0,0.1,0,0.2c0,0,0,0.1,0,0.1c0,0.1,0,0.1,0.1,0.2c0,0,0,0.1,0,0.1    c0,0.1,0,0.1,0.1,0.2c0,0,0,0.1,0.1,0.1c0,0,0,0.1,0.1,0.1c0,0.1,0.1,0.1,0.1,0.2c0,0,0,0.1,0.1,0.1c0,0.1,0.1,0.1,0.1,0.2    c0,0,0.1,0.1,0.1,0.1c0,0,0.1,0.1,0.1,0.1c0,0,0.1,0.1,0.1,0.1c0,0,0.1,0.1,0.1,0.1c0,0,0.1,0.1,0.1,0.1c0,0,0,0,0.1,0    c0,0,0,0,0,0c0.1,0.1,0.3,0.2,0.4,0.3c0,0,0,0,0.1,0c0.1,0.1,0.3,0.1,0.4,0.2c0,0,0,0,0.1,0c0.1,0,0.3,0.1,0.5,0.1    c0,0,0.1,0,0.1,0c0.2,0,0.3,0,0.5,0c0,0,0,0,0,0c0,0,0,0,0,0c0,0,0,0,0,0h15.7c1.8,0,3.3-1.5,3.3-3.3    C114.6,103.8,113.1,102.3,111.3,102.3z"></path>
		<ellipse transform="matrix(0.7617 -0.6479 0.6479 0.7617 -19.9005 76.2008)" class="st1" cx="93.6" cy="65.2" rx="3.9" ry="2.8"></ellipse>
	</g>
	<g>
		<path class="st2" d="M147.2,19.4c0-1.3-1.1-2.4-2.4-2.4c-2.5,0-5.2,1-7.6,2.7c0.2-1.1-0.5-2.2-1.6-2.6c-1.2-0.4-2.6,0.3-3,1.5    l-3.8,11.6c0,0,0,0,0,0c-1.7,5.3-7.5,9.9-12.6,10c-0.4-0.7-0.8-3.7,0.8-8.5c0,0,0,0,0,0l3.2-10h6.8c1.3,0,2.4-1.1,2.4-2.4    s-1.1-2.4-2.4-2.4h-5.3l2.2-6.9c0.4-1.2-0.3-2.6-1.5-3c-1.2-0.4-2.6,0.3-3,1.5l-2.7,8.3h-6.4c-1.3,0-2.4,1.1-2.4,2.4    s1.1,2.4,2.4,2.4h4.8l-2.8,8.5c0,0,0,0,0,0c-1.8,5.6-1.8,10.4-0.1,12.9c0.8,1.1,2,1.7,3.3,1.8c0.1,0,0.2,0,0.3,0c0,0,0,0,0,0    c0,0,0,0,0,0c0,0,0,0,0,0c3.1,0,6.2-1,9-2.8c-0.2,1.1,0.4,2.3,1.6,2.7c0.2,0.1,0.5,0.1,0.7,0.1c1,0,1.9-0.6,2.2-1.6l3.2-10    c0,0,0,0,0,0c2.1-6.3,7.6-11.7,12-11.7C146.1,21.8,147.2,20.7,147.2,19.4z"></path>
		<path class="st2" d="M173.1,17.1c-5.4,0-10.6,6.8-12.7,13.3c-1.9,5.7-6.5,9.8-9.6,10c-0.4-0.8-0.8-3.7,0.8-8.5l3.8-11.6    c0.4-1.2-0.3-2.6-1.5-3c-1.2-0.4-2.6,0.3-3,1.5l-3.8,11.6c-1.8,5.6-1.8,10.4-0.1,12.9c0.8,1.1,2,1.7,3.3,1.8c0.1,0,0.2,0,0.3,0    c3.1,0,6.5-1.8,9.2-4.7c0.3,0.9,0.6,1.6,1.1,2.3c1.1,1.5,2.8,2.4,4.6,2.4c5.4,0,10.6-6.8,12.7-13.3c1.6-5,1.5-9.7-0.5-12.3    C176.6,17.9,174.9,17.1,173.1,17.1z M173.7,30.3C173.7,30.3,173.7,30.3,173.7,30.3c-2,6.2-6.1,10-8.2,10c-0.3,0-0.5-0.1-0.8-0.4    c-0.8-1.1-1.1-4.1,0.2-8.1c2-6.2,6.1-10,8.2-10c0.3,0,0.5,0.1,0.8,0.4C174.7,23.3,175,26.4,173.7,30.3z"></path>
		<path class="st2" d="M227.5,19.4c-1.1-1.5-2.8-2.4-4.6-2.4c-4.8,0-9.3,5.3-11.8,10.9c-0.1,0.2-0.3,0.4-0.3,0.7    c-0.2,0.8-1.6,1.7-3,1.7c-0.5,0-0.7-0.1-0.8-0.2c0,0,0,0,0-0.1c0.1-0.3,0.1-0.5,0.1-0.8c0.9-4.1,0.5-7.7-1.1-9.9    c-1.1-1.5-2.8-2.4-4.6-2.4c-1.3,0-2.5,0.4-3.7,1l1.5-4.6c0.4-1.2-0.3-2.6-1.5-3c-1.2-0.4-2.6,0.3-3,1.5l-5.9,18.3c0,0,0,0,0,0    c-2.1,6.4-5.5,9.9-6.5,10c-1.3,0-2.4,1.1-2.4,2.4s1.1,2.4,2.4,2.4c2.2,0,4.3-1.6,6.2-3.9c0.2,0.6,0.5,1.1,0.8,1.5    c1.1,1.5,2.8,2.4,4.6,2.4c4.6,0,9.1-5,11.6-10.4c0.7,0.3,1.6,0.5,2.5,0.5c0.5,0,1,0,1.4-0.1c-0.3,3.2,0.2,5.9,1.5,7.7    c1.1,1.5,2.8,2.4,4.6,2.4c5.4,0,10.6-6.8,12.7-13.3C229.7,26.7,229.5,22.1,227.5,19.4z M193.8,40.3c-0.3,0-0.5-0.1-0.8-0.4    c-0.8-1.1-1.1-4.1,0.2-8.1c2-6.2,6.1-10,8.2-10c0.3,0,0.5,0.1,0.8,0.4c0.8,1.1,1.1,4.1-0.2,8.1C199.9,36.5,195.8,40.3,193.8,40.3z     M223.5,30.3c-2,6.2-6.1,10-8.2,10c-0.3,0-0.5-0.1-0.8-0.4c-0.8-1.1-1.1-4.1,0.2-8.1c2-6.2,6.1-10,8.2-10c0.3,0,0.5,0.1,0.8,0.4    C224.5,23.3,224.8,26.4,223.5,30.3z"></path>
		<path class="st2" d="M249.2,17.7c-1-0.9-2.5-0.8-3.3,0.2l-7.4,8.3l-1.8-7.3c-0.3-1.3-1.6-2-2.9-1.7c-1.3,0.3-2,1.6-1.7,2.9    l2.6,10.4L225,41.1c-0.9,1-0.8,2.5,0.2,3.3c0.5,0.4,1,0.6,1.6,0.6c0.6,0,1.3-0.3,1.8-0.8L236,36l1.8,7.3c0.3,1.1,1.2,1.8,2.3,1.8    c0.2,0,0.4,0,0.6-0.1c1.3-0.3,2-1.6,1.7-2.9l-2.6-10.4l9.6-10.7C250.3,20,250.2,18.5,249.2,17.7z"></path>
		<ellipse transform="matrix(0.7617 -0.6479 0.6479 0.7617 28.8225 103.6689)" class="st2" cx="155.3" cy="12.7" rx="2.8" ry="2"></ellipse>
	</g>
	<g>
		<defs>
			<path id="SVGID_2_" d="M90.6,0.5C85-1.3,79,1.8,77.1,7.4l-22.4,69c-1.8,5.5-5,10.1-9.1,13.5c0.2-5,1.1-10.3,2.8-15.5l13.3-40.9     c1.7-5.2-1.1-10.7-6.3-12.4c-5.2-1.7-10.7,1.1-12.4,6.3L29.7,68.3l-2.7,8.2C25.3,82,22,86.6,17.9,90.1c-1.4,1.1-1.4,1.1,0,0     c0.3-5,1.2-10.3,3-15.6l9.6-29.6c1.5-4.7-1.1-9.8-5.8-11.4c-4.7-1.5-9.8,1.1-11.4,5.8L3.6,68.9c-3.3,10.1-4.3,20-3.3,28     c1.2,9,4.9,15.7,10.9,17.6c3.7,1.2,7.7,0.7,11.7-1.2c2.7-1.3,5.4-3.2,7.9-5.6c2,3.3,4.8,5.6,8.1,6.7c4,1.3,8.2,0.9,12.5-1     C60.9,109.3,70.2,98,75,83l22.4-69C99.3,8.4,96.2,2.3,90.6,0.5z"></path>
		</defs>
		<clipPath id="SVGID_3_">
			<use xlink:href="#SVGID_2_" style="overflow:visible;"></use>
		</clipPath>
		<rect x="-11" y="-2.4" class="st3" width="120" height="120"></rect>
		<linearGradient id="SVGID_4_" gradientUnits="userSpaceOnUse" x1="6.435" y1="111.493" x2="39.6938" y2="78.2342">
			<stop offset="0.2" style="stop-color:#FF0028"></stop>
			<stop offset="1" style="stop-color:#8C0064"></stop>
		</linearGradient>
		<path class="st4" d="M27,96.8c-1.4-8.2-0.6-18.2,2.8-28.5l-2.7,8.2C25.3,82,22,86.6,17.9,90.1c-4.9,4.1-11,6.5-17.5,6.8    c1.2,9,4.9,15.7,10.9,17.6c3.7,1.2,7.7,0.7,11.7-1.2c2.7-1.3,5.4-3.2,7.9-5.6C29,104.8,27.7,101.1,27,96.8z"></path>
		<linearGradient id="SVGID_5_" gradientUnits="userSpaceOnUse" x1="26.3136" y1="58.6897" x2="62.252" y2="58.6897">
			<stop offset="0.2" style="stop-color:#FF0028"></stop>
			<stop offset="1" style="stop-color:#8C0064"></stop>
		</linearGradient>
		<path class="st5" d="M48.5,74.4l13.3-40.9c1.7-5.2-1.1-10.7-6.3-12.4c-5.2-1.7-10.7,1.1-12.4,6.3L29.7,68.3    c-3.3,10.3-4.2,20.4-2.8,28.5c5.2-0.1,10.3-1.5,14.7-4.1c1.4-0.8,2.7-1.8,4-2.8C45.8,84.9,46.8,79.6,48.5,74.4z"></path>
		
			<linearGradient id="SVGID_6_" gradientUnits="userSpaceOnUse" x1="48.9848" y1="0.4282" x2="48.9848" y2="120.4058" gradientTransform="matrix(1 0 0 -1 0 118)">
			<stop offset="0" style="stop-color:#8C0064"></stop>
			<stop offset="0.25" style="stop-color:#FF0028;stop-opacity:0"></stop>
		</linearGradient>
		<rect x="-11" y="-2.4" class="st6" width="120" height="120"></rect>
		
			<linearGradient id="SVGID_7_" gradientUnits="userSpaceOnUse" x1="48.9848" y1="0.4282" x2="48.9848" y2="120.4058" gradientTransform="matrix(1 0 0 -1 0 118)">
			<stop offset="0.1" style="stop-color:#FF0064;stop-opacity:0"></stop>
			<stop offset="0.4" style="stop-color:#FF0028"></stop>
		</linearGradient>
		<rect x="-11" y="-2.4" class="st7" width="120" height="120"></rect>
	</g>
</g>
</svg>
