<?xml version="1.0" encoding="UTF-8"?>
<!-- Generator: Adobe Illustrator 25.2.1, SVG Export Plug-In . SVG Version: 6.00 Build 0)  -->
<svg xmlns="http://www.w3.org/2000/svg" xmlns:xlink="http://www.w3.org/1999/xlink" version="1.1" id="Layer_1" x="0px" y="0px" viewBox="0 0 48 48" style="enable-background:new 0 0 48 48;" xml:space="preserve">
<style type="text/css">
	.st0{fill:#F50000;}
	.st1{fill:none;stroke:#F50000;stroke-width:2.5;stroke-miterlimit:10;}
	.st2{fill:none;stroke:#FF0000;stroke-width:2.5;stroke-linecap:round;stroke-linejoin:round;stroke-miterlimit:10;}
</style>
<path class="st0" d="M31.7,9.6L21.6,19.7l-5.3-5.4c-0.3-0.3-0.6-0.4-1-0.4c0,0,0,0,0,0c-0.4,0-0.7,0.1-1,0.4c-0.3,0.3-0.4,0.6-0.4,1  c0,0.4,0.1,0.7,0.4,1l6.3,6.3c0.2,0.2,0.6,0.4,0.9,0.4c0,0,0,0,0.1,0c0.4,0,0.7-0.2,0.9-0.4l11-11c0.5-0.5,0.5-1.4,0-1.9  C33.1,9.1,32.2,9.1,31.7,9.6z"></path>
<path class="st1" d="M43.5,29.2h-39c-1.7,0-3-1.4-3-3V6c0-1.7,1.3-3,3-3h39c1.7,0,3,1.3,3,3v20.2C46.5,27.8,45.2,29.2,43.5,29.2z"></path>
<circle class="st0" cx="24" cy="2.2" r="2"></circle>
<g>
	<line class="st2" x1="33" y1="46.4" x2="27.1" y2="30.3"></line>
	<line class="st2" x1="20.9" y1="30.3" x2="15" y2="46.4"></line>
</g>
</svg>
