<?xml version="1.0" encoding="UTF-8"?>
<!-- Generator: Adobe Illustrator 25.2.1, SVG Export Plug-In . SVG Version: 6.00 Build 0)  -->
<svg xmlns="http://www.w3.org/2000/svg" xmlns:xlink="http://www.w3.org/1999/xlink" version="1.1" id="Layer_1" x="0px" y="0px" viewBox="0 0 523 300" style="enable-background:new 0 0 523 300;" xml:space="preserve">
<style type="text/css">
	.st0{fill:url(#SVGID_1_);}
	.st1{fill:#FFFFFF;}
	.st2{opacity:0.4;fill:#FFFFFF;}
</style>
<linearGradient id="SVGID_1_" gradientUnits="userSpaceOnUse" x1="0" y1="150" x2="523" y2="150">
	<stop offset="0" style="stop-color:#833AB4"></stop>
	<stop offset="0.5" style="stop-color:#FD1D1D"></stop>
	<stop offset="1" style="stop-color:#FCB045"></stop>
</linearGradient>
<rect class="st0" width="523" height="300"></rect>
<path class="st1" d="M172.5,103.9L159,90.5c13.3-13.5,28.8-24.1,46.6-31.5s36.4-11.2,56-11.2c3.4,0,7.2,0.1,11.6,0.3  c4.3,0.2,8.7,0.6,13.3,1.2l-9,18.4c-2.6-0.3-5.1-0.5-7.7-0.5c-2.6-0.1-5.3-0.1-8.1-0.1c-17,0-33,3.3-48.2,9.8  C198.2,83.3,184.6,92.4,172.5,103.9z M198.7,129.1l-13.5-13.5c9.8-9.6,21.6-16.8,35.3-21.8c13.7-5,29.4-6.9,46.9-5.7l-8.3,17.3  c-10.9-0.3-21.9,1.8-33,6.2C215.1,116,206,121.9,198.7,129.1z M253.9,183.6c-3.8-1.6-6.6-4.5-8.4-8.8c-1.8-4.2-1.6-8.5,0.3-12.6  l50.7-104.7c0.4-1,1.2-1.7,2.3-2.1c1.1-0.4,2.2-0.5,3.3-0.2c1.2,0.3,2.1,1,2.8,1.9c0.7,1,1,2.1,0.6,3.2L276,174.7  c-1.2,4.6-4,7.6-8.8,9.1C262.5,185.3,258,185.2,253.9,183.6z M324.4,129.1c-2.3-2.4-5.5-5.1-9.5-7.9c-4-2.9-7.5-4.9-10.4-6.2  l4.5-18.4c5,1.7,10.2,4.4,15.6,8.2c5.4,3.8,9.8,7.4,13.3,10.8L324.4,129.1z M350.6,103.9c-5.5-5.4-11.6-10.3-18.2-14.8  c-6.6-4.4-12.8-7.9-18.8-10.7l4.7-19.2c9.2,3.8,17.5,8.3,24.7,13.5c7.2,5.2,14.2,11.1,20.9,17.6L350.6,103.9z"></path>
<path class="st2" d="M312,209.3l0,5.6h4.7v-5.6c0-1.3-1.1-2.4-2.4-2.4C313,206.9,312,208,312,209.3z M314.8,212.7h1v1.2h-1V212.7z   M314.8,210.4h1v1.4h-1V210.4z M314.8,207.9c0.6,0.2,1,0.7,1,1.3v0.2h-1V207.9z M312.9,212.7h1v1.2h-1L312.9,212.7z M312.9,210.4h1  v1.4h-1L312.9,210.4z M312.9,209.3c0-0.6,0.4-1.1,1-1.3v1.5h-1L312.9,209.3z M312,219.4h0.5H312l0,5.6h4.7v-5.6  c0-1.3-1.1-2.4-2.4-2.4C313,217,312,218.1,312,219.4z M314.8,222.8h1v1.2h-1V222.8z M314.8,220.5h1v1.4h-1V220.5z M314.8,218  c0.6,0.2,1,0.7,1,1.3v0.2h-1V218z M312.9,222.8h1v1.2h-1L312.9,222.8z M312.9,220.5h1v1.4h-1L312.9,220.5z M312.9,219.4  c0-0.6,0.4-1.1,1-1.3v1.6h-1L312.9,219.4z M310.8,233.7l0,11.4h7v-11.4c0-1.9-1.6-3.5-3.5-3.5C312.4,230.1,310.8,231.7,310.8,233.7z   M311.7,233.7c0-1.4,1.2-2.6,2.6-2.6c1.4,0,2.6,1.2,2.6,2.6v10.4h-5.2L311.7,233.7z M331,220.9h0.5H331l0,5.6h4.7v-5.6  c0-1.3-1.1-2.4-2.4-2.4C332.1,218.6,331,219.6,331,220.9z M333.8,224.4h1v1.2h-1V224.4z M333.8,222.1h1v1.4h-1V222.1z M333.8,219.6  c0.6,0.2,1,0.7,1,1.3v0.2h-1V219.6z M332,224.4h1v1.2h-1L332,224.4z M332,222.1h1v1.4h-1L332,222.1z M332,220.9c0-0.6,0.4-1.1,1-1.3  v1.6h-1L332,220.9z M331,234.3l0,5.6h4.7v-5.6c0-1.3-1.1-2.4-2.4-2.4C332.1,231.9,331,233,331,234.3z M333.8,237.7h1v1.2h-1V237.7z   M333.8,235.4h1v1.4h-1V235.4z M333.8,232.9c0.6,0.2,1,0.7,1,1.3v0.2h-1V232.9z M332,237.7h1v1.2h-1L332,237.7z M332,235.4h1v1.4h-1  L332,235.4z M332,234.3c0-0.6,0.4-1.1,1-1.3v1.6h-1L332,234.3z M321.5,234.3l0,5.6h4.7v-5.6c0-1.3-1.1-2.4-2.4-2.4  C322.5,231.9,321.5,233,321.5,234.3z M322.4,234.3c0-0.8,0.6-1.4,1.4-1.4c0.8,0,1.4,0.6,1.4,1.4l0,4.7h-2.8L322.4,234.3z   M292.9,226.5h4.7l0-5.6c0-1.3-1.1-2.4-2.4-2.4c-1.3,0-2.4,1.1-2.4,2.4V226.5z M295.7,224.4h1l0,1.2h-1V224.4z M295.7,222.1h1l0,1.4  h-1V222.1z M295.7,219.6c0.6,0.2,1,0.7,1,1.3l0,0.2h-1V219.6z M293.8,224.4h1v1.2h-1V224.4z M293.8,222.1h1v1.4h-1V222.1z   M293.8,220.9c0-0.6,0.4-1.1,1-1.3v1.6h-1V220.9z M292.9,234.3v5.6h4.7l0-5.6l-0.5,0h0.5c0-1.3-1.1-2.4-2.4-2.4  C293.9,231.9,292.9,233,292.9,234.3z M295.7,237.7h1l0,1.2h-1V237.7z M295.7,235.4h1l0,1.4h-1V235.4z M295.7,232.9  c0.6,0.2,1,0.7,1,1.3l0,0.2h-1V232.9z M293.8,237.7h1v1.2h-1V237.7z M293.8,235.4h1v1.4h-1V235.4z M293.8,234.3c0-0.6,0.4-1.1,1-1.3  v1.6h-1V234.3z M302.2,234.3v5.6h4.7l0-5.6c0-1.3-1.1-2.4-2.4-2.4C303.2,231.9,302.2,233,302.2,234.3z M303.1,234.3  c0-0.8,0.6-1.4,1.4-1.4c0.8,0,1.4,0.6,1.4,1.4l0,4.7h-2.8V234.3z M411.4,231h-5.2v6.7h5.2V231z M410.4,236.7h-3.3v-4.8h3.3V236.7z   M402.9,231h-5.2v6.7h5.2V231z M402,236.7h-3.3v-4.8h3.3V236.7z M406.2,224.2h0.5H406.2l0,3.9h5.2v-3.9c0-1.4-1.2-2.6-2.6-2.6  C407.3,221.6,406.2,222.8,406.2,224.2z M407.1,224.2c0-0.9,0.7-1.7,1.7-1.7c0.9,0,1.7,0.7,1.7,1.7v2.9h-3.3L407.1,224.2z   M397.9,224.2h0.5H397.9l0,3.9h5.2v-3.9c0-1.4-1.2-2.6-2.6-2.6C399,221.6,397.9,222.8,397.9,224.2z M398.8,224.2  c0-0.9,0.7-1.7,1.7-1.7c0.9,0,1.7,0.7,1.7,1.7v2.9h-3.3L398.8,224.2z M512.2,242.2H507v6.7h5.2V242.2z M511.2,247.9h-3.3v-4.8h3.3  V247.9z M503.7,242.2h-5.2v6.7h5.2V242.2z M502.8,247.9h-3.3v-4.8h3.3V247.9z M507,235.4h0.5H507l0,3.9h5.2v-3.9  c0-1.4-1.2-2.6-2.6-2.6C508.2,232.8,507,234,507,235.4z M507.9,235.4c0-0.9,0.7-1.7,1.7-1.7c0.9,0,1.7,0.7,1.7,1.7v2.9H508  L507.9,235.4z M498.7,235.4h0.5H498.7l0,3.9h5.2v-3.9c0-1.4-1.2-2.6-2.6-2.6C499.9,232.8,498.7,234,498.7,235.4z M499.6,235.4  c0-0.9,0.7-1.7,1.7-1.7c0.9,0,1.7,0.7,1.7,1.7l0,2.9h-3.3L499.6,235.4z M22.7,247.1h-5.2v6.7h5.2V247.1z M21.8,252.8h-3.3l0-4.8h3.3  V252.8z M14.3,247.1H9.1v6.7h5.2V247.1z M13.3,252.8H10l0-4.8h3.3V252.8z M17.5,240.4H18H17.5l0,3.9h5.2v-3.9c0-1.4-1.2-2.6-2.6-2.6  C18.7,237.8,17.5,238.9,17.5,240.4z M18.5,240.4c0-0.9,0.7-1.7,1.7-1.7c0.9,0,1.7,0.7,1.7,1.7v2.9h-3.3L18.5,240.4z M9.2,240.4h0.5  H9.2l0,3.9h5.2v-3.9c0-1.4-1.2-2.6-2.6-2.6C10.4,237.8,9.2,238.9,9.2,240.4z M10.1,240.4c0-0.9,0.7-1.7,1.7-1.7  c0.9,0,1.7,0.7,1.7,1.7v2.9h-3.3L10.1,240.4z M352,222.4h0.5H352l0,3.9h5.2v-3.9c0-1.4-1.2-2.6-2.6-2.6  C353.2,219.9,352,221,352,222.4z M352.9,222.4c0-0.9,0.7-1.7,1.7-1.7c0.9,0,1.7,0.7,1.7,1.7l0,2.9h-3.3L352.9,222.4z M371.9,210.7  h0.5H371.9l0,6.5h5.2v-6.5c0-1.4-1.2-2.6-2.6-2.6C373,208.1,371.9,209.2,371.9,210.7z M372.8,210.7c0-0.9,0.7-1.7,1.7-1.7  c0.9,0,1.7,0.7,1.7,1.7l0,5.5h-3.3L372.8,210.7z M371.9,222.1l0,6.5h5.2v-6.5c0-1.4-1.2-2.6-2.6-2.6  C373,219.5,371.9,220.7,371.9,222.1z M372.8,222.1c0-0.9,0.7-1.7,1.7-1.7c0.9,0,1.7,0.7,1.7,1.7v5.5h-3.3L372.8,222.1z M371.9,233.5  l0,6.5h5.2v-6.5c0-1.4-1.2-2.6-2.6-2.6C373,230.9,371.9,232.1,371.9,233.5z M372.8,233.5c0-0.9,0.7-1.7,1.7-1.7  c0.9,0,1.7,0.7,1.7,1.7v5.5h-3.3L372.8,233.5z M350.9,234.3h0.5H350.9l0,7.7h7v-7.7c0-1.9-1.6-3.5-3.5-3.5  C352.5,230.8,350.9,232.3,350.9,234.3z M351.9,234.3c0-1.4,1.2-2.6,2.6-2.6c1.4,0,2.6,1.2,2.6,2.6v6.7h-5.2L351.9,234.3z   M241.7,245.4h0.5H241.7l0,10.8h6.2l0-10.8c0-1.7-1.4-3.1-3.1-3.1C243.1,242.3,241.7,243.7,241.7,245.4z M242.6,245.4  c0-1.2,1-2.2,2.2-2.2c1.2,0,2.2,1,2.2,2.2v9.8h-4.4L242.6,245.4z M249.6,245.4h0.5H249.6l0,3.9h6.2v-3.9c0-1.7-1.4-3.1-3.1-3.1  C251,242.3,249.6,243.7,249.6,245.4z M250.5,245.4c0-1.2,1-2.2,2.2-2.2c1.2,0,2.2,1,2.2,2.2v2.9h-4.4L250.5,245.4z M210.2,249.2h0.5  H210.2l0,10.8h6.2v-10.8c0-1.7-1.4-3.1-3.1-3.1C211.6,246,210.2,247.4,210.2,249.2z M211.1,249.2c0-1.2,1-2.2,2.2-2.2  c1.2,0,2.2,1,2.2,2.2l0,9.8h-4.4L211.1,249.2z M180.6,251h0.5H180.6l0,10.8h6.2V251c0-1.7-1.4-3.1-3.1-3.1  C182,247.9,180.6,249.3,180.6,251z M181.5,251c0-1.2,1-2.2,2.2-2.2c1.2,0,2.2,1,2.2,2.2l0,9.8h-4.4L181.5,251z M188.6,251h0.5H188.6  l0,3.9h6.2V251c0-1.7-1.4-3.1-3.1-3.1C190,247.9,188.6,249.3,188.6,251z M189.5,251c0-1.2,1-2.2,2.2-2.2c1.2,0,2.2,1,2.2,2.2l0,2.9  h-4.4L189.5,251z M125.7,256L125.7,256l0,7.9h6.2l0-7.9c0-1.7-1.4-3.1-3.1-3.1C127.1,252.9,125.7,254.3,125.7,256z M126.6,256  c0-1.2,1-2.2,2.2-2.2c1.2,0,2.2,1,2.2,2.2v7h-4.4L126.6,256z M126.7,227h4.2v-3.9c0-1.2-0.9-2.1-2.1-2.1c-1.2,0-2.1,0.9-2.1,2.1h0.5  l-0.5,0L126.7,227z M127.6,223.2c0-0.6,0.5-1.2,1.2-1.2c0.6,0,1.1,0.5,1.2,1.2v2.9h-2.3L127.6,223.2z M126.7,237.2h4.2v-3.9  c0-1.2-0.9-2.1-2.1-2.1c-1.2,0-2.1,0.9-2.1,2.1L126.7,237.2z M127.6,233.3c0-0.6,0.5-1.2,1.2-1.2c0.6,0,1.1,0.5,1.2,1.2l0,2.9h-2.3  L127.6,233.3z M126.7,247.3h4.2v-3.9c0-1.2-0.9-2.1-2.1-2.1c-1.2,0-2.1,0.9-2.1,2.1L126.7,247.3z M127.6,243.5  c0-0.6,0.5-1.2,1.2-1.2c0.6,0,1.1,0.5,1.2,1.2l0,2.9h-2.3L127.6,243.5z M57.9,240.7l0,7.9h5.1v-7.9c0-1.4-1.2-2.6-2.6-2.6  C59.1,238.1,57.9,239.2,57.9,240.7z M58.9,244.3h3.3v3.3h-3.3L58.9,244.3z M58.9,240.7c0-0.9,0.7-1.6,1.6-1.6c0.9,0,1.6,0.7,1.6,1.6  v2.7h-3.3L58.9,240.7z M50.5,240.7l0,7.9h5.1v-7.9c0-1.4-1.2-2.6-2.6-2.6C51.6,238.1,50.5,239.2,50.5,240.7z M51.4,244.3h3.3v3.3  h-3.3L51.4,244.3z M51.4,240.7c0-0.9,0.7-1.6,1.6-1.6c0.9,0,1.6,0.7,1.6,1.6v2.7h-3.3L51.4,240.7z M57.9,252.3h0.5H57.9l0,7.9h5.1  v-7.9c0-1.4-1.2-2.6-2.6-2.6C59.1,249.7,57.9,250.9,57.9,252.3z M58.9,255.9h3.3v3.3h-3.3L58.9,255.9z M58.9,252.3  c0-0.9,0.7-1.6,1.6-1.6c0.9,0,1.6,0.7,1.6,1.6v2.7h-3.3L58.9,252.3z M50.5,252.3l0,7.9h5.1v-7.9c0-1.4-1.2-2.6-2.6-2.6  C51.6,249.7,50.5,250.9,50.5,252.3z M51.4,255.9h3.3v3.3h-3.3L51.4,255.9z M51.4,252.3c0-0.9,0.7-1.6,1.6-1.6c0.9,0,1.6,0.7,1.6,1.6  v2.7h-3.3L51.4,252.3z M80.6,240.7l0,7.9h5.1v-7.9c0-1.4-1.2-2.6-2.6-2.6C81.8,238.1,80.6,239.2,80.6,240.7z M81.6,244.3h3.3v3.3  h-3.3L81.6,244.3z M81.6,240.7c0-0.9,0.7-1.6,1.6-1.6c0.9,0,1.6,0.7,1.6,1.6v2.7h-3.3L81.6,240.7z M73.2,240.7l0,7.9h5.1v-7.9  c0-1.4-1.2-2.6-2.6-2.6C74.3,238.1,73.2,239.2,73.2,240.7z M74.1,244.3h3.3v3.3h-3.3L74.1,244.3z M74.1,240.7c0-0.9,0.7-1.6,1.6-1.6  c0.9,0,1.6,0.7,1.6,1.6v2.7h-3.3L74.1,240.7z M80.6,252.3h0.5H80.6l0,7.9h5.1l0-7.9c0-1.4-1.2-2.6-2.6-2.6  C81.8,249.7,80.6,250.9,80.6,252.3z M81.6,255.9h3.3v3.3h-3.3L81.6,255.9z M81.6,252.3c0-0.9,0.7-1.6,1.6-1.6c0.9,0,1.6,0.7,1.6,1.6  v2.7h-3.3L81.6,252.3z M73.2,252.3l0,7.9h5.1l0-7.9c0-1.4-1.2-2.6-2.6-2.6C74.3,249.7,73.2,250.9,73.2,252.3z M74.1,255.9h3.3v3.3  h-3.3L74.1,255.9z M74.1,252.3c0-0.9,0.7-1.6,1.6-1.6c0.9,0,1.6,0.7,1.6,1.6v2.7h-3.3L74.1,252.3z M430.7,222.4h0.5H430.7l0,7.9h5.1  v-7.9c0-1.4-1.2-2.6-2.6-2.6C431.8,219.8,430.7,221,430.7,222.4z M431.6,226h3.3v3.3h-3.3L431.6,226z M431.6,222.4  c0-0.9,0.7-1.6,1.6-1.6c0.9,0,1.6,0.7,1.6,1.6v2.7h-3.3L431.6,222.4z M423.2,222.4h0.5H423.2l0,7.9h5.1v-7.9c0-1.4-1.2-2.6-2.6-2.6  C424.4,219.8,423.2,221,423.2,222.4z M424.1,226h3.3v3.3h-3.3L424.1,226z M424.1,222.4c0-0.9,0.7-1.6,1.6-1.6c0.9,0,1.6,0.7,1.6,1.6  v2.7h-3.3L424.1,222.4z M430.7,234l0,7.9h5.1V234c0-1.4-1.2-2.6-2.6-2.6S430.7,232.6,430.7,234z M431.6,237.7h3.3v3.3h-3.3  L431.6,237.7z M431.6,234c0-0.9,0.7-1.6,1.6-1.6c0.9,0,1.6,0.7,1.6,1.6v2.7h-3.3L431.6,234z M423.2,234l0,7.9h5.1l0-7.9  c0-1.4-1.2-2.6-2.6-2.6S423.2,232.6,423.2,234z M424.1,237.7h3.3v3.3h-3.3L424.1,237.7z M424.1,234c0-0.9,0.7-1.6,1.6-1.6  c0.9,0,1.6,0.7,1.6,1.6v2.7h-3.3L424.1,234z M453.4,222.4h0.5H453.4l0,7.9h5.1v-7.9c0-1.4-1.2-2.6-2.6-2.6  C454.5,219.8,453.4,221,453.4,222.4z M454.3,226h3.3v3.3h-3.3L454.3,226z M454.3,222.4c0-0.9,0.7-1.6,1.6-1.6c0.9,0,1.6,0.7,1.6,1.6  v2.7h-3.3L454.3,222.4z M445.9,222.4h0.5H445.9l0,7.9h5.1v-7.9c0-1.4-1.2-2.6-2.6-2.6C447.1,219.8,445.9,221,445.9,222.4z   M446.9,226h3.3v3.3h-3.3L446.9,226z M446.9,222.4c0-0.9,0.7-1.6,1.6-1.6c0.9,0,1.6,0.7,1.6,1.6v2.7h-3.3L446.9,222.4z M453.4,234  l0,7.9h5.1l0-7.9c0-1.4-1.2-2.6-2.6-2.6C454.5,231.5,453.4,232.6,453.4,234z M454.3,237.7h3.3v3.3h-3.3L454.3,237.7z M454.3,234  c0-0.9,0.7-1.6,1.6-1.6c0.9,0,1.6,0.7,1.6,1.6v2.7h-3.3L454.3,234z M445.9,234l0,7.9h5.1V234c0-1.4-1.2-2.6-2.6-2.6  C447.1,231.5,445.9,232.6,445.9,234z M446.9,237.7h3.3v3.3h-3.3L446.9,237.7z M446.9,234c0-0.9,0.7-1.6,1.6-1.6  c0.9,0,1.6,0.7,1.6,1.6v2.7h-3.3L446.9,234z M152.9,243.8l0,7.9h5.1v-7.9c0-1.4-1.2-2.6-2.6-2.6C154,241.2,152.9,242.3,152.9,243.8z   M153.8,247.4h3.3v3.3h-3.3L153.8,247.4z M153.8,243.8c0-0.9,0.7-1.6,1.6-1.6c0.9,0,1.6,0.7,1.6,1.6v2.7h-3.3L153.8,243.8z   M145.4,243.8l0,7.9h5.1v-7.9c0-1.4-1.2-2.6-2.6-2.6C146.6,241.2,145.4,242.3,145.4,243.8z M146.3,247.4h3.3l0,3.3h-3.3L146.3,247.4  z M146.3,243.8c0-0.9,0.7-1.6,1.6-1.6c0.9,0,1.6,0.7,1.6,1.6l0,2.7h-3.3L146.3,243.8z M152.9,255.4h0.5H152.9l0,7.9h5.1v-7.9  c0-1.4-1.2-2.6-2.6-2.6C154,252.8,152.9,254,152.9,255.4z M153.8,259h3.3v3.3h-3.3L153.8,259z M153.8,255.4c0-0.9,0.7-1.6,1.6-1.6  c0.9,0,1.6,0.7,1.6,1.6v2.7h-3.3L153.8,255.4z M145.4,255.4h0.5H145.4l0,7.9h5.1l0-7.9c0-1.4-1.2-2.6-2.6-2.6  C146.6,252.8,145.4,254,145.4,255.4z M146.3,259h3.3v3.3h-3.3L146.3,259z M146.3,255.4c0-0.9,0.7-1.6,1.6-1.6c0.9,0,1.6,0.7,1.6,1.6  v2.7h-3.3L146.3,255.4z M0,254.8c2.3,0.4,4.5,0.8,6.8,1.2l0.7,0.1v-20.1H5.5l10.7-13.5l10.7,13.5h-2.1v22.8l0.5,0.1  c3.5,0.5,7,1,10.5,1.4l0.7,0.1v0l0.5,0.1c3.2,0.4,6.4,0.8,9.6,1.2l0.7,0.1v-25.4h18.4v27.3l0.6,0c1,0.1,2.1,0.2,3.1,0.3l0.7,0.1  v-27.6h18.4v28.9l0.6,0c3.1,0.2,6.2,0.3,9.4,0.4l0.6,0v0l0.3,0c4.5,0.2,8.9,0.3,13.4,0.4l0.6,0v0l0.5,0c2.8,0.1,5.6,0.1,8.3,0.1  l0.6,0v-16.1h1.2v0h10v0h1.2v16.1l0.6,0c2,0,3.9-0.1,5.9-0.1l0.6,0v-26.7h18.4v26.1l0.6,0c2.4-0.1,4.7-0.2,7.1-0.4l0.6,0v0l0.4,0  c3.1-0.2,6.3-0.4,9.4-0.6l0.6,0v-17h-2.1L188,234l10.7,13.5h-2.1V263l0.7-0.1c2.3-0.2,4.6-0.4,7-0.7l0.6-0.1v-16.7h-2.1l10.7-13.5  l10.7,13.5h-2.1v14.7l0.7-0.1c2.9-0.4,5.9-0.7,8.8-1.1l0.2,0v0l0.7-0.1c2.4-0.3,4.9-0.6,7.3-1l0.5-0.1v-16.1l-2.1,0l10.7-13.5  l10.7,13.5h-2.1v13.6l0.7-0.1c1.1-0.2,2.2-0.3,3.4-0.5c2.1-0.3,4.1-0.6,6.1-0.9l0.5-0.1v0l0.4-0.1c3.7-0.6,7.4-1.1,11-1.6l0.4-0.1v0  l0.7-0.1c2.6-0.4,5.1-0.7,7.7-1.1l0.5-0.1v-35.1h2.3l0,0h7.5l0,0h2.3v10.5h6.9v-22.1h4.7v0h2.8v0h4.7v22.1h6.9v-10.5h2.3l0,0h7.5  l0,0h2.3v29.6l0.7-0.1c1.8-0.1,3.5-0.3,5.2-0.4l0.6,0v-23h-2.1l10.7-13.5l10.7,13.5h-2.1v8.2h6.7v-29.8h1.8v2.3h6.3l0-2.3h2.2V243  l0.6,0c2.2-0.1,4.5-0.1,6.7-0.1l0.6,0v0l0.3,0c2.4,0,4.8-0.1,7.2-0.1l0.6,0v-22.8h-2.1l10.7-13.5l10.7,13.5h-2.1v23l0.6,0  c1.8,0,3.6,0.1,5.4,0.1l0.6,0v-25h18.4V244l0.6,0c1,0.1,2.1,0.1,3.1,0.2l0.7,0v-26.2h18.4v27.8l0.6,0.1c2.7,0.3,5.4,0.6,8.2,0.9  l0.4,0v0l0.5,0.1c4.3,0.5,8.7,1.1,13,1.7l0.7,0.1v0l0.5,0.1c3.7,0.5,7.5,1.1,11.2,1.7l0.7,0.1v-19.5h-2.1l10.7-13.5l10.7,13.5h-2.1  v22.3l0.5,0.1c2.9,0.5,5.9,0.9,8.2,1.3v-1.3c-2.2-0.4-4.7-0.8-7.5-1.2v-20h3.4l-13.3-16.7l-13.3,16.7c-0.1-1.1-0.7-2.1-1.6-2.6  c0.1-0.3,0.2-0.6,0.2-1c0-1.8-1.4-3.2-3.1-3.3c-0.2-1.6-1.6-2.9-3.3-2.9c-1.7,0-3.1,1.3-3.3,2.9c-1.7,0.1-3.1,1.5-3.1,3.3  c0,0.3,0.1,0.7,0.2,1c-1,0.6-1.7,1.6-1.7,2.8c0,1.3,0.7,2.4,1.8,2.9c0,1.8,1.5,3.2,3.3,3.2c0.3,0,0.7-0.1,1-0.1  c0.2,0.1,0.4,0.2,0.6,0.3v8.4c-3.9-0.6-7.9-1.1-11.8-1.5v-3.1c0.1-0.1,0.3-0.1,0.4-0.2c0.2,0.1,0.5,0.1,0.7,0.1  c1.5,0,2.6-1.1,2.7-2.6c0.8-0.5,1.4-1.3,1.4-2.4c0-1-0.5-1.8-1.3-2.3c0.1-0.2,0.1-0.5,0.1-0.7c0-1.4-1.1-2.6-2.5-2.7  c-0.2-1.3-1.3-2.3-2.7-2.3c-1.4,0-2.5,1-2.7,2.3c-1.4,0.1-2.5,1.3-2.5,2.7c0,0.3,0,0.5,0.1,0.7c-0.8,0.5-1.3,1.3-1.3,2.3  c0,1,0.6,1.9,1.4,2.4c0.1,1.4,1.3,2.6,2.7,2.6c0.3,0,0.5,0,0.7-0.1c0.1,0.1,0.3,0.1,0.4,0.2v2.8c-2.3-0.3-4.6-0.5-6.9-0.8v-31.5  h-20.9V243c-0.6,0-1.2-0.1-1.9-0.1v-29.6h-20.9v28.6c-1.4,0-2.8-0.1-4.2-0.1v-20.5h3.4l-13.3-16.7l-13.3,16.7h3.4v20.3  c-2,0-3.9,0-5.9,0.1v-6.2c0.1-0.1,0.3-0.1,0.4-0.2c0.2,0.1,0.5,0.1,0.7,0.1c1.5,0,2.6-1.1,2.7-2.6c0.8-0.5,1.4-1.3,1.4-2.4  c0-1-0.5-1.8-1.3-2.3c0.1-0.2,0.1-0.5,0.1-0.7c0-1.4-1.1-2.6-2.5-2.7c-0.2-1.3-1.3-2.3-2.7-2.3c-1.4,0-2.5,1-2.7,2.3  c-1.4,0.1-2.5,1.3-2.5,2.7c0,0.3,0,0.5,0.1,0.7c-0.8,0.5-1.3,1.3-1.3,2.3c0,1,0.6,1.9,1.4,2.4c0.1,1.4,1.3,2.6,2.7,2.6  c0.3,0,0.5,0,0.7-0.1c0.1,0.1,0.3,0.1,0.4,0.2v6.3c-1.8,0-3.6,0.1-5.4,0.1v-42.8h-4.6l0,2.3h-3.8v-2.3h-4.2v29.8h-4.2V223h3.4  l-13.3-16.7L341.3,223h3.4v20.6c-1.3,0.1-2.7,0.2-4,0.3v-28.8l-7.3-18.6l-7.3,18.6l0,9.8h-4.4v-21.5l-7.3-18.6l-7.3,18.6V225h-4.4  v-9.8l-7.3-18.6l-7.3,18.6v34.6c-2.1,0.3-4.3,0.6-6.4,0.9v-7.8c0.2-0.1,0.4-0.2,0.5-0.3c0.3,0.1,0.6,0.1,0.9,0.1c1.7,0,3-1.3,3.1-3  c1-0.5,1.6-1.5,1.6-2.7c0-1.1-0.6-2.1-1.5-2.6c0.1-0.3,0.1-0.6,0.1-0.9c0-1.6-1.3-3-2.9-3.1c-0.2-1.5-1.5-2.7-3.1-2.7  c-1.6,0-2.8,1.2-3,2.7c-1.6,0.1-2.9,1.4-2.9,3.1c0,0.3,0.1,0.6,0.1,0.9c-0.9,0.5-1.5,1.5-1.5,2.6c0,1.2,0.7,2.2,1.6,2.7  c0.1,1.7,1.4,3,3.1,3c0.3,0,0.6,0,0.9-0.1c0.2,0.1,0.4,0.2,0.5,0.3v8.1c-3.2,0.5-6.5,0.9-9.8,1.4V249c0.1-0.1,0.3-0.1,0.4-0.2  c0.2,0.1,0.5,0.1,0.7,0.1c1.5,0,2.6-1.1,2.7-2.6c0.8-0.5,1.4-1.3,1.4-2.4c0-1-0.5-1.8-1.3-2.3c0.1-0.2,0.1-0.5,0.1-0.7  c0-1.4-1.1-2.6-2.5-2.7c-0.2-1.3-1.3-2.3-2.7-2.3c-1.4,0-2.5,1-2.7,2.3c-1.4,0.1-2.5,1.3-2.5,2.7c0,0.3,0,0.5,0.1,0.7  c-0.5,0.3-0.9,0.7-1.1,1.3l-13.1-16.5l-13.3,16.7h3.4v13.8c-2,0.3-4.1,0.5-6.1,0.8v-3.3c0.1-0.1,0.2-0.1,0.4-0.2  c0.2,0.1,0.5,0.1,0.8,0.1c1.4,0,2.5-1.1,2.6-2.5c0.8-0.4,1.4-1.3,1.4-2.3c0-1-0.5-1.8-1.3-2.2c0.1-0.2,0.1-0.5,0.1-0.8  c0-1.4-1.1-2.5-2.4-2.6c-0.1-1.3-1.2-2.3-2.5-2.3c-1.3,0-2.4,1-2.5,2.3c-1.4,0.1-2.4,1.2-2.4,2.6c0,0.3,0,0.5,0.1,0.8  c-0.8,0.4-1.3,1.3-1.3,2.2c0,1,0.6,1.9,1.4,2.3c0,1.4,1.2,2.5,2.6,2.5c0.3,0,0.5,0,0.8-0.1c0.1,0.1,0.2,0.1,0.4,0.2v3.6  c-2.5,0.3-5,0.6-7.6,0.9v-12.1h3.4l-13.3-16.7l-13.3,16.7l3.4,0v14.3c-1.9,0.2-3.8,0.4-5.7,0.6v-13h3.4L188,232l-13.3,16.7l3.4,0  v14.6c-2.7,0.2-5.5,0.4-8.2,0.5v-6.5c0.1-0.1,0.3-0.1,0.4-0.2c0.2,0.1,0.5,0.1,0.7,0.1c1.5,0,2.6-1.1,2.7-2.6  c0.8-0.5,1.4-1.3,1.4-2.4c0-1-0.5-1.8-1.3-2.3c0.1-0.2,0.1-0.5,0.1-0.7c0-1.4-1.1-2.6-2.5-2.7c-0.2-1.3-1.3-2.3-2.7-2.3  c-1.4,0-2.5,1-2.7,2.3c-1.4,0.1-2.5,1.3-2.5,2.7c0,0.3,0,0.5,0.1,0.7c-0.8,0.5-1.3,1.3-1.3,2.3c0,1,0.6,1.9,1.4,2.4  c0.1,1.4,1.3,2.6,2.7,2.6c0.3,0,0.5,0,0.7-0.1c0.1,0.1,0.3,0.1,0.4,0.2v6.6c-2,0.1-3.9,0.2-5.8,0.3v-29.6H141v30.4  c-1.5,0-3.1,0.1-4.6,0.1v-16H134v-31.1h0c0,0,0,0,0,0v-0.6h0c-0.3-2.4-2.4-4.3-4.9-4.3c-2.5,0-4.6,1.9-4.9,4.3h0v0.2  c0,0.2,0,0.3,0,0.5h0V249h-2.4v16.1c-2.4,0-4.7,0-7.1-0.1v-7.9c0.2-0.1,0.4-0.2,0.5-0.3c0.3,0.1,0.6,0.1,0.9,0.1c1.7,0,3-1.3,3.1-3  c1-0.5,1.6-1.5,1.6-2.7c0-1.1-0.6-2.1-1.5-2.6c0.1-0.3,0.1-0.6,0.1-0.9c0-1.6-1.3-3-2.9-3.1c-0.2-1.5-1.5-2.7-3.1-2.7  c-1.6,0-2.8,1.2-3.1,2.7c-1.6,0.1-2.9,1.4-2.9,3.1c0,0.3,0,0.6,0.1,0.9c-0.9,0.5-1.5,1.5-1.5,2.6c0,1.2,0.7,2.2,1.6,2.7  c0.1,1.7,1.4,3,3.1,3c0.3,0,0.6,0,0.9-0.1c0.2,0.1,0.4,0.2,0.5,0.3v7.8c-4.1-0.1-8.1-0.2-12.2-0.4v-3.8c0.1-0.1,0.3-0.1,0.4-0.2  c0.2,0.1,0.5,0.1,0.7,0.1c1.5,0,2.6-1.1,2.7-2.6c0.8-0.5,1.4-1.3,1.4-2.4c0-1-0.5-1.8-1.3-2.3c0.1-0.2,0.1-0.5,0.1-0.7  c0-1.4-1.1-2.6-2.5-2.7c-0.2-1.3-1.3-2.3-2.7-2.3c-1.4,0-2.5,1-2.7,2.3c-1.4,0.1-2.5,1.3-2.5,2.7c0,0.3,0,0.5,0.1,0.7  c-0.8,0.5-1.3,1.3-1.3,2.3h0c0,1,0.6,1.9,1.4,2.4c0.1,1.4,1.3,2.6,2.7,2.6c0.3,0,0.5,0,0.7-0.1c0.1,0.1,0.3,0.1,0.4,0.2v3.7  c-2.7-0.1-5.4-0.2-8.1-0.4v-32.6H68.8v31.2c-0.6-0.1-1.2-0.1-1.9-0.2v-31H46.1v28.9c-2.8-0.3-5.6-0.7-8.4-1v-5.1  c0.2-0.1,0.5-0.2,0.7-0.3c0.3,0.1,0.6,0.1,1,0.1c1.8,0,3.3-1.5,3.3-3.3c1.1-0.6,1.8-1.7,1.8-3c0-1.2-0.7-2.3-1.7-2.9  c0.1-0.3,0.2-0.7,0.2-1c0-1.8-1.4-3.2-3.2-3.3c-0.2-1.7-1.6-2.9-3.3-2.9c-1.7,0-3.1,1.3-3.3,2.9c-1.8,0.1-3.2,1.5-3.2,3.3  c0,0.4,0.1,0.7,0.2,1c-1,0.6-1.7,1.6-1.7,2.9h0c0,1.3,0.7,2.4,1.8,3c0,1.8,1.5,3.3,3.3,3.3c0.3,0,0.7-0.1,1-0.1  c0.2,0.1,0.4,0.2,0.7,0.3v4.8c-3.1-0.4-6.2-0.8-9.3-1.3v-20.5h3.4l-13.3-16.7L2.9,237.3l3.4,0v17.4c-2-0.3-4.1-0.7-6.2-1.1l-0.1,0  L0,254.8z M485.7,238.9c0.2-0.1,0.4-0.2,0.6-0.3c0.3,0.1,0.6,0.1,1,0.1c1.8,0,3.2-1.4,3.3-3.2c1-0.5,1.8-1.6,1.8-2.9  c0-0.1,0-0.1,0-0.2l3.4,0v16.8c-3.3-0.5-6.7-1-10-1.5V238.9z M483.2,237.4l-0.3-0.3l-0.4,0.2c-0.3,0.1-0.5,0.2-0.8,0.2  c-1.1,0-2-0.9-2-2c0,0,0-0.1,0-0.3l0-0.5l-0.5-0.2c-0.8-0.3-1.4-1-1.4-1.9c0-0.9,0.6-1.7,1.4-1.9l0.7-0.2l-0.4-0.7  c-0.2-0.3-0.3-0.6-0.3-1c0-1.1,0.9-2,2-2c0.1,0,0.2,0,0.3,0l0.8,0.1l-0.1-0.8c0-0.1,0-0.2,0-0.2c0-1.1,0.9-2,2-2c1.1,0,2,0.9,2,2  c0,0,0,0.1,0,0.2l-0.1,0.8l0.8-0.1c0.1,0,0.2,0,0.3,0c1.1,0,2,0.9,2,2c0,0.4-0.1,0.7-0.3,1l-0.4,0.7l0.7,0.2c0.8,0.3,1.4,1,1.4,1.9  c0,0.9-0.6,1.6-1.4,1.9l-0.5,0.2l0.1,0.5c0,0.1,0,0.2,0,0.2c0,1.1-0.9,2-2,2c-0.3,0-0.6-0.1-0.8-0.2l-0.4-0.2l-0.3,0.3  c-0.2,0.2-0.5,0.3-0.8,0.4l-0.1,0c-0.2,0-0.3,0.1-0.4,0.1c0,0,0,0,0,0c-0.1,0-0.3,0-0.4-0.1l0,0  C483.7,237.7,483.4,237.6,483.2,237.4z M469.5,241.3l-0.3-0.3l-0.4,0.2c-0.2,0.1-0.4,0.1-0.6,0.1c-0.8,0-1.5-0.7-1.5-1.5  c0,0,0-0.1,0-0.2l0-0.5l-0.5-0.2c-0.6-0.2-1-0.7-1-1.4c0-0.7,0.4-1.2,1-1.4l0.7-0.2l-0.4-0.7c-0.1-0.2-0.2-0.5-0.2-0.7  c0-0.8,0.7-1.5,1.5-1.5c0.1,0,0.1,0,0.2,0l0.8,0.1l-0.1-0.8c0-0.1,0-0.2,0-0.2c0-0.8,0.7-1.5,1.5-1.5c0.8,0,1.5,0.7,1.5,1.5  c0,0,0,0,0,0.1l-0.1,0.8l0.8-0.1c0.1,0,0.2,0,0.2,0c0.8,0,1.5,0.7,1.5,1.5c0,0.3-0.1,0.5-0.2,0.7l-0.4,0.7l0.7,0.2  c0.6,0.2,1,0.7,1,1.4c0,0.6-0.4,1.2-1,1.4l-0.5,0.2l0.1,0.5c0,0.1,0,0.2,0,0.2c0,0.8-0.7,1.5-1.5,1.5c-0.2,0-0.4,0-0.6-0.1l-0.4-0.2  l-0.3,0.3c-0.2,0.2-0.4,0.3-0.6,0.3l0,0c-0.1,0-0.2,0-0.3,0c0,0,0,0,0,0c0,0,0,0,0,0c-0.1,0-0.2,0-0.3,0l0,0  C469.9,241.6,469.7,241.5,469.5,241.3z M442.8,214.5h18.4v2.7h-18.4V214.5z M420.1,214.5h18.4v2.7h-18.4V214.5z M386.9,233.9  l-0.3-0.3l-0.4,0.2c-0.2,0.1-0.4,0.1-0.6,0.1c-0.8,0-1.5-0.7-1.5-1.5c0,0,0-0.1,0-0.2l0-0.5l-0.5-0.2c-0.6-0.2-1-0.7-1-1.4  c0-0.7,0.4-1.2,1-1.4l0.7-0.2l-0.4-0.7c-0.1-0.2-0.2-0.5-0.2-0.7c0-0.8,0.7-1.5,1.5-1.5c0.1,0,0.1,0,0.2,0l0.8,0.1l-0.1-0.8  c0-0.1,0-0.2,0-0.2c0-0.8,0.7-1.5,1.5-1.5c0.8,0,1.5,0.7,1.5,1.5c0,0,0,0,0,0.2l-0.1,0.8l0.8-0.1c0.1,0,0.2,0,0.2,0  c0.8,0,1.5,0.7,1.5,1.5c0,0.3-0.1,0.5-0.2,0.7l-0.4,0.7l0.7,0.2c0.6,0.2,1,0.7,1,1.4c0,0.6-0.4,1.2-1,1.4l-0.5,0.2l0.1,0.5  c0,0.1,0,0.2,0,0.2c0,0.8-0.7,1.5-1.5,1.5c-0.2,0-0.4,0-0.6-0.1l-0.4-0.2l-0.3,0.3c-0.2,0.2-0.4,0.3-0.6,0.3l0,0c-0.1,0-0.2,0-0.3,0  c0,0,0,0,0,0c0,0,0,0,0,0c-0.1,0-0.2,0-0.3,0l0,0C387.3,234.2,387.1,234.1,386.9,233.9z M332.9,212.7c0-0.3,0.2-0.5,0.5-0.5  c0.3,0,0.5,0.2,0.5,0.5l0,2.1h-1L332.9,212.7z M331,214.8l2.4-6l2.4,6h-1v-2.1c0-0.8-0.6-1.4-1.4-1.4c-0.8,0-1.4,0.6-1.4,1.4h0.5  l-0.5,0l0,2.1H331z M327.5,214.8l5.8-14.8l5.8,14.8h-2.5l-3.4-8.6l-3.4,8.6H327.5z M313.8,201.1c0-0.3,0.2-0.5,0.5-0.5  c0.3,0,0.5,0.2,0.5,0.5v2.1h-1L313.8,201.1z M311.9,203.2l2.4-6l2.4,6h-1v-2.1c0-0.8-0.6-1.4-1.4-1.4c-0.8,0-1.4,0.6-1.4,1.4h0.5  l-0.5,0l0,2.1H311.9z M308.5,203.2l5.8-14.8l5.8,14.8h-2.5l-3.4-8.6l-3.4,8.6H308.5z M294.8,212.7c0-0.3,0.2-0.5,0.5-0.5  c0.3,0,0.5,0.2,0.5,0.5l0,2.1h-0.9V212.7z M292.9,214.8l2.4-6l2.4,6h-1l0-2.1l-0.5,0h0.5c0-0.8-0.6-1.4-1.4-1.4  c-0.8,0-1.4,0.6-1.4,1.4v2.1H292.9z M289.4,214.8l5.8-14.8l5.8,14.8h-2.5l-3.4-8.6l-3.4,8.6H289.4z M279.1,241.4l-0.3-0.3l-0.4,0.2  c-0.2,0.1-0.5,0.2-0.7,0.2c-1,0-1.8-0.8-1.8-1.8c0,0,0-0.1,0-0.2l0-0.5l-0.5-0.2c-0.7-0.2-1.2-0.9-1.2-1.7c0-0.8,0.5-1.5,1.3-1.7  l0.7-0.2l-0.4-0.7c-0.2-0.3-0.2-0.6-0.2-0.9c0-1,0.8-1.8,1.8-1.8c0.1,0,0.2,0,0.3,0l0.8,0.1l-0.1-0.8c0-0.1,0-0.2,0-0.2  c0-1,0.8-1.8,1.8-1.8c1,0,1.8,0.8,1.8,1.8c0,0,0,0.1,0,0.2l-0.1,0.8l0.8-0.1c0.1,0,0.2,0,0.3,0c1,0,1.8,0.8,1.8,1.8  c0,0.3-0.1,0.6-0.2,0.9l-0.4,0.7l0.7,0.2c0.7,0.2,1.3,0.9,1.3,1.7c0,0.8-0.5,1.5-1.2,1.7l-0.5,0.2l0.1,0.5c0,0.1,0,0.2,0,0.2  c0,1-0.8,1.8-1.8,1.8c-0.3,0-0.5-0.1-0.7-0.2l-0.4-0.2l-0.3,0.3c-0.2,0.2-0.5,0.3-0.7,0.4l0,0c-0.2,0-0.3,0.1-0.4,0.1c0,0,0,0,0,0  c-0.1,0-0.3,0-0.4-0.1l-0.1,0C279.6,241.7,279.4,241.6,279.1,241.4z M267.3,247.6l-0.3-0.3l-0.4,0.2c-0.2,0.1-0.4,0.1-0.6,0.1  c-0.8,0-1.5-0.7-1.5-1.5c0,0,0-0.1,0-0.2l0-0.5l-0.5-0.2c-0.6-0.2-1-0.7-1-1.4h0c0-0.7,0.4-1.2,1-1.4l0.7-0.2l-0.4-0.7  c-0.1-0.2-0.2-0.5-0.2-0.7c0-0.8,0.7-1.5,1.5-1.5c0.1,0,0.1,0,0.2,0l0.8,0.1l-0.1-0.8c0-0.1,0-0.2,0-0.2c0-0.8,0.7-1.5,1.5-1.5  c0.8,0,1.5,0.7,1.5,1.5c0,0,0,0,0,0.2l-0.1,0.8l0.8-0.1c0.1,0,0.2,0,0.2,0c0.8,0,1.5,0.7,1.5,1.5c0,0.3-0.1,0.5-0.2,0.7l-0.4,0.7  l0.7,0.2c0.6,0.2,1,0.7,1,1.4c0,0.6-0.4,1.2-1,1.4l-0.5,0.2l0.1,0.5c0,0.1,0,0.2,0,0.2c0,0.8-0.7,1.5-1.5,1.5c-0.2,0-0.4,0-0.6-0.1  l-0.4-0.2l-0.3,0.3c-0.2,0.2-0.4,0.3-0.6,0.3l0,0c-0.1,0-0.2,0-0.3,0c0,0,0,0,0,0c0,0,0,0,0,0c-0.1,0-0.2,0-0.3,0l0,0  C267.7,247.9,267.5,247.8,267.3,247.6z M262.1,243.1c-0.1,0.3-0.1,0.6-0.1,0.9c0,1,0.6,1.9,1.4,2.4c0.1,1.4,1.3,2.6,2.7,2.6  c0.3,0,0.5,0,0.7-0.1c0.1,0.1,0.3,0.1,0.4,0.2v3.7c-1.9,0.3-3.7,0.6-5.6,0.9c-0.9,0.1-1.8,0.3-2.6,0.4v-10.9H262.1z M230.9,253.3  l-0.2-0.2l-0.3,0.1c-0.2,0.1-0.4,0.1-0.7,0.1c-0.9,0-1.6-0.7-1.6-1.6c0,0,0-0.1,0-0.2l0-0.4l-0.4-0.1c-0.6-0.2-1.1-0.8-1.1-1.5h0  c0-0.7,0.5-1.3,1.1-1.5l0.5-0.2l-0.3-0.5c-0.1-0.2-0.2-0.5-0.2-0.8c0-0.9,0.7-1.6,1.6-1.6c0.1,0,0.2,0,0.3,0l0.6,0.1l-0.1-0.6  c0-0.1,0-0.2,0-0.2c0-0.9,0.7-1.6,1.6-1.6c0.9,0,1.6,0.7,1.6,1.6c0,0,0,0.1,0,0.2l0,0.6l0.6-0.1c0.1,0,0.2,0,0.3,0  c0.9,0,1.6,0.7,1.6,1.6c0,0.3-0.1,0.6-0.2,0.8l-0.3,0.5l0.5,0.2c0.7,0.2,1.1,0.8,1.1,1.5c0,0.7-0.5,1.3-1.1,1.5l-0.4,0.1l0,0.4  c0,0.1,0,0.2,0,0.2c0,0.9-0.7,1.6-1.6,1.6c-0.2,0-0.4-0.1-0.7-0.1l-0.3-0.1l-0.2,0.2c0,0,0,0-0.1,0l-0.7,0.2c-0.1,0-0.2,0-0.3,0  c-0.1,0-0.2,0-0.3,0L230.9,253.3C231,253.4,231,253.3,230.9,253.3z M167.9,255.9l-0.3-0.3l-0.4,0.2c-0.2,0.1-0.4,0.1-0.6,0.1  c-0.8,0-1.5-0.7-1.5-1.5c0,0,0-0.1,0-0.2l0.1-0.5l-0.5-0.2c-0.6-0.2-1-0.7-1-1.4c0-0.7,0.4-1.2,1-1.4l0.7-0.2l-0.4-0.7  c-0.1-0.2-0.2-0.5-0.2-0.7c0-0.8,0.7-1.5,1.5-1.5c0.1,0,0.1,0,0.3,0l0.8,0.1l-0.1-0.8c0-0.1,0-0.1,0-0.1c0-0.8,0.7-1.5,1.5-1.5  c0.8,0,1.5,0.7,1.5,1.5c0,0,0,0,0,0.2l-0.1,0.8l0.8-0.1c0.1,0,0.2,0,0.3,0c0.8,0,1.5,0.7,1.5,1.5c0,0.3-0.1,0.5-0.2,0.7l-0.4,0.7  l0.7,0.2c0.6,0.2,1,0.7,1,1.4c0,0.6-0.4,1.2-1,1.4l-0.5,0.2l0.1,0.5c0,0.1,0,0.2,0,0.2c0,0.8-0.7,1.5-1.5,1.5c-0.2,0-0.4,0-0.6-0.1  l-0.4-0.2l-0.3,0.3c-0.2,0.1-0.4,0.3-0.6,0.3l0,0c-0.1,0-0.2,0-0.3,0c0,0,0,0,0,0c-0.1,0-0.2,0-0.3,0l-0.1,0  C168.2,256.1,168,256,167.9,255.9z M142.3,235.8h18.4v2.7h-18.4V235.8z M132.7,217.2h-7.4c0.3-1.7,1.8-3,3.7-3  C130.8,214.2,132.4,215.5,132.7,217.2z M125.2,218.5h7.5V249h-7.5V218.5z M112.1,255.7l-0.3-0.3l-0.4,0.2c-0.2,0.1-0.5,0.2-0.7,0.2  c-1,0-1.8-0.8-1.8-1.8c0,0,0-0.1,0-0.2l0-0.5l-0.5-0.2c-0.7-0.2-1.2-0.9-1.2-1.7c0-0.8,0.5-1.5,1.3-1.7l0.7-0.2l-0.4-0.7  c-0.2-0.3-0.2-0.6-0.2-0.9c0-1,0.8-1.8,1.8-1.8c0.1,0,0.2,0,0.3,0l0.8,0.1l-0.1-0.8c0-0.1,0-0.2,0-0.2c0-1,0.8-1.8,1.8-1.8  c1,0,1.8,0.8,1.8,1.8c0,0,0,0.1,0,0.2l0,0.8l0.8-0.1c0.1,0,0.2,0,0.3,0c1,0,1.8,0.8,1.8,1.8c0,0.3-0.1,0.6-0.2,0.9l-0.4,0.7l0.7,0.2  c0.7,0.2,1.3,0.9,1.3,1.7c0,0.8-0.5,1.5-1.2,1.7l-0.5,0.2l0,0.5c0,0.1,0,0.2,0,0.2c0,1-0.8,1.8-1.8,1.8c-0.3,0-0.5-0.1-0.7-0.2  l-0.4-0.2l-0.3,0.3c-0.2,0.2-0.5,0.3-0.7,0.4l-0.1,0c-0.1,0-0.3,0.1-0.4,0.1c-0.1,0-0.3,0-0.4-0.1l0,0  C112.6,256,112.3,255.8,112.1,255.7z M97.9,259.4l-0.3-0.3l-0.4,0.2c-0.2,0.1-0.4,0.1-0.6,0.1c-0.8,0-1.5-0.7-1.5-1.5  c0,0,0-0.1,0-0.2l0.1-0.5l-0.5-0.2c-0.6-0.2-1-0.7-1-1.4c0-0.7,0.4-1.2,1-1.4l0.7-0.2l-0.4-0.7c-0.1-0.2-0.2-0.5-0.2-0.7  c0-0.8,0.7-1.5,1.5-1.5c0.1,0,0.1,0,0.2,0l0.8,0.1l-0.1-0.8c0-0.1,0-0.2,0-0.2c0-0.8,0.7-1.5,1.5-1.5c0.8,0,1.5,0.7,1.5,1.5  c0,0,0,0,0,0.2l-0.1,0.8l0.8-0.1c0.1,0,0.2,0,0.2,0c0.8,0,1.5,0.7,1.5,1.5c0,0.3-0.1,0.5-0.2,0.7l-0.4,0.7l0.7,0.2  c0.6,0.2,1,0.7,1,1.4c0,0.6-0.4,1.2-1,1.4l-0.5,0.2l0.1,0.5c0,0.1,0,0.2,0,0.2c0,0.8-0.7,1.5-1.5,1.5c-0.2,0-0.4,0-0.6-0.1l-0.4-0.2  l-0.3,0.3c-0.2,0.1-0.4,0.3-0.6,0.3l0,0c-0.1,0-0.2,0-0.3,0c0,0,0,0,0,0c-0.1,0-0.2,0-0.3,0l0,0C98.3,259.7,98.1,259.6,97.9,259.4z   M70.1,232.7h18.4v2.7H70.1V232.7z M47.4,232.7h18.4v2.7H47.4V232.7z M35.2,252.8l-0.3-0.3l-0.4,0.2c-0.3,0.1-0.5,0.2-0.8,0.2  c-1.2,0-2.1-0.9-2.1-2.1c0,0,0-0.1,0-0.3l0.1-0.5l-0.5-0.2c-0.8-0.3-1.4-1.1-1.4-2c0-0.9,0.6-1.7,1.5-2l0.7-0.2l-0.4-0.7  c-0.2-0.3-0.3-0.7-0.3-1c0-1.2,0.9-2.1,2.1-2.1c0.1,0,0.2,0,0.4,0l0.8,0.1l-0.1-0.8c0-0.1,0-0.2,0-0.2c0-1.2,0.9-2.1,2.1-2.1  c1.2,0,2.1,0.9,2.1,2.1c0,0,0,0.1,0,0.2l-0.1,0.8l0.8-0.1c0.1,0,0.3,0,0.4,0c1.2,0,2.1,0.9,2.1,2.1c0,0.4-0.1,0.7-0.3,1l-0.4,0.7  l0.7,0.2c0.8,0.3,1.5,1.1,1.5,2c0,0.9-0.6,1.7-1.4,2l-0.5,0.2l0.1,0.5c0,0.1,0,0.2,0,0.3c0,1.2-0.9,2.1-2.1,2.1  c-0.3,0-0.6-0.1-0.8-0.2l-0.4-0.2l-0.3,0.3c-0.2,0.2-0.5,0.4-0.8,0.4l-0.1,0c-0.2,0-0.3,0.1-0.5,0.1c-0.1,0-0.3,0-0.5-0.1l0,0  C35.7,253.1,35.4,253,35.2,252.8z"></path>
</svg>
