<?xml version="1.0" encoding="UTF-8"?>
<!-- Generator: Adobe Illustrator 25.2.1, SVG Export Plug-In . SVG Version: 6.00 Build 0)  -->
<svg xmlns="http://www.w3.org/2000/svg" xmlns:xlink="http://www.w3.org/1999/xlink" version="1.1" id="Layer_1" x="0px" y="0px" viewBox="0 0 1046 467" style="enable-background:new 0 0 1046 467;" xml:space="preserve">
<style type="text/css">
	.st0{fill:url(#SVGID_1_);}
	.st1{opacity:0.4;fill:#FFFFFF;}
	.st2{fill:#FFFFFF;}
</style>
<linearGradient id="SVGID_1_" gradientUnits="userSpaceOnUse" x1="0" y1="233.5" x2="1046" y2="233.5">
	<stop offset="0" style="stop-color:#833AB4"></stop>
	<stop offset="0.5" style="stop-color:#FD1D1D"></stop>
	<stop offset="1" style="stop-color:#FCB045"></stop>
</linearGradient>
<rect class="st0" width="1046" height="467"></rect>
<path class="st1" d="M609.8,302.4l0,9.6h8.1v-9.6c0-2.2-1.8-4.1-4.1-4.1C611.6,298.4,609.8,300.2,609.8,302.4z M614.7,308.4h1.7v2.1  h-1.7V308.4z M614.7,304.4h1.7v2.4h-1.7V304.4z M614.7,300.1c1,0.3,1.7,1.2,1.7,2.3v0.4h-1.7V300.1z M611.4,308.4h1.6v2.1h-1.6  L611.4,308.4z M611.4,304.4h1.6v2.4h-1.6L611.4,304.4z M611.4,302.4c0-1.1,0.7-2,1.7-2.3v2.7h-1.7L611.4,302.4z M609.8,319.8h0.8  H609.8l0,9.6h8.1v-9.6c0-2.2-1.8-4.1-4.1-4.1C611.6,315.7,609.8,317.5,609.8,319.8z M614.7,325.7h1.7v2.1h-1.7V325.7z M614.7,321.7  h1.7v2.4h-1.7V321.7z M614.7,317.5c1,0.3,1.7,1.2,1.7,2.3v0.4h-1.7V317.5z M611.4,325.7h1.6v2.1h-1.6L611.4,325.7z M611.4,321.7h1.6  v2.4h-1.6L611.4,321.7z M611.4,319.8c0-1.1,0.7-2,1.7-2.3v2.7h-1.6L611.4,319.8z M607.8,344.3l0,19.6h12.1v-19.6  c0-3.3-2.7-6.1-6-6.1C610.5,338.3,607.8,341,607.8,344.3z M609.4,344.3c0-2.5,2-4.4,4.4-4.4c2.5,0,4.4,2,4.4,4.4v18h-8.9  L609.4,344.3z M642.6,322.4h0.8H642.6l0,9.6h8.1v-9.6c0-2.2-1.8-4.1-4.1-4.1C644.5,318.4,642.6,320.2,642.6,322.4z M647.5,328.4h1.7  v2.1h-1.7V328.4z M647.5,324.4h1.7v2.4h-1.7V324.4z M647.5,320.1c1,0.3,1.7,1.2,1.7,2.3v0.4h-1.7V320.1z M644.3,328.4h1.6v2.1h-1.6  L644.3,328.4z M644.2,324.4h1.6v2.4h-1.6L644.2,324.4z M644.2,322.4c0-1.1,0.7-2,1.7-2.3v2.7h-1.7L644.2,322.4z M642.6,345.4l0,9.6  h8.1v-9.6c0-2.2-1.8-4.1-4.1-4.1C644.5,341.3,642.6,343.2,642.6,345.4z M647.5,351.4h1.7v2.1h-1.7V351.4z M647.5,347.4h1.7v2.4h-1.7  V347.4z M647.5,343.1c1,0.3,1.7,1.2,1.7,2.3v0.4h-1.7V343.1z M644.3,351.4h1.6v2.1h-1.6L644.3,351.4z M644.2,347.4h1.6v2.4h-1.6  L644.2,347.4z M644.2,345.4c0-1.1,0.7-2,1.7-2.3v2.7h-1.7L644.2,345.4z M626.2,345.4l0,9.6h8.1v-9.6c0-2.2-1.8-4.1-4.1-4.1  C628,341.3,626.2,343.2,626.2,345.4z M627.8,345.4c0-1.4,1.1-2.5,2.5-2.5c1.4,0,2.5,1.1,2.5,2.5l0,8h-4.9L627.8,345.4z M577,332.1  h8.1l0-9.6c0-2.2-1.8-4.1-4.1-4.1c-2.2,0-4.1,1.8-4.1,4.1V332.1z M581.9,328.4h1.6l0,2.1h-1.6V328.4z M581.9,324.4h1.6l0,2.4h-1.6  V324.4z M581.9,320.1c1,0.3,1.7,1.2,1.7,2.3l0,0.4h-1.7V320.1z M578.6,328.4h1.7v2.1h-1.7V328.4z M578.6,324.4h1.7v2.4h-1.7V324.4z   M578.6,322.4c0-1.1,0.7-2,1.7-2.3v2.7h-1.7V322.4z M577,345.4v9.6h8.1l0-9.6l-0.8,0h0.8c0-2.2-1.8-4.1-4.1-4.1  C578.8,341.3,577,343.2,577,345.4z M581.9,351.4h1.6l0,2.1h-1.6V351.4z M581.9,347.4h1.6l0,2.4h-1.6V347.4z M581.9,343.1  c1,0.3,1.7,1.2,1.7,2.3l0,0.4h-1.7V343.1z M578.6,351.4h1.7v2.1h-1.7V351.4z M578.6,347.4h1.7v2.4h-1.7V347.4z M578.6,345.4  c0-1.1,0.7-2,1.7-2.3v2.7h-1.7V345.4z M593,345.4v9.6h8.1l0-9.6c0-2.2-1.8-4.1-4.1-4.1C594.8,341.3,593,343.2,593,345.4z   M594.6,345.4c0-1.4,1.1-2.5,2.5-2.5c1.4,0,2.5,1.1,2.5,2.5l0,8h-4.9V345.4z M780.9,339.7h-8.9v11.4h8.9V339.7z M779.3,349.6h-5.7  v-8.2h5.7V349.6z M766.4,339.7h-8.9v11.4h8.9V339.7z M764.7,349.6H759v-8.2h5.7V349.6z M772,328.1h0.8H772l0,6.7h8.9v-6.7  c0-2.5-2-4.4-4.5-4.4C774,323.6,772,325.6,772,328.1z M773.6,328.1c0-1.6,1.3-2.8,2.8-2.8c1.6,0,2.8,1.3,2.8,2.8v5.1h-5.7  L773.6,328.1z M757.7,328.1h0.8H757.7l0,6.7h8.9v-6.7c0-2.5-2-4.4-4.5-4.4C759.7,323.6,757.7,325.6,757.7,328.1z M759.3,328.1  c0-1.6,1.3-2.8,2.8-2.8c1.6,0,2.8,1.3,2.8,2.8v5.1h-5.7L759.3,328.1z M954.4,359h-8.9v11.4h8.9V359z M952.8,368.9H947v-8.2h5.7  V368.9z M939.8,359h-8.9v11.4h8.9V359z M938.2,368.9h-5.7v-8.2h5.7V368.9z M945.5,347.4h0.8H945.5l0,6.7h8.9v-6.7  c0-2.5-2-4.4-4.5-4.4C947.5,343,945.5,344.9,945.5,347.4z M947.1,347.4c0-1.6,1.3-2.8,2.8-2.8c1.6,0,2.8,1.3,2.8,2.8v5.1h-5.7  L947.1,347.4z M931.2,347.4h0.8H931.2l0,6.7h8.9v-6.7c0-2.5-2-4.4-4.4-4.4C933.2,343,931.2,344.9,931.2,347.4z M932.8,347.4  c0-1.6,1.3-2.8,2.8-2.8c1.6,0,2.8,1.3,2.8,2.8l0,5.1h-5.7L932.8,347.4z M112.1,367.5h-8.9V379h8.9V367.5z M110.5,377.4h-5.7l0-8.2  h5.7V377.4z M97.5,367.5h-8.9V379h8.9V367.5z M95.9,377.4h-5.7l0-8.2h5.7V377.4z M103.2,355.9h0.8H103.2l0,6.7h8.9v-6.7  c0-2.5-2-4.4-4.4-4.4C105.2,351.4,103.2,353.4,103.2,355.9z M104.8,355.9c0-1.6,1.3-2.8,2.8-2.8c1.6,0,2.8,1.3,2.8,2.8v5.1h-5.7  L104.8,355.9z M88.9,355.9h0.8H88.9l0,6.7h8.9v-6.7c0-2.5-2-4.4-4.5-4.4C90.8,351.4,88.9,353.4,88.9,355.9z M90.5,355.9  c0-1.6,1.3-2.8,2.8-2.8c1.6,0,2.8,1.3,2.8,2.8v5.1h-5.7L90.5,355.9z M678.7,325h0.8H678.7l0,6.7h8.9V325c0-2.5-2-4.4-4.4-4.4  C680.7,320.6,678.7,322.6,678.7,325z M680.3,325c0-1.6,1.3-2.8,2.8-2.8c1.6,0,2.8,1.3,2.8,2.8l0,5.1h-5.7L680.3,325z M712.9,304.8  h0.8H712.9l0,11.2h8.9v-11.2c0-2.5-2-4.5-4.5-4.5C714.9,300.3,712.9,302.3,712.9,304.8z M714.5,304.8c0-1.6,1.3-2.8,2.8-2.8  c1.6,0,2.8,1.3,2.8,2.8l0,9.5h-5.7L714.5,304.8z M712.9,324.4l0,11.1h8.9v-11.1c0-2.5-2-4.4-4.5-4.4  C714.9,320,712.9,322,712.9,324.4z M714.5,324.4c0-1.6,1.3-2.8,2.8-2.8c1.6,0,2.8,1.3,2.8,2.8v9.5h-5.7L714.5,324.4z M712.9,344.1  l0,11.1h8.9v-11.1c0-2.5-2-4.5-4.5-4.5C714.9,339.6,712.9,341.6,712.9,344.1z M714.5,344.1c0-1.6,1.3-2.8,2.8-2.8  c1.6,0,2.8,1.3,2.8,2.8v9.5h-5.7L714.5,344.1z M676.9,345.4h0.8H676.9l0,13.2H689v-13.2c0-3.3-2.7-6.1-6.1-6.1  C679.6,339.4,676.9,342.1,676.9,345.4z M678.5,345.4c0-2.5,2-4.4,4.4-4.4c2.5,0,4.4,2,4.4,4.4V357h-8.9L678.5,345.4z M488.9,364.6  h0.8H488.9l0,18.5h10.7l0-18.5c0-3-2.4-5.4-5.4-5.4C491.3,359.2,488.9,361.6,488.9,364.6z M490.5,364.6c0-2.1,1.7-3.8,3.8-3.8  c2.1,0,3.8,1.7,3.8,3.8v16.9h-7.5L490.5,364.6z M502.5,364.6h0.8H502.5l0,6.7h10.7v-6.7c0-3-2.4-5.4-5.4-5.4  C505,359.2,502.5,361.6,502.5,364.6z M504.2,364.6c0-2.1,1.7-3.8,3.8-3.8c2.1,0,3.8,1.7,3.8,3.8v5.1h-7.5L504.2,364.6z M434.7,371  h0.8H434.7l0,18.5h10.7V371c0-3-2.4-5.4-5.4-5.4C437.1,365.7,434.7,368.1,434.7,371z M436.3,371c0-2.1,1.7-3.8,3.8-3.8  c2.1,0,3.8,1.7,3.8,3.8l0,16.9h-7.5L436.3,371z M383.8,374.2h0.8H383.8l0,18.5h10.7v-18.5c0-3-2.4-5.4-5.4-5.4  S383.8,371.3,383.8,374.2z M385.4,374.2c0-2.1,1.7-3.8,3.8-3.8c2.1,0,3.8,1.7,3.8,3.8l0,16.9h-7.5L385.4,374.2z M397.5,374.2h0.8  H397.5l0,6.7h10.7v-6.7c0-3-2.4-5.4-5.4-5.4C399.9,368.9,397.5,371.3,397.5,374.2z M399.1,374.2c0-2.1,1.7-3.8,3.8-3.8  c2.1,0,3.8,1.7,3.8,3.8l0,5.1h-7.5L399.1,374.2z M289.3,382.8L289.3,382.8l0,13.6H300l0-13.6c0-3-2.4-5.4-5.4-5.4  C291.7,377.4,289.3,379.8,289.3,382.8z M290.9,382.8c0-2.1,1.7-3.8,3.8-3.8c2.1,0,3.8,1.7,3.8,3.8v12h-7.5L290.9,382.8z M291,333  h7.2v-6.7c0-2-1.6-3.6-3.6-3.6c-2,0-3.6,1.6-3.6,3.6h0.8l-0.8,0L291,333z M292.6,326.3c0-1.1,0.9-2,2-2c1.1,0,2,0.9,2,2v5.1h-4  L292.6,326.3z M291,350.4h7.2v-6.7c0-2-1.6-3.6-3.6-3.6c-2,0-3.6,1.6-3.6,3.6L291,350.4z M292.6,343.8c0-1.1,0.9-2,2-2  c1.1,0,2,0.9,2,2l0,5.1h-4L292.6,343.8z M291,367.9h7.2v-6.7c0-2-1.6-3.6-3.6-3.6c-2,0-3.6,1.6-3.6,3.6L291,367.9z M292.6,361.2  c0-1.1,0.9-2,2-2c1.1,0,2,0.9,2,2l0,5.1h-4L292.6,361.2z M172.7,356.4l0,13.5h8.8v-13.5c0-2.4-2-4.4-4.4-4.4  C174.7,352,172.7,353.9,172.7,356.4z M174.3,362.6h5.6v5.7h-5.6L174.3,362.6z M174.3,356.4c0-1.6,1.3-2.8,2.8-2.8  c1.6,0,2.8,1.3,2.8,2.8v4.7h-5.6L174.3,356.4z M159.9,356.4l0,13.5h8.8v-13.5c0-2.4-2-4.4-4.4-4.4  C161.8,352,159.9,353.9,159.9,356.4z M161.5,362.6h5.6v5.7h-5.6L161.5,362.6z M161.5,356.4c0-1.6,1.3-2.8,2.8-2.8  c1.6,0,2.8,1.3,2.8,2.8v4.7h-5.6L161.5,356.4z M172.7,376.4h0.8H172.7l0,13.5h8.8v-13.5c0-2.4-2-4.4-4.4-4.4  C174.7,372,172.7,374,172.7,376.4z M174.3,382.7h5.6v5.7h-5.6L174.3,382.7z M174.3,376.4c0-1.6,1.3-2.8,2.8-2.8  c1.6,0,2.8,1.3,2.8,2.8v4.7h-5.6L174.3,376.4z M159.9,376.4l0,13.5h8.8v-13.5c0-2.4-2-4.4-4.4-4.4C161.8,372,159.9,374,159.9,376.4z   M161.5,382.7h5.6v5.7h-5.6L161.5,382.7z M161.5,376.4c0-1.6,1.3-2.8,2.8-2.8c1.6,0,2.8,1.3,2.8,2.8v4.7h-5.6L161.5,376.4z   M211.8,356.4l0,13.5h8.8v-13.5c0-2.4-2-4.4-4.4-4.4C213.8,352,211.8,353.9,211.8,356.4z M213.4,362.6h5.6v5.7h-5.6L213.4,362.6z   M213.4,356.4c0-1.6,1.3-2.8,2.8-2.8c1.6,0,2.8,1.3,2.8,2.8v4.7h-5.6L213.4,356.4z M198.9,356.4l0,13.5h8.8v-13.5  c0-2.4-2-4.4-4.4-4.4C200.9,352,198.9,353.9,198.9,356.4z M200.6,362.6h5.6v5.7h-5.6L200.6,362.6z M200.5,356.4  c0-1.6,1.3-2.8,2.8-2.8c1.6,0,2.8,1.3,2.8,2.8v4.7h-5.6L200.5,356.4z M211.8,376.4h0.8H211.8l0,13.5h8.8l0-13.5c0-2.4-2-4.4-4.4-4.4  C213.8,372,211.8,374,211.8,376.4z M213.4,382.7h5.6v5.7h-5.6L213.4,382.7z M213.4,376.4c0-1.6,1.3-2.8,2.8-2.8  c1.6,0,2.8,1.3,2.8,2.8v4.7h-5.6L213.4,376.4z M198.9,376.4l0,13.5h8.8l0-13.5c0-2.4-2-4.4-4.4-4.4C200.9,372,198.9,374,198.9,376.4  z M200.6,382.7h5.6v5.7h-5.6L200.6,382.7z M200.5,376.4c0-1.6,1.3-2.8,2.8-2.8c1.6,0,2.8,1.3,2.8,2.8v4.7h-5.6L200.5,376.4z   M814.1,325h0.8H814.1l0,13.5h8.8V325c0-2.4-2-4.4-4.4-4.4C816.1,320.6,814.1,322.5,814.1,325z M815.7,331.3h5.6v5.7h-5.6  L815.7,331.3z M815.7,325c0-1.6,1.3-2.8,2.8-2.8c1.6,0,2.8,1.3,2.8,2.8v4.7h-5.6L815.7,325z M801.3,325h0.8H801.3l0,13.5h8.8V325  c0-2.4-2-4.4-4.4-4.4C803.3,320.6,801.3,322.5,801.3,325z M802.9,331.3h5.6v5.7h-5.6L802.9,331.3z M802.9,325c0-1.6,1.3-2.8,2.8-2.8  c1.6,0,2.8,1.3,2.8,2.8v4.7h-5.6L802.9,325z M814.1,345l0,13.5h8.8V345c0-2.4-2-4.4-4.4-4.4S814.1,342.6,814.1,345z M815.7,351.3  h5.6v5.7h-5.6L815.7,351.3z M815.7,345c0-1.6,1.3-2.8,2.8-2.8c1.6,0,2.8,1.3,2.8,2.8v4.7h-5.6L815.7,345z M801.3,345l0,13.5h8.8  l0-13.5c0-2.4-2-4.4-4.4-4.4S801.3,342.6,801.3,345z M802.9,351.3h5.6v5.7h-5.6L802.9,351.3z M802.9,345c0-1.6,1.3-2.8,2.8-2.8  c1.6,0,2.8,1.3,2.8,2.8v4.7h-5.6L802.9,345z M853.2,325h0.8H853.2l0,13.5h8.8V325c0-2.4-2-4.4-4.4-4.4  C855.2,320.6,853.2,322.5,853.2,325z M854.8,331.3h5.6v5.7h-5.6L854.8,331.3z M854.8,325c0-1.6,1.3-2.8,2.8-2.8  c1.6,0,2.8,1.3,2.8,2.8v4.7h-5.6L854.8,325z M840.4,325h0.8H840.4l0,13.5h8.8V325c0-2.4-2-4.4-4.4-4.4  C842.3,320.6,840.4,322.5,840.4,325z M842,331.3h5.6v5.7H842L842,331.3z M842,325c0-1.6,1.3-2.8,2.8-2.8c1.6,0,2.8,1.3,2.8,2.8v4.7  H842L842,325z M853.2,345l0,13.5h8.8l0-13.5c0-2.4-2-4.4-4.4-4.4C855.2,340.6,853.2,342.6,853.2,345z M854.8,351.3h5.6v5.7h-5.6  L854.8,351.3z M854.8,345c0-1.6,1.3-2.8,2.8-2.8c1.6,0,2.8,1.3,2.8,2.8v4.7h-5.6L854.8,345z M840.4,345l0,13.5h8.8V345  c0-2.4-2-4.4-4.4-4.4C842.3,340.6,840.4,342.6,840.4,345z M842,351.3h5.6v5.7H842L842,351.3z M842,345c0-1.6,1.3-2.8,2.8-2.8  c1.6,0,2.8,1.3,2.8,2.8v4.7H842L842,345z M336,361.7l0,13.5h8.8v-13.5c0-2.4-2-4.4-4.4-4.4C338,357.3,336,359.3,336,361.7z   M337.7,368h5.6v5.7h-5.6L337.7,368z M337.7,361.7c0-1.6,1.3-2.8,2.8-2.8c1.6,0,2.8,1.3,2.8,2.8v4.7h-5.6L337.7,361.7z M323.2,361.7  l0,13.5h8.8v-13.5c0-2.4-2-4.4-4.4-4.4C325.2,357.3,323.2,359.3,323.2,361.7z M324.8,368h5.6l0,5.7h-5.6L324.8,368z M324.8,361.7  c0-1.6,1.3-2.8,2.8-2.8c1.6,0,2.8,1.3,2.8,2.8l0,4.7h-5.6L324.8,361.7z M336,381.7h0.8H336l0,13.5h8.8v-13.5c0-2.4-2-4.4-4.4-4.4  C338,377.3,336,379.3,336,381.7z M337.7,388h5.6v5.7h-5.6L337.7,388z M337.7,381.7c0-1.6,1.3-2.8,2.8-2.8c1.6,0,2.8,1.3,2.8,2.8v4.7  h-5.6L337.7,381.7z M323.2,381.7h0.8H323.2l0,13.5h8.8l0-13.5c0-2.4-2-4.4-4.4-4.4C325.2,377.3,323.2,379.3,323.2,381.7z M324.8,388  h5.6v5.7h-5.6L324.8,388z M324.8,381.7c0-1.6,1.3-2.8,2.8-2.8c1.6,0,2.8,1.3,2.8,2.8v4.7h-5.6L324.8,381.7z M73,380.8  c4,0.7,7.7,1.4,11.7,2l1.2,0.2v-34.5h-3.5l18.4-23.1l18.4,23.1h-3.5v39.2l0.9,0.1c6.1,0.9,12.1,1.7,18.1,2.5l1.2,0.1v0l0.9,0.1  c5.5,0.7,11,1.4,16.5,2l1.2,0.1V349h31.6v46.9l1,0.1c1.8,0.2,3.6,0.3,5.4,0.4l1.2,0.1V349h31.6v49.8l1,0.1  c5.4,0.3,10.7,0.5,16.1,0.8l1.1,0v0l0.5,0c7.7,0.3,15.4,0.5,23.1,0.7l1.1,0v0l0.8,0c4.8,0.1,9.6,0.1,14.3,0.2l1.1,0v-27.7h2.1v0  h17.1v0h2.1v27.6l1.1,0c3.4,0,6.8-0.1,10.1-0.2l1,0v-45.9h31.6v44.8l1.1-0.1c4.1-0.2,8.1-0.4,12.2-0.6l1-0.1v0l0.6,0  c5.4-0.3,10.8-0.7,16.2-1l1-0.1V368h-3.5l18.4-23.1l18.4,23.1h-3.5v26.8l1.2-0.1c4-0.4,8-0.8,12-1.2l1-0.1v-28.7H422l18.4-23.1  l18.4,23.1h-3.5v25.4l1.2-0.1c5-0.6,10.1-1.2,15.2-1.9l0.4-0.1v0l1.2-0.2c4.2-0.5,8.4-1.1,12.6-1.7l0.9-0.1v-27.7l-3.5,0l18.4-23.1  l18.4,23.1h-3.5v23.4l1.2-0.2c1.9-0.3,3.8-0.6,5.8-0.9c3.5-0.6,7.1-1.1,10.6-1.6l0.9-0.1v0l0.7-0.1c6.4-1,12.7-1.9,19-2.8l0.7-0.1v0  l1.2-0.2c4.4-0.6,8.8-1.2,13.2-1.8l0.9-0.1v-60.4h4l0,0h12.9l0,0h4v18.1h11.9v-38.1h8v0h4.8v0h8v38.1h11.9v-18.1h4l0,0h12.9l0,0h4  v50.9l1.2-0.1c3-0.2,6-0.5,9-0.7l1-0.1v-39.6h-3.5l18.4-23.1l18.4,23.1h-3.5V338h11.5v-51.3h3v4h10.8l0-4h3.7v73.7l1.1,0  c3.8-0.1,7.7-0.2,11.5-0.3l1.1,0v0l0.6,0c4.1-0.1,8.2-0.1,12.3-0.1l1.1,0v-39.3h-3.5l18.4-23.1l18.4,23.1h-3.5v39.6l1,0  c3.1,0.1,6.2,0.2,9.3,0.3l1.1,0v-43h31.6v44.5l1,0.1c1.8,0.1,3.6,0.2,5.3,0.4l1.1,0.1v-45h31.6v47.8l1,0.1c4.7,0.5,9.4,1,14.1,1.6  l0.7,0.1v0l0.9,0.1c7.4,0.9,14.9,1.8,22.4,2.9l1.1,0.2v0l0.9,0.1c6.4,0.9,12.9,1.9,19.3,2.9l1.2,0.2V340h-3.5l18.4-23.1l18.4,23.1  H958v38.3l0.9,0.1c5,0.8,10.1,1.6,14.1,2.3v-2.2c-3.8-0.7-8.2-1.4-12.9-2.1v-34.3h5.8l-22.8-28.7l-22.8,28.7  c-0.1-1.9-1.2-3.6-2.8-4.5c0.2-0.5,0.3-1.1,0.3-1.7c0-3-2.4-5.5-5.3-5.6c-0.3-2.8-2.7-4.9-5.6-4.9c-2.9,0-5.3,2.2-5.6,4.9  c-3,0.2-5.3,2.6-5.3,5.6c0,0.6,0.1,1.2,0.3,1.7c-1.7,1-2.8,2.8-2.8,4.9c0,2.2,1.2,4.1,3.1,5c0.1,3.1,2.6,5.5,5.6,5.5  c0.6,0,1.1-0.1,1.6-0.2c0.3,0.2,0.7,0.4,1.1,0.6v14.5c-6.8-0.9-13.5-1.8-20.3-2.6v-5.3c0.2-0.1,0.5-0.2,0.7-0.4  c0.4,0.1,0.8,0.2,1.3,0.2c2.5,0,4.5-2,4.7-4.4c1.4-0.8,2.4-2.3,2.4-4.1c0-1.7-0.9-3.1-2.2-4c0.1-0.4,0.2-0.8,0.2-1.2  c0-2.4-1.9-4.4-4.2-4.7c-0.4-2.2-2.3-3.9-4.6-3.9c-2.3,0-4.3,1.7-4.6,3.9c-2.4,0.2-4.2,2.2-4.2,4.7c0,0.4,0.1,0.8,0.2,1.2  c-1.3,0.8-2.2,2.3-2.2,4c0,1.8,1,3.3,2.4,4.1c0.1,2.5,2.2,4.4,4.7,4.4c0.4,0,0.9-0.1,1.3-0.2c0.2,0.1,0.4,0.3,0.7,0.4v4.8  c-4-0.5-8-0.9-11.9-1.3v-54.3h-35.9v51.2c-1.1-0.1-2.1-0.2-3.2-0.2v-50.9h-35.9v49.2c-2.4-0.1-4.8-0.1-7.2-0.2v-35.3h5.8l-22.8-28.7  l-22.8,28.7h5.8v35c-3.4,0-6.8,0.1-10.2,0.1v-10.7c0.2-0.1,0.5-0.2,0.7-0.4c0.4,0.1,0.8,0.2,1.3,0.2c2.5,0,4.5-2,4.7-4.4  c1.4-0.8,2.4-2.3,2.4-4.1c0-1.7-0.9-3.1-2.2-4c0.1-0.4,0.2-0.8,0.2-1.2c0-2.4-1.9-4.4-4.3-4.7c-0.4-2.2-2.3-3.9-4.6-3.9  c-2.3,0-4.3,1.7-4.6,3.9c-2.4,0.2-4.2,2.2-4.2,4.7c0,0.4,0.1,0.8,0.2,1.2c-1.3,0.8-2.2,2.3-2.2,4c0,1.8,1,3.3,2.4,4.1  c0.1,2.5,2.2,4.4,4.7,4.4c0.4,0,0.9-0.1,1.3-0.2c0.2,0.1,0.4,0.3,0.7,0.4V358c-3.1,0.1-6.2,0.1-9.4,0.2v-73.7h-8l0,4h-6.5v-4h-7.3  v51.3h-7.3V326h5.8l-22.8-28.7L660.3,326h5.8v35.5c-2.3,0.2-4.6,0.4-6.9,0.5v-49.6l-12.6-32l-12.6,32l0,16.9h-7.6v-36.9l-12.6-32  l-12.6,32v36.9h-7.6v-16.9l-12.6-32l-12.6,32V372c-3.7,0.5-7.3,1-11,1.5v-13.4c0.3-0.1,0.6-0.3,0.9-0.5c0.5,0.1,1,0.2,1.5,0.2  c2.9,0,5.2-2.3,5.3-5.1c1.7-0.9,2.8-2.6,2.8-4.7c0-1.9-1.1-3.6-2.6-4.5c0.2-0.5,0.2-1,0.2-1.5c0-2.8-2.2-5.1-4.9-5.3  c-0.4-2.6-2.6-4.6-5.2-4.6c-2.7,0-4.9,2-5.2,4.6c-2.8,0.2-4.9,2.5-4.9,5.3c0,0.5,0.1,1.1,0.2,1.5c-1.6,0.9-2.6,2.6-2.6,4.5  c0,2,1.2,3.8,2.8,4.7c0.1,2.8,2.4,5.1,5.3,5.1c0.5,0,1-0.1,1.5-0.2c0.3,0.2,0.6,0.4,0.9,0.5v14c-5.6,0.8-11.2,1.6-16.8,2.5v-5.9  c0.2-0.1,0.5-0.2,0.7-0.4c0.4,0.1,0.8,0.2,1.3,0.2c2.5,0,4.6-2,4.7-4.4c1.4-0.8,2.4-2.3,2.4-4.1c0-1.7-0.9-3.1-2.2-4  c0.1-0.4,0.2-0.8,0.2-1.2c0-2.4-1.9-4.4-4.2-4.7c-0.4-2.2-2.3-3.9-4.6-3.9c-2.3,0-4.3,1.7-4.6,3.9c-2.4,0.2-4.2,2.2-4.2,4.7  c0,0.4,0.1,0.8,0.2,1.2c-0.8,0.5-1.5,1.3-1.8,2.2l-22.6-28.4l-22.8,28.7h5.8v23.7c-3.5,0.5-7,0.9-10.4,1.4V380  c0.2-0.1,0.4-0.2,0.6-0.4c0.4,0.1,0.9,0.2,1.3,0.2c2.4,0,4.4-1.9,4.4-4.3c1.4-0.7,2.4-2.2,2.4-3.9c0-1.7-0.9-3.1-2.3-3.8  c0.1-0.4,0.2-0.9,0.2-1.4c0-2.4-1.9-4.3-4.2-4.4c-0.3-2.2-2.1-3.9-4.4-3.9s-4.1,1.7-4.4,3.9c-2.3,0.1-4.2,2-4.2,4.4  c0,0.5,0.1,0.9,0.2,1.4c-1.3,0.8-2.3,2.2-2.3,3.8c0,1.7,1,3.2,2.4,3.9c0,2.4,2,4.3,4.4,4.3c0.5,0,0.9-0.1,1.3-0.2  c0.2,0.1,0.4,0.3,0.6,0.4v6.1c-4.4,0.6-8.7,1.1-13,1.6V367h5.8l-22.8-28.7L417.5,367l5.8,0v24.6c-3.3,0.3-6.6,0.6-9.8,0.9v-22.3h5.8  l-22.8-28.7l-22.8,28.7l5.8,0v25.1c-4.7,0.3-9.4,0.6-14.1,0.9V385c0.2-0.1,0.5-0.2,0.7-0.4c0.4,0.1,0.8,0.2,1.3,0.2  c2.5,0,4.5-2,4.7-4.4c1.4-0.8,2.4-2.3,2.4-4.1c0-1.7-0.9-3.1-2.2-4c0.1-0.4,0.2-0.8,0.2-1.2c0-2.4-1.9-4.4-4.2-4.7  c-0.4-2.2-2.3-3.9-4.6-3.9c-2.3,0-4.3,1.7-4.6,3.9c-2.4,0.2-4.2,2.2-4.2,4.7c0,0.4,0.1,0.9,0.2,1.2c-1.3,0.8-2.2,2.3-2.2,4  c0,1.8,1,3.3,2.4,4.1c0.1,2.5,2.2,4.4,4.7,4.4c0.4,0,0.9-0.1,1.3-0.2c0.2,0.1,0.4,0.3,0.7,0.4v11.4c-3.4,0.2-6.7,0.4-10.1,0.5v-51  h-35.9v52.3c-2.7,0.1-5.3,0.1-8,0.2v-27.6h-4.2v-53.5h0c0,0,0,0,0,0v-1.1h-0.1c-0.5-4.2-4.2-7.4-8.5-7.4c-4.4,0-8,3.2-8.5,7.4h0v0.3  c0,0.3,0,0.5,0,0.8h0v53.5h-4.2v27.7c-4.1,0-8.1-0.1-12.2-0.1v-13.5c0.3-0.1,0.6-0.3,0.9-0.5c0.5,0.1,1,0.2,1.5,0.2  c2.9,0,5.2-2.3,5.3-5.1c1.7-0.9,2.8-2.6,2.8-4.7c0-1.9-1.1-3.6-2.6-4.6c0.2-0.5,0.2-1,0.2-1.5c0-2.8-2.2-5.1-5-5.3  c-0.4-2.6-2.6-4.6-5.3-4.6c-2.7,0-4.9,2-5.3,4.6c-2.8,0.2-4.9,2.5-4.9,5.3c0,0.5,0.1,1.1,0.2,1.5c-1.6,0.9-2.6,2.6-2.6,4.6  c0,2,1.2,3.8,2.8,4.7c0.1,2.8,2.4,5.1,5.3,5.1c0.5,0,1-0.1,1.5-0.2c0.3,0.2,0.6,0.4,0.9,0.5v13.5c-7-0.1-14-0.4-21-0.6V391  c0.2-0.1,0.5-0.2,0.7-0.4c0.4,0.1,0.8,0.2,1.3,0.2c2.5,0,4.5-2,4.7-4.4c1.4-0.8,2.4-2.3,2.4-4.1c0-1.7-0.9-3.1-2.2-4  c0.1-0.4,0.2-0.8,0.2-1.2c0-2.4-1.9-4.4-4.2-4.7c-0.4-2.2-2.3-3.9-4.6-3.9c-2.3,0-4.3,1.7-4.6,3.9c-2.4,0.2-4.2,2.2-4.2,4.7  c0,0.4,0.1,0.8,0.2,1.2c-1.3,0.8-2.2,2.3-2.2,4h0c0,1.8,1,3.3,2.4,4.1c0.1,2.5,2.2,4.4,4.7,4.4c0.4,0,0.9-0.1,1.3-0.2  c0.2,0.1,0.4,0.3,0.7,0.4v6.4c-4.6-0.2-9.3-0.4-13.9-0.7v-56.2h-35.9v53.7c-1.1-0.1-2.1-0.2-3.2-0.3v-53.4h-35.9v49.8  c-4.8-0.6-9.6-1.1-14.4-1.8v-8.8c0.4-0.2,0.8-0.4,1.1-0.6c0.5,0.2,1.1,0.3,1.7,0.3c3.1,0,5.7-2.5,5.7-5.6c1.8-0.9,3.1-2.9,3.1-5.1  c0-2.1-1.2-4-2.9-5c0.2-0.5,0.3-1.1,0.3-1.7c0-3.1-2.4-5.6-5.5-5.7c-0.3-2.8-2.8-5-5.7-5c-2.9,0-5.4,2.2-5.7,5  c-3,0.2-5.5,2.7-5.5,5.7c0,0.6,0.1,1.2,0.3,1.7c-1.7,1-2.9,2.8-2.9,5h0c0,2.2,1.3,4.1,3.1,5.1c0.1,3.1,2.6,5.6,5.7,5.6  c0.6,0,1.2-0.1,1.7-0.3c0.3,0.2,0.7,0.4,1.1,0.6v8.2c-5.3-0.7-10.6-1.4-15.9-2.2v-35.2h5.8l-22.8-28.7L78,350.6l5.8,0v29.9  c-3.5-0.6-7.1-1.2-10.6-1.8l-0.2,0V380.8z M908.9,353.3c0.4-0.2,0.7-0.3,1.1-0.6c0.5,0.2,1.1,0.2,1.6,0.2c3.1,0,5.6-2.5,5.6-5.5  c1.8-0.9,3-2.8,3-5c0-0.1,0-0.3,0-0.4l5.8,0v28.9c-5.8-0.9-11.5-1.8-17.2-2.6V353.3z M904.5,350.8l-0.5-0.4l-0.6,0.3  c-0.4,0.2-0.9,0.3-1.4,0.3c-1.9,0-3.5-1.6-3.5-3.5c0-0.1,0-0.2,0-0.5l0.1-0.8l-0.8-0.3c-1.4-0.5-2.4-1.8-2.4-3.3  c0-1.6,1-2.9,2.4-3.3l1.3-0.4l-0.7-1.1c-0.3-0.5-0.5-1.1-0.5-1.7c0-1.9,1.6-3.5,3.5-3.5c0.2,0,0.4,0,0.6,0.1l1.4,0.2l-0.1-1.4  c0-0.2,0-0.3,0-0.3c0-1.9,1.6-3.5,3.5-3.5c1.9,0,3.5,1.6,3.5,3.5c0,0,0,0.1,0,0.4l-0.1,1.3l1.3-0.2c0.2,0,0.4-0.1,0.6-0.1  c1.9,0,3.5,1.6,3.5,3.5c0,0.6-0.2,1.2-0.5,1.7l-0.6,1.1l1.2,0.4c1.4,0.5,2.4,1.8,2.4,3.3c0,1.5-1,2.8-2.4,3.3l-0.8,0.3l0.1,0.9  c0,0.2,0,0.4,0,0.4c0,1.9-1.6,3.5-3.5,3.5c-0.5,0-1-0.1-1.4-0.3l-0.6-0.3l-0.5,0.4c-0.4,0.3-0.9,0.6-1.4,0.7l-0.1,0  c-0.3,0.1-0.5,0.1-0.8,0.1c0,0,0,0,0,0c-0.2,0-0.5,0-0.8-0.1l-0.1,0C905.4,351.4,904.9,351.1,904.5,350.8z M880.9,357.6l-0.5-0.4  l-0.6,0.3c-0.3,0.1-0.7,0.2-1,0.2c-1.4,0-2.5-1.1-2.5-2.5c0,0,0-0.1,0-0.3l0.1-0.8l-0.8-0.3c-1-0.3-1.7-1.3-1.7-2.4  c0-1.1,0.7-2.1,1.8-2.4l1.3-0.4l-0.7-1.1c-0.2-0.4-0.3-0.8-0.3-1.2c0-1.4,1.1-2.5,2.5-2.5c0.1,0,0.2,0,0.4,0l1.4,0.2l-0.1-1.4  c0-0.2,0-0.3,0-0.3c0-1.4,1.1-2.5,2.5-2.5c1.4,0,2.5,1.1,2.5,2.5c0,0,0,0.1,0,0.3l-0.1,1.4l1.4-0.2c0.2,0,0.3,0,0.4,0  c1.4,0,2.5,1.1,2.5,2.5c0,0.4-0.1,0.9-0.3,1.2l-0.7,1.1l1.3,0.4c1,0.3,1.8,1.3,1.8,2.4c0,1.1-0.7,2-1.7,2.4l-0.8,0.3l0.1,0.9  c0,0.2,0,0.3,0,0.3c0,1.4-1.1,2.5-2.5,2.5c-0.4,0-0.7-0.1-1-0.2l-0.6-0.3l-0.5,0.4c-0.3,0.3-0.7,0.4-1,0.5l0,0  c-0.2,0-0.4,0.1-0.5,0.1c0,0,0,0,0,0c0,0,0,0,0,0c-0.2,0-0.3,0-0.5-0.1l0,0C881.6,358,881.2,357.8,880.9,357.6z M835,311.3h31.6v4.7  H835V311.3z M795.9,311.3h31.6v4.7h-31.6V311.3z M738.9,344.8l-0.5-0.4l-0.6,0.3c-0.3,0.1-0.7,0.2-1,0.2c-1.4,0-2.5-1.1-2.5-2.5  c0,0,0-0.1,0-0.3l0.1-0.8l-0.8-0.3c-1-0.3-1.7-1.3-1.7-2.4c0-1.1,0.7-2.1,1.8-2.4l1.3-0.4l-0.7-1.1c-0.2-0.4-0.3-0.8-0.3-1.2  c0-1.4,1.1-2.5,2.5-2.5c0.1,0,0.2,0,0.4,0l1.4,0.2l-0.1-1.4c0-0.2,0-0.3,0-0.3c0-1.4,1.1-2.5,2.5-2.5c1.4,0,2.5,1.1,2.5,2.5  c0,0,0,0.1,0,0.3l-0.1,1.4l1.3-0.2c0.2,0,0.3,0,0.4,0c1.4,0,2.5,1.1,2.5,2.5c0,0.4-0.1,0.9-0.3,1.2l-0.7,1.1l1.3,0.4  c1,0.3,1.8,1.3,1.8,2.4c0,1.1-0.7,2-1.7,2.4l-0.8,0.3l0.1,0.9c0,0.2,0,0.3,0,0.3c0,1.4-1.1,2.5-2.5,2.5c-0.4,0-0.7-0.1-1-0.2  l-0.6-0.3l-0.5,0.4c-0.3,0.3-0.7,0.4-1,0.5l-0.1,0c-0.2,0-0.4,0.1-0.5,0.1c0,0,0,0,0,0c0,0,0,0,0,0c-0.2,0-0.3,0-0.5-0.1l0,0  C739.5,345.3,739.2,345.1,738.9,344.8z M645.9,308.3c0-0.5,0.4-0.8,0.8-0.8c0.4,0,0.8,0.4,0.8,0.8l0,3.6h-1.6L645.9,308.3z   M642.6,311.9l4.1-10.4l4.1,10.4h-1.7v-3.6c0-1.3-1.1-2.4-2.4-2.4c-1.3,0-2.4,1.1-2.4,2.4h0.8l-0.8,0l0,3.6H642.6z M636.6,311.9  l10.1-25.5l10.1,25.5h-4.2l-5.8-14.8l-5.8,14.8H636.6z M613.1,288.2c0-0.5,0.4-0.8,0.8-0.8c0.5,0,0.8,0.4,0.8,0.8v3.6h-1.6  L613.1,288.2z M609.8,291.9l4.1-10.4l4.1,10.4h-1.7v-3.6c0-1.3-1.1-2.4-2.4-2.4c-1.3,0-2.4,1.1-2.4,2.4h0.8l-0.8,0l0,3.6H609.8z   M603.8,291.9l10.1-25.5l10.1,25.5h-4.2l-5.8-14.8l-5.8,14.8H603.8z M580.3,308.3c0-0.5,0.4-0.8,0.8-0.8c0.5,0,0.8,0.4,0.8,0.8  l0,3.6h-1.6V308.3z M577,311.9l4.1-10.4l4.1,10.4h-1.7l0-3.6l-0.8,0h0.8c0-1.3-1.1-2.4-2.4-2.4c-1.3,0-2.4,1.1-2.4,2.4v3.6H577z   M571,311.9l10.1-25.5l10.1,25.5h-4.2l-5.8-14.8l-5.8,14.8H571z M553.4,357.6l-0.5-0.4l-0.6,0.3c-0.4,0.2-0.8,0.3-1.3,0.3  c-1.7,0-3.2-1.4-3.2-3.2c0-0.1,0-0.2,0-0.4l0.1-0.8l-0.8-0.3c-1.2-0.4-2.1-1.6-2.1-3c0-1.4,0.9-2.6,2.2-3l1.3-0.4l-0.7-1.1  c-0.3-0.5-0.4-1-0.4-1.5c0-1.7,1.4-3.2,3.2-3.2c0.2,0,0.3,0,0.5,0.1l1.4,0.2l-0.1-1.4c0-0.2,0-0.3,0-0.3c0-1.7,1.4-3.2,3.2-3.2  c1.7,0,3.2,1.4,3.2,3.2c0,0,0,0.1,0,0.3l-0.1,1.3l1.3-0.2c0.2,0,0.4-0.1,0.5-0.1c1.7,0,3.2,1.4,3.2,3.2c0,0.6-0.2,1.1-0.4,1.5  l-0.6,1.1l1.2,0.4c1.3,0.4,2.2,1.6,2.2,3c0,1.4-0.9,2.5-2.1,3l-0.8,0.3l0.1,0.9c0,0.2,0,0.3,0,0.4c0,1.7-1.4,3.2-3.2,3.2  c-0.4,0-0.9-0.1-1.3-0.3l-0.6-0.3l-0.5,0.4c-0.4,0.3-0.8,0.5-1.3,0.7l-0.1,0c-0.3,0.1-0.5,0.1-0.7,0.1c0,0,0,0,0,0  c-0.2,0-0.4,0-0.7-0.1l-0.1,0C554.2,358.2,553.7,357.9,553.4,357.6z M533,368.4l-0.5-0.4l-0.6,0.3c-0.3,0.1-0.7,0.2-1,0.2  c-1.4,0-2.5-1.1-2.5-2.5c0,0,0-0.1,0-0.3l0.1-0.8l-0.8-0.3c-1-0.3-1.7-1.3-1.7-2.4h0c0-1.1,0.7-2.1,1.8-2.4l1.3-0.4l-0.7-1.1  c-0.2-0.4-0.3-0.8-0.3-1.2c0-1.4,1.1-2.5,2.5-2.5c0.1,0,0.2,0,0.4,0l1.4,0.2l-0.1-1.4c0-0.2,0-0.3,0-0.3c0-1.4,1.1-2.5,2.5-2.5  c1.4,0,2.5,1.1,2.5,2.5c0,0,0,0.1,0,0.3l-0.1,1.4l1.4-0.2c0.2,0,0.3,0,0.4,0c1.4,0,2.5,1.1,2.5,2.5c0,0.4-0.1,0.9-0.3,1.2l-0.6,1.1  l1.3,0.4c1,0.3,1.8,1.3,1.8,2.4c0,1.1-0.7,2-1.7,2.4l-0.8,0.3l0.1,0.9c0,0.2,0,0.3,0,0.3c0,1.4-1.1,2.5-2.5,2.5  c-0.4,0-0.7-0.1-1-0.2l-0.6-0.3l-0.5,0.4c-0.3,0.3-0.6,0.4-1,0.5l-0.1,0c-0.2,0-0.4,0.1-0.5,0.1c0,0,0,0,0,0c0,0,0,0,0,0  c-0.2,0-0.3,0-0.5-0.1l-0.1,0C533.7,368.8,533.3,368.6,533,368.4z M524,360.6c-0.2,0.5-0.2,1-0.2,1.5c0,1.8,1,3.3,2.4,4.1  c0.1,2.5,2.2,4.4,4.7,4.4c0.4,0,0.9-0.1,1.3-0.2c0.2,0.1,0.4,0.3,0.7,0.4v6.4c-3.2,0.5-6.4,1-9.7,1.5c-1.5,0.2-3,0.5-4.6,0.7v-18.8  H524z M470.4,378.2l-0.4-0.3l-0.5,0.2c-0.3,0.2-0.7,0.2-1.1,0.2c-1.6,0-2.8-1.3-2.8-2.8c0,0,0-0.2,0-0.3l0.1-0.6l-0.6-0.2  c-1.1-0.4-1.9-1.4-1.9-2.6h0c0-1.2,0.8-2.3,2-2.7l0.9-0.3l-0.5-0.9c-0.2-0.4-0.4-0.9-0.4-1.4c0-1.6,1.3-2.8,2.8-2.8  c0.1,0,0.3,0,0.5,0.1l1,0.2l-0.1-1c0-0.2,0-0.3,0-0.3c0-1.6,1.3-2.8,2.8-2.8c1.6,0,2.8,1.3,2.8,2.8c0,0,0,0.1,0,0.3l-0.1,1l1-0.2  c0.2,0,0.3-0.1,0.5-0.1c1.6,0,2.8,1.3,2.8,2.8c0,0.5-0.1,1-0.4,1.4l-0.5,0.9l0.9,0.3c1.1,0.4,2,1.4,2,2.7c0,1.2-0.8,2.3-1.9,2.6  l-0.6,0.2l0.1,0.6c0,0.2,0,0.3,0,0.3c0,1.6-1.3,2.8-2.8,2.8c-0.4,0-0.8-0.1-1.1-0.2l-0.5-0.2l-0.4,0.3c0,0-0.1,0.1-0.1,0.1l-1.2,0.3  c-0.2,0-0.4,0.1-0.6,0.1c-0.2,0-0.4,0-0.6-0.1l-1.1-0.3C470.5,378.2,470.5,378.2,470.4,378.2z M361.9,382.6l-0.5-0.4l-0.6,0.3  c-0.3,0.1-0.7,0.2-1,0.2c-1.4,0-2.5-1.1-2.5-2.5c0,0,0-0.1,0-0.3l0.1-0.9l-0.8-0.3c-1-0.3-1.7-1.3-1.7-2.4c0-1.1,0.7-2.1,1.8-2.4  l1.3-0.4l-0.7-1.1c-0.2-0.4-0.3-0.8-0.3-1.2c0-1.4,1.1-2.5,2.5-2.5c0.1,0,0.3,0,0.4,0l1.4,0.2l-0.1-1.4c0-0.2,0-0.2,0-0.2  c0-1.4,1.1-2.5,2.5-2.5c1.4,0,2.5,1.1,2.6,2.5c0,0,0,0,0,0.3l-0.1,1.3l1.3-0.2c0.2,0,0.3,0,0.4,0c1.4,0,2.5,1.1,2.5,2.5  c0,0.4-0.1,0.9-0.3,1.2l-0.7,1.1l1.3,0.4c1,0.3,1.8,1.3,1.8,2.4c0,1.1-0.7,2-1.7,2.4l-0.8,0.3l0.1,0.9c0,0.2,0,0.3,0,0.3  c0,1.4-1.1,2.5-2.5,2.5c-0.4,0-0.7-0.1-1-0.2l-0.6-0.3l-0.5,0.4c-0.3,0.3-0.6,0.4-1,0.5l-0.1,0c-0.2,0.1-0.4,0.1-0.6,0.1  c0,0,0,0,0,0c-0.2,0-0.3,0-0.6-0.1l-0.1,0C362.5,383,362.2,382.9,361.9,382.6z M317.9,348h31.6v4.7h-31.6V348z M301.3,316.1h-12.7  c0.5-3,3.1-5.2,6.3-5.2C298.1,310.8,300.8,313.1,301.3,316.1z M288.5,318.2h12.9v52.5h-12.9V318.2z M265.9,382.2l-0.5-0.4l-0.6,0.3  c-0.4,0.2-0.8,0.3-1.3,0.3c-1.7,0-3.2-1.4-3.2-3.2c0,0,0-0.2,0-0.4l0.1-0.8l-0.8-0.3c-1.2-0.4-2.1-1.6-2.1-3c0-1.4,0.9-2.6,2.2-3  l1.3-0.4l-0.7-1.1c-0.3-0.5-0.4-1-0.4-1.5c0-1.7,1.4-3.2,3.2-3.2c0.2,0,0.3,0,0.5,0.1l1.4,0.2l-0.1-1.4c0-0.2,0-0.3,0-0.3  c0-1.7,1.4-3.2,3.2-3.2c1.7,0,3.2,1.4,3.2,3.2c0,0,0,0.1,0,0.3l-0.1,1.3l1.3-0.2c0.2,0,0.4-0.1,0.5-0.1c1.7,0,3.2,1.4,3.2,3.2  c0,0.6-0.2,1.1-0.4,1.5l-0.7,1.1l1.3,0.4c1.3,0.4,2.2,1.6,2.2,3c0,1.4-0.9,2.5-2.1,3l-0.8,0.3l0.1,0.8c0,0.2,0,0.4,0,0.4  c0,1.7-1.4,3.2-3.2,3.2c-0.4,0-0.9-0.1-1.3-0.3l-0.6-0.3l-0.5,0.4c-0.4,0.3-0.8,0.5-1.2,0.7l-0.1,0c-0.3,0.1-0.5,0.1-0.7,0.1  c-0.2,0-0.4,0-0.7-0.1l-0.1,0C266.7,382.8,266.3,382.5,265.9,382.2z M241.5,388.7l-0.5-0.4l-0.6,0.3c-0.3,0.1-0.7,0.2-1,0.2  c-1.4,0-2.5-1.1-2.5-2.5c0,0,0-0.1,0-0.3l0.1-0.9l-0.8-0.3c-1-0.3-1.7-1.3-1.7-2.4c0-1.1,0.7-2.1,1.8-2.4l1.3-0.4l-0.7-1.1  c-0.2-0.4-0.3-0.8-0.3-1.2c0-1.4,1.1-2.5,2.5-2.5c0.1,0,0.2,0,0.4,0l1.4,0.2l-0.1-1.4c0-0.2,0-0.3,0-0.3c0-1.4,1.1-2.5,2.5-2.5  c1.4,0,2.5,1.1,2.5,2.5c0,0,0,0,0,0.3l-0.1,1.4l1.3-0.2c0.2,0,0.3,0,0.4,0c1.4,0,2.5,1.1,2.5,2.5c0,0.4-0.1,0.9-0.3,1.2l-0.7,1.1  l1.3,0.4c1,0.3,1.8,1.3,1.8,2.4c0,1.1-0.7,2-1.7,2.4l-0.8,0.3l0.1,0.9c0,0.2,0,0.3,0,0.3c0,1.4-1.1,2.5-2.5,2.5  c-0.4,0-0.7-0.1-1-0.2l-0.6-0.3l-0.5,0.4c-0.3,0.3-0.6,0.4-1,0.5l-0.1,0c-0.2,0.1-0.4,0.1-0.6,0.1c0,0,0,0,0,0c-0.2,0-0.4,0-0.6-0.1  l-0.1,0C242.1,389.1,241.8,388.9,241.5,388.7z M193.6,342.7h31.6v4.7h-31.6V342.7z M154.5,342.7h31.6v4.7h-31.6V342.7z M133.5,377.2  l-0.5-0.4l-0.6,0.3c-0.4,0.2-0.9,0.3-1.4,0.3c-2,0-3.6-1.6-3.6-3.6c0-0.1,0-0.2,0-0.4l0.1-0.9l-0.8-0.3c-1.4-0.5-2.4-1.8-2.4-3.4  c0-1.6,1.1-2.9,2.5-3.4l1.3-0.4l-0.7-1.1c-0.3-0.5-0.5-1.1-0.5-1.8c0-2,1.6-3.6,3.6-3.6c0.2,0,0.4,0,0.6,0.1l1.3,0.2l-0.1-1.4  c0-0.3,0-0.4,0-0.4c0-2,1.6-3.6,3.6-3.6c2,0,3.6,1.6,3.6,3.6c0,0,0,0.1,0,0.4l-0.1,1.4l1.4-0.2c0.2,0,0.4-0.1,0.6-0.1  c2,0,3.6,1.6,3.6,3.6c0,0.6-0.2,1.2-0.5,1.8l-0.6,1.1l1.3,0.4c1.5,0.5,2.5,1.8,2.5,3.4c0,1.6-1,2.9-2.4,3.4l-0.8,0.3l0.1,0.9  c0,0.2,0,0.4,0,0.4c0,2-1.6,3.6-3.6,3.6c-0.5,0-1-0.1-1.4-0.3l-0.6-0.3l-0.5,0.4c-0.4,0.4-0.9,0.6-1.5,0.8l-0.1,0  c-0.3,0.1-0.5,0.1-0.8,0.1c-0.2,0-0.5,0-0.8-0.1l0,0C134.5,377.9,133.9,377.6,133.5,377.2z"></path>
<g>
	<path class="st2" d="M399.2,105.2V91.3h6.9v35h-6.9v-14.5h-13v14.5h-6.9v-35h6.9v13.9H399.2z"></path>
	<path class="st2" d="M433.5,123.2c-2.5,2.5-5.7,3.8-9.4,3.8c-3.7,0-6.9-1.3-9.4-3.8c-2.5-2.5-3.8-5.7-3.8-9.4   c0-3.7,1.3-6.8,3.8-9.4c2.6-2.6,5.7-3.9,9.4-3.9c3.7,0,6.8,1.3,9.4,3.9c2.6,2.6,3.9,5.7,3.9,9.4   C437.4,117.5,436.1,120.6,433.5,123.2z M419.3,118.7c1.3,1.3,2.9,1.9,4.9,1.9c1.9,0,3.5-0.6,4.9-1.9c1.3-1.3,1.9-3,1.9-5   s-0.6-3.6-1.9-5c-1.3-1.3-2.9-1.9-4.9-1.9c-1.9,0-3.6,0.6-4.9,1.9c-1.3,1.3-1.9,3-1.9,5C417.4,115.8,418,117.4,419.3,118.7z"></path>
	<path class="st2" d="M459.9,113.5c2.3,1.1,3.5,3,3.5,5.7c0,2.1-0.7,3.9-2.2,5.1c-1.5,1.3-3.5,2-6.1,2h-13.1v-25h12.1   c2.6,0,4.6,0.6,6.1,1.9c1.5,1.3,2.2,3,2.2,5.1C462.4,110.5,461.6,112.3,459.9,113.5z M453.5,106.6H448v4.5h5.5   c1.8,0,2.8-0.8,2.8-2.2S455.3,106.6,453.5,106.6z M448,120.8h6.4c1.9,0,2.8-0.8,2.8-2.4c0-0.7-0.2-1.2-0.8-1.6s-1.2-0.6-2-0.6H448   V120.8z"></path>
	<path class="st2" d="M486.5,104.2v-3h6.4v25h-6.4v-3c-1.9,2.4-4.7,3.7-8.2,3.7c-3.3,0-6.2-1.3-8.6-3.8c-2.4-2.6-3.6-5.7-3.6-9.4   c0-3.7,1.2-6.8,3.6-9.4c2.4-2.6,5.3-3.9,8.6-3.9C481.8,100.6,484.6,101.8,486.5,104.2z M474.6,118.9c1.3,1.3,3,1.9,5,1.9   s3.6-0.6,5-1.9c1.3-1.3,2-3,2-5.1c0-2.1-0.7-3.8-2-5c-1.3-1.3-3-2-5-2s-3.6,0.7-5,2c-1.3,1.3-1.9,3-1.9,5   C472.6,115.9,473.3,117.6,474.6,118.9z"></path>
	<path class="st2" d="M507.1,101.3h11.7v25h-6.3v-7.8h-2.2l-5.8,7.8h-7.5l6.2-8.5c-1.6-0.7-2.9-1.7-3.8-3.2c-0.9-1.4-1.4-3-1.4-4.7   c0-2.3,0.8-4.3,2.5-6.1C502.2,102.1,504.4,101.3,507.1,101.3z M512.5,107h-4.9c-0.9,0-1.7,0.3-2.3,0.9c-0.6,0.6-0.9,1.3-0.9,2.2   c0,0.9,0.3,1.6,0.9,2.2c0.6,0.5,1.4,0.8,2.3,0.8h4.9V107z"></path>
	<path class="st2" d="M555.2,113.5c2.3,1.1,3.5,3,3.5,5.7c0,2.1-0.7,3.9-2.2,5.1c-1.5,1.3-3.5,2-6.1,2h-13.2v-25h12.2   c2.6,0,4.6,0.6,6.1,1.9c1.5,1.3,2.2,3,2.2,5.1C557.7,110.5,556.9,112.3,555.2,113.5z M548.8,106.6h-5.5v4.5h5.5   c1.8,0,2.8-0.8,2.8-2.2S550.6,106.6,548.8,106.6z M543.3,120.8h6.4c1.9,0,2.8-0.8,2.8-2.4c0-0.7-0.2-1.2-0.8-1.6s-1.2-0.6-2-0.6   h-6.4V120.8z"></path>
	<path class="st2" d="M587.1,116.4h-18.9c0.8,3.1,3.2,4.7,7.1,4.7c2.5,0,4.3-0.8,5.6-2.5l5.2,3c-2.5,3.6-6.1,5.4-10.9,5.4   c-4.1,0-7.5-1.2-10-3.8s-3.8-5.7-3.8-9.5c0-3.7,1.2-6.9,3.7-9.4c2.4-2.5,5.6-3.8,9.5-3.8c3.7,0,6.7,1.3,9,3.8   c2.4,2.5,3.6,5.7,3.6,9.4C587.3,114.5,587.3,115.4,587.1,116.4z M568.1,111.4h12.8c-0.4-1.6-1.1-2.9-2.2-3.8   c-1.1-0.9-2.4-1.3-4-1.3c-1.7,0-3.2,0.4-4.3,1.3C569.3,108.6,568.5,109.8,568.1,111.4z"></path>
	<path class="st2" d="M606.4,100.6c3.4,0,6.2,1.3,8.6,3.9c2.4,2.6,3.6,5.7,3.6,9.4c0,3.7-1.2,6.9-3.6,9.4c-2.3,2.5-5.2,3.8-8.6,3.8   c-3.5,0-6.2-1.2-8.1-3.7v13h-6.4v-35h6.4v3C600.2,101.8,602.9,100.6,606.4,100.6z M600.2,118.9c1.3,1.3,3,1.9,5,1.9s3.7-0.6,5-1.9   c1.3-1.3,2-3,2-5.1c0-2.1-0.7-3.8-2-5c-1.3-1.3-3-2-5-2s-3.7,0.7-5,2c-1.3,1.3-2,3-2,5C598.3,115.9,598.9,117.6,600.2,118.9z"></path>
	<path class="st2" d="M635,127c-3.8,0-6.9-1.3-9.5-3.8c-2.5-2.5-3.8-5.7-3.8-9.4c0-3.7,1.2-6.9,3.8-9.4c2.5-2.5,5.7-3.8,9.5-3.8   c2.4,0,4.6,0.6,6.6,1.8c2,1.2,3.5,2.7,4.5,4.7l-5.5,3.2c-0.5-1-1.3-1.9-2.3-2.5c-1-0.6-2.2-0.9-3.4-0.9c-1.9,0-3.5,0.6-4.8,1.9   s-1.9,2.9-1.9,4.9c0,1.9,0.6,3.6,1.9,4.9c1.3,1.3,2.9,1.9,4.8,1.9c1.3,0,2.5-0.3,3.5-0.9c1-0.6,1.8-1.4,2.3-2.4l5.6,3.2   c-1.1,2-2.7,3.6-4.7,4.8C639.6,126.4,637.4,127,635,127z"></path>
	<path class="st2" d="M656.2,115.5l11.8-14.2h4.8v25h-6.3v-14.2l-11.8,14.2h-4.8v-25h6.3V115.5z"></path>
	<path class="st2" d="M687,101.3h11.7v25h-6.3v-7.8h-2.2l-5.8,7.8H677l6.2-8.5c-1.6-0.7-2.9-1.7-3.8-3.2c-1-1.4-1.4-3-1.4-4.7   c0-2.3,0.8-4.3,2.5-6.1C682.1,102.1,684.3,101.3,687,101.3z M692.4,107h-4.9c-0.9,0-1.7,0.3-2.3,0.9c-0.6,0.6-0.9,1.3-0.9,2.2   c0,0.9,0.3,1.6,0.9,2.2s1.4,0.8,2.3,0.8h4.9V107z"></path>
	<path class="st2" d="M395.4,170.7v-9.5h6.4v25h-6.4v-9.5h-10v9.5H379v-25h6.4v9.5H395.4z"></path>
	<path class="st2" d="M426.7,164.2v-3h6.4v25h-6.4v-3c-1.9,2.4-4.7,3.7-8.2,3.7c-3.3,0-6.2-1.3-8.6-3.8c-2.4-2.6-3.6-5.7-3.6-9.4   c0-3.7,1.2-6.8,3.6-9.4c2.4-2.6,5.3-3.9,8.6-3.9C422.1,160.6,424.8,161.8,426.7,164.2z M414.8,178.9c1.3,1.3,3,1.9,5,1.9   s3.6-0.6,5-1.9c1.3-1.3,2-3,2-5.1c0-2.1-0.7-3.8-2-5c-1.3-1.3-3-2-5-2s-3.6,0.7-5,2c-1.3,1.3-1.9,3-1.9,5   C412.9,175.9,413.5,177.6,414.8,178.9z"></path>
	<path class="st2" d="M467.9,170.7v-9.5h6.4v25h-6.4v-9.5h-10v9.5h-6.4v-25h6.4v9.5H467.9z"></path>
	<path class="st2" d="M501.6,183.2c-2.5,2.5-5.7,3.8-9.4,3.8c-3.7,0-6.9-1.3-9.4-3.8c-2.5-2.5-3.8-5.7-3.8-9.4   c0-3.7,1.3-6.8,3.8-9.4c2.6-2.6,5.7-3.9,9.4-3.9c3.7,0,6.8,1.3,9.4,3.9c2.6,2.6,3.9,5.7,3.9,9.4   C505.4,177.5,504.2,180.6,501.6,183.2z M487.3,178.7c1.3,1.3,2.9,1.9,4.9,1.9c1.9,0,3.5-0.6,4.9-1.9c1.3-1.3,1.9-3,1.9-5   s-0.6-3.6-1.9-5c-1.3-1.3-2.9-1.9-4.9-1.9c-1.9,0-3.6,0.6-4.9,1.9c-1.3,1.3-1.9,3-1.9,5C485.4,175.8,486.1,177.4,487.3,178.7z"></path>
	<path class="st2" d="M528,173.5c2.3,1.1,3.5,3,3.5,5.7c0,2.1-0.7,3.9-2.2,5.1c-1.5,1.3-3.5,2-6.1,2H510v-25h12.1   c2.6,0,4.6,0.6,6.1,1.9c1.5,1.3,2.2,3,2.2,5.1C530.4,170.5,529.6,172.3,528,173.5z M521.5,166.6H516v4.5h5.5c1.8,0,2.8-0.8,2.8-2.2   S523.4,166.6,521.5,166.6z M516,180.8h6.4c1.9,0,2.8-0.8,2.8-2.4c0-0.7-0.2-1.2-0.8-1.6c-0.5-0.4-1.2-0.6-2.1-0.6H516V180.8z"></path>
	<path class="st2" d="M542,169.3h4.9c2.8,0,5.1,0.8,6.8,2.3c1.7,1.5,2.6,3.6,2.6,6.2c0,2.6-0.9,4.6-2.6,6.2c-1.7,1.6-4,2.3-6.8,2.3   h-11.3v-25h6.4V169.3z M542,180.6h4.9c0.9,0,1.6-0.3,2.2-0.8c0.6-0.5,0.9-1.2,0.9-2c0-0.8-0.3-1.5-0.9-2s-1.3-0.8-2.2-0.8H542   V180.6z M559,186.3v-25h6.4v25H559z"></path>
	<path class="st2" d="M585.3,173.5l9.2,12.8H587l-5.4-7.6l-5.4,7.6h-7.5l9.1-12.8l-8.8-12.2h7.5l5,7l5.1-7h7.4L585.3,173.5z"></path>
	<path class="st2" d="M622,187c-3.8,0-6.9-1.3-9.5-3.8c-2.5-2.5-3.8-5.7-3.8-9.4c0-3.7,1.2-6.9,3.8-9.4c2.5-2.5,5.7-3.8,9.5-3.8   c2.4,0,4.7,0.6,6.7,1.8c2,1.2,3.5,2.7,4.5,4.7l-5.5,3.2c-0.5-1-1.3-1.9-2.3-2.5c-1-0.6-2.2-0.9-3.4-0.9c-1.9,0-3.5,0.6-4.8,1.9   c-1.3,1.3-1.9,2.9-1.9,4.9c0,1.9,0.6,3.6,1.9,4.9c1.3,1.3,2.9,1.9,4.8,1.9c1.3,0,2.5-0.3,3.5-0.9c1-0.6,1.8-1.4,2.3-2.4l5.6,3.2   c-1.1,2-2.7,3.6-4.7,4.8C626.7,186.4,624.4,187,622,187z"></path>
	<path class="st2" d="M649.6,173.6l10.4,12.6h-7.5l-9.1-11.4v11.4h-6.4v-25h6.4v11l8.6-11h7.7L649.6,173.6z"></path>
	<path class="st2" d="M682.7,183.2c-2.5,2.5-5.7,3.8-9.4,3.8s-6.9-1.3-9.4-3.8c-2.5-2.5-3.8-5.7-3.8-9.4c0-3.7,1.3-6.8,3.8-9.4   c2.6-2.6,5.7-3.9,9.4-3.9c3.7,0,6.8,1.3,9.4,3.9c2.6,2.6,3.8,5.7,3.8,9.4C686.5,177.5,685.3,180.6,682.7,183.2z M668.4,178.7   c1.3,1.3,2.9,1.9,4.8,1.9s3.6-0.6,4.9-1.9c1.3-1.3,2-3,2-5s-0.7-3.6-2-5c-1.3-1.3-2.9-1.9-4.9-1.9s-3.5,0.6-4.8,1.9   c-1.3,1.3-1.9,3-1.9,5C666.5,175.8,667.2,177.4,668.4,178.7z"></path>
	<path class="st2" d="M705.6,160.6c3.4,0,6.2,1.3,8.6,3.9c2.4,2.6,3.6,5.7,3.6,9.4c0,3.7-1.2,6.9-3.6,9.4c-2.3,2.5-5.2,3.8-8.6,3.8   c-3.5,0-6.2-1.2-8.1-3.7v13h-6.5v-35h6.5v3C699.4,161.8,702.1,160.6,705.6,160.6z M699.5,178.9c1.3,1.3,3,1.9,5,1.9s3.7-0.6,5-1.9   c1.3-1.3,2-3,2-5.1c0-2.1-0.7-3.8-2-5c-1.3-1.3-3-2-5-2s-3.6,0.7-5,2c-1.3,1.3-1.9,3-1.9,5C697.5,175.9,698.2,177.6,699.5,178.9z"></path>
	<path class="st2" d="M743.7,183.2c-2.5,2.5-5.7,3.8-9.4,3.8s-6.9-1.3-9.4-3.8c-2.5-2.5-3.8-5.7-3.8-9.4c0-3.7,1.3-6.8,3.8-9.4   c2.6-2.6,5.7-3.9,9.4-3.9c3.7,0,6.8,1.3,9.4,3.9c2.6,2.6,3.8,5.7,3.8,9.4C747.5,177.5,746.3,180.6,743.7,183.2z M729.4,178.7   c1.3,1.3,2.9,1.9,4.8,1.9s3.6-0.6,4.9-1.9c1.3-1.3,2-3,2-5s-0.7-3.6-2-5c-1.3-1.3-2.9-1.9-4.9-1.9s-3.5,0.6-4.8,1.9   c-1.3,1.3-1.9,3-1.9,5C727.5,175.8,728.2,177.4,729.4,178.7z"></path>
	<path class="st2" d="M764,187c-3.8,0-6.9-1.3-9.4-3.8c-2.5-2.5-3.8-5.7-3.8-9.4c0-3.7,1.2-6.9,3.8-9.4c2.5-2.5,5.7-3.8,9.4-3.8   c2.4,0,4.7,0.6,6.7,1.8c2,1.2,3.5,2.7,4.5,4.7l-5.5,3.2c-0.5-1-1.3-1.9-2.3-2.5c-1-0.6-2.2-0.9-3.4-0.9c-1.9,0-3.5,0.6-4.8,1.9   c-1.3,1.3-1.9,2.9-1.9,4.9c0,1.9,0.6,3.6,1.9,4.9c1.3,1.3,2.9,1.9,4.8,1.9c1.3,0,2.5-0.3,3.5-0.9c1-0.6,1.8-1.4,2.3-2.4l5.6,3.2   c-1.1,2-2.7,3.6-4.7,4.8C768.6,186.4,766.4,187,764,187z"></path>
	<path class="st2" d="M776.1,161.3h22.2v6.2h-7.8v18.8H784v-18.8h-7.9V161.3z"></path>
	<path class="st2" d="M808.5,161.3h11.7v25h-6.3v-7.8h-2.2l-5.8,7.8h-7.5l6.2-8.5c-1.6-0.7-2.9-1.7-3.8-3.2c-1-1.4-1.4-3-1.4-4.7   c0-2.3,0.8-4.3,2.5-6.1C803.6,162.1,805.8,161.3,808.5,161.3z M813.9,167H809c-0.9,0-1.7,0.3-2.3,0.9c-0.6,0.6-0.9,1.3-0.9,2.2   c0,0.9,0.3,1.6,0.9,2.2s1.4,0.8,2.3,0.8h4.9V167z"></path>
	<path class="st2" d="M840,173.5l9.2,12.8h-7.5l-5.4-7.6l-5.5,7.6h-7.5l9.2-12.8l-8.8-12.2h7.4l5.1,7l5-7h7.4L840,173.5z"></path>
</g>
<g>
	<path class="st2" d="M377.8,228.5h13.7v15h-3.9v-11.4h-6v11.4h-3.9V228.5z"></path>
	<path class="st2" d="M407.8,241.7c-1.5,1.5-3.4,2.3-5.6,2.3c-2.2,0-4.1-0.8-5.6-2.3c-1.5-1.5-2.3-3.4-2.3-5.6   c0-2.2,0.8-4.1,2.3-5.6c1.5-1.5,3.4-2.3,5.6-2.3c2.2,0,4.1,0.8,5.6,2.3c1.5,1.5,2.3,3.4,2.3,5.6   C410.2,238.2,409.4,240.1,407.8,241.7z M399.3,239c0.8,0.8,1.8,1.2,2.9,1.2c1.2,0,2.1-0.4,2.9-1.2c0.8-0.8,1.2-1.8,1.2-3   s-0.4-2.2-1.2-3c-0.8-0.8-1.8-1.2-2.9-1.2c-1.2,0-2.1,0.4-2.9,1.2c-0.8,0.8-1.1,1.8-1.1,3C398.2,237.2,398.5,238.2,399.3,239z"></path>
	<path class="st2" d="M430.2,234.2v-5.7h3.9v15h-3.9v-5.7h-6v5.7h-3.9v-15h3.9v5.7H430.2z"></path>
	<path class="st2" d="M450.4,241.7c-1.5,1.5-3.4,2.3-5.6,2.3c-2.2,0-4.1-0.8-5.6-2.3c-1.5-1.5-2.3-3.4-2.3-5.6   c0-2.2,0.8-4.1,2.3-5.6c1.5-1.5,3.4-2.3,5.6-2.3c2.2,0,4.1,0.8,5.6,2.3c1.5,1.5,2.3,3.4,2.3,5.6C452.7,238.2,452,240.1,450.4,241.7   z M441.9,239c0.8,0.8,1.8,1.2,2.9,1.2c1.2,0,2.1-0.4,2.9-1.2c0.8-0.8,1.2-1.8,1.2-3s-0.4-2.2-1.2-3c-0.8-0.8-1.8-1.2-2.9-1.2   c-1.2,0-2.1,0.4-2.9,1.2c-0.8,0.8-1.1,1.8-1.1,3C440.7,237.2,441.1,238.2,441.9,239z"></path>
	<path class="st2" d="M466.3,235.8c1.4,0.7,2.1,1.8,2.1,3.4c0,1.3-0.4,2.3-1.3,3.1c-0.9,0.8-2.1,1.2-3.7,1.2h-7.9v-15h7.3   c1.6,0,2.8,0.4,3.7,1.2c0.9,0.8,1.3,1.8,1.3,3.1C467.7,234.1,467.2,235.1,466.3,235.8z M462.4,231.7h-3.3v2.7h3.3   c1.1,0,1.6-0.5,1.6-1.3C464,232.2,463.5,231.7,462.4,231.7z M459.1,240.3h3.8c1.1,0,1.7-0.5,1.7-1.4c0-0.4-0.1-0.8-0.5-1   c-0.3-0.2-0.7-0.4-1.2-0.4h-3.8V240.3z"></path>
	<path class="st2" d="M474.7,233.3h2.9c1.7,0,3.1,0.5,4.1,1.4c1,0.9,1.6,2.2,1.6,3.7s-0.5,2.8-1.6,3.7c-1,0.9-2.4,1.4-4.1,1.4h-6.8   v-15h3.9V233.3z M474.7,240.1h2.9c0.5,0,1-0.2,1.3-0.5c0.3-0.3,0.5-0.7,0.5-1.2s-0.2-0.9-0.5-1.2c-0.4-0.3-0.8-0.5-1.3-0.5h-2.9   V240.1z M484.9,243.5v-15h3.9v15H484.9z"></path>
	<path class="st2" d="M504.1,228.5h3.8v15h-3.8v-8.8l-3.8,6h-0.5l-3.8-6.1v8.8h-3.7v-15h3.8l4,6.3L504.1,228.5z"></path>
	<path class="st2" d="M518.9,228.5h13.7v15h-3.9v-11.4h-6v11.4h-3.9V228.5z"></path>
	<path class="st2" d="M544.9,228.1c2,0,3.7,0.8,5.2,2.3c1.4,1.5,2.2,3.4,2.2,5.6c0,2.2-0.7,4.1-2.2,5.6c-1.4,1.5-3.1,2.3-5.2,2.3   c-2.1,0-3.7-0.7-4.9-2.2v7.8h-3.9v-21h3.9v1.8C541.2,228.8,542.8,228.1,544.9,228.1z M541.2,239.1c0.8,0.8,1.8,1.2,3,1.2   s2.2-0.4,3-1.2c0.8-0.8,1.2-1.8,1.2-3.1s-0.4-2.2-1.2-3c-0.8-0.8-1.8-1.2-3-1.2s-2.2,0.4-3,1.2c-0.8,0.8-1.2,1.8-1.2,3   S540.4,238.3,541.2,239.1z"></path>
	<path class="st2" d="M566.4,230.3v-1.8h3.9v15h-3.9v-1.8c-1.2,1.5-2.8,2.2-4.9,2.2c-2,0-3.7-0.8-5.2-2.3c-1.4-1.5-2.1-3.4-2.1-5.6   c0-2.2,0.7-4.1,2.1-5.6c1.4-1.5,3.2-2.3,5.2-2.3C563.6,228.1,565.2,228.8,566.4,230.3z M559.2,239.1c0.8,0.8,1.8,1.2,3,1.2   s2.2-0.4,3-1.2c0.8-0.8,1.2-1.8,1.2-3.1s-0.4-2.2-1.2-3c-0.8-0.8-1.8-1.2-3-1.2s-2.2,0.4-3,1.2c-0.8,0.8-1.2,1.8-1.2,3   S558.4,238.3,559.2,239.1z"></path>
	<path class="st2" d="M584.5,235.8c1.4,0.7,2.1,1.8,2.1,3.4c0,1.3-0.4,2.3-1.3,3.1c-0.9,0.8-2.1,1.2-3.7,1.2h-7.9v-15h7.3   c1.6,0,2.8,0.4,3.7,1.2c0.9,0.8,1.3,1.8,1.3,3.1C586,234.1,585.5,235.1,584.5,235.8z M580.7,231.7h-3.3v2.7h3.3   c1.1,0,1.7-0.5,1.7-1.3C582.3,232.2,581.8,231.7,580.7,231.7z M577.4,240.3h3.8c1.1,0,1.7-0.5,1.7-1.4c0-0.4-0.2-0.8-0.5-1   s-0.7-0.4-1.2-0.4h-3.8V240.3z"></path>
	<path class="st2" d="M592.9,237l7-8.5h2.9v15H599V235l-7.1,8.5h-2.9v-15h3.8V237z"></path>
	<path class="st2" d="M607.3,228.5h11.9v15h-3.9v-11.3h-4.1v5c0,4.6-2.1,6.7-6.3,6.3v-3.6c0.8,0.2,1.4,0.1,1.8-0.4   c0.4-0.5,0.6-1.3,0.6-2.4V228.5z"></path>
	<path class="st2" d="M634.1,230.3v-1.8h3.9v15h-3.9v-1.8c-1.2,1.5-2.8,2.2-4.9,2.2c-2,0-3.7-0.8-5.2-2.3c-1.4-1.5-2.1-3.4-2.1-5.6   c0-2.2,0.7-4.1,2.1-5.6c1.4-1.5,3.2-2.3,5.2-2.3C631.3,228.1,632.9,228.8,634.1,230.3z M627,239.1c0.8,0.8,1.8,1.2,3,1.2   s2.2-0.4,3-1.2c0.8-0.8,1.2-1.8,1.2-3.1s-0.4-2.2-1.2-3c-0.8-0.8-1.8-1.2-3-1.2s-2.2,0.4-3,1.2c-0.8,0.8-1.2,1.8-1.2,3   S626.2,238.3,627,239.1z"></path>
	<path class="st2" d="M653.3,228.5h3.8v15h-3.8v-8.8l-3.8,6H649l-3.8-6.1v8.8h-3.7v-15h3.8l4,6.3L653.3,228.5z"></path>
	<path class="st2" d="M681.1,236.1h2.2v3.8h-2.2v3.6h-4.2V240H667v-3.8l7-13.6h4.4l-7,13.6h5.5v-5h4.2V236.1z"></path>
	<path class="st2" d="M698.8,243.5h-14v-3.1l7.2-7.4c1.6-1.7,2.4-3.1,2.4-4.2c0-0.8-0.3-1.5-0.8-2c-0.5-0.5-1.2-0.8-2-0.8   c-1.6,0-2.8,0.8-3.5,2.5l-3.5-2c0.6-1.4,1.6-2.5,2.8-3.3c1.2-0.8,2.6-1.2,4.1-1.2c1.9,0,3.5,0.6,4.9,1.8c1.4,1.2,2,2.8,2,4.8   c0,2.2-1.1,4.4-3.4,6.7l-4.1,4.1h7.9V243.5z"></path>
	<path class="st2" d="M699.7,224.5l5.5-2h3.6v21h-4.1v-16.6l-4,1.1L699.7,224.5z"></path>
	<path class="st2" d="M724,237l7-8.5h2.9v15h-3.8V235l-7,8.5h-2.9v-15h3.8V237z"></path>
	<path class="st2" d="M749.5,230.2h2.2c2,0,3.7,0.6,5.1,1.8c1.4,1.2,2.1,2.9,2.1,5c0,2.2-0.7,3.9-2.2,5.1c-1.4,1.2-3.2,1.8-5.3,1.8   c-1.7,0-3.2-0.4-4.5-1.2c-1.3-0.8-2.2-1.9-2.8-3.3l3.5-2.1c0.5,1.7,1.8,2.5,3.8,2.5c1.1,0,1.9-0.3,2.5-0.8c0.6-0.5,0.9-1.2,0.9-2.1   c0-0.9-0.3-1.5-0.9-2.1c-0.6-0.5-1.4-0.8-2.4-0.8h-6.4l0.8-11.7h11.9v3.9h-8.1L749.5,230.2z"></path>
	<path class="st2" d="M765.3,230.2h2.2c2,0,3.7,0.6,5.1,1.8c1.4,1.2,2.1,2.9,2.1,5c0,2.2-0.7,3.9-2.2,5.1c-1.4,1.2-3.2,1.8-5.3,1.8   c-1.7,0-3.2-0.4-4.5-1.2c-1.3-0.8-2.2-1.9-2.8-3.3l3.5-2.1c0.5,1.7,1.8,2.5,3.8,2.5c1.1,0,1.9-0.3,2.5-0.8c0.6-0.5,0.9-1.2,0.9-2.1   c0-0.9-0.3-1.5-0.9-2.1c-0.6-0.5-1.4-0.8-2.4-0.8h-6.4l0.8-11.7h11.9v3.9h-8.1L765.3,230.2z"></path>
	<path class="st2" d="M775.3,226.5v-4h13.6v3.5l-7.1,17.5h-4.4l6.9-17H775.3z"></path>
</g>
<path class="st2" d="M206.2,132.3l-9.5-9.5c9.4-9.6,20.4-17.1,33-22.4c12.6-5.3,25.9-8,39.7-8c2.4,0,5.2,0.1,8.2,0.2  c3,0.2,6.2,0.4,9.4,0.8l-6.4,13c-1.8-0.2-3.6-0.3-5.5-0.4c-1.8-0.1-3.7-0.1-5.8-0.1c-12,0-23.4,2.3-34.2,7S214.7,124.1,206.2,132.3z   M224.8,150.2l-9.5-9.5c7-6.8,15.3-11.9,25.1-15.5c9.8-3.5,20.8-4.9,33.3-4.1l-5.9,12.3c-7.8-0.2-15.6,1.3-23.4,4.4  C236.4,140.9,230,145,224.8,150.2z M263.9,188.8c-2.7-1.1-4.7-3.2-6-6.2s-1.2-6,0.2-8.9l35.9-74.3c0.3-0.7,0.8-1.2,1.6-1.5  c0.8-0.3,1.5-0.4,2.3-0.2c0.8,0.2,1.5,0.7,2,1.4c0.5,0.7,0.7,1.5,0.5,2.3l-20.9,81.1c-0.8,3.2-2.9,5.4-6.2,6.4  S266.8,190,263.9,188.8z M313.9,150.2c-1.6-1.7-3.9-3.6-6.7-5.6s-5.3-3.5-7.4-4.4l3.2-13c3.5,1.2,7.2,3.2,11.1,5.8  c3.8,2.7,7,5.2,9.4,7.7L313.9,150.2z M332.6,132.3c-3.9-3.8-8.2-7.3-12.9-10.5s-9.1-5.7-13.3-7.6l3.3-13.6  c6.6,2.7,12.4,5.9,17.6,9.6c5.2,3.7,10.1,7.9,14.9,12.5L332.6,132.3z"></path>
</svg>
