<?xml version="1.0" encoding="UTF-8"?>
<!-- Generator: Adobe Illustrator 25.2.1, SVG Export Plug-In . SVG Version: 6.00 Build 0)  -->
<svg xmlns="http://www.w3.org/2000/svg" xmlns:xlink="http://www.w3.org/1999/xlink" version="1.1" id="Layer_1" x="0px" y="0px" viewBox="0 0 1046 467" style="enable-background:new 0 0 1046 467;" xml:space="preserve">
<style type="text/css">
	.st0{fill:#F2F3F5;}
	.st1{fill:#3CAA00;}
	.st2{fill:#536278;}
</style>
<rect class="st0" width="1046" height="467"></rect>
<path class="st1" d="M589.3,316.6h-3.5v7.9h3.5V316.6z M579.5,324.5h3.5v-7.9h-3.5V324.5z M573.2,324.5h3.5v-7.9h-3.5V324.5z   M566.9,324.5h3.5v-7.9h-3.5V324.5z M840.7,312.4h-3.5v5.5h3.5V312.4z M834.4,312.4h-3.5v5.5h3.5V312.4z M824.6,317.9h3.5v-5.5h-3.5  V317.9z M821.8,312.4h-3.5v5.5h3.5V312.4z M837.2,330.4h3.5v-5.5h-3.5V330.4z M830.9,330.4h3.5v-5.5h-3.5V330.4z M824.6,330.4h3.5  v-5.5h-3.5V330.4z M821.8,324.9h-3.5v5.5h3.5V324.9z M837.2,342.9h3.5v-5.5h-3.5V342.9z M830.9,342.9h3.5v-5.5h-3.5V342.9z   M824.6,342.9h3.5v-5.5h-3.5V342.9z M821.8,337.4h-3.5v5.5h3.5V337.4z M837.2,355.4h3.5v-5.5h-3.5V355.4z M830.9,355.4h3.5v-5.5  h-3.5V355.4z M824.6,355.4h3.5v-5.5h-3.5V355.4z M821.8,349.9h-3.5v5.5h3.5V349.9z M837.2,367.9h3.5v-5.5h-3.5V367.9z M830.9,367.9  h3.5v-5.5h-3.5V367.9z M824.6,367.9h3.5v-5.5h-3.5V367.9z M821.8,362.4h-3.5v5.5h3.5V362.4z M837.2,380.5h3.5v-5.5h-3.5V380.5z   M830.9,380.5h3.5v-5.5h-3.5V380.5z M824.6,380.5h3.5v-5.5h-3.5V380.5z M818.3,380.5h3.5v-5.5h-3.5V380.5z M880.5,312.4H877v5.5h3.5  V312.4z M874.2,312.4h-3.5v5.5h3.5V312.4z M867.8,312.4h-3.5v5.5h3.5V312.4z M861.5,312.4H858v5.5h3.5V312.4z M877,330.4h3.5v-5.5  H877V330.4z M870.7,330.4h3.5v-5.5h-3.5V330.4z M864.3,330.4h3.5v-5.5h-3.5V330.4z M858,330.4h3.5v-5.5H858V330.4z M877,342.9h3.5  v-5.5H877V342.9z M870.7,342.9h3.5v-5.5h-3.5V342.9z M864.3,342.9h3.5v-5.5h-3.5V342.9z M858,342.9h3.5v-5.5H858V342.9z M877,355.4  h3.5v-5.5H877V355.4z M870.7,355.4h3.5v-5.5h-3.5V355.4z M864.3,355.4h3.5v-5.5h-3.5V355.4z M858,355.4h3.5v-5.5H858V355.4z   M877,367.9h3.5v-5.5H877V367.9z M870.7,367.9h3.5v-5.5h-3.5V367.9z M864.3,367.9h3.5v-5.5h-3.5V367.9z M858,367.9h3.5v-5.5H858  V367.9z M877,380.5h3.5v-5.5H877V380.5z M870.7,380.5h3.5v-5.5h-3.5V380.5z M864.3,380.5h3.5v-5.5h-3.5V380.5z M579.5,310.3h3.5  v-7.9h-3.5V310.3z M573.2,310.3h3.5v-7.9h-3.5V310.3z M583,287.4h-3.5v7.9h3.5V287.4z M576.7,287.4h-3.5v7.9h3.5V287.4z   M585.8,337.3h3.5v-7.9h-3.5V337.3z M579.5,337.3h3.5v-7.9h-3.5V337.3z M573.2,337.3h3.5v-7.9h-3.5V337.3z M566.9,337.3h3.5v-7.9  h-3.5V337.3z M585.8,350.1h3.5v-7.9h-3.5V350.1z M579.5,350.1h3.5v-7.9h-3.5V350.1z M573.2,350.1h3.5v-7.9h-3.5V350.1z M566.9,350.1  h3.5v-7.9h-3.5V350.1z M585.8,362.8h3.5v-7.9h-3.5V362.8z M579.5,362.8h3.5v-7.9h-3.5V362.8z M573.2,362.8h3.5v-7.9h-3.5V362.8z   M566.9,362.8h3.5v-7.9h-3.5V362.8z M573.2,375.6h3.5v-7.9h-3.5V375.6z M566.9,375.6h3.5v-7.9h-3.5V375.6z M299,290.1h-3.5v7.9h3.5  V290.1z M289.2,298h3.5v-7.9h-3.5V298z M282.9,298h3.5v-7.9h-3.5V298z M276.6,298h3.5v-7.9h-3.5V298z M292.7,275.8h-3.5v7.9h3.5  V275.8z M286.4,275.8h-3.5v7.9h3.5V275.8z M295.5,310.8h3.5v-7.9h-3.5V310.8z M289.2,310.8h3.5v-7.9h-3.5V310.8z M282.9,310.8h3.5  v-7.9h-3.5V310.8z M276.6,310.8h3.5v-7.9h-3.5V310.8z M295.5,323.6h3.5v-7.9h-3.5V323.6z M289.2,323.6h3.5v-7.9h-3.5V323.6z   M282.9,323.6h3.5v-7.9h-3.5V323.6z M276.6,323.6h3.5v-7.9h-3.5V323.6z M295.5,336.4h3.5v-7.9h-3.5V336.4z M289.2,336.4h3.5v-7.9  h-3.5V336.4z M282.9,336.4h3.5v-7.9h-3.5V336.4z M276.6,336.4h3.5v-7.9h-3.5V336.4z M282.9,349.1h3.5v-7.9h-3.5V349.1z M276.6,349.1  h3.5v-7.9h-3.5V349.1z M488.7,321.4h21v-4.6h-21V321.4z M488.7,330.9h21v-4.6h-21V330.9z M488.7,340.4h21v-4.6h-21V340.4z   M652.2,337.3v4.6h24.6l-3.7-4.6H652.2z M652.2,351.4h31.7l-3.6-4.6h-28.1V351.4z M652.2,360.9h34.5v-4.6h-34.5V360.9z M652.2,370.6  h34.5V366h-34.5V370.6z M652.2,380.1h34.1v-4.6h-34.1V380.1z M488.7,349.9h21v-4.6h-21V349.9z M488.7,359.4h21v-4.6h-21V359.4z   M442.7,321.4h21v-4.6h-21V321.4z M442.7,330.9h21v-4.6h-21V330.9z M442.7,340.4h21v-4.6h-21V340.4z M442.7,349.9h21v-4.6h-21V349.9  z M442.7,359.4h21v-4.6h-21V359.4z M378.2,301.8h-21v4.6h21V301.8z M378.2,311.3h-21v4.6h21V311.3z M378.2,320.8h-21v4.6h21V320.8z   M378.2,330.3h-21v4.6h21V330.3z M357.2,344.3h21v-4.6h-21V344.3z M391.4,306.3h21v-4.6h-21V306.3z M391.4,315.8h21v-4.6h-21V315.8z   M391.4,325.3h21v-4.6h-21V325.3z M391.4,334.8h21v-4.6h-21V334.8z M391.4,344.3h21v-4.6h-21V344.3z M706.5,337.3v4.6h24.6l-3.7-4.6  H706.5z M706.5,351.4h31.7l-3.6-4.6h-28.1V351.4z M706.5,360.9h34.6v-4.6h-34.6V360.9z M706.5,370.6H741V366h-34.5V370.6z   M706.5,380.1h34.1v-4.6h-34.1V380.1z M652.2,389.9h34.1v-4.6h-34.1V389.9z M706.5,389.9h34.1v-4.6h-34.1V389.9z M259.3,298h3.5  v-7.9h-3.5V298z M252.9,298h3.5v-7.9h-3.5V298z M246.6,298h3.5v-7.9h-3.5V298z M240.3,298h3.5v-7.9h-3.5V298z M252.9,283.8h3.5v-7.9  h-3.5V283.8z M246.6,283.8h3.5v-7.9h-3.5V283.8z M259.3,310.8h3.5v-7.9h-3.5V310.8z M252.9,310.8h3.5v-7.9h-3.5V310.8z M246.6,310.8  h3.5v-7.9h-3.5V310.8z M240.3,310.8h3.5v-7.9h-3.5V310.8z M259.3,323.6h3.5v-7.9h-3.5V323.6z M252.9,323.6h3.5v-7.9h-3.5V323.6z   M246.6,323.6h3.5v-7.9h-3.5V323.6z M240.3,323.6h3.5v-7.9h-3.5V323.6z M259.3,336.4h3.5v-7.9h-3.5V336.4z M252.9,336.4h3.5v-7.9  h-3.5V336.4z M246.6,336.4h3.5v-7.9h-3.5V336.4z M240.3,336.4h3.5v-7.9h-3.5V336.4z M259.3,349.1h3.5v-7.9h-3.5V349.1z M252.9,349.1  h3.5v-7.9h-3.5V349.1z M246.6,349.1h3.5v-7.9h-3.5V349.1z M240.3,349.1h3.5v-7.9h-3.5V349.1z M877.8,392c-0.1-3.1-2.4-5.7-5.4-5.7  c-0.2,0-0.4,0-0.5,0c-1.2-2.7-3.8-4.7-6.8-4.7c-0.7,0-1.4,0.1-2,0.3c-0.4-0.9-0.9-1.6-1.6-2.2v-4.7H858v3.4c-0.7,0-1.3,0.2-1.9,0.5  c-0.4-0.8-1-1.5-1.7-2v-12.2h-10.8V381c-1.8,0.8-3.3,2.4-3.9,4.4c-2.2,0.8-3.8,3-3.8,5.6c0,0.4,0,0.7,0.1,1c-1.7,0.9-3,2.5-3.6,4.4  l-0.4,1.5l1.5-0.1c14.6-1,29.2-2.2,44-3.7l3.4-0.4l-3-1.6C877.9,392,877.9,392,877.8,392z M845.1,366h7.9v10c-0.5-0.2-1-0.3-1.6-0.3  c-2.7,0-4.8,2.1-5.3,4.7c0,0-0.1,0-0.1,0c-0.3,0-0.7,0-1,0.1V366z M835.2,395.5c0.6-0.9,1.5-1.6,2.4-1.9l1-0.3l-0.3-1  c-0.1-0.4-0.2-0.9-0.2-1.3c0-1.9,1.3-3.4,2.7-3.7l0.7-0.1l0.2-0.7c0.6-2.3,2.4-3.9,4.4-3.9h0c0.2,0,0.5,0,0.8,0.1l1.3,0.3l0-1.3  c0-2.2,1.6-3.7,3.2-3.7c1.4,0,2.7,1.1,3.1,2.8l0.4,1.7l1.3-1.2c0.6-0.5,1.2-0.8,1.9-0.8c1.5,0,2.8,1.2,3.2,3l0.3,1.4l1.3-0.7  c0.7-0.4,1.4-0.6,2.2-0.6c2.3,0,4.3,1.7,5.1,4.2l0.3,1l1-0.3c0.3-0.1,0.6-0.2,0.9-0.2c1.7,0,3.2,1.6,3.2,3.7  C862.2,393.5,848.7,394.6,835.2,395.5z M332.5,360.7L332.5,360.7L332.5,360.7L332.5,360.7z M960.2,382.8c4.3-0.7,8.5-1.4,12.8-2.2  v-2.2c-4.1,0.7-8.4,1.4-12.4,2.1c-0.1-0.2-0.3-0.4-0.4-0.7v-4.5c1.2-0.3,2.3-1,3.3-1.9c1.2-0.2,2.1-1.1,2.7-2.2  c0.7-1.2,1.3-2.9,1.4-4.7c0-0.5,0.1-0.9,0.1-1.4c0-2.2-0.5-4.1-1.6-5.4c0-0.3,0-0.6,0-0.9c0-0.1,0-0.2,0-0.2c0-1.9-0.5-3.6-1.2-5  c-0.6-1.1-1.4-2-2.5-2.3c-0.2-1.2-0.6-2.3-1.1-3.2c-0.6-1.1-1.6-2-3-2c-1.3,0-2.3,0.9-3,2c-0.5,0.9-0.9,2-1.1,3.2  c-1.1,0.3-2,1.2-2.5,2.3c-0.7,1.3-1.1,3-1.1,4.9c0,0.1,0,0.2,0,0.3c0,0.3,0,0.6,0,0.9c-1.1,1.3-1.6,3.2-1.6,5.4c0,0.4,0,0.9,0.1,1.4  c0.2,1.8,0.7,3.4,1.4,4.6c0.7,1.1,1.5,2,2.7,2.2c1,0.9,2.3,1.6,3.6,1.9v2.3c-0.3,0-0.5-0.1-0.8-0.1c-0.2,0-0.4,0-0.5,0  c-1.2-2.7-3.7-4.7-6.8-4.7c-0.7,0-1.4,0.1-2,0.3c-0.8-2-2.7-3.5-4.9-3.5c-0.8,0-1.5,0.2-2.1,0.5c-0.9-1.8-2.6-3-4.7-3.1  c-2.7,0-4.8,2.1-5.3,4.7c0,0,0,0-0.1,0c-3,0-5.4,2.1-6.3,4.9c-2.2,0.8-3.8,3-3.8,5.6c0,0.4,0,0.7,0.1,1c-1.5,0.8-2.7,2.2-3.4,3.9  c-4.3,0.6-8.5,1.1-12.8,1.7v-4.6c1.1-0.4,2.1-1,3-1.8c1.2-0.2,2.1-1.1,2.7-2.2c0.7-1.2,1.3-2.9,1.4-4.7c0-0.5,0.1-0.9,0.1-1.4  c0-2.2-0.5-4.1-1.6-5.4c0-0.3,0-0.6,0-0.9v-0.2c0-1.9-0.5-3.6-1.2-5c-0.6-1.1-1.4-2-2.5-2.3c-0.2-1.2-0.6-2.3-1.1-3.2  c-0.6-1.1-1.6-2-3-2c-1.3,0-2.3,0.9-3,2c-0.5,0.9-0.9,2-1.1,3.2c-1.1,0.3-2,1.2-2.5,2.3c-0.7,1.3-1.1,3-1.2,4.9c0,0.1,0,0.2,0,0.3  c0,0.3,0,0.6,0,0.9c-1.1,1.3-1.6,3.2-1.6,5.4c0,0.4,0,0.9,0.1,1.4h0c0.2,1.8,0.7,3.4,1.4,4.6c0.7,1.1,1.5,2,2.7,2.2  c1,0.9,2.1,1.5,3.2,1.8v5c-2.4,0.3-4.8,0.6-7.2,0.9c-2.2,0.2-4.4,0.5-6.5,0.7v-89.7h-3l-2.3-7h-21.6l-2.3,7h-3.7v35.4h-7.2l0-35.4  h-3.1l-2.3-7h-21.6l-2.3,7h-3.6v81.7c-0.2,0-0.4,0-0.6,0c-0.4,0-0.8,0-1.2,0.1c-1.7-4.2-5.5-7.3-10.1-7.3c-1.2,0-2.3,0.2-3.4,0.6  c-1.1-3.2-3.8-5.5-7.2-5.5c-1.3,0-2.4,0.3-3.5,0.9c-1.2-2.8-3.8-4.9-6.9-4.9c-3.9,0-7,3.2-7.6,7.2c-0.2,0-0.4,0-0.6,0  c-4.4,0-7.9,3.1-9.3,7.3c-3.3,1-5.7,4.3-5.7,8.2c0,0.7,0.1,1.3,0.2,1.9c-2.7,1.2-4.7,3.7-5.5,6.7c-1.1,0-2.2,0-3.3,0  c-0.3,0-0.5,0-0.8,0v-43.5l-20.8-27.9h-25.2V397c-2.8-0.1-5.6-0.2-8.3-0.4v-42L672,326.8h-25.2v66.8c-4.2-0.3-8.4-0.7-12.6-1.1  c-0.1,0-0.1,0-0.2,0c-2-0.2-4-0.4-5.9-0.6c-0.6-2.5-2.2-4.5-4.3-5.6c0-1.3-0.4-2.5-0.9-3.5v-5.7c2-0.3,3.8-1,5.5-1.9  c3.1-0.3,5.6-3.2,6.2-6.9c0.1-0.5,0.1-1,0.1-1.5c0-2.3-0.9-4.3-2.5-5.5c0-0.2,0-0.5,0-0.8c0-0.1,0-0.2,0-0.3c-0.1-3.7-2.4-7-5.7-7.3  c-0.7-2.9-2.9-5.1-5.7-5.1c-2.8,0-4.9,2.3-5.7,5.1c-3.3,0.3-5.6,3.6-5.7,7.3c0,0.1,0,0.2,0,0.3c0,0.3,0,0.5,0,0.8  c-1.6,1.2-2.5,3.2-2.5,5.5c0,0.5,0,1,0.1,1.5h0c0.4,2.4,1.7,4.6,3.4,5.8c-0.6-0.1-1.1-0.2-1.7-0.2c-0.9,0-1.7,0.1-2.5,0.4  c-0.9-2.4-3.1-4.2-5.7-4.2c-0.9,0-1.8,0.2-2.6,0.6c-0.9-2-2.8-3.5-5.1-3.7v-55.3h-3.4l0-15.7h-3v-15.2h-4.3l-0.8-9.1h-7.9l-0.8,9.1  h-3.5v15.2h-3v15.7l-3.4,0v72.5c-4.4-0.6-8.8-1.2-13.3-1.9v-5.9c1.1-0.4,2.1-1,3-1.8c1.2-0.2,2.1-1.1,2.7-2.2  c0.7-1.2,1.3-2.8,1.4-4.7c0-0.5,0.1-0.9,0.1-1.4c0-2.2-0.5-4.1-1.6-5.4c0-0.3,0-0.6,0-0.9V360c-0.1-1.9-0.5-3.6-1.2-5  c-0.6-1.1-1.4-2-2.5-2.3c-0.2-1.2-0.6-2.3-1.1-3.2c-0.6-1.1-1.6-2-3-2c-1.3,0-2.3,0.9-3,2c-0.5,0.9-0.9,2-1.1,3.2  c-1.1,0.3-2,1.2-2.5,2.3c-0.7,1.3-1.1,3-1.2,4.9c0,0.1,0,0.2,0,0.3c0,0.3,0,0.6,0,0.9c-1.1,1.3-1.6,3.2-1.6,5.4c0,0.5,0,0.9,0.1,1.4  h0c0.2,1.8,0.7,3.4,1.4,4.6c0.7,1.1,1.5,2,2.7,2.2c1,0.9,2.1,1.5,3.2,1.8v5.2c-1.4-0.2-2.7-0.4-4.1-0.6c-1.9-0.3-3.8-0.6-5.7-0.8  c-3.1-0.5-6.3-1-9.5-1.4v-5.3c1.1-0.4,2.1-1,3-1.8c1.2-0.2,2.1-1.1,2.7-2.2c0.7-1.2,1.3-2.9,1.4-4.7c0-0.5,0.1-0.9,0.1-1.4  c0-2.2-0.5-4.1-1.6-5.4c0-0.3,0-0.6,0-0.8c0-0.1,0-0.2,0-0.3c0-1.9-0.5-3.6-1.2-5c-0.6-1.1-1.4-2-2.5-2.3c-0.2-1.2-0.6-2.3-1.1-3.2  c-0.6-1.1-1.6-2-3-2c-1.3,0-2.3,0.9-3,2c-0.5,0.9-0.9,2-1.1,3.2c-1.1,0.3-2,1.2-2.5,2.3c-0.7,1.3-1.1,3-1.1,4.9c0,0.1,0,0.2,0,0.3  c0,0.3,0,0.6,0,0.9c-1.1,1.3-1.6,3.2-1.6,5.4c0,0.5,0,0.9,0.1,1.4h0c0.2,1.8,0.7,3.4,1.4,4.6c0.7,1.1,1.5,2,2.7,2.2  c1,0.9,2.1,1.5,3.2,1.8v4.6c-2.6-0.4-5.2-0.8-7.8-1.2v-66.6h-3.4v-15.7h-23.3v15.7l-3.4,0v62.2c-2.1-0.3-4.1-0.6-6.1-0.8  c-2.1-0.3-4.2-0.6-6.3-0.8c-1.1-0.1-2.3-0.3-3.4-0.5v-60.1h-3.4v-15.7h-23.3v15.7l-3.4,0v56.4c-3.7-0.4-7.5-0.8-11.2-1.2v-9.9  c1.7-0.4,3.2-1.3,4.5-2.5c1.5-0.3,2.6-1.4,3.5-2.8c1-1.6,1.6-3.7,1.9-6.1c0.1-0.6,0.1-1.2,0.1-1.8c0-3-0.7-5.6-2.2-7.2  c0-0.4,0.1-0.9,0.1-1.3c0-0.1,0-0.2,0-0.3c-0.1-2.5-0.6-4.8-1.5-6.5c-0.8-1.5-1.9-2.7-3.4-3c-0.3-1.7-0.8-3.2-1.5-4.4  c-0.8-1.4-2.1-2.5-3.7-2.5c-1.6,0-2.8,1.1-3.7,2.5c-0.7,1.2-1.2,2.7-1.5,4.4c-0.6,0.1-1.1,0.4-1.6,0.7v-29.4h-3.4v-6.6h-58.4v6.6  h-3.4V348c-0.1,0.3-0.2,0.6-0.3,0.9c0,0-0.1,0-0.1,0c-1,0-1.9,0.3-2.7,0.9c0.3-0.9,0.6-2,0.7-3.1c0-0.5,0.1-0.9,0.1-1.4  c0-2.2-0.5-4.1-1.6-5.4c0-0.3,0-0.6,0-0.9c0-0.1,0-0.2,0-0.3c0-1.9-0.5-3.6-1.1-5c-0.6-1.1-1.4-2-2.5-2.3c-0.2-1.2-0.6-2.3-1.1-3.2  c-0.6-1.1-1.6-2-3-2c-1.3,0-2.3,0.9-3,2c-0.5,0.9-0.9,2-1.1,3.2c-1.1,0.3-2,1.2-2.5,2.3c-0.7,1.3-1.1,3-1.1,4.9c0,0.1,0,0.2,0,0.3  c0,0.3,0,0.6,0,0.9c-1.1,1.3-1.6,3.2-1.6,5.4c0,0.4,0,0.9,0.1,1.4h0c0.2,1.8,0.7,3.4,1.4,4.6c0.7,1.1,1.5,2,2.7,2.2  c1,0.9,2.3,1.6,3.6,1.9v3.3c-2-0.1-4.1-0.2-6.1-0.3c-0.3-2.4-2-3.6-3.8-4.3c0-3-2.2-5.6-5-5.6c-0.3,0-0.5,0-0.7,0.1  c-0.2-0.6-0.5-1.1-0.9-1.6c1-0.6,1.7-1.5,2.4-2.6c0.9-1.6,1.5-3.6,1.7-5.9c0.1-0.6,0.1-1.2,0.1-1.8c0-3-0.7-5.6-2.2-7.2  c0-0.4,0.1-0.9,0.1-1.3c0-0.1,0-0.2,0-0.4c-0.1-2.5-0.6-4.8-1.5-6.5c-0.8-1.5-1.9-2.7-3.4-3c-0.3-1.7-0.8-3.2-1.5-4.4  c-0.8-1.4-2.1-2.5-3.7-2.5c-1.6,0-2.8,1.1-3.7,2.5c-0.7,1.2-1.2,2.7-1.5,4.4c-1.5,0.3-2.6,1.5-3.4,3c-0.9,1.7-1.4,4-1.5,6.5  c0,0.1,0,0.3,0,0.4c0,0.4,0,0.9,0.1,1.3c-1.2,1.2-1.8,3.1-2.1,5.3v-49.8h-3.4v-15.7h-3c-0.5-4.3-4.2-7.7-8.7-7.7  c-4.5,0-8.1,3.4-8.7,7.7h-3v15.7l-3.4,0v72.4c-2,0-4.1,0-6.1,0.1v-72.5h-3.4v-15.7h-3c-0.5-4.3-4.2-7.7-8.7-7.7  c-4.5,0-8.1,3.4-8.7,7.7h-3v15.7l-3.4,0v73.5c-1.1,0.1-2.2,0.1-3.3,0.2c-2.4,0.1-4.8,0.3-7.2,0.4c-0.6-0.5-1.2-0.9-1.9-1.3  c0,0,0-0.1,0-0.1c0-0.6-0.1-1.1-0.1-1.6c1.6-0.4,3-1.3,4.3-2.5c1.5-0.3,2.6-1.4,3.5-2.8c1-1.6,1.7-3.7,1.9-6.2  c0.1-0.6,0.1-1.2,0.1-1.8c0-3-0.7-5.6-2.2-7.2c0-0.4,0.1-0.9,0.1-1.3c0-0.1,0-0.2,0-0.4c-0.1-2.5-0.6-4.8-1.5-6.5  c-0.8-1.5-1.9-2.7-3.4-3c-0.3-1.7-0.8-3.2-1.5-4.4c-0.8-1.4-2.1-2.5-3.7-2.5c-1.6,0-2.8,1.1-3.7,2.5c-0.7,1.2-1.2,2.7-1.5,4.4  c-1.5,0.3-2.6,1.5-3.4,3c-0.9,1.7-1.5,4-1.5,6.5c0,0.1,0,0.3,0,0.4c0,0.5,0,0.9,0.1,1.3c-1.5,1.6-2.2,4.2-2.2,7.2c0,0,0,0.1,0,0.1  c-1.2-0.5-2.6-0.8-4-0.8c-1.2,0-2.3,0.2-3.4,0.6c-1.1-3.2-3.8-5.5-7.2-5.5c-1.3,0-2.4,0.3-3.5,0.9c-1.2-2.8-3.8-4.9-6.9-4.9  c-3.9,0-7,3.2-7.6,7.2c-0.2,0-0.4,0-0.6,0c-4.4,0-7.9,3.1-9.3,7.3c-2.2,0.7-4,2.4-4.9,4.6c-11-24.3-11.2-53.1-12-80.7l0-1h-2.1  c-0.5-3-2.8-5.3-5.8-5.8v-18.7h-2.1v18.7c-3,0.5-5.3,2.8-5.8,5.8h-2.5l0,1c-1,35.8-1,73.5-24.9,101.1c-2.4,0.4-4.9,0.8-7.5,1.2v-7.8  c2.6-0.4,5-1.3,7.2-2.6c4.1-0.3,7.4-4.2,8.2-9c0.1-0.6,0.2-1.3,0.2-1.9c0-3.1-1.2-5.8-3.4-7.3c0-0.4,0.1-0.8,0.1-1.2  c0-0.1,0-0.2,0-0.4c-0.2-5-3.4-9.3-7.6-9.6c-0.9-3.9-3.7-6.9-7.4-6.9c-3.7,0-6.5,3-7.4,6.9c-4.3,0.3-7.4,4.5-7.6,9.6  c0,0.1,0,0.3,0,0.4c0,0.4,0,0.8,0.1,1.2c-2.1,1.5-3.4,4.2-3.4,7.3c0,0.6,0,1.3,0.2,1.9h0c0.8,4.8,4.1,8.6,8.1,9  c2.4,1.5,5.2,2.4,8.1,2.7v8.5c-7.5,1.2-15,2.4-20.9,3.4v2.1v0c6.1-1.1,14.3-2.4,22.2-3.6l0.9-0.1v-10.2c0,0,0.1,0,0.1,0  c0,0,0.1,0,0.1,0c0.1,0,0.2,0,0.2,0v10.1l1.2-0.2c3.2-0.5,6.3-1,9.2-1.5l0.4-0.1l0.3-0.3c2.1-2.4,4.1-5,5.8-7.5l5.1,5.4  c0.1,0.2,0.3,0.2,0.5,0.2c0.2,0,0.4-0.1,0.5-0.2c0.3-0.3,0.3-0.7,0-1l-4.6-4.9l7,0c-0.4,1.6-0.8,3.2-1.1,4.9l-0.2,1l1-0.2  c2.9-0.5,5.7-0.9,8.6-1.3c1.5-0.2,2.9-0.4,4.4-0.6c3.2-0.5,6.4-0.9,9.7-1.4c1.7-0.2,3.3-0.4,5-0.7c2.3-0.3,4.6-0.6,6.9-0.9l0.6-0.1  l0.1-0.6c0-0.1,0-0.2,0.1-0.3c0.1-0.1,0.2-0.2,0.3-0.3l5.4-10c0-0.1,0.1-0.2,0.1-0.3l0.4-0.1c0.1-3.1,2.1-5.5,4.6-6l0.7-0.1l0.2-0.7  c1-3.7,3.9-6.4,7.4-6.3c0.4,0,0.9,0.1,1.4,0.2l1.3,0.3l0-1.3c0-3.6,2.6-6.3,5.5-6.3c2.5,0,4.7,1.9,5.3,4.7l0.4,1.7l1.3-1.2  c1-0.8,2.1-1.3,3.3-1.3c2.6,0,4.9,2.1,5.4,5l0.3,1.4l1.3-0.7c1.1-0.6,2.3-0.9,3.6-0.9c1.8,0,3.4,0.6,4.8,1.6  c0.1,0.1,0.2,0.2,0.3,0.2c0.1,0.1,0.2,0.2,0.3,0.2c0.1,0.1,0.2,0.2,0.3,0.3c0.1,0.1,0.2,0.2,0.2,0.2c0.1,0.1,0.2,0.2,0.3,0.3  c0.1,0.1,0.2,0.2,0.2,0.3c0.1,0.1,0.2,0.2,0.3,0.3c0.1,0.1,0.1,0.2,0.2,0.3c0.1,0.1,0.2,0.2,0.2,0.4c0.1,0.1,0.1,0.2,0.2,0.3  c0.1,0.1,0.1,0.2,0.2,0.4c0.1,0.1,0.1,0.2,0.2,0.3c0.1,0.1,0.1,0.3,0.2,0.4c0,0.1,0.1,0.2,0.1,0.3c0.1,0.3,0.2,0.5,0.3,0.8l0.2,0.5  l0.2,0.5h0l1-0.3c0.1,0,0.3-0.1,0.4-0.1c0.4-0.1,0.7-0.2,1.1-0.2c0,0,0,0,0,0c0.2,0,0.5,0,0.7,0.1c0.1,0,0.2,0,0.3,0  c0.2,0,0.4,0.1,0.6,0.2c0.1,0,0.2,0.1,0.3,0.1c0.1,0.1,0.3,0.1,0.4,0.2c0.1,0.1,0.2,0.1,0.3,0.2c0.2,0.1,0.4,0.2,0.5,0.4  c0.1,0.1,0.2,0.1,0.2,0.2c0.1,0.1,0.3,0.3,0.4,0.4c0,0,0.1,0.1,0.1,0.1c0.2,0.2,0.3,0.4,0.5,0.6c0,0,0.1,0.1,0.1,0.1  c0.3,0.5,0.6,1,0.8,1.6c0,0.1,0,0.1,0,0.2l0,0.1c0.2,0.6,0.3,1.2,0.3,1.9c0,0.1,0,0.4-0.1,0.7l-0.1,0.8l0.8,0.3  c0.9,0.3,1.7,0.8,2.4,1.5l0.3,0.3l0.4,0c2.6-0.1,5.1-0.3,7.7-0.4c1.2-0.1,2.5-0.1,3.7-0.2c0.2,0,0.4,0,0.6,0l1,0v-73.4l3.4,0v-15.7  h2.9v-1.1c0-3.7,2.9-6.6,6.6-6.6c3.7,0,6.6,3,6.6,6.6v1.1h2.9l0,15.7h3.4V360l1.1,0c2.7-0.1,5.5-0.1,8.2-0.1l1.1,0v-72.4l3.4,0  v-15.7h2.9v-1.1c0-3.7,2.9-6.6,6.6-6.6c3.7,0,6.6,3,6.6,6.6v1.1h2.9v15.7h3.4v51.5c-0.8,0.6-1.4,1.4-1.8,2.3h-3.1v2  c-1.1,0.5-2.1,1.3-2.8,2.4v-4.4h-3.5v7.9h0.2c-0.9,1.1-1.5,2.5-1.5,4c0,0.4,0,0.7,0.1,1c-0.1,0-0.1,0.1-0.2,0.1  c-1.5,0.9-2.8,2.5-2.8,4.4l0.8,0.1l0,0.6c0.2,0,0.4,0,0.7,0c15.3,0,30.6,0.3,46,0.9l0-0.7h0l0,1.1c6.7,0.3,13.4,0.6,20.1,0.9  c6.9,0.4,13.8,0.8,20.7,1.3v0c11.2,0.8,22.4,1.7,33.8,2.8l1.4,0.1l-0.3-1.4c-0.4-1.8-1.4-3.3-2.9-4.1c-0.1-2.5-2-4.5-4.4-4.6  c-0.1,0-0.2,0-0.3,0c-1-2.1-3-3.7-5.4-3.7c-0.5,0-1,0.1-1.4,0.2c-0.7-1.6-2.2-2.7-4-2.7c-0.5,0-1.1,0.1-1.5,0.3  c-0.8-1.4-2.1-2.3-3.8-2.3c-2.1,0-3.8,1.6-4.3,3.6c-2,0.1-3.6,1.2-4.6,2.9c-0.8-0.7-1.8-1.2-2.9-1.2c-0.1,0-0.2,0-0.3,0  c-1-2.1-3-3.7-5.4-3.7c-0.5,0-1,0.1-1.4,0.2c-0.7-1.6-2.2-2.7-4-2.7c-0.5,0-1.1,0.1-1.5,0.3c-0.8-1.4-2.1-2.3-3.8-2.3  c-0.6,0-1.1,0.1-1.6,0.3v-47.7h3.4V291h54.1v6.6h3.4v30.2c0,0.1-0.1,0.2-0.1,0.3c-0.1,0.2-0.2,0.5-0.3,0.7c-0.1,0.2-0.1,0.5-0.2,0.7  c-0.1,0.3-0.1,0.5-0.2,0.8c-0.1,0.3-0.1,0.6-0.2,0.9c0,0.2-0.1,0.5-0.1,0.7c-0.1,0.5-0.1,1-0.1,1.4c0,0.1,0,0.2,0,0.2  c0,0.1,0,0.1,0,0.2c0,0,0,0.1,0,0.1c0,0.3,0,0.6,0,0.9c0,0.1,0,0.3,0,0.4c-1.5,1.6-2.2,4.2-2.2,7.2c0,0.6,0,1.2,0.1,1.9h0  c0,0,0,0.1,0,0.1c0.1,0.5,0.1,0.9,0.2,1.3c0,0.2,0.1,0.4,0.1,0.6c0.1,0.4,0.2,0.7,0.3,1c0,0.1,0.1,0.2,0.1,0.3  c0.1,0.5,0.3,0.9,0.5,1.3c0,0.1,0.1,0.2,0.1,0.2c0.2,0.3,0.3,0.7,0.5,1c0,0.1,0.1,0.1,0.1,0.2c0,0.1,0.1,0.1,0.1,0.2  c0,0,0.1,0.1,0.1,0.1c0.3,0.5,0.7,1,1.1,1.4v14.6l1,0.1c7.2,0.7,14.4,1.5,21.7,2.3c0.2,0,0.5,0.1,0.7,0.1l1.2,0.1v-56.6h3.4v-15.7  h19v15.7h3.4v59.8l1,0.1c1.4,0.2,2.8,0.4,4.3,0.6c2.1,0.3,4.2,0.6,6.3,0.8c2.4,0.3,4.9,0.7,7.4,1l1.2,0.2v-62.5l3.4,0v-15.7h19v15.7  h3.4V379l0.9,0.1c3.1,0.5,6.3,1,9.5,1.4c0.2,0,0.4,0.1,0.5,0.1l1.2,0.2v0l0.7,0.1c3.5,0.5,6.9,1.1,10.4,1.6c1.9,0.3,3.8,0.6,5.7,0.8  c1.8,0.3,3.5,0.5,5.3,0.8l1.2,0.2v0l0.7,0.1c5.2,0.7,10.3,1.5,15.4,2.1l1.2,0.2v-72.8l3.4,0v-15.7h2.9V283h1.2v0h10v0h1.9v15.2h2.9  v15.7h3.4v53.4c0,0,0,0,0,0c-0.5,0.2-1,0.4-1.5,0.7v-0.3h-3.5v5c-1,0-1.9,0.3-2.8,0.7v-5.7h-3.5v7.9h0.7c-0.6,0.8-1.2,1.7-1.5,2.8  c-1.8,0.6-3.3,2.1-4,3.9c-0.1,0.1-0.1,0.3-0.2,0.4c0,0,0,0.1,0,0.1c-0.2,0.7-0.3,1.3-0.3,2.1v0c0,0.1,0,0.1,0,0.2  c0,0.7,0.2,1.4,0.4,2.1l0.5-0.2l0.1,1c0.1,0,0.1,0,0.2,0c5.1,0.7,10.2,1.3,15.3,1.9v0l1,0.1c0.6,0.1,1.3,0.1,1.9,0.2  c3.8,0.4,7.6,0.9,11.3,1.3c0,0,0.1,0,0.1,0c0.2,0,0.4,0,0.7,0.1l0.3,0c0.4,0,0.7,0.1,1.1,0.1c0.1,0,0.1,0,0.2,0  c4.2,0.5,8.4,0.9,12.6,1.3l0.2,0l0.1,0c2.3,0.2,4.6,0.5,6.9,0.7l1.4,0.1l0,0c1.8,0.2,3.5,0.3,5.3,0.5c0.1,0,0.1,0,0.2,0  c4.6,0.4,9.1,0.8,13.6,1.2l0.1,0l1.2,0.1v-67h22l19.8,26.5v43.3l1,0c0,0,0.1,0,0.1,0c3.5,0.2,6.9,0.3,10.4,0.5l1.1,0v-70.4h22  l19.8,26.5l0,44.9h1.1c0.6,0,1.2,0,1.8,0c0.9,0,1.8,0,2.7,0l0,0h0.1v0l1.3,0h0c1,0,2,0,3,0c2.9,0,5.8,0,8.7,0c0.1,0,0.2,0,0.4,0  c2.7,0,5.4,0,8.1-0.1c17.1-0.2,34.2-0.9,51.4-1.9l0.1,0l1.4-0.1v0h0l-0.6-1.4c-1-2.4-2.8-4.3-5-5.3c0,0,0-0.1,0-0.1c0,0,0,0,0,0  c0-0.4,0-0.7-0.1-1.1c0-0.1,0-0.2,0-0.4c-0.1-0.3-0.1-0.7-0.2-1c0-0.1-0.1-0.2-0.1-0.3c-0.1-0.2-0.2-0.5-0.3-0.7  c-0.1-0.1-0.1-0.2-0.2-0.4c-0.1-0.3-0.3-0.6-0.5-0.9c-0.1-0.1-0.1-0.2-0.2-0.3c-0.2-0.2-0.3-0.5-0.5-0.7c-0.1-0.1-0.1-0.1-0.2-0.2  c-0.2-0.3-0.5-0.5-0.7-0.7c0,0-0.1-0.1-0.1-0.1c-0.6-0.5-1.2-0.9-1.9-1.2c0,0,0,0,0,0v-80.1h0.8l0,0h27.6l0,0h0.2v35.4h11.5v-35.4  h0.9v0h27.6v0h0.2v89.9l1.2-0.1c2.6-0.3,5.1-0.6,7.7-0.9c2.7-0.3,5.4-0.6,8.2-1l0.7-0.1v0l1.2-0.1c4.9-0.6,9.8-1.2,14.7-1.9l0.7-0.1  l0.2-0.7c0.5-1.7,1.7-3,3.1-3.5l1-0.3l-0.3-1c-0.1-0.4-0.2-0.9-0.2-1.3c0-1.9,1.2-3.4,2.7-3.7l0.7-0.1l0.2-0.7  c0.6-2.3,2.4-3.9,4.4-3.9c0.2,0,0.5,0,0.8,0.1l1.3,0.3l0-1.3c0-2.2,1.6-3.7,3.2-3.7c1.4,0,2.7,1.1,3.1,2.8l0.4,1.7l1.3-1.2  c0.6-0.5,1.2-0.8,1.9-0.8c1.5,0,2.8,1.2,3.2,3l0.3,1.4l1.3-0.7c0.7-0.4,1.4-0.6,2.2-0.6c2.3,0,4.3,1.7,5.1,4.2l0.3,1l1-0.3  c0.3-0.1,0.6-0.2,0.9-0.2c1.3,0,2.5,0.9,3,2.3l0.3,0.8l0.7-0.1L960.2,382.8z M97.4,364.4c-0.3,0.1-0.6,0.1-0.9,0.1  c-0.1,0-0.2,0-0.3,0c-0.3,0-0.7-0.1-1-0.1l-1.3-0.2v0.2c-2.6-0.3-5.1-1.2-7.2-2.5l-0.2-0.2l-0.3,0c-2.7,0-5.8-3.1-6.4-7.2l-1.1,0.2  l1.1-0.2c-0.1-0.5-0.1-1.1-0.1-1.6c0-2.8,1.2-4.9,2.9-5.8l0.7-0.4l-0.1-0.7c-0.1-0.5-0.1-1.1-0.1-1.6c0-0.1,0-0.2,0-0.3  c0.2-4.4,3-7.6,5.8-7.5c0,0,0,0,0.1,0c0,0,0,0,0.1,0c0.1,0,0.2,0,0.3,0.1l1,0.1l0.2-1c0.6-3.6,3-6.1,5.5-6.1c2.5,0,4.9,2.4,5.5,6.1  l0.2,1l1-0.1c0.2,0,0.3,0,0.3-0.1c0,0,0,0,0,0h0l0,0h0c2.8-0.1,5.7,3.2,5.8,7.5c0,0.1,0,0.2,0,0.3c0,0.5-0.1,1.1-0.1,1.6l-0.1,0.7  l0.7,0.4c1.7,0.9,2.9,3,2.9,5.8c0,0.5,0,1-0.1,1.6c-0.6,4.1-3.7,7.2-6.4,7.2l-0.3,0l-0.2,0.2c-1.9,1.2-4,2-6.3,2.4v-0.1L97.4,364.4z   M160.3,355.2h-6.5l3.3-7.5C158.1,350.2,159.1,352.7,160.3,355.2z M152.5,354.4c-2.2-3.9-4.8-6.8-7.8-8.4h11.5L152.5,354.4z   M156,344.5h-14.7l11.2-12.7C153.4,336.2,154.6,340.4,156,344.5z M141.2,290.1l6,0l-6.8,6.8l-6.8-6.8H141.2z M133.5,288.7l6.9-6.9  l6.9,6.9H133.5z M148.2,307l-5.8,0h-10l7.9-7.9L148.2,307z M148.2,308.5l-7.8,7.8l-7.8-7.8H148.2z M151.4,329.5l-11.9,0h-10.4  l11.1-11.1L151.4,329.5z M151.3,331l-11.4,12.9L129.3,331H151.3z M151.6,327.6l-10.2-10.2l7.8-7.8  C149.7,315.7,150.5,321.7,151.6,327.6z M148.8,305.4l-2.5-2.5l-4.9-4.9l6.6-6.6C148.2,296.1,148.4,300.8,148.8,305.4z M147.4,274.7  c0.1,4.2,0.2,8.3,0.4,12.5l-2.5-2.5l-3.9-3.9L147.4,274.7z M140.5,266.5c2.7,0,4.9,1.9,5.4,4.4h-10.7  C135.7,268.4,137.9,266.5,140.5,266.5z M147,273.1l-6.7,6.7l-6.7-6.7H147z M133.2,274.7l6.1,6.1l-6.4,6.4  C133,283,133.1,278.8,133.2,274.7z M132.7,291.4l5.3,5.3l1.3,1.3l-7.4,7.4C132.2,300.8,132.5,296.1,132.7,291.4z M131.5,309.6  l7.8,7.8L129,327.6C130.2,321.7,131,315.7,131.5,309.6z M128.1,332l10.4,12.6h-13.9C126,340.4,127.2,336.2,128.1,332z M134.4,346  c-2.9,1.6-5.4,4.3-7.6,8l-2.5-8H134.4z M123.4,348.1l2.2,7.1l-5.3,0C121.4,352.9,122.5,350.5,123.4,348.1z M114.8,365.2  c1.5-2.3,2.9-4.7,4.1-7.1l2.8,7.1H114.8z M119.9,356.7h5.5c-1,2.1-1.9,4.5-2.7,7L119.9,356.7z M155.4,366.1  c-2.1,0.3-4.2,0.5-6.3,0.8c-1.7,0.2-3.3,0.4-5,0.7c-3.2,0.4-6.4,0.9-9.7,1.4c-1.5,0.2-2.9,0.4-4.4,0.6c-2.5,0.4-5.1,0.8-7.6,1.2  c2.8-14.6,9.7-24.7,17-24.7c0,0,0.1,0,0.1,0c6.5-0.1,12.6,7.6,15.9,19.5C155.4,365.8,155.4,366,155.4,366.1z M156.6,364.2  c-0.8-2.7-1.8-5.2-2.9-7.5h6.9L156.6,364.2z M222.9,354.3c-0.1-0.3-0.3-0.6-0.4-0.9c0,0,0,0,0-0.1c-0.2-0.3-0.4-0.6-0.6-0.8  c-0.1-0.1-0.1-0.1-0.2-0.2c-0.2-0.2-0.4-0.4-0.6-0.6c0,0-0.1-0.1-0.1-0.1c-0.2-0.2-0.5-0.4-0.8-0.6c-0.1,0-0.1-0.1-0.2-0.1  c-0.2-0.1-0.4-0.3-0.7-0.4c-0.1,0-0.1-0.1-0.2-0.1c-0.3-0.1-0.6-0.3-0.9-0.4c-0.1,0-0.1,0-0.2-0.1c-0.3-0.1-0.5-0.1-0.8-0.2  c-0.1,0-0.2,0-0.3-0.1c-0.3,0-0.7-0.1-1-0.1c0,0,0,0,0,0h0c-0.1,0-0.2,0-0.4,0c-0.1,0-0.1,0-0.2,0c0,0,0,0-0.1,0  c-0.2,0-0.3,0-0.5,0.1c-0.4-1-1-2-1.6-2.9c0,0,0,0,0,0c-0.3-0.4-0.7-0.8-1-1.2c0,0,0,0-0.1-0.1c-0.4-0.4-0.7-0.7-1.1-1  c0,0,0,0-0.1,0c0-0.5-0.1-0.9-0.1-1.4c0-2.9,0.9-5.2,1.8-5.9l0.4-0.4l-0.1-0.6c-0.1-0.5-0.1-1.1-0.1-1.6c0-0.1,0-0.2,0-0.3  c0.1-2.2,0.6-4.2,1.3-5.6c0.7-1.3,1.5-1.9,2.1-1.9c0,0,0.1,0,0.2,0.1l1.1,0.2l0.1-1.2c0.2-1.9,0.7-3.5,1.3-4.5  c0.7-1.1,1.3-1.5,1.8-1.5c0.5,0,1.2,0.4,1.8,1.5c0.6,1.1,1.1,2.7,1.3,4.5l0.1,1.1l1.1-0.2c0.1,0,0.2,0,0.2-0.1  c0.6,0,1.4,0.6,2.1,1.9c0.7,1.4,1.2,3.3,1.3,5.6c0,0.1,0,0.2,0,0.3c0,0.6,0,1.1-0.1,1.6l-0.1,0.6l0.4,0.4c0.9,0.7,1.9,3,1.8,5.9  c0,0.5,0,1.1-0.1,1.6c-0.2,2.1-0.8,4-1.6,5.3c-0.8,1.3-1.7,1.9-2.2,1.9l-0.4,0l-0.3,0.3c-1.1,1.1-2.4,1.8-3.7,2.2  C222.9,354.3,222.9,354.3,222.9,354.3z M306.5,331l0.4-0.4l-0.1-0.6c-0.1-0.5-0.1-1.1-0.1-1.6c0-0.1,0-0.2,0-0.3  c0.1-2.2,0.6-4.2,1.3-5.6c0.7-1.3,1.5-1.9,2.1-1.9c0,0,0.1,0,0.2,0.1l1.1,0.2l0.1-1.2c0.2-1.9,0.7-3.5,1.3-4.5  c0.7-1.1,1.3-1.5,1.8-1.5c0.5,0,1.2,0.4,1.8,1.5c0.6,1.1,1.2,2.7,1.3,4.5l0.1,1.2l1.1-0.2c0.1,0,0.2,0,0.2-0.1  c0.6,0,1.4,0.6,2.1,1.9c0.7,1.4,1.2,3.4,1.3,5.6c0,0.1,0,0.2,0,0.3c0,0.6,0,1.1-0.1,1.6l-0.1,0.6l0.4,0.4c0.9,0.7,1.9,3,1.8,5.9  c0,0.5,0,1.1-0.1,1.6c-0.2,2-0.8,3.8-1.5,5c-0.5,1-1.1,1.6-1.7,1.9c-0.6-0.5-1.3-0.9-2.1-1.2c0,0-0.1,0-0.1,0  c-0.1-0.1-0.3-0.1-0.4-0.2c-0.1,0-0.2,0-0.2-0.1c-0.1,0-0.2-0.1-0.4-0.1c-0.1,0-0.3,0-0.4-0.1c-0.1,0-0.2,0-0.3,0  c-0.2,0-0.5,0-0.7,0c-0.3,0-0.7,0-1,0.1c0,0,0,0-0.1,0c-0.3,0.1-0.6,0.1-0.9,0.2c-0.8-2-2.7-3.5-4.9-3.5c-0.7,0-1.5,0.2-2.1,0.5  c0-0.1-0.1-0.2-0.1-0.2c-0.1-0.1-0.1-0.2-0.2-0.3c-0.1-0.1-0.1-0.2-0.2-0.3c0-0.1-0.1-0.1-0.1-0.2c-0.1-0.1-0.2-0.2-0.3-0.3  c0,0-0.1-0.1-0.1-0.1c-0.6-0.7-1.4-1.2-2.3-1.4c0-0.4,0-0.8,0-1.2C304.6,334.1,305.5,331.7,306.5,331z M287.5,358  c0.6-1.5,1.3-1.9,2.1-2.2l1-0.3l-0.3-1c-0.1-0.4-0.2-0.9-0.2-1.3c0-1.9,1.2-3.4,2.7-3.7l0.7-0.1l0.2-0.7c0.6-2.3,2.4-3.9,4.4-3.9  c0.2,0,0.5,0,0.8,0.1l1.3,0.3l0-1.3c0-0.3,0-0.7,0.1-1c0.3-1.1,0.9-1.9,1.8-2.4l0.3-0.1c0.3-0.1,0.7-0.2,1-0.2l0.3,0  c0.8,0.1,1.6,0.5,2.2,1.2c0,0,0,0,0,0.1c0.1,0.1,0.2,0.2,0.3,0.4c0,0.1,0.1,0.2,0.1,0.2c0,0.1,0.1,0.2,0.1,0.3  c0.1,0.2,0.1,0.3,0.2,0.5c0,0,0,0,0,0l0.1,0.6l0.3,1.1h0l1.3-1.2c0.4-0.4,0.9-0.6,1.4-0.7c0.2,0,0.3-0.1,0.5-0.1  c1.2,0,2.2,0.7,2.8,1.9c0.2,0.3,0.3,0.7,0.4,1.1l0.3,1.4l1.3-0.7c0.5-0.3,1.1-0.4,1.6-0.5c0.2,0,0.4,0,0.6,0c0.2,0,0.5,0,0.7,0.1  c1.1,0.2,2.1,0.7,2.9,1.5l0.4,0.4l0.3-0.1c0.5,0.6,0.9,1.3,1.1,2.1l0.2,0.7l0.7-0.2c0.3-0.1,0.7-0.2,1-0.2c1.9,0,3.6,1.8,3.6,4.1  c0,0.1,0,0.2,0,0.4l-0.1,0.6l0.5,0.2c2.1,0.8,3.1,1.3,3.4,3.4C317,358.3,302.2,358,287.5,358z M337.1,351.8l-0.3-0.3l-0.4,0  c-0.3,0-0.9-0.3-1.4-1.2c-0.5-0.9-1-2.2-1.1-3.8l-1.1,0.1l1.1-0.1c0-0.4-0.1-0.8-0.1-1.2c0-2.1,0.7-3.7,1.3-4.2l0.4-0.4l-0.1-0.6  c0-0.4-0.1-0.8-0.1-1.2c0-0.1,0-0.1,0-0.2c0-1.6,0.4-3.1,0.9-4c0.5-0.9,1-1.2,1.2-1.3c0,0,0.1,0,0.1,0l1.2,0.3l0.1-1.2  c0.1-1.3,0.5-2.5,0.9-3.2c0.5-0.8,0.9-1,1.1-1c0.2,0,0.7,0.2,1.1,1c0.4,0.7,0.8,1.9,0.9,3.2l0.1,1.2l1.2-0.3c0,0,0.1,0,0.1,0  c0.3,0,0.8,0.4,1.2,1.3c0.5,1,0.9,2.4,0.9,4c0,0.1,0,0.2,0,0.2c0,0.4,0,0.8-0.1,1.2l-0.1,0.6l0.4,0.4c0.6,0.4,1.3,2.1,1.3,4.2  c0,0.4,0,0.8-0.1,1.2c-0.2,1.5-0.6,2.9-1.1,3.8c-0.5,0.9-1.1,1.3-1.4,1.2l-0.4,0l-0.3,0.3c-1.2,1.2-2.5,1.8-3.9,1.8  C339.6,353.6,338.3,353,337.1,351.8z M341.3,359c-0.2,0-0.3,0-0.5,0v-3.2c0,0,0.1,0,0.1,0c0.1,0,0.2,0,0.4,0V359z M343,359  c-0.1,0-0.1,0-0.2,0v-3.6c0.9-0.3,1.8-0.7,2.6-1.3c-0.6,0.8-0.9,1.8-0.9,2.9c0,0.3,0,0.6,0.1,0.9C344,358.1,343.5,358.5,343,359z   M377.2,356.4c0.4-1.7,1.8-2.8,3.2-2.8c0.2,0,0.4,0,0.6,0.1l1.3,0.3l0-1.3c0-1.6,1.1-2.7,2.3-2.7c1,0,1.9,0.8,2.2,2l0.4,1.7l1.3-1.2  c0.4-0.4,0.9-0.5,1.3-0.5c1,0,2,0.8,2.2,2.1l0.3,1.4l1.3-0.7c0.5-0.3,1-0.4,1.6-0.4c1.7,0,3.2,1.2,3.8,3.1l0.3,1l1-0.3  c0.2-0.1,0.4-0.1,0.6-0.1c1.2,0,2.3,1.1,2.3,2.7c0,0,0,0.1,0,0.3l-0.1,0.8l0.8,0.3c0.7,0.2,1.3,0.7,1.7,1.4  c-8.6-0.8-17.1-1.5-25.5-2.2c0,0,0-0.1,0-0.1c-0.1-0.3-0.2-0.7-0.4-1c0,0,0-0.1,0-0.1c-0.2-0.3-0.3-0.6-0.5-0.9  c0-0.1-0.1-0.1-0.1-0.2c-0.2-0.3-0.4-0.5-0.7-0.7c0,0-0.1-0.1-0.1-0.1c-0.3-0.2-0.5-0.4-0.8-0.6c0,0,0,0,0,0c0-0.3-0.1-0.7-0.2-1  c0,0,0,0,0,0L377.2,356.4z M356.4,347.1c1,0,1.9,0.8,2.2,2l0.4,1.7l1.3-1.2c0.4-0.4,0.9-0.5,1.3-0.5c1,0,2,0.8,2.2,2.1l0.3,1.4  l1.3-0.7c0.5-0.3,1-0.4,1.6-0.4c1.7,0,3.2,1.2,3.8,3.1l0.3,1l1-0.3c0.2-0.1,0.4-0.1,0.6-0.1c0.8,0,1.5,0.5,1.9,1.3l0.1,0.1  c0.1,0.2,0.2,0.4,0.2,0.6c0,0,0,0,0,0.1c0,0.2,0.1,0.4,0.1,0.6c0,0,0,0,0,0c0,0,0,0.1,0,0.3L375,359h0v0l0.8,0.3  c0.2,0.1,0.3,0.2,0.5,0.2c0.6,0.3,1.1,0.9,1.4,1.6c-8.4-0.6-16.7-1.2-25-1.6c-2.5-0.1-4.9-0.3-7.4-0.4c0.1-0.1,0.3-0.1,0.4-0.2  l0.7-0.2l-0.2-0.7c-0.1-0.3-0.2-0.7-0.2-1.1c0-1.5,1-2.8,2.2-3l0.5-0.1l0.1-0.5c0.5-1.8,1.9-3.1,3.6-3.1c0.1,0,0.3,0,0.4,0.1v0.6  l0.3-0.5l0.8,0.2l0-0.9c0-0.2,0-0.3,0-0.5l0.8-1.2C355.1,347.5,355.7,347.1,356.4,347.1z M417.2,350.4c0,0-0.1-0.1-0.1-0.1  c-0.3-0.3-0.5-0.7-0.8-1.1c-0.1-0.2-0.2-0.4-0.3-0.7c-0.1-0.2-0.2-0.4-0.3-0.6c-0.1-0.2-0.2-0.5-0.3-0.8c0-0.1-0.1-0.3-0.1-0.4  c-0.1-0.3-0.2-0.6-0.2-1c0-0.1,0-0.2-0.1-0.3c-0.1-0.4-0.2-0.9-0.2-1.4c0,0,0,0,0,0c-0.1-0.6-0.1-1.1-0.1-1.6c0-1.8,0.3-3.4,0.8-4.5  c0,0,0-0.1,0.1-0.1c0.3-0.6,0.6-1.1,1-1.3l0.3-0.3l0.1-0.1l-0.1-0.6c-0.1-0.6-0.1-1.1-0.1-1.7c0-0.1,0-0.2,0-0.3  c0-0.5,0.1-1,0.1-1.5c0-0.2,0.1-0.4,0.1-0.7c0-0.3,0.1-0.5,0.1-0.8c0.1-0.2,0.1-0.5,0.2-0.7c0.1-0.2,0.1-0.4,0.2-0.6  c0.1-0.2,0.2-0.4,0.2-0.6c0.1-0.2,0.2-0.5,0.3-0.7c0.7-1.3,1.5-1.9,2.1-1.9c0,0,0.1,0,0.2,0.1l1.1,0.2l0.1-1.2  c0.2-1.9,0.7-3.5,1.3-4.5c0.7-1.1,1.3-1.5,1.8-1.5c0.5,0,1.2,0.4,1.8,1.5c0.6,1.1,1.1,2.7,1.3,4.5l0.1,1.1l1.1-0.2  c0.1,0,0.2,0,0.2-0.1c0.6,0,1.4,0.6,2.1,1.9c0.7,1.4,1.2,3.3,1.3,5.6c0,0.1,0,0.2,0,0.3c0,0.6,0,1.1-0.1,1.7l-0.1,0.6l0.4,0.4  c0.9,0.7,1.9,3,1.8,5.9c0,0.5,0,1.1-0.1,1.6c-0.2,2.1-0.8,4-1.6,5.3c-0.8,1.3-1.7,1.9-2.2,1.9l-0.4,0l-0.3,0.3  c-1.7,1.6-3.5,2.5-5.5,2.5c-2,0-3.9-0.9-5.5-2.5l-0.3-0.3l-0.4,0c-0.3,0-0.6-0.1-1-0.4C417.4,350.6,417.3,350.5,417.2,350.4z   M422.9,365.2c-1.6-0.2-3.3-0.4-4.9-0.5v-11.5c0,0,0,0,0,0c1.4,1.3,3.1,2.3,4.9,2.6V365.2z M425.5,365.5c-0.4,0-0.8-0.1-1.1-0.1  v-9.3c0.1,0,0.3,0,0.4,0h0c0.2,0,0.5,0,0.7,0V365.5z M524.1,371.9c-0.1,0-0.2,0-0.2,0c0,0,0,0-0.1,0c-0.1,0-0.3,0-0.4-0.1l-0.6-0.1  c-0.9-0.3-1.8-0.8-2.7-1.6l-0.3-0.3l-0.4,0c-0.3,0-0.9-0.3-1.4-1.3c-0.5-0.9-1-2.2-1.1-3.8l-1.1,0.1l1.1-0.1c0-0.4-0.1-0.8-0.1-1.2  c0-2.1,0.7-3.7,1.3-4.2l0.4-0.4l-0.1-0.6c0-0.4-0.1-0.8-0.1-1.2c0-0.1,0-0.1,0-0.2c0-1.6,0.4-3.1,0.9-4c0.5-0.9,1-1.2,1.2-1.3  c0,0,0.1,0,0.1,0l1.2,0.3l0.1-1.2c0.1-1.3,0.5-2.5,0.9-3.2c0.5-0.8,0.9-1,1.1-1c0.2,0,0.7,0.2,1.1,1c0.4,0.7,0.8,1.9,0.9,3.2  l0.1,1.2l1.2-0.3c0,0,0.1,0,0.1,0c0.3,0,0.8,0.4,1.2,1.3c0.5,0.9,0.9,2.4,0.9,4c0,0.1,0,0.2,0,0.3c0,0.4,0,0.8-0.1,1.1l-0.1,0.6  l0.4,0.4c0.6,0.4,1.3,2.1,1.3,4.2c0,0.4,0,0.8-0.1,1.2c-0.2,1.5-0.6,2.9-1.1,3.8c-0.5,0.9-1.2,1.3-1.4,1.2l-0.4,0l-0.3,0.3  C526.8,371.3,525.5,371.9,524.1,371.9z M547.4,374.8c-0.2,0-0.4,0-0.7-0.1l-0.6-0.1c-0.9-0.3-1.8-0.8-2.6-1.6l-0.3-0.3l-0.4,0  c-0.3,0-0.9-0.3-1.4-1.3c-0.5-0.9-1-2.2-1.1-3.8l-1.1,0.1l1.1-0.1c0-0.4-0.1-0.8-0.1-1.2c0-2.1,0.7-3.7,1.3-4.2l0.4-0.4l-0.1-0.6  c0-0.4-0.1-0.8-0.1-1.2c0-0.1,0-0.1,0-0.2c0-1.6,0.4-3.1,0.9-4c0.5-0.9,1-1.2,1.2-1.3c0,0,0.1,0,0.1,0l1.2,0.3l0.1-1.2  c0.1-1.3,0.5-2.5,0.9-3.2c0.5-0.8,0.9-1,1.1-1c0.2,0,0.7,0.2,1.1,1c0.4,0.7,0.8,1.9,0.9,3.2l0.1,1.2l1.2-0.2c0.1,0,0.1,0,0.1,0  c0.3,0,0.8,0.4,1.2,1.3c0.5,1,0.9,2.4,0.9,4v0.2c0,0.4,0,0.8-0.1,1.2l-0.1,0.6l0.4,0.4c0.6,0.4,1.3,2.1,1.3,4.2c0,0.4,0,0.8-0.1,1.2  c-0.2,1.5-0.6,2.9-1.1,3.8c-0.5,0.9-1.1,1.3-1.4,1.2l-0.4,0l-0.3,0.3C550.1,374.2,548.8,374.8,547.4,374.8z M574.9,280.8l0.6-7h4  l0.6,7L574.9,280.8z M609.2,368l-1.1,0.2L609.2,368c-0.1-0.4-0.1-0.8-0.1-1.1c0-2,0.9-3.5,2-4l0.7-0.4l-0.1-0.8  c-0.1-0.4-0.1-0.8-0.1-1.1c0-0.1,0-0.1,0-0.2c0.1-3.1,2.1-5.3,4-5.3l0,0l0-0.1l0,0.1c0,0,0.1,0,0.2,0l1,0.1l0.2-1  c0.4-2.6,2.1-4.3,3.8-4.2c1.7,0,3.4,1.7,3.8,4.2l0.2,1l1.1-0.1c0.1,0,0.2,0,0.2,0h0l0.1,0l0,0c1.9,0,3.9,2.2,4,5.3  c0,0.1,0,0.1,0,0.2c0,0.4,0,0.8-0.1,1.1l-0.1,0.7l0.7,0.4c1.1,0.6,2,2.1,2,4c0,0.4,0,0.7-0.1,1.1c-0.5,3-2.6,5.1-4.5,5.1l-0.3,0  l-0.2,0.2c-1.9,1.2-4.2,1.9-6.6,1.9c-2.4,0-4.7-0.7-6.6-1.9l-0.2-0.2l-0.3,0C611.9,373.1,609.7,371,609.2,368z M621.4,377.3v3.7  c-0.1-0.1-0.3-0.2-0.5-0.4v-3.3C621.1,377.3,621.2,377.3,621.4,377.3z M619.5,377.2v2.6c-0.6-0.2-1.2-0.3-1.9-0.3  c-0.3,0-0.5,0-0.8,0.1c-0.8-1.9-2.1-3.4-3.8-4.4c0.1,0,0.2,0,0.3,0C615.1,376.3,617.2,377,619.5,377.2z M620.5,391.1l-0.1,0l-0.2,0  l0,0c-4.2-0.4-8.5-0.9-12.7-1.3c-0.1,0-0.1,0-0.2,0c-0.6-0.1-1.1-0.1-1.7-0.2c0,0-0.1,0-0.1,0c-3.6-0.4-7.3-0.8-10.9-1.2  c0,0-0.1,0-0.1,0c-0.6-0.1-1.2-0.1-1.8-0.2L592,388c-5.1-0.6-10.3-1.2-15.4-1.9c-0.1-0.4-0.1-0.8-0.1-1.2c0-2.4,1.5-4.3,3.4-4.6  l0.7-0.1l0.1-0.5l0-0.1c0.6-2.2,2-3.8,3.8-4.5c0.5-0.2,1.1-0.3,1.7-0.3c0.2,0,0.4,0,0.6,0.1c0.1,0,0.3,0,0.4,0.1l1.3,0.3l0-0.9  l0-0.4c0-0.3,0-0.6,0.1-0.9c0-0.1,0.1-0.2,0.1-0.3c0-0.2,0.1-0.4,0.2-0.5c0.1-0.1,0.1-0.3,0.2-0.4c0.1-0.1,0.1-0.2,0.2-0.3  c0.1-0.2,0.2-0.3,0.3-0.4c0-0.1,0.1-0.1,0.1-0.2c0.1-0.2,0.3-0.3,0.4-0.4c0,0,0.1-0.1,0.1-0.1c0.2-0.1,0.3-0.3,0.5-0.4  c0,0,0,0,0.1,0c0.4-0.2,0.9-0.4,1.3-0.5l0.2,0c0.1,0,0.2,0,0.3,0c1.8,0,3.4,1.4,3.9,3.5l0.4,1.7l1.3-1.2c0.7-0.6,1.5-1,2.4-1  c1.9,0,3.6,1.5,4,3.7l0.3,1.4l1.3-0.7c0.9-0.4,1.8-0.7,2.7-0.7c2.8,0,5.3,2.1,6.3,5.1l0.3,1l1-0.3c0.4-0.1,0.8-0.2,1.1-0.2  c2.1,0,4.1,2,4.1,4.7c0,0.1,0,0.2-0.1,0.5l-0.1,0.8l0.8,0.3c1.6,0.6,2.9,1.9,3.5,3.7C624,391.5,622.3,391.3,620.5,391.1z   M814.9,386.1c0,0,0.1,0.1,0.1,0.1c0.2,0.2,0.4,0.3,0.6,0.5c0.1,0.1,0.1,0.1,0.2,0.2c0.2,0.2,0.4,0.4,0.5,0.6c0,0,0.1,0.1,0.1,0.2  c0.1,0.2,0.3,0.4,0.4,0.7c0,0,0,0.1,0,0.1c0.1,0.3,0.2,0.5,0.3,0.8c0,0.1,0,0.1,0.1,0.2c0.1,0.3,0.2,0.6,0.2,0.9c0,0.1,0,0.1,0,0.2  c0,0.3,0.1,0.6,0.1,1c0,0,0,0,0,0c0,0,0,0,0,0c0,0.1,0,0.3-0.1,0.6l-0.1,0.8h0v0l0.3,0.1l0.5,0.2c1.4,0.5,2.6,1.5,3.5,2.7  c0.1,0.1,0.2,0.2,0.3,0.4c-7.6,0.4-15.1,0.8-22.7,1c-14.7,0.5-29.4,0.8-44.1,0.8h-1.6c0.9-2.5,2.7-4.3,5-5.1l1-0.3l-0.3-1  c-0.2-0.7-0.4-1.4-0.4-2.2c0-3.2,2.1-5.7,4.6-6.2l0.7-0.1l0.2-0.7c1-3.7,3.9-6.4,7.4-6.3c0.4,0,0.9,0.1,1.4,0.2l1.3,0.3l0-1.3  c0-3.6,2.6-6.3,5.5-6.3c2.5,0,4.7,1.9,5.3,4.7l0.4,1.7l1.3-1.2c1-0.8,2.1-1.3,3.3-1.3c2.6,0,4.9,2.1,5.4,5l0.3,1.4l1.3-0.7  c1.1-0.6,2.4-0.9,3.6-0.9c3.8,0,7.1,2.8,8.4,6.8l0.3,1l1-0.3c0.5-0.2,1-0.3,1.5-0.3c0.5,0,0.9,0.1,1.4,0.2c0.3,0.1,0.5,0.2,0.8,0.3  c0,0,0.1,0.1,0.1,0.1C814.5,385.9,814.7,386,814.9,386.1z M818.4,301.4l1.6-4.9h18.5l1.6,4.9H818.4z M858.6,301.4l1.6-4.9h18.5  l1.6,4.9H858.6z M901.3,382.6c-0.2,0-0.4,0-0.7-0.1l-0.6-0.1c-0.9-0.3-1.8-0.8-2.6-1.6l-0.3-0.3l-0.4,0c-0.3,0-0.9-0.3-1.4-1.3  c-0.5-0.9-1-2.2-1.1-3.8l-1.1,0.1l1.1-0.1c0-0.4-0.1-0.8-0.1-1.2c0-2.1,0.7-3.7,1.3-4.2l0.4-0.4l-0.1-0.6c0-0.4-0.1-0.8-0.1-1.2  c0-0.1,0-0.1,0-0.2c0-1.6,0.4-3.1,0.9-4c0.5-0.9,1-1.2,1.2-1.3c0,0,0.1,0,0.1,0l1.2,0.3l0.1-1.2c0.1-1.3,0.5-2.5,0.9-3.2  c0.5-0.8,0.9-1,1.1-1c0.2,0,0.7,0.2,1.1,1c0.4,0.7,0.8,1.9,0.9,3.2l0.1,1.2l1.2-0.3c0,0,0.1,0,0.1,0c0.3,0,0.8,0.4,1.2,1.3  c0.5,1,0.9,2.4,0.9,4c0,0.1,0,0.1,0,0.2c0,0.4,0,0.8-0.1,1.2l-0.1,0.6l0.4,0.4c0.6,0.4,1.3,2.1,1.3,4.2c0,0.4,0,0.8-0.1,1.2  c-0.2,1.5-0.6,2.9-1.1,3.8c-0.5,0.9-1.2,1.3-1.4,1.2l-0.4,0l-0.3,0.3C903.9,382,902.6,382.6,901.3,382.6z M958.7,378.5  c-0.1-0.1-0.3-0.2-0.5-0.3v-2.6c0,0,0.1,0,0.1,0h0c0.1,0,0.2,0,0.4,0V378.5z M958.3,373.6c-1.4,0-2.7-0.6-3.9-1.8l-0.3-0.3l-0.4,0  c-0.3,0-0.9-0.3-1.4-1.2c-0.5-0.9-1-2.2-1.1-3.8l-1.1,0.1l1.1-0.1c0-0.4-0.1-0.8-0.1-1.2c0-2.1,0.7-3.7,1.3-4.2l0.5-0.4l-0.1-0.6  c0-0.4-0.1-0.8-0.1-1.2c0-0.1,0-0.1,0-0.2c0-1.6,0.4-3.1,0.9-4c0.5-0.9,1-1.2,1.2-1.3c0,0,0.1,0,0.1,0l1.2,0.3l0.1-1.2  c0.1-1.3,0.5-2.5,0.9-3.2c0.5-0.8,0.9-1,1.1-1c0.2,0,0.7,0.2,1.1,1c0.4,0.7,0.8,1.9,0.9,3.2l0.1,1.2l1.2-0.2c0.1,0,0.1,0,0.1,0  c0.3,0,0.8,0.4,1.2,1.3c0.5,1,0.9,2.4,0.9,4v0.2c0,0.4,0,0.8-0.1,1.2l-0.1,0.6l0.4,0.4c0.6,0.4,1.3,2.1,1.3,4.2c0,0.4,0,0.8-0.1,1.2  c-0.2,1.5-0.6,2.9-1.1,3.8c-0.5,0.9-1.1,1.3-1.4,1.2l-0.4,0l-0.3,0.3C961,373,959.7,373.6,958.3,373.6z"></path>
<g>
	<path class="st2" d="M215.5,93.5v-7.2h2.9v17.5h-2.9v-7.6H208v7.6h-2.9V86.3h2.9v7.2H215.5z"></path>
	<path class="st2" d="M227.6,104.1c-1.9,0-3.4-0.6-4.7-1.9c-1.3-1.3-1.9-2.8-1.9-4.7c0-1.8,0.6-3.4,1.9-4.7c1.3-1.3,2.8-1.9,4.7-1.9   s3.4,0.6,4.7,1.9c1.3,1.3,1.9,2.8,1.9,4.7c0,1.8-0.6,3.4-1.9,4.7C231,103.5,229.4,104.1,227.6,104.1z M223.7,97.5   c0,1.1,0.4,2.1,1.1,2.8s1.7,1.1,2.8,1.1s2-0.4,2.8-1.1s1.1-1.7,1.1-2.8c0-1.1-0.4-2.1-1.1-2.8s-1.7-1.1-2.8-1.1s-2,0.4-2.8,1.1   S223.7,96.4,223.7,97.5z"></path>
	<path class="st2" d="M245.3,97.4c1.2,0.6,1.9,1.5,1.9,2.9c0,1.1-0.4,1.9-1.1,2.6c-0.7,0.6-1.7,1-3,1h-6.4V91.3h5.9   c1.3,0,2.3,0.3,3,1c0.7,0.6,1.1,1.5,1.1,2.5C246.6,95.9,246.1,96.8,245.3,97.4z M242.3,93.6h-3.1v2.8h3.1c1.1,0,1.6-0.5,1.6-1.4   C244,94,243.4,93.6,242.3,93.6z M239.2,101.4h3.6c1.1,0,1.7-0.5,1.7-1.5c0-0.4-0.1-0.8-0.4-1c-0.3-0.2-0.7-0.4-1.2-0.4h-3.6V101.4z   "></path>
	<path class="st2" d="M252,95.5h2.8c1.4,0,2.4,0.4,3.3,1.2c0.9,0.8,1.3,1.7,1.3,3c0,1.2-0.4,2.2-1.3,3c-0.8,0.8-1.9,1.2-3.3,1.2   h-5.4V91.3h2.7V95.5z M252,101.4h2.8c0.5,0,1-0.2,1.3-0.5c0.4-0.3,0.5-0.7,0.5-1.2s-0.2-0.9-0.5-1.2s-0.8-0.5-1.4-0.5H252V101.4z    M260.8,103.8V91.3h2.7v12.5H260.8z"></path>
	<path class="st2" d="M269.3,99.2l6.4-7.9h2.1v12.5h-2.7v-8l-6.4,8h-2.1V91.3h2.6V99.2z M275.7,89.5h-7v-2.3h7V89.5z"></path>
	<path class="st2" d="M289.8,99.2l6.4-7.9h2.1v12.5h-2.7v-8l-6.4,8h-2.1V91.3h2.6V99.2z"></path>
	<path class="st2" d="M309.8,96.3v-5h2.7v12.5h-2.7v-5h-5.7v5h-2.7V91.3h2.7v5H309.8z"></path>
	<path class="st2" d="M323.9,104v4.8h-2.7V104c-1.9-0.2-3.5-1-4.6-2.1c-1.1-1.2-1.7-2.6-1.7-4.3s0.6-3.1,1.7-4.3   c1.1-1.2,2.7-1.9,4.6-2.1v-4.8h2.7v4.8c1.9,0.2,3.5,1,4.6,2.1c1.1,1.2,1.7,2.6,1.7,4.3s-0.6,3.1-1.7,4.3S325.8,103.8,323.9,104z    M321.3,101.4v-7.8c-1.1,0.2-2,0.7-2.7,1.4c-0.6,0.7-1,1.5-1,2.5s0.3,1.8,1,2.5C319.2,100.8,320.1,101.2,321.3,101.4z M323.9,93.6   v7.8c1.1-0.2,2-0.7,2.7-1.4c0.6-0.7,1-1.5,1-2.5s-0.3-1.8-1-2.5C325.9,94.3,325.1,93.8,323.9,93.6z"></path>
	<path class="st2" d="M338.6,104.1c-1.9,0-3.4-0.6-4.7-1.9c-1.3-1.3-1.9-2.8-1.9-4.7c0-1.8,0.6-3.4,1.9-4.7c1.3-1.3,2.8-1.9,4.7-1.9   s3.4,0.6,4.7,1.9c1.3,1.3,1.9,2.8,1.9,4.7c0,1.8-0.6,3.4-1.9,4.7C342,103.5,340.4,104.1,338.6,104.1z M334.7,97.5   c0,1.1,0.4,2.1,1.1,2.8s1.7,1.1,2.8,1.1s2-0.4,2.8-1.1s1.1-1.7,1.1-2.8c0-1.1-0.4-2.1-1.1-2.8s-1.7-1.1-2.8-1.1s-2,0.4-2.8,1.1   S334.7,96.4,334.7,97.5z"></path>
	<path class="st2" d="M354.7,91c1.7,0,3.2,0.6,4.4,1.9c1.2,1.3,1.8,2.8,1.8,4.7c0,1.8-0.6,3.4-1.8,4.7s-2.7,1.9-4.4,1.9   c-1.9,0-3.3-0.7-4.4-2.1v6.8h-2.7V91.3h2.7v1.8C351.3,91.7,352.8,91,354.7,91z M351.4,100.4c0.8,0.8,1.7,1.1,2.8,1.1   c1.1,0,2.1-0.4,2.8-1.1c0.8-0.8,1.1-1.7,1.1-2.9s-0.4-2.1-1.1-2.8c-0.8-0.8-1.7-1.2-2.8-1.2c-1.1,0-2.1,0.4-2.8,1.2   c-0.8,0.8-1.1,1.7-1.1,2.8C350.3,98.7,350.7,99.6,351.4,100.4z"></path>
	<path class="st2" d="M373.4,91.3h2.8v12.5h-2.6v-8.2l-3.6,5.7h-0.3l-3.6-5.7v8.2h-2.6V91.3h2.8l3.6,5.8L373.4,91.3z"></path>
	<path class="st2" d="M389.1,93.1v-1.8h2.7v12.5h-2.7V102c-1,1.4-2.5,2.1-4.4,2.1c-1.7,0-3.2-0.6-4.4-1.9c-1.2-1.3-1.8-2.8-1.8-4.7   s0.6-3.4,1.8-4.7c1.2-1.3,2.7-1.9,4.4-1.9C386.7,91,388.1,91.7,389.1,93.1z M382.4,100.4c0.8,0.8,1.7,1.1,2.8,1.1s2.1-0.4,2.8-1.1   c0.8-0.8,1.1-1.7,1.1-2.9s-0.4-2.1-1.1-2.8c-0.8-0.8-1.7-1.2-2.8-1.2s-2.1,0.4-2.8,1.2c-0.8,0.8-1.1,1.7-1.1,2.8   C381.2,98.7,381.6,99.6,382.4,100.4z"></path>
	<path class="st2" d="M405.7,91.3v10h2v5.9h-2.6v-3.3H395V91.3h2.7v10h5.4v-10H405.7z"></path>
	<path class="st2" d="M412.6,99.2l6.4-7.9h2.1v12.5h-2.7v-8l-6.4,8H410V91.3h2.6V99.2z"></path>
	<path class="st2" d="M430.1,104.1c-1.9,0-3.4-0.6-4.7-1.9c-1.3-1.3-1.9-2.8-1.9-4.7c0-1.8,0.6-3.4,1.9-4.7c1.3-1.3,2.8-1.9,4.7-1.9   s3.4,0.6,4.7,1.9c1.3,1.3,1.9,2.8,1.9,4.7c0,1.8-0.6,3.4-1.9,4.7C433.5,103.5,432,104.1,430.1,104.1z M426.2,97.5   c0,1.1,0.4,2.1,1.1,2.8s1.7,1.1,2.8,1.1s2-0.4,2.8-1.1s1.1-1.7,1.1-2.8c0-1.1-0.4-2.1-1.1-2.8s-1.7-1.1-2.8-1.1s-2,0.4-2.8,1.1   S426.2,96.4,426.2,97.5z"></path>
	<path class="st2" d="M447.6,96.3v-5h2.7v12.5h-2.7v-5h-5.7v5h-2.7V91.3h2.7v5H447.6z"></path>
	<path class="st2" d="M461.9,96.3v-5h2.7v12.5h-2.7v-5h-5.7v5h-2.7V91.3h2.7v5H461.9z"></path>
	<path class="st2" d="M470.4,95.5h2.8c1.3,0,2.4,0.4,3.3,1.2c0.9,0.8,1.3,1.7,1.3,3c0,1.2-0.4,2.2-1.3,3c-0.8,0.8-1.9,1.2-3.3,1.2   h-5.5V91.3h2.7V95.5z M470.4,101.4h2.8c0.5,0,1-0.2,1.3-0.5c0.4-0.3,0.5-0.7,0.5-1.2s-0.2-0.9-0.5-1.2c-0.4-0.3-0.8-0.5-1.4-0.5   h-2.8V101.4z M479.2,103.8V91.3h2.7v12.5H479.2z"></path>
	<path class="st2" d="M487.6,99.2l6.4-7.9h2.1v12.5h-2.7v-8l-6.4,8H485V91.3h2.6V99.2z M494,89.5h-7v-2.3h7V89.5z"></path>
	<path class="st2" d="M511.4,104.1c-1.9,0-3.5-0.6-4.7-1.9c-1.2-1.3-1.9-2.8-1.9-4.7c0-1.9,0.6-3.4,1.9-4.7c1.3-1.3,2.8-1.9,4.7-1.9   c1.2,0,2.3,0.3,3.3,0.9c1,0.6,1.8,1.4,2.2,2.4l-2.3,1.3c-0.3-0.6-0.7-1.1-1.3-1.4s-1.2-0.5-2-0.5c-1.1,0-2,0.4-2.8,1.1   c-0.7,0.8-1.1,1.7-1.1,2.8s0.4,2,1.1,2.8c0.8,0.8,1.7,1.1,2.8,1.1c0.7,0,1.4-0.2,2-0.5c0.6-0.3,1-0.8,1.3-1.4l2.3,1.3   c-0.5,1-1.3,1.8-2.3,2.4C513.7,103.8,512.6,104.1,511.4,104.1z"></path>
	<path class="st2" d="M530.8,98.7h-9.9c0.2,0.9,0.7,1.7,1.4,2.2c0.7,0.5,1.6,0.8,2.6,0.8c1.4,0,2.5-0.5,3.2-1.5l2.2,1.3   c-1.2,1.8-3,2.7-5.5,2.7c-2,0-3.7-0.6-4.9-1.9c-1.2-1.2-1.9-2.8-1.9-4.7c0-1.8,0.6-3.4,1.8-4.7c1.2-1.3,2.8-1.9,4.7-1.9   c1.8,0,3.3,0.6,4.5,1.9c1.2,1.3,1.8,2.8,1.8,4.7C530.9,97.9,530.9,98.3,530.8,98.7z M520.9,96.5h7.4c-0.2-1-0.6-1.7-1.2-2.3   c-0.6-0.5-1.4-0.8-2.3-0.8c-1,0-1.8,0.3-2.5,0.8C521.5,94.8,521.1,95.5,520.9,96.5z"></path>
	<path class="st2" d="M540.4,91c1.7,0,3.2,0.6,4.4,1.9c1.2,1.3,1.8,2.8,1.8,4.7c0,1.8-0.6,3.4-1.8,4.7s-2.7,1.9-4.4,1.9   c-1.9,0-3.3-0.7-4.4-2.1v6.8h-2.7V91.3h2.7v1.8C537,91.7,538.5,91,540.4,91z M537.1,100.4c0.8,0.8,1.7,1.1,2.8,1.1   c1.1,0,2.1-0.4,2.8-1.1c0.8-0.8,1.1-1.7,1.1-2.9s-0.4-2.1-1.1-2.8c-0.8-0.8-1.7-1.2-2.8-1.2c-1.1,0-2.1,0.4-2.8,1.2   c-0.8,0.8-1.1,1.7-1.1,2.8C536,98.7,536.4,99.6,537.1,100.4z"></path>
	<path class="st2" d="M557.7,97.4c1.2,0.6,1.9,1.5,1.9,2.9c0,1.1-0.4,1.9-1.1,2.6c-0.7,0.6-1.7,1-3,1h-6.4V91.3h5.9   c1.3,0,2.3,0.3,3,1c0.7,0.6,1.1,1.5,1.1,2.5C559,95.9,558.6,96.8,557.7,97.4z M554.8,93.6h-3.1v2.8h3.1c1.1,0,1.6-0.5,1.6-1.4   C556.4,94,555.9,93.6,554.8,93.6z M551.6,101.4h3.6c1.1,0,1.7-0.5,1.7-1.5c0-0.4-0.1-0.8-0.5-1c-0.3-0.2-0.7-0.4-1.2-0.4h-3.6   V101.4z"></path>
	<path class="st2" d="M564.4,99.2l6.4-7.9h2.1v12.5h-2.7v-8l-6.4,8h-2.1V91.3h2.6V99.2z"></path>
	<path class="st2" d="M581.9,104.1c-1.9,0-3.5-0.6-4.7-1.9c-1.2-1.3-1.9-2.8-1.9-4.7c0-1.9,0.6-3.4,1.9-4.7c1.3-1.3,2.8-1.9,4.7-1.9   c1.2,0,2.3,0.3,3.3,0.9c1,0.6,1.8,1.4,2.2,2.4l-2.3,1.3c-0.3-0.6-0.7-1.1-1.3-1.4s-1.2-0.5-2-0.5c-1.1,0-2,0.4-2.8,1.1   c-0.7,0.8-1.1,1.7-1.1,2.8s0.4,2,1.1,2.8c0.8,0.8,1.7,1.1,2.8,1.1c0.7,0,1.4-0.2,2-0.5c0.6-0.3,1-0.8,1.3-1.4l2.3,1.3   c-0.5,1-1.3,1.8-2.3,2.4C584.2,103.8,583.1,104.1,581.9,104.1z"></path>
	<path class="st2" d="M589.3,92.8c0-0.5,0.2-1,0.5-1.3s0.8-0.5,1.3-0.5c0.5,0,1,0.2,1.3,0.5c0.4,0.4,0.5,0.8,0.5,1.3   s-0.2,0.9-0.5,1.3c-0.4,0.4-0.8,0.5-1.3,0.5s-0.9-0.2-1.3-0.5C589.5,93.8,589.3,93.3,589.3,92.8z M591.2,100.3c0.5,0,1,0.2,1.3,0.5   c0.4,0.4,0.5,0.8,0.5,1.3s-0.2,1-0.5,1.3c-0.4,0.4-0.8,0.5-1.3,0.5s-1-0.2-1.3-0.5c-0.4-0.4-0.5-0.8-0.5-1.3s0.2-1,0.5-1.3   C590.2,100.5,590.7,100.3,591.2,100.3z"></path>
</g>
<g>
	<path class="st2" d="M223.2,160.1c-5.2,0-9.6-1.8-13.1-5.2c-3.4-3.5-5.1-7.8-5.1-13c0-5.2,1.7-9.5,5.1-13c3.5-3.5,7.8-5.2,13.1-5.2   c3.2,0,6.1,0.7,8.8,2.2c2.7,1.5,4.8,3.5,6.3,6l-5.9,3.5c-0.9-1.6-2.1-2.8-3.7-3.7c-1.6-0.9-3.4-1.3-5.4-1.3c-3.4,0-6.1,1.1-8.2,3.2   c-2.1,2.2-3.1,4.9-3.1,8.3c0,3.3,1,6.1,3.1,8.2c2.1,2.1,4.9,3.2,8.2,3.2c2,0,3.8-0.4,5.4-1.3c1.6-0.9,2.8-2.1,3.7-3.6l5.9,3.5   c-1.5,2.5-3.6,4.5-6.3,6C229.3,159.3,226.4,160.1,223.2,160.1z"></path>
	<path class="st2" d="M242.6,134.4h22.8v25H259v-19h-10v19h-6.4V134.4z"></path>
	<path class="st2" d="M285.9,133.7c3.4,0,6.2,1.3,8.6,3.9c2.4,2.6,3.6,5.7,3.6,9.3c0,3.7-1.2,6.9-3.6,9.4c-2.3,2.5-5.2,3.8-8.6,3.8   c-3.5,0-6.2-1.2-8.1-3.7v13h-6.4v-35h6.4v3C279.7,134.9,282.4,133.7,285.9,133.7z M279.8,152c1.3,1.3,2.9,2,4.9,2s3.7-0.6,5-2   c1.3-1.3,2-3,2-5.1c0-2.1-0.7-3.8-2-5c-1.3-1.3-3-2-5-2s-3.6,0.7-4.9,2c-1.3,1.3-2,3-2,5C277.8,148.9,278.5,150.6,279.8,152z"></path>
	<path class="st2" d="M321.7,137.3v-3h6.4v25h-6.4v-3c-1.9,2.4-4.7,3.7-8.2,3.7c-3.3,0-6.2-1.3-8.6-3.8c-2.4-2.6-3.6-5.7-3.6-9.4   c0-3.7,1.2-6.8,3.6-9.3c2.4-2.6,5.3-3.9,8.6-3.9C317,133.7,319.7,134.9,321.7,137.3z M309.8,152c1.3,1.3,3,2,5,2s3.6-0.6,5-2   c1.3-1.3,2-3,2-5.1c0-2.1-0.7-3.8-2-5c-1.3-1.3-3-2-5-2s-3.6,0.7-5,2c-1.3,1.3-1.9,3-1.9,5C307.8,148.9,308.5,150.6,309.8,152z"></path>
	<path class="st2" d="M352,146.6c2.3,1.1,3.5,3,3.5,5.7c0,2.1-0.7,3.8-2.2,5.1c-1.5,1.3-3.5,2-6.1,2H334v-25h12.1   c2.6,0,4.6,0.6,6.1,1.9c1.5,1.3,2.2,3,2.2,5.1C354.4,143.6,353.6,145.3,352,146.6z M345.5,139.7H340v4.5h5.5c1.8,0,2.8-0.8,2.8-2.2   S347.3,139.7,345.5,139.7z M340,153.9h6.4c1.9,0,2.8-0.8,2.8-2.4c0-0.7-0.2-1.2-0.8-1.7s-1.2-0.6-2-0.6H340V153.9z"></path>
	<path class="st2" d="M380.8,156.3c-2.5,2.5-5.7,3.8-9.4,3.8c-3.7,0-6.9-1.3-9.4-3.8c-2.5-2.5-3.8-5.7-3.8-9.4   c0-3.7,1.3-6.8,3.8-9.3c2.6-2.6,5.7-3.9,9.4-3.9c3.7,0,6.8,1.3,9.4,3.9c2.6,2.6,3.9,5.7,3.9,9.3   C384.7,150.6,383.4,153.7,380.8,156.3z M366.6,151.8c1.3,1.3,2.9,2,4.9,2c1.9,0,3.5-0.7,4.9-2c1.3-1.3,1.9-3,1.9-5s-0.6-3.7-1.9-5   c-1.3-1.3-2.9-2-4.9-2c-1.9,0-3.6,0.7-4.9,2c-1.3,1.3-1.9,3-1.9,5S365.3,150.5,366.6,151.8z"></path>
	<path class="st2" d="M403.4,145.4v-11h6.4v25h-6.4v-8c-1.9,0.6-3.9,0.9-6,0.9c-3.1,0-5.5-0.8-7.3-2.4c-1.8-1.6-2.7-3.8-2.7-6.6v-9   h6.5v8.2c0,2.5,1.5,3.8,4.6,3.8C400.4,146.3,402,146,403.4,145.4z"></path>
	<path class="st2" d="M432.1,143.8v-9.5h6.4v25h-6.4v-9.5h-10v9.5h-6.4v-25h6.4v9.5H432.1z"></path>
	<path class="st2" d="M450.8,148.6l11.8-14.2h4.8v25H461v-14.2l-11.8,14.2h-4.8v-25h6.3V148.6z"></path>
	<path class="st2" d="M485.9,146.7l10.3,12.7h-7.5l-9.1-11.3v11.3h-6.5v-25h6.5v11l8.6-11h7.7L485.9,146.7z"></path>
	<path class="st2" d="M218.2,220.1c-3.8,0-6.9-1.3-9.5-3.8c-2.5-2.5-3.8-5.7-3.8-9.4c0-3.7,1.2-6.9,3.8-9.4c2.5-2.5,5.7-3.8,9.5-3.8   c2.4,0,4.6,0.6,6.6,1.8c2,1.2,3.5,2.7,4.5,4.7l-5.5,3.2c-0.5-1-1.3-1.8-2.3-2.5c-1-0.6-2.2-0.9-3.4-0.9c-1.9,0-3.5,0.6-4.8,1.9   c-1.3,1.3-1.9,2.9-1.9,4.9c0,1.9,0.6,3.6,1.9,4.9c1.3,1.3,2.9,1.9,4.8,1.9c1.3,0,2.5-0.3,3.5-0.9c1-0.6,1.8-1.4,2.3-2.4l5.6,3.2   c-1.1,2-2.7,3.6-4.7,4.8C222.8,219.5,220.6,220.1,218.2,220.1z"></path>
	<path class="st2" d="M230.3,194.4h22.1v6.2h-7.8v18.8h-6.5v-18.8h-7.9V194.4z"></path>
	<path class="st2" d="M270.5,193.7c3.4,0,6.2,1.3,8.6,3.9c2.4,2.6,3.6,5.7,3.6,9.3c0,3.7-1.2,6.9-3.6,9.4c-2.3,2.5-5.2,3.8-8.6,3.8   c-3.5,0-6.2-1.2-8.1-3.7v13h-6.4v-35h6.4v3C264.3,194.9,267,193.7,270.5,193.7z M264.3,212c1.3,1.3,2.9,2,4.9,2s3.7-0.6,5-2   c1.3-1.3,2-3,2-5.1c0-2.1-0.7-3.8-2-5c-1.3-1.3-3-2-5-2s-3.6,0.7-4.9,2c-1.3,1.3-2,3-2,5C262.4,208.9,263,210.6,264.3,212z"></path>
	<path class="st2" d="M308.5,216.3c-2.5,2.5-5.7,3.8-9.4,3.8c-3.7,0-6.9-1.3-9.4-3.8c-2.5-2.5-3.8-5.7-3.8-9.4   c0-3.7,1.3-6.8,3.8-9.3c2.6-2.6,5.7-3.9,9.4-3.9c3.7,0,6.8,1.3,9.4,3.9c2.6,2.6,3.9,5.7,3.9,9.3   C312.4,210.6,311.1,213.7,308.5,216.3z M294.3,211.8c1.3,1.3,2.9,2,4.9,2c1.9,0,3.5-0.7,4.9-2c1.3-1.3,1.9-3,1.9-5s-0.6-3.7-1.9-5   c-1.3-1.3-2.9-2-4.9-2c-1.9,0-3.6,0.7-4.9,2c-1.3,1.3-1.9,3-1.9,5S293,210.5,294.3,211.8z"></path>
	<path class="st2" d="M323.2,208.6l11.8-14.2h4.8v25h-6.3v-14.2l-11.8,14.2h-4.8v-25h6.3V208.6z"></path>
	<path class="st2" d="M343.2,194.4h22.1v6.2h-7.8v18.8h-6.5v-18.8h-7.9V194.4z"></path>
	<path class="st2" d="M392.1,209.5h-18.9c0.8,3.1,3.2,4.7,7.1,4.7c2.5,0,4.3-0.8,5.6-2.5l5.2,3c-2.5,3.6-6.1,5.4-10.9,5.4   c-4.1,0-7.5-1.2-10-3.8s-3.8-5.7-3.8-9.5c0-3.7,1.2-6.9,3.7-9.4c2.4-2.5,5.6-3.8,9.5-3.8c3.7,0,6.7,1.3,9,3.8   c2.4,2.5,3.6,5.7,3.6,9.4C392.4,207.6,392.3,208.5,392.1,209.5z M373.2,204.5h12.8c-0.4-1.6-1.1-2.9-2.2-3.8   c-1.1-0.9-2.4-1.3-4-1.3c-1.7,0-3.2,0.4-4.3,1.3C374.3,201.7,373.5,202.9,373.2,204.5z"></path>
	<path class="st2" d="M397.5,194.4h19.8v25h-6.4v-18.8H404v8.3c0,7.7-3.5,11.2-10.5,10.5v-6c1.3,0.3,2.4,0.1,3-0.7   c0.7-0.8,1.1-2.2,1.1-4V194.4z"></path>
	<path class="st2" d="M447.5,209.5h-18.9c0.8,3.1,3.2,4.7,7.1,4.7c2.5,0,4.3-0.8,5.6-2.5l5.2,3c-2.5,3.6-6.1,5.4-10.9,5.4   c-4.1,0-7.5-1.2-10-3.8s-3.8-5.7-3.8-9.5c0-3.7,1.2-6.9,3.7-9.4c2.4-2.5,5.6-3.8,9.5-3.8c3.7,0,6.7,1.3,9,3.8   c2.4,2.5,3.6,5.7,3.6,9.4C447.7,207.6,447.6,208.5,447.5,209.5z M428.5,204.5h12.8c-0.4-1.6-1.1-2.9-2.2-3.8   c-1.1-0.9-2.4-1.3-4-1.3c-1.7,0-3.2,0.4-4.3,1.3C429.6,201.7,428.9,202.9,428.5,204.5z"></path>
	<path class="st2" d="M458.5,208.6l11.8-14.2h4.8v25h-6.3v-14.2L457,219.4h-4.8v-25h6.3V208.6z M470.9,191.2h-14.5v-5.6h14.5V191.2z   "></path>
</g>
<path class="st2" d="M758,232.5c-6.2-4.9-12.8-8.7-20-11.3c-7.2-2.7-14.6-4-22.3-4c-5.4,0-10.7,0.7-15.9,2.1  c-5.2,1.4-10.2,3.4-14.9,6c-2.7,1.4-5.3,1.3-7.8-0.2c-2.5-1.5-3.8-3.8-3.8-6.7v-92.7c0-1.4,0.4-2.8,1.1-4s1.8-2.2,3.2-2.9  c5.9-3.1,12.1-5.4,18.5-6.9c6.4-1.5,12.9-2.3,19.6-2.3c7.4,0,14.7,1,21.8,2.9c7.1,1.9,13.9,4.8,20.5,8.7v97.3  c6.5-4.2,13.4-7.4,20.6-9.5c7.2-2.1,14.4-3.2,21.7-3.2c4.6,0,9.6,0.4,15.1,1.3c5.4,0.9,10.7,2.8,15.7,5.6v-97.1  c1.3,0.5,2.5,1,3.8,1.5c1.2,0.5,2.4,1.1,3.6,1.7c1.3,0.8,2.3,1.8,3.1,3s1.2,2.5,1.2,3.9v92.7c0,2.9-1.2,5.2-3.8,6.7  c-2.5,1.5-5.1,1.6-7.8,0.2c-4.7-2.6-9.7-4.6-14.9-6c-5.2-1.4-10.5-2.1-15.9-2.1c-7.7,0-15.1,1.3-22.3,4  C770.9,223.9,764.2,227.7,758,232.5z M769.6,200.4v-67.9l50-50V157L769.6,200.4z M746.5,212.5v-84.4c-4.4-2.4-9.4-4.2-15.2-5.4  c-5.8-1.2-11-1.7-15.6-1.7c-6,0-11.6,0.6-16.8,1.9c-5.2,1.3-9.8,2.9-13.9,5v84.6c4.5-2.2,9.3-3.9,14.5-5.1  c5.2-1.2,10.7-1.8,16.4-1.8c5.6,0,11,0.6,16.2,1.8C737.2,208.7,742,210.4,746.5,212.5z M746.5,212.5v-84.4V212.5z"></path>
</svg>
