<?xml version="1.0" encoding="UTF-8"?>
<!-- Generator: Adobe Illustrator 25.2.1, SVG Export Plug-In . SVG Version: 6.00 Build 0)  -->
<svg xmlns="http://www.w3.org/2000/svg" xmlns:xlink="http://www.w3.org/1999/xlink" version="1.1" id="Layer_1" x="0px" y="0px" viewBox="0 0 523 300" style="enable-background:new 0 0 523 300;" xml:space="preserve">
<style type="text/css">
	.st0{fill:#1A8DC6;}
	.st1{opacity:0.1;fill:#FFFFFF;}
	.st2{fill:none;stroke:#FFFFFF;stroke-width:6;stroke-linecap:round;stroke-miterlimit:10;}
	.st3{fill:#FFFFFF;stroke:#FFFFFF;stroke-width:6;stroke-linecap:round;stroke-miterlimit:10;}
	.st4{fill:#F0E1D4;stroke:#FFFFFF;stroke-width:6;stroke-linecap:round;stroke-miterlimit:10;}
	.st5{fill:#1A3BC6;}
	.st6{fill:#1A57C6;}
	.st7{fill:#FFB000;}
	.st8{fill:#272D3F;}
	.st9{fill:#333D54;}
	.st10{fill:#1A4DC6;}
	.st11{fill:#FFCFC9;}
	.st12{fill:#FAB6AD;}
	.st13{fill:#FFFFFF;}
	.st14{fill:none;stroke:#FFFFFF;stroke-width:6;stroke-miterlimit:10;}
	.st15{fill:#FFFFFF;stroke:#FFFFFF;stroke-width:6;stroke-miterlimit:10;}
</style>
<rect class="st0" width="523" height="300"></rect>
<g>
	
		<ellipse transform="matrix(0.7071 -0.7071 0.7071 0.7071 -29.4744 228.8424)" class="st1" cx="261.5" cy="150" rx="105" ry="128.8"></ellipse>
	<g>
		<g id="CHAIR">
			<path class="st2" d="M216.1,189.1l27.5,29.7c3.1,2.4,4.9,6.2,4.9,10.2v31.2c0,4-3.2,7.2-7.2,7.2l0,0h-35.7"></path>
			<path class="st3" d="M248.5,184.4L248.5,184.4c0,2.6-2.2,4.7-4.7,4.7h-67.9c-7.6,0-13.8-6.1-13.8-13.8v-54c0-5.2,4.2-9.4,9.4-9.4     l0,0h34.9c3.5,0,6.4,2.9,6.4,6.4l0,0v47.5c0,7.6,6.1,13.8,13.8,13.8l0,0h17.3C246.4,179.7,248.5,181.7,248.5,184.4z"></path>
			<path class="st4" d="M248.3,185.7c-0.6,2-2.4,3.4-4.6,3.4h-67.9c-7.6,0-13.8-6.1-13.8-13.8v-54c0-3.5,2-6.7,5.2-8.4     c-1,1.6-1.4,3.2-1.4,5v56c0,6.5,5.3,11.7,11.7,11.7l0,0h70.1C247.7,185.8,248,185.7,248.3,185.7z"></path>
			<path class="st2" d="M213,147.5h12.9c12.5,0,22.6,10.1,22.6,22.6v15.7"></path>
			<path class="st2" d="M186.3,189.1l27.5,29.7c3.1,2.4,4.9,6.2,4.9,10.2v31.2c0,4-3.2,7.2-7.2,7.2l0,0h-35.7"></path>
		</g>
		<g id="RIGHT_HAND">
			<path id="HAND" class="st5" d="M216.7,76.1c0,0,12.9-1.9,20.7,15c6.7,14.8,11.8,28.6,11.8,28.6s10.5,5.9,28,12.1v8.4     c0,0-26.8,1.6-35.7,0c-6.6-1.2-24.8-25.5-26-41.9C214.2,81.8,216.7,76.1,216.7,76.1z"></path>
			<path id="ARM" class="st5" d="M273.7,140.2c-1-0.2-0.2-3.2,0.4-5.2c0.4-1.1,1.1-1.6,2.2-2c2-1,5.5-1.4,7.6-1     c2.9,0.6,4.8,1.9,6.6,4.1c0.5,0.6,3.1,3.5,3.1,4.3L273.7,140.2z"></path>
		</g>
		<path id="TORSO" class="st6" d="M204.4,69.4c-11.1,1.2-32.6,14.7-29,64.2c2.3,31.6,23.1,47.5,25.6,46.4    c2.5-1.1,45.2-22.1,35.3-33.4c-9.4-10.8-6.2-19.1-4.8-33.8c1.4-14.7,3.7-30.5-8.2-36.1C204.1,67.8,207.4,69,204.4,69.4z"></path>
		<path class="st7" d="M266.1,252.9c0.1,3.5-3.1,5.6-3.1,12.7h30.4c0,0,0.5-6-5.6-7.3c-6.1-1.3-11.5-3.2-12.1-5.4H266.1z"></path>
		<g id="PANT">
			<path class="st8" d="M233.4,144.4c0,0,46.4-3,57.6,10.8c11.3,13.8-10.6,68.1-12.9,98.1c0,0-11.1,1.2-15.6,0     c-4.4-1.2-8.4-59.1,2.9-73.2c0,0-41.3,10.3-58.2-2.6C190.4,164.4,226.5,144.6,233.4,144.4z"></path>
		</g>
		<path class="st7" d="M331.9,225c2,2.6,0.8,6.5,5,12.1l24-19.2c0,0-3.1-5-8.8-2.3c-5.6,2.8-11.1,4.8-12.7,3.4L331.9,225z"></path>
		<g id="PANT-2">
			<path class="st9" d="M199.7,178.7c0.7,3.8,38.3,15.1,80.4-12.5c0,0,6.5,36.4,48.9,60.6c0,0,9.4-4.2,11.9-9.7     c0,0-29.9-38.2-40.5-69.2c-4.4-13-60.7-6.2-69-3.5C223.1,147,196.5,161.4,199.7,178.7z"></path>
		</g>
		<path id="HAND-2" class="st10" d="M201.1,82c9.7,3.2,23.3,32,23.3,32s15.3,1.4,38.5,11.2c0,0,0.5,5-2.5,9.1c0,0-25.5,3.2-38.7,1.9    c-4.4-0.5-21.4-13.1-30.8-30.8C182.6,89.8,189.3,78,201.1,82z"></path>
		<g id="ARM-2">
			<path class="st11" d="M262.8,125.3c0,0,6.5-3.4,9.5-2.8c3,0.7,6.6,3.4,7.1,4.2c0.4,0.7,3,4.4,3,5.3c0,0.8-8.5,0.5-9.7,0.5     s-9.1,0.1-10.7-0.2C260.4,131.9,262.8,125.3,262.8,125.3z"></path>
			<path class="st12" d="M272.5,132.5c1.2,0,9.7,0.4,9.7-0.5s-2.6-4.6-3-5.3c-0.4-0.7-4-3.5-7.1-4.2     C272.3,122.5,276,127.7,272.5,132.5"></path>
		</g>
		<path class="st11" d="M213.8,53.6c0.2,1.6-3.1,9.1-9.1,15c-5.3,5.2,17.4,9.1,18,9c0.6-0.1,3.2-8.1,3.7-10S213.8,53.6,213.8,53.6z"></path>
		<path class="st12" d="M226.5,67.7c-0.2,0.8-1.2,3.5-2.2,6.1c-2.5-1.2-5.4-3.6-7.7-8.1c-2.5-4.9-2.2-9.9-2.5-11.2    c0-0.2,0-0.5,0.1-0.7C216.1,55.8,226.9,66,226.5,67.7z"></path>
		<path class="st11" d="M233.4,45.8c1,3.7,1.8,10.1,0.5,13.1c-1.3,3-3.6,8.7-4.4,9c-0.8,0.2-10.7-1-12.9-5.3c-2.3-4.2-2.4-7.8-2.6-9    c-0.2-1.3,5-11.7,11.8-11.4C232.5,42.5,233.1,44.7,233.4,45.8z"></path>
		<path class="st7" d="M237.5,44c-1.8,0.7-0.5,2.9-3.8,3.1c-3.4,0.4-4.2-3.8-4.2-3.8s-0.4,1.7-2,2.3c0,0,1-1.8-0.4-2.5    c-1.3-0.7-2,0.2-2,0.2s-1.1-0.6-1.8,0.8c-0.6,1.3,0.5,2.2,1.9,2.3c0,0,0.1,2-3.1,2.3c-3.2,0.4-3.8-1.7-3.8-1.7s-0.5-0.5-0.7,1    s0.8,3.7-1.3,5.5c-0.8,0.7-1.4,1-1.7,1.1c1.1,1,0.6,4-1.9,5.2c-3.5,1.7-6,0.5-6.4-1.9c-0.2-2.2,1.1-1.3,0.7-3c0,0-2.3,1.7-3.7-0.7    c-1.2-1.9,0.8-3.2,0.8-3.2s-1.4-2-0.2-3.5c1.4-1.7,3.6-0.6,3.2-1.6c-0.4-1-1.2-3.4,0.2-4.7s3.5-0.8,3.8-1.4    c0.4-0.7-0.1-1.8-1.6-1.1c0.1-1,0.6-1.7,1.4-2.3c1.2-0.8,3.1-0.6,4.3-0.2c0.2-1.2,0.7-2.5,2.2-3.1c2.3-1.1,4,0.2,4.8,1.3    c0.2-0.8,1-1.3,1.8-1.4c2.8-0.4,4.9,0.4,5.5,2.5c0.6,2.3,4.6-3,6.5,1.6c0.4,1-0.6,1.7,0.5,2.4c0.6,0.5,1.4-1,0.8-1.4    c0.8,0.4,1.4,1,1.9,1.7C239.6,39.9,240.4,42.8,237.5,44z"></path>
		<path id="CHAIR-2" class="st2" d="M165.7,147.5h15.7c12.5,0,22.6,10.1,22.6,22.6v15.7"></path>
		<path class="st13" d="M340.3,137.8h-89.9c-1.4,0-2.5,1.1-2.5,2.5l0,0l0,0c0,1.4,1.1,2.5,2.5,2.5l0,0h89.9V137.8z"></path>
		<path class="st14" d="M340.3,137.8h-89.9c-1.4,0-2.5,1.1-2.5,2.5l0,0l0,0c0,1.4,1.1,2.5,2.5,2.5l0,0h89.9"></path>
		<path class="st2" d="M301.3,267.1l14.5-121.5c0.5-2.6,4.2-2.6,4.7-0.1l18,121"></path>
		<g id="LAPTOP">
			<path class="st15" d="M261.6,133.1h69.1c1,0,1.7,0.7,1.7,1.7v1.1c0,1-0.7,1.7-1.7,1.7h-69.1c-1,0-1.7-0.7-1.7-1.7v-1.1     C259.9,133.8,260.6,133.1,261.6,133.1z"></path>
			<path class="st15" d="M327.9,133h-50.7c-1.3,0-2.2-1.2-1.7-2.4l14.3-30.4c0.8-1.7,2.6-2.9,4.7-2.9h50.7c1.3,0,2.2,1.2,1.7,2.4     l-14.3,30.4C331.7,131.9,329.9,133,327.9,133z"></path>
		</g>
	</g>
</g>
</svg>
