<?xml version="1.0" encoding="UTF-8"?>
<!-- Generator: Adobe Illustrator 25.2.1, SVG Export Plug-In . SVG Version: 6.00 Build 0)  -->
<svg xmlns="http://www.w3.org/2000/svg" xmlns:xlink="http://www.w3.org/1999/xlink" version="1.1" id="Layer_1" x="0px" y="0px" viewBox="0 0 48 48" style="enable-background:new 0 0 48 48;" xml:space="preserve">
<style type="text/css">
	.st0{fill:#F50000;}
</style>
<g>
	<path class="st0" d="M29.5,42.3c-0.6-1.2-1.7-2.2-3-2.7c0.4-0.6,0.7-1.3,0.7-2c0-1.9-1.5-3.4-3.4-3.4c-1.9,0-3.4,1.5-3.4,3.4   c0,0.8,0.3,1.6,0.8,2.1c-1.2,0.6-2.1,1.5-2.7,2.6c-1.1-1.3-1.8-2.9-1.8-4.8c0-4,3.3-7.3,7.3-7.3c4,0,7.3,3.3,7.3,7.3   C31.3,39.4,30.6,41,29.5,42.3L29.5,42.3z M23.8,39.1c-0.8,0-1.5-0.7-1.5-1.5c0-0.8,0.7-1.5,1.5-1.5c0.8,0,1.5,0.7,1.5,1.5   C25.3,38.4,24.7,39.1,23.8,39.1L23.8,39.1z M20,43.6c0.6-1.6,2.2-2.7,4-2.7c1.8,0,3.4,1.1,4,2.7c-1.2,0.8-2.5,1.2-4,1.2   C22.5,44.8,21.1,44.4,20,43.6L20,43.6z M24,28.4c-5,0-9.1,4.1-9.1,9.1c0,2.9,1.3,5.4,3.4,7.1c0,0,0.1,0.1,0.1,0.1   c1.6,1.2,3.5,1.9,5.6,1.9c2.1,0,4.1-0.7,5.6-1.9c0,0,0.1-0.1,0.1-0.1c2.1-1.7,3.4-4.2,3.4-7.1C33.1,32.5,29,28.4,24,28.4L24,28.4z"></path>
	<path class="st0" d="M1.9,10.4c0-4,3.3-7.3,7.3-7.3c4,0,7.3,3.3,7.3,7.3c0,1.8-0.7,3.5-1.8,4.8c-0.6-1.2-1.7-2.2-3-2.7   c0.4-0.6,0.7-1.3,0.7-2c0-1.9-1.5-3.4-3.4-3.4c-1.9,0-3.4,1.5-3.4,3.4c0,0.8,0.3,1.6,0.8,2.1c-1.2,0.6-2.1,1.5-2.7,2.6   C2.5,13.9,1.9,12.3,1.9,10.4L1.9,10.4z M9,11.9c-0.8,0-1.5-0.7-1.5-1.5c0-0.8,0.7-1.5,1.5-1.5c0.8,0,1.5,0.7,1.5,1.5   C10.5,11.3,9.8,11.9,9,11.9L9,11.9z M5.1,16.5c0.6-1.6,2.2-2.7,4-2.7s3.4,1.1,4,2.7c-1.2,0.8-2.5,1.2-4,1.2   C7.7,17.7,6.3,17.3,5.1,16.5L5.1,16.5z M3.5,17.6c1.6,1.2,3.5,1.9,5.6,1.9c2.1,0,4.1-0.7,5.6-1.9c0,0,0.1-0.1,0.1-0.1   c2.1-1.7,3.4-4.2,3.4-7.1c0-5-4.1-9.1-9.1-9.1c-5,0-9.1,4.1-9.1,9.1c0,2.9,1.3,5.4,3.4,7.1C3.4,17.6,3.5,17.6,3.5,17.6L3.5,17.6z"></path>
	<path class="st0" d="M34.9,16.5c0.6-1.6,2.2-2.7,4-2.7c1.8,0,3.4,1.1,4,2.7c-1.2,0.8-2.5,1.2-4,1.2C37.4,17.7,36,17.3,34.9,16.5   L34.9,16.5z M38.7,11.9c-0.8,0-1.5-0.7-1.5-1.5c0-0.8,0.7-1.5,1.5-1.5c0.8,0,1.5,0.7,1.5,1.5C40.2,11.3,39.5,11.9,38.7,11.9   L38.7,11.9z M31.6,10.4c0-4,3.3-7.3,7.3-7.3c4,0,7.3,3.3,7.3,7.3c0,1.8-0.7,3.5-1.8,4.8c-0.6-1.2-1.7-2.2-3-2.7   c0.4-0.6,0.7-1.3,0.7-2c0-1.9-1.5-3.4-3.4-3.4c-1.9,0-3.4,1.5-3.4,3.4c0,0.8,0.3,1.6,0.8,2.1c-1.2,0.6-2.1,1.5-2.7,2.6   C32.3,13.9,31.6,12.3,31.6,10.4L31.6,10.4z M48,10.4c0-5-4.1-9.1-9.1-9.1c-5,0-9.1,4.1-9.1,9.1c0,2.9,1.3,5.4,3.4,7.1   c0,0,0.1,0.1,0.1,0.1c1.6,1.2,3.5,1.9,5.6,1.9c2.1,0,4.1-0.7,5.6-1.9c0,0,0.1-0.1,0.1-0.1C46.7,15.9,48,13.3,48,10.4L48,10.4z"></path>
	<path class="st0" d="M13.2,33.3C13.2,33.3,13.2,33.3,13.2,33.3c-0.4-0.3-1-0.3-1.3,0.1c-0.3,0.4-0.3,1,0.1,1.3c0,0,0,0,0,0   c0.2,0.1,0.4,0.2,0.6,0.2c0.3,0,0.5-0.1,0.7-0.3C13.7,34.2,13.6,33.7,13.2,33.3L13.2,33.3z"></path>
	<path class="st0" d="M11.4,31.4C11,31,10.5,31,10.1,31.3c-0.4,0.3-0.4,0.9-0.1,1.3l0,0c0.2,0.2,0.5,0.3,0.7,0.3   c0.2,0,0.4-0.1,0.6-0.2C11.7,32.4,11.7,31.8,11.4,31.4C11.4,31.4,11.4,31.4,11.4,31.4L11.4,31.4z"></path>
	<path class="st0" d="M9.9,29.3C9.9,29.3,9.9,29.3,9.9,29.3C9.6,28.8,9,28.7,8.6,29c-0.4,0.3-0.6,0.8-0.3,1.3l0,0   c0.2,0.3,0.5,0.5,0.8,0.5c0.2,0,0.3,0,0.5-0.1C10,30.3,10.1,29.7,9.9,29.3L9.9,29.3z"></path>
	<path class="st0" d="M7.2,25.5c0.5-0.1,0.8-0.6,0.7-1.1c-0.1-0.5-0.6-0.8-1.1-0.7c-0.5,0.1-0.8,0.6-0.7,1.1c0,0,0,0,0,0   c0.1,0.4,0.5,0.7,0.9,0.7C7.1,25.5,7.1,25.5,7.2,25.5L7.2,25.5z"></path>
	<path class="st0" d="M8.7,26.9C8.7,26.9,8.7,26.9,8.7,26.9c-0.2-0.5-0.7-0.7-1.2-0.5C7,26.6,6.8,27.1,7,27.6l0,0   c0.1,0.4,0.5,0.6,0.9,0.6c0.1,0,0.2,0,0.3-0.1C8.7,27.9,8.9,27.4,8.7,26.9L8.7,26.9z"></path>
	<path class="st0" d="M34.8,33.3C34.8,33.3,34.8,33.3,34.8,33.3c-0.4,0.3-0.4,0.9-0.1,1.3c0.2,0.2,0.4,0.3,0.7,0.3   c0.2,0,0.4-0.1,0.6-0.2c0,0,0,0,0,0c0.4-0.3,0.4-0.9,0.1-1.3C35.8,33,35.2,33,34.8,33.3L34.8,33.3z"></path>
	<path class="st0" d="M40.5,26.4c-0.5-0.2-1,0-1.2,0.5c0,0,0,0,0,0c-0.2,0.5,0,1,0.5,1.2c0.1,0,0.2,0.1,0.3,0.1   c0.4,0,0.7-0.2,0.9-0.6C41.2,27.1,41,26.6,40.5,26.4L40.5,26.4z"></path>
	<path class="st0" d="M37.9,31.3c-0.4-0.3-1-0.3-1.3,0.1c0,0,0,0,0,0c-0.3,0.4-0.3,1,0.1,1.3c0.2,0.1,0.4,0.2,0.6,0.2   c0.3,0,0.5-0.1,0.7-0.3C38.4,32.2,38.3,31.6,37.9,31.3L37.9,31.3z"></path>
	<path class="st0" d="M41.2,23.7c-0.5-0.1-1,0.2-1.1,0.7l0,0c-0.1,0.5,0.2,1,0.7,1.1c0.1,0,0.1,0,0.2,0c0.4,0,0.8-0.3,0.9-0.7   c0,0,0,0,0,0C42,24.3,41.7,23.8,41.2,23.7L41.2,23.7z"></path>
	<path class="st0" d="M39.4,29c-0.4-0.3-1-0.1-1.3,0.3c0,0,0,0,0,0c-0.3,0.4-0.1,1,0.3,1.3c0.1,0.1,0.3,0.1,0.5,0.1   c0.3,0,0.6-0.2,0.8-0.5C40,29.8,39.9,29.2,39.4,29L39.4,29z"></path>
	<path class="st0" d="M41.4,20.9c-0.5,0-1,0.4-1,0.9c0,0,0,0,0,0c0,0.5,0.4,1,0.9,1c0,0,0,0,0.1,0c0.5,0,0.9-0.4,0.9-0.9   C42.3,21.4,42,20.9,41.4,20.9L41.4,20.9z"></path>
	<path class="st0" d="M29.2,4.8L29.2,4.8c0.1,0,0.2,0,0.3,0c0.4,0,0.8-0.3,0.9-0.6c0.2-0.5-0.1-1-0.6-1.2l0,0   c-0.5-0.2-1,0.1-1.2,0.6C28.5,4.1,28.8,4.6,29.2,4.8L29.2,4.8z"></path>
	<path class="st0" d="M26.6,4.2c0.1,0,0.1,0,0.2,0c0.5,0,0.8-0.3,0.9-0.8c0.1-0.5-0.3-1-0.8-1.1l0,0c-0.5-0.1-1,0.3-1.1,0.8   C25.8,3.6,26.1,4.1,26.6,4.2L26.6,4.2z"></path>
	<path class="st0" d="M24,4C24,4,24,4,24,4c0.5,0,1-0.4,1-0.9S24.5,2.1,24,2.1l0,0c-0.5,0-0.9,0.4-0.9,1C23,3.6,23.5,4,24,4L24,4z"></path>
	<path class="st0" d="M18.4,4.8c0.1,0,0.2,0,0.3,0c0.5-0.2,0.8-0.7,0.6-1.2c-0.2-0.5-0.7-0.8-1.2-0.6l0,0c-0.5,0.2-0.8,0.7-0.6,1.2   C17.6,4.6,18,4.8,18.4,4.8L18.4,4.8z"></path>
	<path class="st0" d="M21.2,4.2c0,0,0.1,0,0.1,0c0,0,0,0,0,0c0.5-0.1,0.9-0.6,0.8-1.1C22,2.6,21.5,2.3,21,2.4l0.1,0.9L21,2.4   c-0.5,0.1-0.9,0.6-0.8,1.1C20.3,3.9,20.7,4.2,21.2,4.2L21.2,4.2z"></path>
	<path class="st0" d="M6.8,22.7c0.5-0.1,0.8-0.6,0.7-1.1c-0.1-0.5-0.6-0.8-1.1-0.7C5.9,21,5.6,21.5,5.7,22c0,0,0,0,0,0   c0.1,0.4,0.5,0.7,0.9,0.7C6.7,22.7,6.8,22.7,6.8,22.7L6.8,22.7z"></path>
</g>
</svg>
