<?xml version="1.0" encoding="UTF-8"?>
<!-- Generator: Adobe Illustrator 25.2.1, SVG Export Plug-In . SVG Version: 6.00 Build 0)  -->
<svg xmlns="http://www.w3.org/2000/svg" xmlns:xlink="http://www.w3.org/1999/xlink" version="1.1" id="Layer_1" x="0px" y="0px" viewBox="0 0 48 48" style="enable-background:new 0 0 48 48;" xml:space="preserve">
<style type="text/css">
	.st0{fill:#F50000;}
</style>
<g>
	<g>
		<path class="st0" d="M36,46.1V16.3c0-0.4,0.3-0.6,0.6-0.6h4.6c0.4,0,0.6,0.3,0.6,0.6v29.9H36L36,46.1z M21.1,46.1V29.8    c0-0.4,0.3-0.6,0.6-0.6h4.6c0.4,0,0.6,0.3,0.6,0.6v16.3H21.1L21.1,46.1z M6.3,46.1v-8.5c0-0.4,0.3-0.6,0.6-0.6h4.6    c0.4,0,0.6,0.3,0.6,0.6v8.5H6.3L6.3,46.1z M45.8,46.1h-2.1V16.3c0-1.4-1.1-2.5-2.5-2.5h-4.6c-1.4,0-2.5,1.1-2.5,2.5v29.9h-5.2    V29.8c0-1.4-1.1-2.5-2.5-2.5h-4.6c-1.4,0-2.5,1.1-2.5,2.5v16.3H14v-8.5c0-1.4-1.1-2.5-2.5-2.5H6.9c-1.4,0-2.5,1.1-2.5,2.5v8.5H2.2    c-0.5,0-0.9,0.4-0.9,0.9c0,0.5,0.4,0.9,0.9,0.9h43.6c0.5,0,0.9-0.4,0.9-0.9C46.7,46.5,46.3,46.1,45.8,46.1L45.8,46.1z"></path>
		<path class="st0" d="M10.3,26.1c0.2,0,0.5-0.1,0.7-0.3L27.1,9.6l3.5,3.5c0.4,0.4,1,0.4,1.3,0l9.9-9.9v3.2c0,0.5,0.4,0.9,0.9,0.9    c0.5,0,0.9-0.4,0.9-0.9V1c0,0,0,0,0,0c0-0.3-0.1-0.5-0.3-0.7C43.3,0.1,43,0,42.7,0c0,0,0,0,0,0H37c-0.5,0-0.9,0.4-0.9,0.9    c0,0.5,0.4,0.9,0.9,0.9h3.5l-9.3,9.3l-3.5-3.5c-0.2-0.2-0.4-0.3-0.7-0.3c-0.2,0-0.5,0.1-0.7,0.3L9.6,24.5c-0.4,0.4-0.4,1,0,1.3    C9.8,26,10,26.1,10.3,26.1L10.3,26.1z"></path>
	</g>
	<path class="st0" d="M7.1,27.5c0.5,0,0.9,0.4,0.9,0.9c0,0.5-0.4,0.9-0.9,0.9c-0.5,0-0.9-0.4-0.9-0.9C6.2,27.9,6.6,27.5,7.1,27.5   L7.1,27.5z"></path>
</g>
</svg>
