<?xml version="1.0" encoding="UTF-8"?>
<!-- Generator: Adobe Illustrator 25.2.1, SVG Export Plug-In . SVG Version: 6.00 Build 0)  -->
<svg xmlns="http://www.w3.org/2000/svg" xmlns:xlink="http://www.w3.org/1999/xlink" version="1.1" id="Layer_1" x="0px" y="0px" viewBox="0 0 48 48" style="enable-background:new 0 0 48 48;" xml:space="preserve">
<style type="text/css">
	.st0{fill:#F50000;}
</style>
<g>
	<path class="st0" d="M48,6V3.8C48,1.7,46.3,0,44.2,0H3.8C1.7,0,0,1.7,0,3.8V6c0,3.4,1.2,6.8,3.3,9.5c1.8,2.2,4.3,4,7.1,4.9l1.7,0.6   l0.1,0.2c1.7,2.8,4.4,4.9,7.6,5.9l0.4,0.1v2.6c0,1.1-0.9,1.9-1.9,1.9c-2.1,0-3.8,1.7-3.8,3.8v1.9h-1.9c-0.5,0-0.9,0.4-0.9,0.9v7.8   H9.6c-0.5,0-0.9,0.4-0.9,0.9c0,0.5,0.4,0.9,0.9,0.9h28.7c0.5,0,0.9-0.4,0.9-0.9c0-0.5-0.4-0.9-0.9-0.9h-1.9v-7.8   c0-0.5-0.4-0.9-0.9-0.9h-1.9v-1.9c0-2.1-1.7-3.8-3.8-3.8c-1.1,0-1.9-0.9-1.9-1.9v-2.6l0.4-0.1c3.2-1,5.8-3.1,7.6-5.9l0.1-0.2   l1.8-0.6c2.8-0.9,5.2-2.6,7.1-4.9C46.8,12.8,48,9.4,48,6z M10.1,18.2c-2.1-0.9-3.9-2.2-5.3-3.9C2.9,11.9,1.9,9,1.9,6V3.8   c0-1.1,0.9-1.9,1.9-1.9h5l1.5,13.6c0.1,0.7,0.2,1.5,0.4,2.2l0.3,1L10.1,18.2z M34.6,39.3v6.9H13.4v-6.9H34.6z M26.7,25.5   c-0.4,0.1-0.7,0.5-0.7,0.9v3.3c0,2.1,1.7,3.8,3.8,3.8c1.1,0,1.9,0.9,1.9,1.9v1.9H16.3v-1.9c0-1.1,0.9-1.9,1.9-1.9   c2.1,0,3.8-1.7,3.8-3.8v-3.3c0-0.4-0.3-0.8-0.7-0.9c-4.9-1.1-8.6-5.3-9.2-10.3L10.7,1.9h26.7l-1.5,13.4   C35.3,20.3,31.6,24.4,26.7,25.5z M37.9,18.3l-1,0.4l0.3-1c0.2-0.7,0.4-1.5,0.4-2.2l1.5-13.6h5c1.1,0,1.9,0.9,1.9,1.9V6   c0,3-1,6-2.9,8.3C41.8,16.1,40,17.4,37.9,18.3z"></path>
	<path class="st0" d="M27.9,13.8l2.5-2.4c0.3-0.2,0.4-0.6,0.2-1c-0.1-0.3-0.4-0.6-0.8-0.6l-3.5-0.5l-1.6-3.1c-0.3-0.6-1.3-0.6-1.7,0   l-1.6,3.1l-3.5,0.5c-0.3,0-0.6,0.3-0.8,0.6c-0.1,0.3,0,0.7,0.2,1l2.5,2.4l-0.6,3.4c-0.1,0.3,0.1,0.7,0.4,0.9c0.3,0.2,0.7,0.2,1,0.1   l3.1-1.6l3.1,1.6c0.3,0.2,0.7,0.1,1-0.1c0.3-0.2,0.4-0.6,0.4-0.9L27.9,13.8z M26.2,12.8C26,13,25.9,13.3,26,13.6l0.4,2l-1.9-1   c-0.3-0.1-0.6-0.1-0.8,0l-1.9,1l0.4-2c0.1-0.3,0-0.6-0.3-0.8l-1.5-1.4l2.1-0.3c0.3,0,0.6-0.2,0.7-0.5L24,8.7l0.9,1.9   c0.1,0.3,0.4,0.5,0.7,0.5l2.1,0.3L26.2,12.8z"></path>
</g>
</svg>
