<?xml version="1.0" encoding="UTF-8"?>
<!-- Generator: Adobe Illustrator 25.2.1, SVG Export Plug-In . SVG Version: 6.00 Build 0)  -->
<svg xmlns="http://www.w3.org/2000/svg" xmlns:xlink="http://www.w3.org/1999/xlink" version="1.1" id="Слой_1" x="0px" y="0px" viewBox="0 0 405.4 73.7" style="enable-background:new 0 0 405.4 73.7;" xml:space="preserve">
<style type="text/css">
	.st0{fill-rule:evenodd;clip-rule:evenodd;fill:#2787F5;}
	.st1{fill-rule:evenodd;clip-rule:evenodd;fill:#FFFFFF;}
	.st2{fill-rule:evenodd;clip-rule:evenodd;}
</style>
<g>
	<path class="st0" d="M0,35.7C0,18.9,0,10.5,5.2,5.2C10.5,0,18.9,0,35.7,0H38c16.8,0,25.2,0,30.5,5.2c5.2,5.2,5.2,13.6,5.2,30.5V38   c0,16.8,0,25.2-5.2,30.5c-5.2,5.2-13.6,5.2-30.5,5.2h-2.3c-16.8,0-25.2,0-30.5-5.2C0,63.2,0,54.8,0,38V35.7z"></path>
	<path class="st1" d="M60.8,25c0.4-1.2,0-2-1.7-2h-5.5c-1.4,0-2,0.7-2.4,1.6c0,0-2.8,6.8-6.8,11.3c-1.3,1.3-1.9,1.7-2.6,1.7   c-0.3,0-0.8-0.4-0.8-1.6V25c0-1.4-0.4-2-1.6-2h-8.7c-0.9,0-1.4,0.6-1.4,1.3c0,1.3,2,1.6,2.2,5.4v8.1c0,1.8-0.3,2.1-1,2.1   c-1.9,0-6.4-6.9-9.1-14.7c-0.5-1.5-1.1-2.1-2.5-2.1h-5.5c-1.6,0-1.9,0.7-1.9,1.6c0,1.5,1.9,8.7,8.7,18.3C24.8,49.4,31.2,53,37,53   c3.5,0,3.9-0.8,3.9-2.1v-4.9c0-1.6,0.3-1.9,1.4-1.9c0.8,0,2.2,0.4,5.5,3.6c3.7,3.7,4.4,5.4,6.5,5.4h5.5c1.6,0,2.4-0.8,1.9-2.3   c-0.5-1.5-2.3-3.8-4.7-6.5c-1.3-1.5-3.2-3.2-3.8-4c-0.8-1.1-0.6-1.5,0-2.5C53.4,37.7,60.1,28.3,60.8,25L60.8,25z"></path>
	<path class="st2" d="M125.8,36.2c2.8-1.3,4.6-3.5,4.6-6.8c0-5.1-4.7-8.7-11.4-8.7h-15.4V53h16.1c6.9,0,11.8-3.8,11.8-8.9   C131.5,40.4,129.2,37.3,125.8,36.2L125.8,36.2z M110.7,26.6h8.3c2.5,0,4.2,1.5,4.2,3.5c0,2-1.7,3.5-4.2,3.5h-8.3V26.6L110.7,26.6z    M119.7,47.1h-9v-7.9h9c2.8,0,4.7,1.6,4.7,4C124.4,45.5,122.5,47.1,119.7,47.1L119.7,47.1z M158,53h9.4l-14.8-16.8l13.6-15.5h-8.5   l-10.8,12.5h-1.7V20.7H138V53h7.1V40.1h1.7L158,53L158,53z M185.6,53.6c10.1,0,17.2-7,17.2-16.8c0-9.8-7.1-16.8-17.2-16.8   s-17.2,7-17.2,16.8C168.4,46.6,175.5,53.6,185.6,53.6L185.6,53.6z M185.6,47.1c-5.8,0-9.8-4.1-9.8-10.2c0-6.1,4-10.2,9.8-10.2   c5.8,0,9.8,4.2,9.8,10.2C195.4,42.9,191.5,47.1,185.6,47.1L185.6,47.1z M230.7,20.7v12.7h-14.4V20.7h-7.1V53h7.1v-13h14.4v13h7.1   V20.7H230.7L230.7,20.7z M253.9,53h7.1V27.2h11.2v-6.5h-29.5v6.5h11.2V53L253.9,53z M289.1,20.1c-6.3,0-11.8,3.2-13.4,8.8l6.6,1.1   c1-2,3.2-3.8,6.5-3.8c3.9,0,6.2,2.8,6.5,7h-6.9c-9.5,0-14.2,4.1-14.2,10.1c0,6,4.7,10.3,11.2,10.3c5.3,0,8.8-3,10.4-5.7l1.5,5.1   h5.3V34.8C302.4,25.5,297.3,20.1,289.1,20.1L289.1,20.1z M287,47.6c-3.5,0-5.7-1.8-5.7-4.6c0-2.5,1.8-4.2,7.3-4.2h6.8   C295.3,44,291.9,47.6,287,47.6L287,47.6z M330.2,53h9.4l-14.8-16.8l13.6-15.5h-8.5L319,33.2h-1.7V20.7h-7.1V53h7.1V40.1h1.7   L330.2,53L330.2,53z M351.7,53h7.1V27.2H370v-6.5h-29.5v6.5h11.2V53L351.7,53z M405.4,36.5c0-9.3-7-16.4-16.8-16.4   c-9.8,0-16.8,7-16.8,16.8c0,9.7,6.9,16.8,16.8,16.8c6.7,0,13-3.2,15.4-9.3l-6.7-1.1c-1.5,2.3-4.5,3.9-8.3,3.9   c-5.5,0-9.1-3.4-9.7-8.3h25.9C405.3,38.1,405.4,37.3,405.4,36.5L405.4,36.5z M388.6,26.3c4.5,0,7.8,2.9,9,6.9h-17.9   C380.9,29,384.3,26.3,388.6,26.3L388.6,26.3z"></path>
</g>
</svg>
