<?xml version="1.0" encoding="UTF-8"?>
<!-- Generator: Adobe Illustrator 25.2.1, SVG Export Plug-In . SVG Version: 6.00 Build 0)  -->
<svg xmlns="http://www.w3.org/2000/svg" xmlns:xlink="http://www.w3.org/1999/xlink" version="1.1" id="Слой_1" x="0px" y="0px" viewBox="0 0 368.5 107.7" style="enable-background:new 0 0 368.5 107.7;" xml:space="preserve">
<style type="text/css">
	.st0{fill-rule:evenodd;clip-rule:evenodd;}
	.st1{fill-rule:evenodd;clip-rule:evenodd;fill:#FC3F1D;}
</style>
<g>
	<path class="st0" d="M351.5,93.4c7.2,0,12.4-1.3,16.2-4.1V76.5c-3.9,2.7-8.7,4.4-15.3,4.4c-11.2,0-15.8-8.7-15.8-22.4   c0-14.4,5.6-21.7,15.9-21.7c6,0,12,2.1,15.1,4.1V27.7c-3.3-1.8-9.1-3.1-16.9-3.1c-20,0-30.4,14.4-30.4,34.5   C320.4,81.1,330.5,93.4,351.5,93.4L351.5,93.4z M253.5,87.6V74.8c-4.8,3.3-13.1,6.2-20.6,6.2c-11.5,0-15.8-5.4-16.5-16.5h37.9v-8.3   c0-23.1-10.2-31.7-25.8-31.7c-19.1,0-28.2,14.6-28.2,34.6c0,23.1,11.4,34.2,31.3,34.2C241.5,93.4,248.9,90.7,253.5,87.6L253.5,87.6   z M109.8,25.8v26.2H88.9V25.8H73.2v66.4h15.7V64.4h20.9v27.7h15.7V25.8H109.8L109.8,25.8z M196.3,79.6h-6.9V25.8h-45.7v5.6   c0,16.2-1,37.2-6.5,48.2h-5v27.6h14.5V92.1h35.1v15.1h14.5V79.6H196.3L196.3,79.6z M303.6,92.1l-23.2-32.6v32.6h-15.7V25.8h15.7   v30.6l22.2-30.6h15.8l-22.2,30.6l25.2,35.7H303.6L303.6,92.1z M228,36.8c7.8,0,10.2,6.4,10.2,14.8V53h-21.8   C216.8,42.4,220.6,36.8,228,36.8L228,36.8z M173.7,79.6h-22.2c4.3-10,5.5-28.1,5.5-39.6v-2l16.6,0V79.6z"></path>
	<path class="st1" d="M60.1,92.1h-16V12.9h-7.1C23.9,12.9,17,19.4,17,29.2c0,11.1,4.7,16.2,14.5,22.8l8.1,5.4L16.4,92.1H-0.8   l20.8-31C8,52.5,1.3,44.2,1.3,30.1c0-17.6,12.3-29.6,35.5-29.6H60v91.6H60.1z"></path>
</g>
</svg>
