<?xml version="1.0" encoding="utf-8"?>
<!-- Generator: Adobe Illustrator 25.2.1, SVG Export Plug-In . SVG Version: 6.00 Build 0)  -->
<svg version="1.1" id="Layer_1" xmlns="http://www.w3.org/2000/svg" xmlns:xlink="http://www.w3.org/1999/xlink" x="0px" y="0px"
	 viewBox="0 0 300 150" style="enable-background:new 0 0 300 150;" xml:space="preserve">
<style type="text/css">
	.st0{fill-rule:evenodd;clip-rule:evenodd;fill:#2F5A7D;}
	.st1{fill-rule:evenodd;clip-rule:evenodd;fill:#0CBCB3;}
	.st2{fill:#2F5A7D;}
</style>
<g>
	<path class="st0" d="M113.2,75c0,19.3-15.6,35-34.8,35c-19.2,0-34.8-15.7-34.8-35s15.6-35,34.8-35C97.6,40,113.2,55.7,113.2,75z
		 M88.2,78c0,7.3-5.9,13.1-13.1,13.1S62,85.2,62,78c0-7.3,5.9-13.1,13.1-13.1S88.2,70.7,88.2,78z"/>
	<path class="st1" d="M110.5,68.7c0,14.5-11.7,26.3-26.2,26.3c-14.5,0-26.2-11.8-26.2-26.3c0-14.5,11.7-26.3,26.2-26.3
		C98.8,42.4,110.5,54.2,110.5,68.7z M88.2,78c0,7.3-5.9,13.1-13.1,13.1C67.8,91.1,62,85.2,62,78s5.9-13.1,13.1-13.1
		C82.3,64.8,88.2,70.7,88.2,78z"/>
	<path class="st2" d="M173.2,65.7c1.4,1.9,2.2,4.2,2.2,6.8c0,3.9-1.6,7-4.9,9.2c-3.2,2.2-8.6,3.2-14.7,3.2h-25.1V40h23.9
		c5.9,0,11.2,1.1,14.2,3.2c3,2.1,4.6,5,4.6,8.5c0,2.1-0.5,4-1.5,5.6c-1.1,1.6-3.3,3-5.3,4C169,62.4,171.8,63.8,173.2,65.7z
		 M145.5,50.6v6.7h7c3.3,0,4.9-1.1,4.9-3.3c0-2.2-1.6-3.3-4.9-3.3H145.5L145.5,50.6z M159.5,70.7c0-2.3-1.6-3.5-5-3.5h-9.1v7.1h9.1
		C157.9,74.3,159.5,73.1,159.5,70.7z"/>
	<path class="st2" d="M180.6,40h15v44.8h-15V40z"/>
	<path class="st2" d="M242.7,84.8l-0.1-20.4l-9.6,20.4h-6.7l-9.7-19.7v19.7h-13.7V40h12.4l14.6,23.9L243.9,40h12.4l0.1,44.8H242.7z"
		/>
	<path class="st2" d="M144.3,104.9h-8.8l-1.8,4.1h-2.5l7.5-16.6h2.4l7.5,16.6h-2.5L144.3,104.9z M143.4,103l-3.6-8.1l-3.6,8.1H143.4
		z"/>
	<path class="st2" d="M153.8,108.1c-11.3-6.8,1.8-22.2,10.8-13.2l-1.5,1.5c-3.7-4.1-11.5-1.3-11.2,4.4c-0.3,5.7,7.5,8.5,11.2,4.4
		l1.5,1.5C162,109.6,157.1,110,153.8,108.1z"/>
	<path class="st2" d="M178.1,104.9h-8.8l-1.8,4.1H165l7.5-16.6h2.4l7.5,16.6h-2.5L178.1,104.9z M177.3,103l-3.6-8.1l-3.6,8.1H177.3z
		"/>
	<path class="st2" d="M184.9,92.5c6.3-0.4,16.2-0.4,16,8.3c0.3,8.7-9.7,8.7-16,8.3V92.5z M191.7,107c8.8,0.6,8.8-13,0-12.4h-4.5V107
		H191.7z"/>
	<path class="st2" d="M216.5,107v2h-12V92.4h11.7v2h-9.3v5.1h8.3v2h-8.3v5.3L216.5,107L216.5,107z"/>
	<path class="st2" d="M235.7,109V97l-6,12.1h-1.1l-6-12v12h-2.3V92.5h1.9l6.9,14l6.8-14h1.9V109H235.7L235.7,109z"/>
	<path class="st2" d="M249.3,103.3v5.7H247v-5.8l-6.6-10.8h2.6l5.3,8.7l5.3-8.7h2.4L249.3,103.3z"/>
</g>
</svg>
