<?xml version="1.0" encoding="utf-8"?>
<!-- Generator: Adobe Illustrator 25.2.1, SVG Export Plug-In . SVG Version: 6.00 Build 0)  -->
<svg version="1.1" id="Слой_1" xmlns="http://www.w3.org/2000/svg" xmlns:xlink="http://www.w3.org/1999/xlink" x="0px" y="0px"
	 viewBox="0 0 300 150" style="enable-background:new 0 0 300 150;" xml:space="preserve">
<style type="text/css">
	.st0{fill-rule:evenodd;clip-rule:evenodd;fill:#2E2382;}
</style>
<g>
	<g>
		<g>
			<g>
				<path class="st0" d="M247.5,45.7c0-0.2-0.1-0.4-0.2-0.5c-0.1-0.1-0.3-0.2-0.5-0.2h-63.2c-0.1,0-0.2,0-0.3,0.1
					c-0.1,0.1-0.2,0.1-0.3,0.2l-30.5,42.1H152V45.7c0-0.2-0.1-0.4-0.2-0.5c-0.1-0.1-0.3-0.2-0.5-0.2H97.2c-0.1,0-0.2,0-0.3,0.1
					c-0.1,0.1-0.2,0.1-0.3,0.2L66.1,87.4h-0.4V45.7c0-0.2-0.1-0.4-0.2-0.5C65.4,45.1,65.2,45,65,45H53.3c-0.2,0-0.4,0.1-0.5,0.2
					c-0.1,0.1-0.2,0.3-0.2,0.5v58.5c0,0.2,0.1,0.4,0.2,0.5c0.1,0.1,0.3,0.2,0.5,0.2h19c0.1,0,0.2,0,0.3-0.1c0.1,0,0.2-0.1,0.3-0.2
					l24.7-34h0.4v33.6c0,0.2,0.1,0.4,0.2,0.5c0.1,0.1,0.3,0.2,0.5,0.2h11.7c0.2,0,0.4-0.1,0.5-0.2c0.1-0.1,0.2-0.3,0.2-0.5V58.2
					h27.8v46.1c0,0.2,0.1,0.4,0.2,0.5c0.1,0.1,0.3,0.2,0.5,0.2h19c0.1,0,0.2,0,0.3-0.1c0.1,0,0.2-0.1,0.3-0.2l33.7-46.5h0.4v22
					h-11.9c-0.1,0-0.2,0-0.3,0.1c-0.1,0.1-0.2,0.1-0.3,0.2l-8.5,11.7c-0.1,0.2-0.1,0.3-0.1,0.5c0,0.2,0.1,0.3,0.2,0.5
					c0.1,0.1,0.3,0.2,0.5,0.2h20.3v11c0,0.2,0.1,0.4,0.2,0.5c0.1,0.1,0.3,0.2,0.5,0.2h11.7c0.2,0,0.4-0.1,0.5-0.2
					c0.1-0.1,0.2-0.3,0.2-0.5V58.2h27.8v46.1c0,0.2,0.1,0.4,0.2,0.5c0.1,0.1,0.3,0.2,0.5,0.2h11.7c0.2,0,0.4-0.1,0.5-0.2
					c0.1-0.1,0.2-0.3,0.2-0.5V45.7z"/>
			</g>
		</g>
	</g>
</g>
</svg>
