<?xml version="1.0" encoding="utf-8"?>
<!-- Generator: Adobe Illustrator 25.2.1, SVG Export Plug-In . SVG Version: 6.00 Build 0)  -->
<svg version="1.1" id="Layer_1" xmlns="http://www.w3.org/2000/svg" xmlns:xlink="http://www.w3.org/1999/xlink" x="0px" y="0px"
	 viewBox="0 0 300 150" style="enable-background:new 0 0 300 150;" xml:space="preserve">
<style type="text/css">
	.st0{fill:#6F2570;}
	.st1{fill:#622366;}
</style>
<g>
	<g transform="matrix( 1, 0, 0, 1, 0,0) ">
		<g>
			<g>
				<path class="st0" d="M102.8,42.5c1-1,2-1.8,3.1-2.5H61c-0.9,0-1.7,0.1-2.6,0.2c-3.5,0.5-6.6,2.1-9.2,4.7
					c-3.3,3.2-4.9,7.2-4.9,11.8c0,1.2,0.1,2.4,0.4,3.5c0.6,3.1,2.1,5.9,4.5,8.3c2.6,2.6,5.7,4.2,9.3,4.7c0.8,0.1,1.6,0.2,2.5,0.2
					h2.5v20c0,0.9,0.1,1.8,0.2,2.6c0.5,3.5,2.1,6.6,4.7,9.2c3.2,3.3,7.2,4.9,11.8,4.9c1.2,0,2.4-0.1,3.5-0.4
					c3.1-0.6,5.9-2.1,8.3-4.5c2.6-2.6,4.2-5.7,4.7-9.3c0.1-0.8,0.2-1.6,0.2-2.5v-20h8.9c-1-0.7-2-1.6-3-2.5c-2.9-2.9-4.7-6.2-5.5-10
					c-0.2-1.1-0.4-2.2-0.4-3.4c0-0.1,0-0.1,0-0.2c0-0.1,0-0.1,0-0.2v-0.9C97,50.8,99,46.3,102.8,42.5 M102.1,76.7
					c-0.1,0-0.1,0-0.2,0c-0.4,0.1-0.8,0.3-1.1,0.6c-0.4,0.4-0.6,0.8-0.6,1.4v15.9l0-0.4c0,1.2-0.2,2.3-0.4,3.4
					c-0.8,3.8-2.6,7.1-5.5,10c-1,0.9-2,1.8-3,2.5H132c0.9,0,1.7-0.1,2.5-0.2c3.5-0.5,6.6-2.1,9.3-4.7c2.4-2.4,3.9-5.2,4.5-8.3
					c0.2-1.1,0.4-2.3,0.4-3.5c0-4.6-1.6-8.5-4.9-11.8c-2.6-2.6-5.7-4.2-9.2-4.7c-0.8-0.1-1.7-0.2-2.6-0.2H102.1 M152.7,41.9
					c0-0.1,0-0.1,0-0.2c-0.1-0.4-0.3-0.8-0.6-1.1c-0.4-0.4-0.8-0.6-1.4-0.6h-34.2c0,0-0.1,0-0.1,0c-0.7,0-1.4,0.1-2.1,0.2
					c-3.5,0.5-6.6,2.1-9.2,4.7c-3.3,3.2-4.9,7.2-4.9,11.8c0,1.2,0.1,2.4,0.3,3.5c0.6,3.1,2.1,5.9,4.5,8.3c2.6,2.6,5.7,4.2,9.3,4.7
					c0.7,0.1,1.3,0.1,2,0.2h34.4c0.1,0,0.1,0,0.2,0c0.4-0.1,0.8-0.3,1.1-0.6c0.4-0.4,0.6-0.8,0.6-1.4V41.9z"/>
			</g>
		</g>
	</g>
	<g id="_____2_2_">
		<g transform="matrix( 1, 0, 0, 1, 0,0) ">
			<g>
				<g>
					<path class="st1" d="M63.5,73.3v5.6l25-4.6v-1H63.5z"/>
				</g>
			</g>
		</g>
	</g>
	<g>
		<g>
			<path class="st0" d="M215.8,80.6c0,0.6-0.5,1.1-1.1,1.1c-0.3,0-0.6-0.1-0.8-0.3l-1-1c-1.1,0.9-2.1,1.3-3.4,1.3
				c-2.2,0-3.7-1.3-3.7-3.1c0-1.2,0.6-2,2.2-3.3c-0.7-0.8-1-1.5-1-2.4c0-1.6,1.1-2.7,2.8-2.7c1.6,0,2.7,1,2.7,2.4
				c0,1-0.5,1.8-1.6,2.8l1.8,1.9c0.3-0.4,0.5-0.8,0.8-1.2c0.3-0.4,0.6-0.6,1-0.6c0.6,0,1,0.5,1,1c0,0.3-0.1,0.5-0.4,0.9
				c-0.3,0.5-0.6,0.9-0.9,1.3l1,1.1C215.7,80,215.8,80.3,215.8,80.6z M211.6,78.8l-2.1-2.2c-1,0.8-1.3,1.1-1.3,1.7
				c0,0.8,0.6,1.3,1.5,1.3C210.4,79.7,211,79.4,211.6,78.8z M209.3,72.8c0,0.4,0.2,0.8,0.6,1.2c0.7-0.5,0.9-0.8,0.9-1.3
				c0-0.5-0.3-0.7-0.7-0.7C209.6,72.1,209.3,72.4,209.3,72.8z"/>
		</g>
		<g>
			<path class="st0" d="M173.1,62.4v-14h-4.2c-1.5,0-2.6-1.1-2.6-2.5c0-1.4,1.1-2.5,2.6-2.5h14c1.5,0,2.6,1.1,2.6,2.5
				c0,1.5-1.1,2.5-2.6,2.5h-4.2v14c0,1.6-1.2,2.8-2.8,2.8C174.3,65.2,173.1,64,173.1,62.4z"/>
			<path class="st0" d="M200.7,55.9L200.7,55.9c0,1.7-1.2,2.8-2.9,2.8h-7.8c0.6,1.2,1.8,1.9,3.6,1.9c0.9,0,2-0.2,2.8-0.6
				c0.4-0.2,0.7-0.3,1-0.3c1.2,0,2.2,0.9,2.2,2.2c0,0.9-0.4,1.6-1.4,2.2c-1.4,0.8-3.1,1.2-4.9,1.2c-5.3,0-9.2-3.6-9.2-8.5
				c0-4.9,3.7-8.5,8.6-8.5C197.3,48.2,200.7,51.4,200.7,55.9z M189.7,55h5.6c-0.1-1.4-1.2-2.4-2.7-2.4
				C191.2,52.6,190.2,53.5,189.7,55z"/>
			<path class="st0" d="M218.1,55.4v7c0,1.6-1.1,2.8-2.7,2.8c-1.1,0-2.1-0.6-2.5-1.6c-1.1,1-2.7,1.6-4.6,1.6c-3.4,0-5.6-2-5.6-5
				c0-3.1,2.4-4.9,6.4-4.9h3.4v-0.3c0-1.3-0.9-2.1-2.5-2.1c-0.9,0-1.7,0.3-2.6,0.8c-0.7,0.4-1,0.6-1.5,0.6c-1.3,0-2.3-1-2.3-2.3
				c0-0.8,0.4-1.6,1.2-2.2c1.4-1.1,3.5-1.7,5.8-1.7C215.4,48.2,218.1,50.8,218.1,55.4z M212.5,58.9v-0.1h-2.6
				c-0.9,0-1.5,0.5-1.5,1.2c0,0.8,0.6,1.3,1.7,1.3C211.5,61.3,212.5,60.3,212.5,58.9z"/>
			<path class="st0" d="M220.8,56.7c0-4.8,3.9-8.5,8.9-8.5c2.6,0,5.3,1.3,6.5,3.1c0.4,0.6,0.5,1,0.5,1.5c0,1.4-1.1,2.5-2.5,2.5
				c-0.8,0-1.5-0.3-1.9-0.8c-0.6-0.8-1.5-1.1-2.6-1.1c-2,0-3.2,1.3-3.2,3.4c0,2.1,1.3,3.4,3.2,3.4c1,0,1.9-0.4,2.6-1.1
				c0.6-0.6,1.1-0.8,1.9-0.8c1.4,0,2.5,1.1,2.5,2.5c0,0.5-0.1,0.9-0.4,1.4c-1.4,2.1-3.8,3.2-6.6,3.2
				C224.7,65.2,220.8,61.5,220.8,56.7z"/>
			<path class="st0" d="M255.6,54.8v7.6c0,1.6-1.2,2.8-2.8,2.8S250,64,250,62.4v-6.8c0-1.4-1-2.4-2.4-2.4c-1.4,0-2.3,1-2.3,2.4v6.8
				c0,1.6-1.2,2.8-2.8,2.8c-1.6,0-2.8-1.2-2.8-2.8V42.8c0-1.6,1.2-2.8,2.8-2.8c1.6,0,2.8,1.2,2.8,2.8v6.9c1.1-1,2.6-1.5,4.2-1.5
				C253.2,48.2,255.6,50.8,255.6,54.8z"/>
		</g>
		<g>
			<path class="st0" d="M167.4,101.7c-0.7-0.7-1.1-1.4-1.1-2.3c0-1.5,1.2-2.5,2.5-2.5c0.4,0,0.9,0.1,1.3,0.4
				c0.5,0.3,1.9,1.8,4.1,1.8c1.5,0,2.2-0.5,2.2-1.6c0-1-0.7-1.3-2.2-2l-2.2-1c-3.4-1.5-5.4-3.5-5.4-6.5c0-3.8,3.3-6.4,7.5-6.4
				c3.8,0,5.6,1.9,6.1,2.5c0.5,0.6,0.7,1.1,0.7,1.7c0,1.4-1.3,2.5-2.5,2.5c-0.5,0-0.9-0.1-1.4-0.5c-0.7-0.5-1.3-1.2-2.8-1.2
				c-1.1,0-1.9,0.4-1.9,1.4c0,0.8,0.5,1.2,1.9,1.8l2.5,1c3.6,1.5,5.5,3.3,5.5,6.5c0,4.2-3.5,6.7-7.9,6.7
				C171.8,104.1,168.9,103.2,167.4,101.7z"/>
			<path class="st0" d="M196.6,101.4c0,1-0.5,1.8-1.2,2.2c-0.7,0.4-1.4,0.6-2.4,0.6c-4.7,0-7.2-2.3-7.2-6.6v-5.4h-0.5
				c-1.3,0-2.3-1-2.3-2.3c0-1.4,1-2.3,2.3-2.3h0.5V86c0-1.6,1.2-2.8,2.8-2.8c1.6,0,2.8,1.2,2.8,2.8v1.5h2.3c1.4,0,2.3,1,2.3,2.3
				c0,1.3-1,2.3-2.3,2.3h-2.3V97c0,1.6,0.8,2.2,2.6,2.2h0.1C195.6,99.1,196.6,100,196.6,101.4z"/>
			<path class="st0" d="M199,96.1v-6.3c0-1.6,1.2-2.8,2.8-2.8c1.6,0,2.8,1.2,2.8,2.8v6.7c0,1.4,1,2.4,2.4,2.4c1.4,0,2.3-1,2.3-2.4
				v-6.7c0-1.6,1.2-2.8,2.8-2.8c1.6,0,2.8,1.2,2.8,2.8v6.3c0,4.7-3.3,8-8,8C202.2,104.1,199,100.9,199,96.1z"/>
			<path class="st0" d="M235.2,81.7v19.6c0,1.6-1.1,2.8-2.7,2.8c-1.2,0-2.2-0.8-2.6-1.9c-1,1.2-2.5,1.9-4.5,1.9
				c-4.6,0-7.8-3.5-7.8-8.5c0-5,3.3-8.6,7.8-8.6c1.8,0,3.2,0.5,4.2,1.5v-6.8c0-1.6,1.2-2.8,2.8-2.8C234,78.9,235.2,80.1,235.2,81.7z
				 M229.7,95.6c0-2.1-1.3-3.5-3.2-3.5s-3.2,1.4-3.2,3.5c0,2.1,1.3,3.5,3.2,3.5S229.7,97.6,229.7,95.6z"/>
			<path class="st0" d="M255.1,89.7c0,0.4-0.1,0.8-0.4,1.3l-6.8,13.5c-1.9,3.8-4,5.4-7.1,5.4c-0.9,0-1.7-0.2-2.3-0.5
				c-0.8-0.4-1.2-1.2-1.2-2.1c0-1.4,1.1-2.4,2.5-2.4h0.1c1.3,0,2.1-0.4,2.7-1.7l0.5-1L238,91.1c-0.3-0.5-0.4-0.9-0.4-1.3
				c0-1.5,1.2-2.7,2.7-2.7c1.1,0,2,0.6,2.4,1.6l3.6,8l3.7-8c0.4-0.9,1.4-1.6,2.4-1.6C253.9,87,255.1,88.3,255.1,89.7z"/>
		</g>
	</g>
</g>
</svg>
