<?xml version="1.0" encoding="utf-8"?>
<!-- Generator: Adobe Illustrator 25.2.1, SVG Export Plug-In . SVG Version: 6.00 Build 0)  -->
<svg version="1.1" id="Layer_1" xmlns="http://www.w3.org/2000/svg" xmlns:xlink="http://www.w3.org/1999/xlink" x="0px" y="0px"
	 viewBox="0 0 48 48" style="enable-background:new 0 0 48 48;" xml:space="preserve">
<style type="text/css">
	.st0{fill:#F50000;}
</style>
<g>
	<path class="st0" d="M34.2,17.2l-12,12.1l-6.4-6.4c-0.3-0.3-0.7-0.5-1.2-0.5c0,0,0,0,0,0c-0.4,0-0.8,0.2-1.2,0.5
		c-0.3,0.3-0.5,0.7-0.5,1.2c0,0.4,0.2,0.8,0.5,1.2l7.5,7.5c0.3,0.3,0.7,0.5,1.1,0.5c0,0,0.1,0,0.1,0c0.5,0,0.9-0.2,1.1-0.5
		l13.2-13.2c0.6-0.6,0.6-1.7,0-2.3C35.9,16.6,34.8,16.6,34.2,17.2z"/>
	<path class="st0" d="M24,0C10.8,0,0,10.8,0,24s10.8,24,24,24s24-10.8,24-24S37.2,0,24,0z M24,45.3C12.3,45.3,2.7,35.7,2.7,24
		C2.7,12.3,12.3,2.7,24,2.7c11.7,0,21.3,9.5,21.3,21.3C45.3,35.7,35.7,45.3,24,45.3z"/>
</g>
</svg>
